%TF.GenerationSoftware,KiCad,Pcbnew,7.0.5*%
%TF.CreationDate,2023-08-22T12:35:02+01:00*%
%TF.ProjectId,PANELTEST141,50414e45-4c54-4455-9354-3134312e6b69,00.00*%
%TF.SameCoordinates,PX27b9fb5PYc4a79ca*%
%TF.FileFunction,Paste,Top*%
%TF.FilePolarity,Positive*%
%FSLAX46Y46*%
G04 Gerber Fmt 4.6, Leading zero omitted, Abs format (unit mm)*
G04 Created by KiCad (PCBNEW 7.0.5) date 2023-08-22 12:35:02*
%MOMM*%
%LPD*%
G01*
G04 APERTURE LIST*
%ADD10R,0.460000X0.420000*%
%ADD11R,1.475000X0.600000*%
%ADD12R,0.600000X1.475000*%
%ADD13R,0.508000X0.508000*%
%ADD14R,0.300000X0.700000*%
%ADD15R,0.280000X1.060000*%
%ADD16C,0.355600*%
%ADD17R,2.750000X1.400000*%
G04 APERTURE END LIST*
D10*
%TO.C,R2*%
X23765109Y78054079D03*
X24425109Y78054079D03*
%TD*%
%TO.C,R40*%
X142602679Y134710377D03*
X143262679Y134710377D03*
%TD*%
D11*
%TO.C,IC1*%
X259253489Y131907041D03*
X259253489Y131107041D03*
X259253489Y130307041D03*
X259253489Y129507041D03*
X259253489Y128707041D03*
X259253489Y127907041D03*
X259253489Y127107041D03*
X259253489Y126307041D03*
D12*
X260691489Y124869041D03*
X261491489Y124869041D03*
X262291489Y124869041D03*
X263091489Y124869041D03*
X263891489Y124869041D03*
X264691489Y124869041D03*
X265491489Y124869041D03*
X266291489Y124869041D03*
D11*
X267729489Y126307041D03*
X267729489Y127107041D03*
X267729489Y127907041D03*
X267729489Y128707041D03*
X267729489Y129507041D03*
X267729489Y130307041D03*
X267729489Y131107041D03*
X267729489Y131907041D03*
D12*
X266291489Y133345041D03*
X265491489Y133345041D03*
X264691489Y133345041D03*
X263891489Y133345041D03*
X263091489Y133345041D03*
X262291489Y133345041D03*
X261491489Y133345041D03*
X260691489Y133345041D03*
%TD*%
D10*
%TO.C,R37*%
X39002679Y63389269D03*
X39662679Y63389269D03*
%TD*%
%TO.C,R27*%
X33923489Y143509269D03*
X34583489Y143509269D03*
%TD*%
D13*
%TO.C,R108*%
X127319871Y109530377D03*
X128234871Y109530377D03*
%TD*%
D10*
%TO.C,R44*%
X44081871Y72146301D03*
X44741871Y72146301D03*
%TD*%
%TO.C,R36*%
X246202679Y66322231D03*
X246862679Y66322231D03*
%TD*%
%TO.C,R6*%
X230965109Y146442231D03*
X231625109Y146442231D03*
%TD*%
%TO.C,R37*%
X142602679Y143509269D03*
X143262679Y143509269D03*
%TD*%
%TO.C,R14*%
X132444299Y72188155D03*
X133104299Y72188155D03*
%TD*%
D14*
%TO.C,J1*%
X53541489Y68987035D03*
X54041489Y68987035D03*
X54541489Y68987035D03*
X55041489Y68987035D03*
X55541489Y68987035D03*
X56041489Y68987035D03*
X56541489Y68987035D03*
X57041489Y68987035D03*
X57541489Y68987035D03*
X58041489Y68987035D03*
X58541489Y68987035D03*
X59041489Y68987035D03*
X58791489Y67287035D03*
X58291489Y67287035D03*
X57791489Y67287035D03*
X57291489Y67287035D03*
X56791489Y67287035D03*
X56291489Y67287035D03*
X55791489Y67287035D03*
X55291489Y67287035D03*
X54791489Y67287035D03*
X54291489Y67287035D03*
X53791489Y67287035D03*
X53291489Y67287035D03*
%TD*%
D10*
%TO.C,R39*%
X142602679Y137643345D03*
X143262679Y137643345D03*
%TD*%
%TO.C,R21*%
X241123489Y161107041D03*
X241783489Y161107041D03*
%TD*%
%TO.C,R44*%
X44081871Y152266301D03*
X44741871Y152266301D03*
%TD*%
D13*
%TO.C,R108*%
X23719871Y29410377D03*
X24634871Y29410377D03*
%TD*%
%TO.C,R116*%
X236359871Y115370377D03*
X237274871Y115370377D03*
%TD*%
%TO.C,R125*%
X34206633Y38170377D03*
X35121633Y38170377D03*
%TD*%
D10*
%TO.C,R7*%
X127365109Y143509269D03*
X128025109Y143509269D03*
%TD*%
%TO.C,R29*%
X137523489Y137643345D03*
X138183489Y137643345D03*
%TD*%
%TO.C,R40*%
X39002679Y134710377D03*
X39662679Y134710377D03*
%TD*%
D11*
%TO.C,IC1*%
X52053489Y131907041D03*
X52053489Y131107041D03*
X52053489Y130307041D03*
X52053489Y129507041D03*
X52053489Y128707041D03*
X52053489Y127907041D03*
X52053489Y127107041D03*
X52053489Y126307041D03*
D12*
X53491489Y124869041D03*
X54291489Y124869041D03*
X55091489Y124869041D03*
X55891489Y124869041D03*
X56691489Y124869041D03*
X57491489Y124869041D03*
X58291489Y124869041D03*
X59091489Y124869041D03*
D11*
X60529489Y126307041D03*
X60529489Y127107041D03*
X60529489Y127907041D03*
X60529489Y128707041D03*
X60529489Y129507041D03*
X60529489Y130307041D03*
X60529489Y131107041D03*
X60529489Y131907041D03*
D12*
X59091489Y133345041D03*
X58291489Y133345041D03*
X57491489Y133345041D03*
X56691489Y133345041D03*
X55891489Y133345041D03*
X55091489Y133345041D03*
X54291489Y133345041D03*
X53491489Y133345041D03*
%TD*%
D10*
%TO.C,R21*%
X33923489Y161107041D03*
X34583489Y161107041D03*
%TD*%
%TO.C,R11*%
X132444299Y161107041D03*
X133104299Y161107041D03*
%TD*%
%TO.C,R42*%
X44081871Y158132225D03*
X44741871Y158132225D03*
%TD*%
%TO.C,R17*%
X28844299Y63389269D03*
X29504299Y63389269D03*
%TD*%
%TO.C,R18*%
X28844299Y140576307D03*
X29504299Y140576307D03*
%TD*%
D13*
%TO.C,R121*%
X137809871Y49850377D03*
X138724871Y49850377D03*
%TD*%
D10*
%TO.C,R36*%
X39002679Y146442231D03*
X39662679Y146442231D03*
%TD*%
%TO.C,R19*%
X132444299Y57523345D03*
X133104299Y57523345D03*
%TD*%
%TO.C,R38*%
X142602679Y140576307D03*
X143262679Y140576307D03*
%TD*%
D13*
%TO.C,R105*%
X23719871Y118290377D03*
X24634871Y118290377D03*
%TD*%
D10*
%TO.C,R23*%
X137523489Y75121117D03*
X138183489Y75121117D03*
%TD*%
D11*
%TO.C,IC1*%
X259253489Y51787041D03*
X259253489Y50987041D03*
X259253489Y50187041D03*
X259253489Y49387041D03*
X259253489Y48587041D03*
X259253489Y47787041D03*
X259253489Y46987041D03*
X259253489Y46187041D03*
D12*
X260691489Y44749041D03*
X261491489Y44749041D03*
X262291489Y44749041D03*
X263091489Y44749041D03*
X263891489Y44749041D03*
X264691489Y44749041D03*
X265491489Y44749041D03*
X266291489Y44749041D03*
D11*
X267729489Y46187041D03*
X267729489Y46987041D03*
X267729489Y47787041D03*
X267729489Y48587041D03*
X267729489Y49387041D03*
X267729489Y50187041D03*
X267729489Y50987041D03*
X267729489Y51787041D03*
D12*
X266291489Y53225041D03*
X265491489Y53225041D03*
X264691489Y53225041D03*
X263891489Y53225041D03*
X263091489Y53225041D03*
X262291489Y53225041D03*
X261491489Y53225041D03*
X260691489Y53225041D03*
%TD*%
D10*
%TO.C,R48*%
X251281871Y140534453D03*
X251941871Y140534453D03*
%TD*%
%TO.C,R41*%
X44081871Y80945187D03*
X44741871Y80945187D03*
%TD*%
%TO.C,R39*%
X142602679Y57523345D03*
X143262679Y57523345D03*
%TD*%
D13*
%TO.C,R102*%
X23719871Y127050377D03*
X24634871Y127050377D03*
%TD*%
D10*
%TO.C,R19*%
X28844299Y137643345D03*
X29504299Y137643345D03*
%TD*%
%TO.C,R43*%
X147681871Y75079263D03*
X148341871Y75079263D03*
%TD*%
%TO.C,R46*%
X251281871Y146400377D03*
X251941871Y146400377D03*
%TD*%
%TO.C,R13*%
X132444299Y75121117D03*
X133104299Y75121117D03*
%TD*%
%TO.C,R49*%
X147681871Y57481491D03*
X148341871Y57481491D03*
%TD*%
D13*
%TO.C,R106*%
X127319871Y35250377D03*
X128234871Y35250377D03*
%TD*%
D10*
%TO.C,R23*%
X137523489Y155241117D03*
X138183489Y155241117D03*
%TD*%
D13*
%TO.C,R114*%
X29159871Y121210377D03*
X30074871Y121210377D03*
%TD*%
D10*
%TO.C,R42*%
X44081871Y78012225D03*
X44741871Y78012225D03*
%TD*%
%TO.C,R45*%
X251281871Y149333339D03*
X251941871Y149333339D03*
%TD*%
%TO.C,R22*%
X137523489Y78054079D03*
X138183489Y78054079D03*
%TD*%
D13*
%TO.C,R120*%
X132759871Y23570377D03*
X133674871Y23570377D03*
%TD*%
D10*
%TO.C,R31*%
X246202679Y80987041D03*
X246862679Y80987041D03*
%TD*%
%TO.C,R13*%
X236044299Y75121117D03*
X236704299Y75121117D03*
%TD*%
%TO.C,R20*%
X132444299Y54590377D03*
X133104299Y54590377D03*
%TD*%
D13*
%TO.C,R109*%
X23719871Y26490377D03*
X24634871Y26490377D03*
%TD*%
%TO.C,R114*%
X29159871Y41090377D03*
X30074871Y41090377D03*
%TD*%
%TO.C,R115*%
X29159871Y38170377D03*
X30074871Y38170377D03*
%TD*%
%TO.C,R102*%
X127319871Y127050377D03*
X128234871Y127050377D03*
%TD*%
D10*
%TO.C,R7*%
X230965109Y143509269D03*
X231625109Y143509269D03*
%TD*%
%TO.C,R27*%
X241123489Y63389269D03*
X241783489Y63389269D03*
%TD*%
%TO.C,R20*%
X236044299Y54590377D03*
X236704299Y54590377D03*
%TD*%
%TO.C,R48*%
X147681871Y140534453D03*
X148341871Y140534453D03*
%TD*%
D13*
%TO.C,R121*%
X137809871Y129970377D03*
X138724871Y129970377D03*
%TD*%
D10*
%TO.C,R41*%
X147681871Y80945187D03*
X148341871Y80945187D03*
%TD*%
%TO.C,R38*%
X142602679Y60456307D03*
X143262679Y60456307D03*
%TD*%
%TO.C,R19*%
X132444299Y137643345D03*
X133104299Y137643345D03*
%TD*%
D14*
%TO.C,J1*%
X260741489Y68987035D03*
X261241489Y68987035D03*
X261741489Y68987035D03*
X262241489Y68987035D03*
X262741489Y68987035D03*
X263241489Y68987035D03*
X263741489Y68987035D03*
X264241489Y68987035D03*
X264741489Y68987035D03*
X265241489Y68987035D03*
X265741489Y68987035D03*
X266241489Y68987035D03*
X265991489Y67287035D03*
X265491489Y67287035D03*
X264991489Y67287035D03*
X264491489Y67287035D03*
X263991489Y67287035D03*
X263491489Y67287035D03*
X262991489Y67287035D03*
X262491489Y67287035D03*
X261991489Y67287035D03*
X261491489Y67287035D03*
X260991489Y67287035D03*
X260491489Y67287035D03*
%TD*%
D10*
%TO.C,R15*%
X236044299Y69255193D03*
X236704299Y69255193D03*
%TD*%
D13*
%TO.C,R117*%
X132759871Y112450377D03*
X133674871Y112450377D03*
%TD*%
%TO.C,R120*%
X132759871Y103690377D03*
X133674871Y103690377D03*
%TD*%
%TO.C,R110*%
X230919871Y23570377D03*
X231834871Y23570377D03*
%TD*%
D14*
%TO.C,J1*%
X157141489Y68987035D03*
X157641489Y68987035D03*
X158141489Y68987035D03*
X158641489Y68987035D03*
X159141489Y68987035D03*
X159641489Y68987035D03*
X160141489Y68987035D03*
X160641489Y68987035D03*
X161141489Y68987035D03*
X161641489Y68987035D03*
X162141489Y68987035D03*
X162641489Y68987035D03*
X162391489Y67287035D03*
X161891489Y67287035D03*
X161391489Y67287035D03*
X160891489Y67287035D03*
X160391489Y67287035D03*
X159891489Y67287035D03*
X159391489Y67287035D03*
X158891489Y67287035D03*
X158391489Y67287035D03*
X157891489Y67287035D03*
X157391489Y67287035D03*
X156891489Y67287035D03*
%TD*%
D13*
%TO.C,R104*%
X127319871Y121210377D03*
X128234871Y121210377D03*
%TD*%
D10*
%TO.C,R43*%
X44081871Y155199263D03*
X44741871Y155199263D03*
%TD*%
%TO.C,R18*%
X132444299Y60456307D03*
X133104299Y60456307D03*
%TD*%
D13*
%TO.C,R105*%
X127319871Y38170377D03*
X128234871Y38170377D03*
%TD*%
%TO.C,R103*%
X23719871Y44010377D03*
X24634871Y44010377D03*
%TD*%
%TO.C,R125*%
X241406633Y118290377D03*
X242321633Y118290377D03*
%TD*%
D10*
%TO.C,R23*%
X33923489Y75121117D03*
X34583489Y75121117D03*
%TD*%
D13*
%TO.C,R114*%
X236359871Y121210377D03*
X237274871Y121210377D03*
%TD*%
%TO.C,R105*%
X23719871Y38170377D03*
X24634871Y38170377D03*
%TD*%
D10*
%TO.C,R17*%
X236044299Y63389269D03*
X236704299Y63389269D03*
%TD*%
%TO.C,R11*%
X132444299Y80987041D03*
X133104299Y80987041D03*
%TD*%
%TO.C,R8*%
X127365109Y60456307D03*
X128025109Y60456307D03*
%TD*%
D13*
%TO.C,R114*%
X132759871Y41090377D03*
X133674871Y41090377D03*
%TD*%
%TO.C,R111*%
X236359871Y129970377D03*
X237274871Y129970377D03*
%TD*%
D10*
%TO.C,R6*%
X23765109Y146442231D03*
X24425109Y146442231D03*
%TD*%
%TO.C,R13*%
X132444299Y155241117D03*
X133104299Y155241117D03*
%TD*%
%TO.C,R33*%
X246202679Y75121117D03*
X246862679Y75121117D03*
%TD*%
%TO.C,R39*%
X39002679Y137643345D03*
X39662679Y137643345D03*
%TD*%
%TO.C,R6*%
X23765109Y66322231D03*
X24425109Y66322231D03*
%TD*%
%TO.C,R4*%
X230965109Y72188155D03*
X231625109Y72188155D03*
%TD*%
D13*
%TO.C,R105*%
X230919871Y118290377D03*
X231834871Y118290377D03*
%TD*%
D10*
%TO.C,R9*%
X23765109Y57523345D03*
X24425109Y57523345D03*
%TD*%
%TO.C,R42*%
X147681871Y158132225D03*
X148341871Y158132225D03*
%TD*%
D13*
%TO.C,R104*%
X127319871Y41090377D03*
X128234871Y41090377D03*
%TD*%
D10*
%TO.C,R17*%
X236044299Y143509269D03*
X236704299Y143509269D03*
%TD*%
%TO.C,R46*%
X147681871Y146400377D03*
X148341871Y146400377D03*
%TD*%
D13*
%TO.C,R118*%
X132759871Y109530377D03*
X133674871Y109530377D03*
%TD*%
%TO.C,R108*%
X230919871Y109530377D03*
X231834871Y109530377D03*
%TD*%
D10*
%TO.C,R32*%
X142602679Y78054079D03*
X143262679Y78054079D03*
%TD*%
%TO.C,R49*%
X44081871Y57481491D03*
X44741871Y57481491D03*
%TD*%
%TO.C,R25*%
X241123489Y149375193D03*
X241783489Y149375193D03*
%TD*%
%TO.C,R15*%
X236044299Y149375193D03*
X236704299Y149375193D03*
%TD*%
%TO.C,R9*%
X127365109Y137643345D03*
X128025109Y137643345D03*
%TD*%
D13*
%TO.C,R123*%
X241406633Y44010377D03*
X242321633Y44010377D03*
%TD*%
%TO.C,R117*%
X29159871Y32330377D03*
X30074871Y32330377D03*
%TD*%
D10*
%TO.C,R4*%
X127365109Y72188155D03*
X128025109Y72188155D03*
%TD*%
%TO.C,R4*%
X127365109Y152308155D03*
X128025109Y152308155D03*
%TD*%
%TO.C,R35*%
X246202679Y149375193D03*
X246862679Y149375193D03*
%TD*%
%TO.C,R45*%
X147681871Y149333339D03*
X148341871Y149333339D03*
%TD*%
%TO.C,R12*%
X132444299Y158174079D03*
X133104299Y158174079D03*
%TD*%
D15*
%TO.C,J2*%
X162641484Y117797039D03*
X162141485Y117797039D03*
X161641486Y117797039D03*
X161141487Y117797039D03*
X160641488Y117797039D03*
X160141489Y117797039D03*
X159641489Y117797039D03*
X159141490Y117797039D03*
X158641491Y117797039D03*
X158141492Y117797039D03*
X157641493Y117797039D03*
X157141494Y117797039D03*
X157141494Y115937043D03*
X157641493Y115937043D03*
X158141492Y115937043D03*
X158641491Y115937043D03*
X159141490Y115937043D03*
X159641489Y115937043D03*
X160141489Y115937043D03*
X160641488Y115937043D03*
X161141487Y115937043D03*
X161641486Y115937043D03*
X162141485Y115937043D03*
X162641484Y115937043D03*
%TD*%
D10*
%TO.C,R45*%
X251281871Y69213339D03*
X251941871Y69213339D03*
%TD*%
D13*
%TO.C,R102*%
X23719871Y46930377D03*
X24634871Y46930377D03*
%TD*%
D10*
%TO.C,R18*%
X28844299Y60456307D03*
X29504299Y60456307D03*
%TD*%
%TO.C,R2*%
X23765109Y158174079D03*
X24425109Y158174079D03*
%TD*%
D15*
%TO.C,J2*%
X59041484Y117797039D03*
X58541485Y117797039D03*
X58041486Y117797039D03*
X57541487Y117797039D03*
X57041488Y117797039D03*
X56541489Y117797039D03*
X56041489Y117797039D03*
X55541490Y117797039D03*
X55041491Y117797039D03*
X54541492Y117797039D03*
X54041493Y117797039D03*
X53541494Y117797039D03*
X53541494Y115937043D03*
X54041493Y115937043D03*
X54541492Y115937043D03*
X55041491Y115937043D03*
X55541490Y115937043D03*
X56041489Y115937043D03*
X56541489Y115937043D03*
X57041488Y115937043D03*
X57541487Y115937043D03*
X58041486Y115937043D03*
X58541485Y115937043D03*
X59041484Y115937043D03*
%TD*%
D13*
%TO.C,R113*%
X132759871Y124130377D03*
X133674871Y124130377D03*
%TD*%
%TO.C,R124*%
X241406633Y121210377D03*
X242321633Y121210377D03*
%TD*%
D10*
%TO.C,R24*%
X241123489Y72188155D03*
X241783489Y72188155D03*
%TD*%
D15*
%TO.C,J2*%
X59041484Y37677039D03*
X58541485Y37677039D03*
X58041486Y37677039D03*
X57541487Y37677039D03*
X57041488Y37677039D03*
X56541489Y37677039D03*
X56041489Y37677039D03*
X55541490Y37677039D03*
X55041491Y37677039D03*
X54541492Y37677039D03*
X54041493Y37677039D03*
X53541494Y37677039D03*
X53541494Y35817043D03*
X54041493Y35817043D03*
X54541492Y35817043D03*
X55041491Y35817043D03*
X55541490Y35817043D03*
X56041489Y35817043D03*
X56541489Y35817043D03*
X57041488Y35817043D03*
X57541487Y35817043D03*
X58041486Y35817043D03*
X58541485Y35817043D03*
X59041484Y35817043D03*
%TD*%
D10*
%TO.C,R16*%
X28844299Y146442231D03*
X29504299Y146442231D03*
%TD*%
D13*
%TO.C,R112*%
X29159871Y127050377D03*
X30074871Y127050377D03*
%TD*%
%TO.C,R104*%
X230919871Y41090377D03*
X231834871Y41090377D03*
%TD*%
D10*
%TO.C,R34*%
X142602679Y72188155D03*
X143262679Y72188155D03*
%TD*%
D13*
%TO.C,R121*%
X241409871Y49850377D03*
X242324871Y49850377D03*
%TD*%
%TO.C,R112*%
X236359871Y46930377D03*
X237274871Y46930377D03*
%TD*%
D10*
%TO.C,R26*%
X137523489Y146442231D03*
X138183489Y146442231D03*
%TD*%
%TO.C,R50*%
X147681871Y134668523D03*
X148341871Y134668523D03*
%TD*%
%TO.C,R6*%
X127365109Y66322231D03*
X128025109Y66322231D03*
%TD*%
%TO.C,R31*%
X142602679Y161107041D03*
X143262679Y161107041D03*
%TD*%
D16*
%TO.C,IC2*%
X55291491Y160477035D03*
X56291489Y160477035D03*
X57291487Y160477035D03*
X58291485Y160477035D03*
X54291493Y159477037D03*
X55291491Y159477037D03*
X56291489Y159477037D03*
X57291487Y159477037D03*
X58291485Y159477037D03*
X54291493Y158477039D03*
X55291491Y158477039D03*
X56291489Y158477039D03*
X57291487Y158477039D03*
X58291485Y158477039D03*
X54291493Y157477041D03*
X55291491Y157477041D03*
X56291489Y157477041D03*
X57291487Y157477041D03*
X58291485Y157477041D03*
X54291493Y156477043D03*
X55291491Y156477043D03*
X56291489Y156477043D03*
X57291487Y156477043D03*
X58291485Y156477043D03*
%TD*%
D10*
%TO.C,R6*%
X230965109Y66322231D03*
X231625109Y66322231D03*
%TD*%
%TO.C,R25*%
X241123489Y69255193D03*
X241783489Y69255193D03*
%TD*%
D17*
%TO.C,SW1*%
X260116495Y108067037D03*
X266866482Y108067037D03*
X260116495Y104067045D03*
X266866482Y104067045D03*
%TD*%
D13*
%TO.C,R107*%
X230919871Y112450377D03*
X231834871Y112450377D03*
%TD*%
%TO.C,R123*%
X34206633Y44010377D03*
X35121633Y44010377D03*
%TD*%
D10*
%TO.C,R42*%
X251281871Y78012225D03*
X251941871Y78012225D03*
%TD*%
%TO.C,R4*%
X23765109Y152308155D03*
X24425109Y152308155D03*
%TD*%
%TO.C,R31*%
X39002679Y161107041D03*
X39662679Y161107041D03*
%TD*%
%TO.C,R37*%
X142602679Y63389269D03*
X143262679Y63389269D03*
%TD*%
%TO.C,R8*%
X23765109Y60456307D03*
X24425109Y60456307D03*
%TD*%
%TO.C,R42*%
X251281871Y158132225D03*
X251941871Y158132225D03*
%TD*%
%TO.C,R41*%
X251281871Y161065187D03*
X251941871Y161065187D03*
%TD*%
D13*
%TO.C,R118*%
X29159871Y109530377D03*
X30074871Y109530377D03*
%TD*%
D10*
%TO.C,R21*%
X137523489Y80987041D03*
X138183489Y80987041D03*
%TD*%
%TO.C,R28*%
X33923489Y140576307D03*
X34583489Y140576307D03*
%TD*%
D13*
%TO.C,R117*%
X29159871Y112450377D03*
X30074871Y112450377D03*
%TD*%
D10*
%TO.C,R30*%
X137523489Y54590377D03*
X138183489Y54590377D03*
%TD*%
D13*
%TO.C,R104*%
X230919871Y121210377D03*
X231834871Y121210377D03*
%TD*%
D10*
%TO.C,R46*%
X147681871Y66280377D03*
X148341871Y66280377D03*
%TD*%
%TO.C,R8*%
X127365109Y140576307D03*
X128025109Y140576307D03*
%TD*%
D14*
%TO.C,J1*%
X260741489Y149107035D03*
X261241489Y149107035D03*
X261741489Y149107035D03*
X262241489Y149107035D03*
X262741489Y149107035D03*
X263241489Y149107035D03*
X263741489Y149107035D03*
X264241489Y149107035D03*
X264741489Y149107035D03*
X265241489Y149107035D03*
X265741489Y149107035D03*
X266241489Y149107035D03*
X265991489Y147407035D03*
X265491489Y147407035D03*
X264991489Y147407035D03*
X264491489Y147407035D03*
X263991489Y147407035D03*
X263491489Y147407035D03*
X262991489Y147407035D03*
X262491489Y147407035D03*
X261991489Y147407035D03*
X261491489Y147407035D03*
X260991489Y147407035D03*
X260491489Y147407035D03*
%TD*%
D10*
%TO.C,R38*%
X246202679Y140576307D03*
X246862679Y140576307D03*
%TD*%
D13*
%TO.C,R119*%
X132759871Y106610377D03*
X133674871Y106610377D03*
%TD*%
D10*
%TO.C,R1*%
X230965109Y80987041D03*
X231625109Y80987041D03*
%TD*%
D13*
%TO.C,R120*%
X236359871Y103690377D03*
X237274871Y103690377D03*
%TD*%
%TO.C,R103*%
X230919871Y44010377D03*
X231834871Y44010377D03*
%TD*%
D10*
%TO.C,R3*%
X127365109Y75121117D03*
X128025109Y75121117D03*
%TD*%
D13*
%TO.C,R103*%
X23719871Y124130377D03*
X24634871Y124130377D03*
%TD*%
D10*
%TO.C,R33*%
X39002679Y75121117D03*
X39662679Y75121117D03*
%TD*%
%TO.C,R22*%
X137523489Y158174079D03*
X138183489Y158174079D03*
%TD*%
D13*
%TO.C,R122*%
X34206633Y127050377D03*
X35121633Y127050377D03*
%TD*%
D10*
%TO.C,R28*%
X241123489Y60456307D03*
X241783489Y60456307D03*
%TD*%
%TO.C,R43*%
X251281871Y75079263D03*
X251941871Y75079263D03*
%TD*%
%TO.C,R38*%
X39002679Y140576307D03*
X39662679Y140576307D03*
%TD*%
%TO.C,R49*%
X251281871Y57481491D03*
X251941871Y57481491D03*
%TD*%
%TO.C,R25*%
X137523489Y69255193D03*
X138183489Y69255193D03*
%TD*%
%TO.C,R17*%
X28844299Y143509269D03*
X29504299Y143509269D03*
%TD*%
%TO.C,R5*%
X23765109Y69255193D03*
X24425109Y69255193D03*
%TD*%
%TO.C,R5*%
X127365109Y69255193D03*
X128025109Y69255193D03*
%TD*%
%TO.C,R35*%
X246202679Y69255193D03*
X246862679Y69255193D03*
%TD*%
%TO.C,R9*%
X23765109Y137643345D03*
X24425109Y137643345D03*
%TD*%
D16*
%TO.C,IC2*%
X262491491Y160477035D03*
X263491489Y160477035D03*
X264491487Y160477035D03*
X265491485Y160477035D03*
X261491493Y159477037D03*
X262491491Y159477037D03*
X263491489Y159477037D03*
X264491487Y159477037D03*
X265491485Y159477037D03*
X261491493Y158477039D03*
X262491491Y158477039D03*
X263491489Y158477039D03*
X264491487Y158477039D03*
X265491485Y158477039D03*
X261491493Y157477041D03*
X262491491Y157477041D03*
X263491489Y157477041D03*
X264491487Y157477041D03*
X265491485Y157477041D03*
X261491493Y156477043D03*
X262491491Y156477043D03*
X263491489Y156477043D03*
X264491487Y156477043D03*
X265491485Y156477043D03*
%TD*%
D10*
%TO.C,R50*%
X147681871Y54548523D03*
X148341871Y54548523D03*
%TD*%
D15*
%TO.C,J2*%
X266241484Y117797039D03*
X265741485Y117797039D03*
X265241486Y117797039D03*
X264741487Y117797039D03*
X264241488Y117797039D03*
X263741489Y117797039D03*
X263241489Y117797039D03*
X262741490Y117797039D03*
X262241491Y117797039D03*
X261741492Y117797039D03*
X261241493Y117797039D03*
X260741494Y117797039D03*
X260741494Y115937043D03*
X261241493Y115937043D03*
X261741492Y115937043D03*
X262241491Y115937043D03*
X262741490Y115937043D03*
X263241489Y115937043D03*
X263741489Y115937043D03*
X264241488Y115937043D03*
X264741487Y115937043D03*
X265241486Y115937043D03*
X265741485Y115937043D03*
X266241484Y115937043D03*
%TD*%
D13*
%TO.C,R106*%
X230919871Y115370377D03*
X231834871Y115370377D03*
%TD*%
D10*
%TO.C,R48*%
X251281871Y60414453D03*
X251941871Y60414453D03*
%TD*%
%TO.C,R50*%
X251281871Y54548523D03*
X251941871Y54548523D03*
%TD*%
%TO.C,R13*%
X28844299Y75121117D03*
X29504299Y75121117D03*
%TD*%
%TO.C,R45*%
X44081871Y149333339D03*
X44741871Y149333339D03*
%TD*%
D13*
%TO.C,R119*%
X29159871Y26490377D03*
X30074871Y26490377D03*
%TD*%
D10*
%TO.C,R1*%
X127365109Y161107041D03*
X128025109Y161107041D03*
%TD*%
%TO.C,R20*%
X28844299Y54590377D03*
X29504299Y54590377D03*
%TD*%
%TO.C,R3*%
X23765109Y155241117D03*
X24425109Y155241117D03*
%TD*%
%TO.C,R39*%
X246202679Y137643345D03*
X246862679Y137643345D03*
%TD*%
%TO.C,R3*%
X230965109Y75121117D03*
X231625109Y75121117D03*
%TD*%
%TO.C,R33*%
X246202679Y155241117D03*
X246862679Y155241117D03*
%TD*%
%TO.C,R3*%
X23765109Y75121117D03*
X24425109Y75121117D03*
%TD*%
%TO.C,R40*%
X246202679Y54590377D03*
X246862679Y54590377D03*
%TD*%
%TO.C,R10*%
X23765109Y54590377D03*
X24425109Y54590377D03*
%TD*%
%TO.C,R45*%
X44081871Y69213339D03*
X44741871Y69213339D03*
%TD*%
%TO.C,R44*%
X147681871Y72146301D03*
X148341871Y72146301D03*
%TD*%
%TO.C,R12*%
X236044299Y78054079D03*
X236704299Y78054079D03*
%TD*%
D11*
%TO.C,IC1*%
X155653489Y131907041D03*
X155653489Y131107041D03*
X155653489Y130307041D03*
X155653489Y129507041D03*
X155653489Y128707041D03*
X155653489Y127907041D03*
X155653489Y127107041D03*
X155653489Y126307041D03*
D12*
X157091489Y124869041D03*
X157891489Y124869041D03*
X158691489Y124869041D03*
X159491489Y124869041D03*
X160291489Y124869041D03*
X161091489Y124869041D03*
X161891489Y124869041D03*
X162691489Y124869041D03*
D11*
X164129489Y126307041D03*
X164129489Y127107041D03*
X164129489Y127907041D03*
X164129489Y128707041D03*
X164129489Y129507041D03*
X164129489Y130307041D03*
X164129489Y131107041D03*
X164129489Y131907041D03*
D12*
X162691489Y133345041D03*
X161891489Y133345041D03*
X161091489Y133345041D03*
X160291489Y133345041D03*
X159491489Y133345041D03*
X158691489Y133345041D03*
X157891489Y133345041D03*
X157091489Y133345041D03*
%TD*%
D16*
%TO.C,IC2*%
X158891491Y80357035D03*
X159891489Y80357035D03*
X160891487Y80357035D03*
X161891485Y80357035D03*
X157891493Y79357037D03*
X158891491Y79357037D03*
X159891489Y79357037D03*
X160891487Y79357037D03*
X161891485Y79357037D03*
X157891493Y78357039D03*
X158891491Y78357039D03*
X159891489Y78357039D03*
X160891487Y78357039D03*
X161891485Y78357039D03*
X157891493Y77357041D03*
X158891491Y77357041D03*
X159891489Y77357041D03*
X160891487Y77357041D03*
X161891485Y77357041D03*
X157891493Y76357043D03*
X158891491Y76357043D03*
X159891489Y76357043D03*
X160891487Y76357043D03*
X161891485Y76357043D03*
%TD*%
D10*
%TO.C,R22*%
X33923489Y78054079D03*
X34583489Y78054079D03*
%TD*%
%TO.C,R39*%
X246202679Y57523345D03*
X246862679Y57523345D03*
%TD*%
D17*
%TO.C,SW1*%
X260116495Y27947037D03*
X266866482Y27947037D03*
X260116495Y23947045D03*
X266866482Y23947045D03*
%TD*%
D10*
%TO.C,R33*%
X142602679Y75121117D03*
X143262679Y75121117D03*
%TD*%
%TO.C,R2*%
X127365109Y158174079D03*
X128025109Y158174079D03*
%TD*%
D13*
%TO.C,R107*%
X127319871Y112450377D03*
X128234871Y112450377D03*
%TD*%
D10*
%TO.C,R29*%
X241123489Y57523345D03*
X241783489Y57523345D03*
%TD*%
%TO.C,R12*%
X236044299Y158174079D03*
X236704299Y158174079D03*
%TD*%
%TO.C,R7*%
X23765109Y63389269D03*
X24425109Y63389269D03*
%TD*%
%TO.C,R16*%
X28844299Y66322231D03*
X29504299Y66322231D03*
%TD*%
%TO.C,R50*%
X44081871Y54548523D03*
X44741871Y54548523D03*
%TD*%
%TO.C,R43*%
X251281871Y155199263D03*
X251941871Y155199263D03*
%TD*%
D15*
%TO.C,J2*%
X266241484Y37677039D03*
X265741485Y37677039D03*
X265241486Y37677039D03*
X264741487Y37677039D03*
X264241488Y37677039D03*
X263741489Y37677039D03*
X263241489Y37677039D03*
X262741490Y37677039D03*
X262241491Y37677039D03*
X261741492Y37677039D03*
X261241493Y37677039D03*
X260741494Y37677039D03*
X260741494Y35817043D03*
X261241493Y35817043D03*
X261741492Y35817043D03*
X262241491Y35817043D03*
X262741490Y35817043D03*
X263241489Y35817043D03*
X263741489Y35817043D03*
X264241488Y35817043D03*
X264741487Y35817043D03*
X265241486Y35817043D03*
X265741485Y35817043D03*
X266241484Y35817043D03*
%TD*%
D10*
%TO.C,R50*%
X251281871Y134668523D03*
X251941871Y134668523D03*
%TD*%
D13*
%TO.C,R104*%
X23719871Y121210377D03*
X24634871Y121210377D03*
%TD*%
D10*
%TO.C,R49*%
X147681871Y137601491D03*
X148341871Y137601491D03*
%TD*%
D13*
%TO.C,R112*%
X132759871Y46930377D03*
X133674871Y46930377D03*
%TD*%
D10*
%TO.C,R43*%
X44081871Y75079263D03*
X44741871Y75079263D03*
%TD*%
%TO.C,R15*%
X28844299Y149375193D03*
X29504299Y149375193D03*
%TD*%
%TO.C,R29*%
X33923489Y137643345D03*
X34583489Y137643345D03*
%TD*%
D13*
%TO.C,R123*%
X137806633Y44010377D03*
X138721633Y44010377D03*
%TD*%
%TO.C,R122*%
X241406633Y127050377D03*
X242321633Y127050377D03*
%TD*%
D10*
%TO.C,R44*%
X251281871Y152266301D03*
X251941871Y152266301D03*
%TD*%
%TO.C,R18*%
X236044299Y140576307D03*
X236704299Y140576307D03*
%TD*%
D13*
%TO.C,R108*%
X127319871Y29410377D03*
X128234871Y29410377D03*
%TD*%
D10*
%TO.C,R12*%
X28844299Y158174079D03*
X29504299Y158174079D03*
%TD*%
%TO.C,R48*%
X44081871Y140534453D03*
X44741871Y140534453D03*
%TD*%
D13*
%TO.C,R123*%
X241406633Y124130377D03*
X242321633Y124130377D03*
%TD*%
D10*
%TO.C,R31*%
X39002679Y80987041D03*
X39662679Y80987041D03*
%TD*%
%TO.C,R32*%
X246202679Y158174079D03*
X246862679Y158174079D03*
%TD*%
D13*
%TO.C,R122*%
X34206633Y46930377D03*
X35121633Y46930377D03*
%TD*%
%TO.C,R109*%
X127319871Y26490377D03*
X128234871Y26490377D03*
%TD*%
%TO.C,R107*%
X230919871Y32330377D03*
X231834871Y32330377D03*
%TD*%
D10*
%TO.C,R10*%
X23765109Y134710377D03*
X24425109Y134710377D03*
%TD*%
D13*
%TO.C,R111*%
X132759871Y129970377D03*
X133674871Y129970377D03*
%TD*%
D10*
%TO.C,R11*%
X28844299Y80987041D03*
X29504299Y80987041D03*
%TD*%
%TO.C,R10*%
X127365109Y134710377D03*
X128025109Y134710377D03*
%TD*%
D13*
%TO.C,R118*%
X29159871Y29410377D03*
X30074871Y29410377D03*
%TD*%
D10*
%TO.C,R8*%
X230965109Y140576307D03*
X231625109Y140576307D03*
%TD*%
%TO.C,R26*%
X33923489Y66322231D03*
X34583489Y66322231D03*
%TD*%
%TO.C,R47*%
X147681871Y63347415D03*
X148341871Y63347415D03*
%TD*%
D17*
%TO.C,SW1*%
X156516495Y27947037D03*
X163266482Y27947037D03*
X156516495Y23947045D03*
X163266482Y23947045D03*
%TD*%
D10*
%TO.C,R38*%
X246202679Y60456307D03*
X246862679Y60456307D03*
%TD*%
D17*
%TO.C,SW1*%
X52916495Y27947037D03*
X59666482Y27947037D03*
X52916495Y23947045D03*
X59666482Y23947045D03*
%TD*%
D10*
%TO.C,R34*%
X39002679Y152308155D03*
X39662679Y152308155D03*
%TD*%
D13*
%TO.C,R115*%
X29159871Y118290377D03*
X30074871Y118290377D03*
%TD*%
D10*
%TO.C,R14*%
X132444299Y152308155D03*
X133104299Y152308155D03*
%TD*%
D13*
%TO.C,R108*%
X230919871Y29410377D03*
X231834871Y29410377D03*
%TD*%
D10*
%TO.C,R24*%
X33923489Y152308155D03*
X34583489Y152308155D03*
%TD*%
%TO.C,R45*%
X147681871Y69213339D03*
X148341871Y69213339D03*
%TD*%
%TO.C,R30*%
X33923489Y134710377D03*
X34583489Y134710377D03*
%TD*%
%TO.C,R7*%
X127365109Y63389269D03*
X128025109Y63389269D03*
%TD*%
D13*
%TO.C,R118*%
X236359871Y29410377D03*
X237274871Y29410377D03*
%TD*%
%TO.C,R113*%
X29159871Y44010377D03*
X30074871Y44010377D03*
%TD*%
D10*
%TO.C,R30*%
X33923489Y54590377D03*
X34583489Y54590377D03*
%TD*%
D13*
%TO.C,R106*%
X23719871Y35250377D03*
X24634871Y35250377D03*
%TD*%
D10*
%TO.C,R31*%
X246202679Y161107041D03*
X246862679Y161107041D03*
%TD*%
%TO.C,R20*%
X236044299Y134710377D03*
X236704299Y134710377D03*
%TD*%
D13*
%TO.C,R120*%
X29159871Y103690377D03*
X30074871Y103690377D03*
%TD*%
D10*
%TO.C,R40*%
X246202679Y134710377D03*
X246862679Y134710377D03*
%TD*%
%TO.C,R29*%
X137523489Y57523345D03*
X138183489Y57523345D03*
%TD*%
D11*
%TO.C,IC1*%
X52053489Y51787041D03*
X52053489Y50987041D03*
X52053489Y50187041D03*
X52053489Y49387041D03*
X52053489Y48587041D03*
X52053489Y47787041D03*
X52053489Y46987041D03*
X52053489Y46187041D03*
D12*
X53491489Y44749041D03*
X54291489Y44749041D03*
X55091489Y44749041D03*
X55891489Y44749041D03*
X56691489Y44749041D03*
X57491489Y44749041D03*
X58291489Y44749041D03*
X59091489Y44749041D03*
D11*
X60529489Y46187041D03*
X60529489Y46987041D03*
X60529489Y47787041D03*
X60529489Y48587041D03*
X60529489Y49387041D03*
X60529489Y50187041D03*
X60529489Y50987041D03*
X60529489Y51787041D03*
D12*
X59091489Y53225041D03*
X58291489Y53225041D03*
X57491489Y53225041D03*
X56691489Y53225041D03*
X55891489Y53225041D03*
X55091489Y53225041D03*
X54291489Y53225041D03*
X53491489Y53225041D03*
%TD*%
D10*
%TO.C,R46*%
X44081871Y146400377D03*
X44741871Y146400377D03*
%TD*%
%TO.C,R48*%
X44081871Y60414453D03*
X44741871Y60414453D03*
%TD*%
%TO.C,R3*%
X230965109Y155241117D03*
X231625109Y155241117D03*
%TD*%
%TO.C,R16*%
X132444299Y146442231D03*
X133104299Y146442231D03*
%TD*%
%TO.C,R4*%
X23765109Y72188155D03*
X24425109Y72188155D03*
%TD*%
D13*
%TO.C,R124*%
X34206633Y121210377D03*
X35121633Y121210377D03*
%TD*%
%TO.C,R112*%
X132759871Y127050377D03*
X133674871Y127050377D03*
%TD*%
D10*
%TO.C,R27*%
X137523489Y63389269D03*
X138183489Y63389269D03*
%TD*%
%TO.C,R35*%
X142602679Y69255193D03*
X143262679Y69255193D03*
%TD*%
%TO.C,R14*%
X28844299Y152308155D03*
X29504299Y152308155D03*
%TD*%
D13*
%TO.C,R119*%
X29159871Y106610377D03*
X30074871Y106610377D03*
%TD*%
%TO.C,R124*%
X137806633Y121210377D03*
X138721633Y121210377D03*
%TD*%
D10*
%TO.C,R41*%
X44081871Y161065187D03*
X44741871Y161065187D03*
%TD*%
%TO.C,R39*%
X39002679Y57523345D03*
X39662679Y57523345D03*
%TD*%
%TO.C,R14*%
X28844299Y72188155D03*
X29504299Y72188155D03*
%TD*%
%TO.C,R15*%
X132444299Y149375193D03*
X133104299Y149375193D03*
%TD*%
%TO.C,R9*%
X230965109Y137643345D03*
X231625109Y137643345D03*
%TD*%
%TO.C,R40*%
X39002679Y54590377D03*
X39662679Y54590377D03*
%TD*%
%TO.C,R40*%
X142602679Y54590377D03*
X143262679Y54590377D03*
%TD*%
%TO.C,R1*%
X23765109Y80987041D03*
X24425109Y80987041D03*
%TD*%
%TO.C,R29*%
X241123489Y137643345D03*
X241783489Y137643345D03*
%TD*%
D13*
%TO.C,R116*%
X29159871Y115370377D03*
X30074871Y115370377D03*
%TD*%
%TO.C,R110*%
X230919871Y103690377D03*
X231834871Y103690377D03*
%TD*%
D10*
%TO.C,R36*%
X39002679Y66322231D03*
X39662679Y66322231D03*
%TD*%
%TO.C,R30*%
X137523489Y134710377D03*
X138183489Y134710377D03*
%TD*%
%TO.C,R47*%
X251281871Y63347415D03*
X251941871Y63347415D03*
%TD*%
%TO.C,R1*%
X127365109Y80987041D03*
X128025109Y80987041D03*
%TD*%
%TO.C,R12*%
X28844299Y78054079D03*
X29504299Y78054079D03*
%TD*%
%TO.C,R5*%
X127365109Y149375193D03*
X128025109Y149375193D03*
%TD*%
%TO.C,R10*%
X230965109Y134710377D03*
X231625109Y134710377D03*
%TD*%
%TO.C,R13*%
X236044299Y155241117D03*
X236704299Y155241117D03*
%TD*%
%TO.C,R8*%
X230965109Y60456307D03*
X231625109Y60456307D03*
%TD*%
D17*
%TO.C,SW1*%
X52916495Y108067037D03*
X59666482Y108067037D03*
X52916495Y104067045D03*
X59666482Y104067045D03*
%TD*%
D13*
%TO.C,R122*%
X137806633Y46930377D03*
X138721633Y46930377D03*
%TD*%
%TO.C,R125*%
X137806633Y38170377D03*
X138721633Y38170377D03*
%TD*%
D10*
%TO.C,R32*%
X142602679Y158174079D03*
X143262679Y158174079D03*
%TD*%
%TO.C,R3*%
X127365109Y155241117D03*
X128025109Y155241117D03*
%TD*%
D13*
%TO.C,R115*%
X132759871Y38170377D03*
X133674871Y38170377D03*
%TD*%
D10*
%TO.C,R10*%
X230965109Y54590377D03*
X231625109Y54590377D03*
%TD*%
%TO.C,R47*%
X44081871Y63347415D03*
X44741871Y63347415D03*
%TD*%
D13*
%TO.C,R116*%
X132759871Y35250377D03*
X133674871Y35250377D03*
%TD*%
D10*
%TO.C,R35*%
X39002679Y69255193D03*
X39662679Y69255193D03*
%TD*%
D13*
%TO.C,R116*%
X29159871Y35250377D03*
X30074871Y35250377D03*
%TD*%
D10*
%TO.C,R4*%
X230965109Y152308155D03*
X231625109Y152308155D03*
%TD*%
D13*
%TO.C,R125*%
X137806633Y118290377D03*
X138721633Y118290377D03*
%TD*%
D10*
%TO.C,R24*%
X241123489Y152308155D03*
X241783489Y152308155D03*
%TD*%
D13*
%TO.C,R124*%
X241406633Y41090377D03*
X242321633Y41090377D03*
%TD*%
D10*
%TO.C,R11*%
X28844299Y161107041D03*
X29504299Y161107041D03*
%TD*%
D15*
%TO.C,J2*%
X162641484Y37677039D03*
X162141485Y37677039D03*
X161641486Y37677039D03*
X161141487Y37677039D03*
X160641488Y37677039D03*
X160141489Y37677039D03*
X159641489Y37677039D03*
X159141490Y37677039D03*
X158641491Y37677039D03*
X158141492Y37677039D03*
X157641493Y37677039D03*
X157141494Y37677039D03*
X157141494Y35817043D03*
X157641493Y35817043D03*
X158141492Y35817043D03*
X158641491Y35817043D03*
X159141490Y35817043D03*
X159641489Y35817043D03*
X160141489Y35817043D03*
X160641488Y35817043D03*
X161141487Y35817043D03*
X161641486Y35817043D03*
X162141485Y35817043D03*
X162641484Y35817043D03*
%TD*%
D13*
%TO.C,R103*%
X127319871Y124130377D03*
X128234871Y124130377D03*
%TD*%
D10*
%TO.C,R19*%
X236044299Y57523345D03*
X236704299Y57523345D03*
%TD*%
D13*
%TO.C,R101*%
X230919871Y49850377D03*
X231834871Y49850377D03*
%TD*%
D10*
%TO.C,R15*%
X132444299Y69255193D03*
X133104299Y69255193D03*
%TD*%
D13*
%TO.C,R114*%
X236359871Y41090377D03*
X237274871Y41090377D03*
%TD*%
D10*
%TO.C,R41*%
X147681871Y161065187D03*
X148341871Y161065187D03*
%TD*%
D13*
%TO.C,R112*%
X236359871Y127050377D03*
X237274871Y127050377D03*
%TD*%
D10*
%TO.C,R20*%
X28844299Y134710377D03*
X29504299Y134710377D03*
%TD*%
%TO.C,R47*%
X251281871Y143467415D03*
X251941871Y143467415D03*
%TD*%
%TO.C,R6*%
X127365109Y146442231D03*
X128025109Y146442231D03*
%TD*%
%TO.C,R36*%
X142602679Y66322231D03*
X143262679Y66322231D03*
%TD*%
%TO.C,R26*%
X137523489Y66322231D03*
X138183489Y66322231D03*
%TD*%
D13*
%TO.C,R110*%
X23719871Y103690377D03*
X24634871Y103690377D03*
%TD*%
D10*
%TO.C,R22*%
X33923489Y158174079D03*
X34583489Y158174079D03*
%TD*%
%TO.C,R22*%
X241123489Y158174079D03*
X241783489Y158174079D03*
%TD*%
D13*
%TO.C,R111*%
X29159871Y49850377D03*
X30074871Y49850377D03*
%TD*%
D10*
%TO.C,R32*%
X39002679Y78054079D03*
X39662679Y78054079D03*
%TD*%
D13*
%TO.C,R109*%
X230919871Y26490377D03*
X231834871Y26490377D03*
%TD*%
%TO.C,R102*%
X127319871Y46930377D03*
X128234871Y46930377D03*
%TD*%
D10*
%TO.C,R44*%
X251281871Y72146301D03*
X251941871Y72146301D03*
%TD*%
D13*
%TO.C,R111*%
X132759871Y49850377D03*
X133674871Y49850377D03*
%TD*%
D10*
%TO.C,R15*%
X28844299Y69255193D03*
X29504299Y69255193D03*
%TD*%
D11*
%TO.C,IC1*%
X155653489Y51787041D03*
X155653489Y50987041D03*
X155653489Y50187041D03*
X155653489Y49387041D03*
X155653489Y48587041D03*
X155653489Y47787041D03*
X155653489Y46987041D03*
X155653489Y46187041D03*
D12*
X157091489Y44749041D03*
X157891489Y44749041D03*
X158691489Y44749041D03*
X159491489Y44749041D03*
X160291489Y44749041D03*
X161091489Y44749041D03*
X161891489Y44749041D03*
X162691489Y44749041D03*
D11*
X164129489Y46187041D03*
X164129489Y46987041D03*
X164129489Y47787041D03*
X164129489Y48587041D03*
X164129489Y49387041D03*
X164129489Y50187041D03*
X164129489Y50987041D03*
X164129489Y51787041D03*
D12*
X162691489Y53225041D03*
X161891489Y53225041D03*
X161091489Y53225041D03*
X160291489Y53225041D03*
X159491489Y53225041D03*
X158691489Y53225041D03*
X157891489Y53225041D03*
X157091489Y53225041D03*
%TD*%
D10*
%TO.C,R28*%
X137523489Y60456307D03*
X138183489Y60456307D03*
%TD*%
D13*
%TO.C,R101*%
X127319871Y49850377D03*
X128234871Y49850377D03*
%TD*%
D10*
%TO.C,R2*%
X230965109Y158174079D03*
X231625109Y158174079D03*
%TD*%
%TO.C,R1*%
X23765109Y161107041D03*
X24425109Y161107041D03*
%TD*%
D13*
%TO.C,R110*%
X127319871Y23570377D03*
X128234871Y23570377D03*
%TD*%
D10*
%TO.C,R42*%
X147681871Y78012225D03*
X148341871Y78012225D03*
%TD*%
%TO.C,R21*%
X137523489Y161107041D03*
X138183489Y161107041D03*
%TD*%
%TO.C,R49*%
X44081871Y137601491D03*
X44741871Y137601491D03*
%TD*%
%TO.C,R9*%
X127365109Y57523345D03*
X128025109Y57523345D03*
%TD*%
%TO.C,R25*%
X33923489Y69255193D03*
X34583489Y69255193D03*
%TD*%
D13*
%TO.C,R110*%
X127319871Y103690377D03*
X128234871Y103690377D03*
%TD*%
D10*
%TO.C,R47*%
X44081871Y143467415D03*
X44741871Y143467415D03*
%TD*%
%TO.C,R7*%
X230965109Y63389269D03*
X231625109Y63389269D03*
%TD*%
%TO.C,R26*%
X241123489Y66322231D03*
X241783489Y66322231D03*
%TD*%
%TO.C,R43*%
X147681871Y155199263D03*
X148341871Y155199263D03*
%TD*%
%TO.C,R23*%
X33923489Y155241117D03*
X34583489Y155241117D03*
%TD*%
D13*
%TO.C,R124*%
X34206633Y41090377D03*
X35121633Y41090377D03*
%TD*%
D10*
%TO.C,R27*%
X33923489Y63389269D03*
X34583489Y63389269D03*
%TD*%
D13*
%TO.C,R109*%
X23719871Y106610377D03*
X24634871Y106610377D03*
%TD*%
%TO.C,R123*%
X34206633Y124130377D03*
X35121633Y124130377D03*
%TD*%
D14*
%TO.C,J1*%
X53541489Y149107035D03*
X54041489Y149107035D03*
X54541489Y149107035D03*
X55041489Y149107035D03*
X55541489Y149107035D03*
X56041489Y149107035D03*
X56541489Y149107035D03*
X57041489Y149107035D03*
X57541489Y149107035D03*
X58041489Y149107035D03*
X58541489Y149107035D03*
X59041489Y149107035D03*
X58791489Y147407035D03*
X58291489Y147407035D03*
X57791489Y147407035D03*
X57291489Y147407035D03*
X56791489Y147407035D03*
X56291489Y147407035D03*
X55791489Y147407035D03*
X55291489Y147407035D03*
X54791489Y147407035D03*
X54291489Y147407035D03*
X53791489Y147407035D03*
X53291489Y147407035D03*
%TD*%
D10*
%TO.C,R35*%
X142602679Y149375193D03*
X143262679Y149375193D03*
%TD*%
%TO.C,R21*%
X241123489Y80987041D03*
X241783489Y80987041D03*
%TD*%
%TO.C,R16*%
X236044299Y146442231D03*
X236704299Y146442231D03*
%TD*%
%TO.C,R5*%
X230965109Y149375193D03*
X231625109Y149375193D03*
%TD*%
%TO.C,R33*%
X142602679Y155241117D03*
X143262679Y155241117D03*
%TD*%
%TO.C,R24*%
X137523489Y72188155D03*
X138183489Y72188155D03*
%TD*%
%TO.C,R12*%
X132444299Y78054079D03*
X133104299Y78054079D03*
%TD*%
%TO.C,R32*%
X246202679Y78054079D03*
X246862679Y78054079D03*
%TD*%
%TO.C,R26*%
X241123489Y146442231D03*
X241783489Y146442231D03*
%TD*%
D13*
%TO.C,R112*%
X29159871Y46930377D03*
X30074871Y46930377D03*
%TD*%
D10*
%TO.C,R16*%
X236044299Y66322231D03*
X236704299Y66322231D03*
%TD*%
%TO.C,R2*%
X230965109Y78054079D03*
X231625109Y78054079D03*
%TD*%
%TO.C,R24*%
X33923489Y72188155D03*
X34583489Y72188155D03*
%TD*%
%TO.C,R36*%
X246202679Y146442231D03*
X246862679Y146442231D03*
%TD*%
%TO.C,R34*%
X246202679Y152308155D03*
X246862679Y152308155D03*
%TD*%
%TO.C,R35*%
X39002679Y149375193D03*
X39662679Y149375193D03*
%TD*%
D16*
%TO.C,IC2*%
X55291491Y80357035D03*
X56291489Y80357035D03*
X57291487Y80357035D03*
X58291485Y80357035D03*
X54291493Y79357037D03*
X55291491Y79357037D03*
X56291489Y79357037D03*
X57291487Y79357037D03*
X58291485Y79357037D03*
X54291493Y78357039D03*
X55291491Y78357039D03*
X56291489Y78357039D03*
X57291487Y78357039D03*
X58291485Y78357039D03*
X54291493Y77357041D03*
X55291491Y77357041D03*
X56291489Y77357041D03*
X57291487Y77357041D03*
X58291485Y77357041D03*
X54291493Y76357043D03*
X55291491Y76357043D03*
X56291489Y76357043D03*
X57291487Y76357043D03*
X58291485Y76357043D03*
%TD*%
D13*
%TO.C,R119*%
X132759871Y26490377D03*
X133674871Y26490377D03*
%TD*%
D10*
%TO.C,R24*%
X137523489Y152308155D03*
X138183489Y152308155D03*
%TD*%
%TO.C,R36*%
X142602679Y146442231D03*
X143262679Y146442231D03*
%TD*%
D13*
%TO.C,R104*%
X23719871Y41090377D03*
X24634871Y41090377D03*
%TD*%
D10*
%TO.C,R37*%
X39002679Y143509269D03*
X39662679Y143509269D03*
%TD*%
D13*
%TO.C,R109*%
X127319871Y106610377D03*
X128234871Y106610377D03*
%TD*%
D10*
%TO.C,R44*%
X147681871Y152266301D03*
X148341871Y152266301D03*
%TD*%
%TO.C,R27*%
X137523489Y143509269D03*
X138183489Y143509269D03*
%TD*%
%TO.C,R38*%
X39002679Y60456307D03*
X39662679Y60456307D03*
%TD*%
D13*
%TO.C,R101*%
X127319871Y129970377D03*
X128234871Y129970377D03*
%TD*%
%TO.C,R118*%
X132759871Y29410377D03*
X133674871Y29410377D03*
%TD*%
D10*
%TO.C,R18*%
X132444299Y140576307D03*
X133104299Y140576307D03*
%TD*%
D13*
%TO.C,R116*%
X236359871Y35250377D03*
X237274871Y35250377D03*
%TD*%
D10*
%TO.C,R18*%
X236044299Y60456307D03*
X236704299Y60456307D03*
%TD*%
D13*
%TO.C,R103*%
X127319871Y44010377D03*
X128234871Y44010377D03*
%TD*%
%TO.C,R105*%
X127319871Y118290377D03*
X128234871Y118290377D03*
%TD*%
D10*
%TO.C,R30*%
X241123489Y54590377D03*
X241783489Y54590377D03*
%TD*%
D16*
%TO.C,IC2*%
X158891491Y160477035D03*
X159891489Y160477035D03*
X160891487Y160477035D03*
X161891485Y160477035D03*
X157891493Y159477037D03*
X158891491Y159477037D03*
X159891489Y159477037D03*
X160891487Y159477037D03*
X161891485Y159477037D03*
X157891493Y158477039D03*
X158891491Y158477039D03*
X159891489Y158477039D03*
X160891487Y158477039D03*
X161891485Y158477039D03*
X157891493Y157477041D03*
X158891491Y157477041D03*
X159891489Y157477041D03*
X160891487Y157477041D03*
X161891485Y157477041D03*
X157891493Y156477043D03*
X158891491Y156477043D03*
X159891489Y156477043D03*
X160891487Y156477043D03*
X161891485Y156477043D03*
%TD*%
D13*
%TO.C,R124*%
X137806633Y41090377D03*
X138721633Y41090377D03*
%TD*%
D10*
%TO.C,R17*%
X132444299Y143509269D03*
X133104299Y143509269D03*
%TD*%
%TO.C,R30*%
X241123489Y134710377D03*
X241783489Y134710377D03*
%TD*%
D13*
%TO.C,R119*%
X236359871Y26490377D03*
X237274871Y26490377D03*
%TD*%
%TO.C,R107*%
X23719871Y32330377D03*
X24634871Y32330377D03*
%TD*%
D10*
%TO.C,R1*%
X230965109Y161107041D03*
X231625109Y161107041D03*
%TD*%
D13*
%TO.C,R113*%
X132759871Y44010377D03*
X133674871Y44010377D03*
%TD*%
D10*
%TO.C,R46*%
X44081871Y66280377D03*
X44741871Y66280377D03*
%TD*%
D16*
%TO.C,IC2*%
X262491491Y80357035D03*
X263491489Y80357035D03*
X264491487Y80357035D03*
X265491485Y80357035D03*
X261491493Y79357037D03*
X262491491Y79357037D03*
X263491489Y79357037D03*
X264491487Y79357037D03*
X265491485Y79357037D03*
X261491493Y78357039D03*
X262491491Y78357039D03*
X263491489Y78357039D03*
X264491487Y78357039D03*
X265491485Y78357039D03*
X261491493Y77357041D03*
X262491491Y77357041D03*
X263491489Y77357041D03*
X264491487Y77357041D03*
X265491485Y77357041D03*
X261491493Y76357043D03*
X262491491Y76357043D03*
X263491489Y76357043D03*
X264491487Y76357043D03*
X265491485Y76357043D03*
%TD*%
D10*
%TO.C,R41*%
X251281871Y80945187D03*
X251941871Y80945187D03*
%TD*%
%TO.C,R23*%
X241123489Y155241117D03*
X241783489Y155241117D03*
%TD*%
%TO.C,R7*%
X23765109Y143509269D03*
X24425109Y143509269D03*
%TD*%
D13*
%TO.C,R117*%
X132759871Y32330377D03*
X133674871Y32330377D03*
%TD*%
%TO.C,R119*%
X236359871Y106610377D03*
X237274871Y106610377D03*
%TD*%
%TO.C,R123*%
X137806633Y124130377D03*
X138721633Y124130377D03*
%TD*%
%TO.C,R101*%
X23719871Y129970377D03*
X24634871Y129970377D03*
%TD*%
D10*
%TO.C,R22*%
X241123489Y78054079D03*
X241783489Y78054079D03*
%TD*%
%TO.C,R34*%
X39002679Y72188155D03*
X39662679Y72188155D03*
%TD*%
D13*
%TO.C,R106*%
X127319871Y115370377D03*
X128234871Y115370377D03*
%TD*%
D10*
%TO.C,R34*%
X246202679Y72188155D03*
X246862679Y72188155D03*
%TD*%
D13*
%TO.C,R120*%
X29159871Y23570377D03*
X30074871Y23570377D03*
%TD*%
D10*
%TO.C,R28*%
X33923489Y60456307D03*
X34583489Y60456307D03*
%TD*%
%TO.C,R17*%
X132444299Y63389269D03*
X133104299Y63389269D03*
%TD*%
%TO.C,R23*%
X241123489Y75121117D03*
X241783489Y75121117D03*
%TD*%
%TO.C,R37*%
X246202679Y63389269D03*
X246862679Y63389269D03*
%TD*%
%TO.C,R8*%
X23765109Y140576307D03*
X24425109Y140576307D03*
%TD*%
D13*
%TO.C,R117*%
X236359871Y112450377D03*
X237274871Y112450377D03*
%TD*%
D10*
%TO.C,R47*%
X147681871Y143467415D03*
X148341871Y143467415D03*
%TD*%
%TO.C,R32*%
X39002679Y158174079D03*
X39662679Y158174079D03*
%TD*%
%TO.C,R10*%
X127365109Y54590377D03*
X128025109Y54590377D03*
%TD*%
%TO.C,R29*%
X33923489Y57523345D03*
X34583489Y57523345D03*
%TD*%
%TO.C,R28*%
X137523489Y140576307D03*
X138183489Y140576307D03*
%TD*%
%TO.C,R21*%
X33923489Y80987041D03*
X34583489Y80987041D03*
%TD*%
%TO.C,R25*%
X33923489Y149375193D03*
X34583489Y149375193D03*
%TD*%
D13*
%TO.C,R125*%
X34206633Y118290377D03*
X35121633Y118290377D03*
%TD*%
D10*
%TO.C,R11*%
X236044299Y161107041D03*
X236704299Y161107041D03*
%TD*%
%TO.C,R11*%
X236044299Y80987041D03*
X236704299Y80987041D03*
%TD*%
D13*
%TO.C,R111*%
X29159871Y129970377D03*
X30074871Y129970377D03*
%TD*%
%TO.C,R125*%
X241406633Y38170377D03*
X242321633Y38170377D03*
%TD*%
%TO.C,R115*%
X132759871Y118290377D03*
X133674871Y118290377D03*
%TD*%
D10*
%TO.C,R46*%
X251281871Y66280377D03*
X251941871Y66280377D03*
%TD*%
D13*
%TO.C,R111*%
X236359871Y49850377D03*
X237274871Y49850377D03*
%TD*%
D10*
%TO.C,R34*%
X142602679Y152308155D03*
X143262679Y152308155D03*
%TD*%
D13*
%TO.C,R121*%
X241409871Y129970377D03*
X242324871Y129970377D03*
%TD*%
D10*
%TO.C,R25*%
X137523489Y149375193D03*
X138183489Y149375193D03*
%TD*%
D13*
%TO.C,R117*%
X236359871Y32330377D03*
X237274871Y32330377D03*
%TD*%
D10*
%TO.C,R20*%
X132444299Y134710377D03*
X133104299Y134710377D03*
%TD*%
%TO.C,R5*%
X230965109Y69255193D03*
X231625109Y69255193D03*
%TD*%
D13*
%TO.C,R116*%
X132759871Y115370377D03*
X133674871Y115370377D03*
%TD*%
D10*
%TO.C,R48*%
X147681871Y60414453D03*
X148341871Y60414453D03*
%TD*%
%TO.C,R27*%
X241123489Y143509269D03*
X241783489Y143509269D03*
%TD*%
%TO.C,R19*%
X236044299Y137643345D03*
X236704299Y137643345D03*
%TD*%
%TO.C,R33*%
X39002679Y155241117D03*
X39662679Y155241117D03*
%TD*%
%TO.C,R37*%
X246202679Y143509269D03*
X246862679Y143509269D03*
%TD*%
D13*
%TO.C,R113*%
X236359871Y44010377D03*
X237274871Y44010377D03*
%TD*%
D10*
%TO.C,R14*%
X236044299Y72188155D03*
X236704299Y72188155D03*
%TD*%
D13*
%TO.C,R103*%
X230919871Y124130377D03*
X231834871Y124130377D03*
%TD*%
%TO.C,R108*%
X23719871Y109530377D03*
X24634871Y109530377D03*
%TD*%
%TO.C,R106*%
X230919871Y35250377D03*
X231834871Y35250377D03*
%TD*%
%TO.C,R114*%
X132759871Y121210377D03*
X133674871Y121210377D03*
%TD*%
%TO.C,R122*%
X241406633Y46930377D03*
X242321633Y46930377D03*
%TD*%
D14*
%TO.C,J1*%
X157141489Y149107035D03*
X157641489Y149107035D03*
X158141489Y149107035D03*
X158641489Y149107035D03*
X159141489Y149107035D03*
X159641489Y149107035D03*
X160141489Y149107035D03*
X160641489Y149107035D03*
X161141489Y149107035D03*
X161641489Y149107035D03*
X162141489Y149107035D03*
X162641489Y149107035D03*
X162391489Y147407035D03*
X161891489Y147407035D03*
X161391489Y147407035D03*
X160891489Y147407035D03*
X160391489Y147407035D03*
X159891489Y147407035D03*
X159391489Y147407035D03*
X158891489Y147407035D03*
X158391489Y147407035D03*
X157891489Y147407035D03*
X157391489Y147407035D03*
X156891489Y147407035D03*
%TD*%
D13*
%TO.C,R107*%
X23719871Y112450377D03*
X24634871Y112450377D03*
%TD*%
%TO.C,R120*%
X236359871Y23570377D03*
X237274871Y23570377D03*
%TD*%
%TO.C,R107*%
X127319871Y32330377D03*
X128234871Y32330377D03*
%TD*%
%TO.C,R110*%
X23719871Y23570377D03*
X24634871Y23570377D03*
%TD*%
D10*
%TO.C,R31*%
X142602679Y80987041D03*
X143262679Y80987041D03*
%TD*%
D13*
%TO.C,R122*%
X137806633Y127050377D03*
X138721633Y127050377D03*
%TD*%
D17*
%TO.C,SW1*%
X156516495Y108067037D03*
X163266482Y108067037D03*
X156516495Y104067045D03*
X163266482Y104067045D03*
%TD*%
D10*
%TO.C,R26*%
X33923489Y146442231D03*
X34583489Y146442231D03*
%TD*%
%TO.C,R9*%
X230965109Y57523345D03*
X231625109Y57523345D03*
%TD*%
%TO.C,R14*%
X236044299Y152308155D03*
X236704299Y152308155D03*
%TD*%
D13*
%TO.C,R115*%
X236359871Y38170377D03*
X237274871Y38170377D03*
%TD*%
%TO.C,R102*%
X230919871Y127050377D03*
X231834871Y127050377D03*
%TD*%
%TO.C,R101*%
X23719871Y49850377D03*
X24634871Y49850377D03*
%TD*%
D10*
%TO.C,R49*%
X251281871Y137601491D03*
X251941871Y137601491D03*
%TD*%
D13*
%TO.C,R105*%
X230919871Y38170377D03*
X231834871Y38170377D03*
%TD*%
D10*
%TO.C,R19*%
X28844299Y57523345D03*
X29504299Y57523345D03*
%TD*%
D13*
%TO.C,R109*%
X230919871Y106610377D03*
X231834871Y106610377D03*
%TD*%
D10*
%TO.C,R16*%
X132444299Y66322231D03*
X133104299Y66322231D03*
%TD*%
D13*
%TO.C,R102*%
X230919871Y46930377D03*
X231834871Y46930377D03*
%TD*%
%TO.C,R113*%
X29159871Y124130377D03*
X30074871Y124130377D03*
%TD*%
%TO.C,R115*%
X236359871Y118290377D03*
X237274871Y118290377D03*
%TD*%
D10*
%TO.C,R2*%
X127365109Y78054079D03*
X128025109Y78054079D03*
%TD*%
D13*
%TO.C,R106*%
X23719871Y115370377D03*
X24634871Y115370377D03*
%TD*%
%TO.C,R113*%
X236359871Y124130377D03*
X237274871Y124130377D03*
%TD*%
%TO.C,R118*%
X236359871Y109530377D03*
X237274871Y109530377D03*
%TD*%
D10*
%TO.C,R5*%
X23765109Y149375193D03*
X24425109Y149375193D03*
%TD*%
D13*
%TO.C,R121*%
X34209871Y49850377D03*
X35124871Y49850377D03*
%TD*%
D10*
%TO.C,R13*%
X28844299Y155241117D03*
X29504299Y155241117D03*
%TD*%
%TO.C,R50*%
X44081871Y134668523D03*
X44741871Y134668523D03*
%TD*%
D13*
%TO.C,R121*%
X34209871Y129970377D03*
X35124871Y129970377D03*
%TD*%
D10*
%TO.C,R28*%
X241123489Y140576307D03*
X241783489Y140576307D03*
%TD*%
D13*
%TO.C,R101*%
X230919871Y129970377D03*
X231834871Y129970377D03*
%TD*%
M02*
