M48
INCH
T1C0.0197
T2C0.0315
T3C0.0433
%
G90
G05
T2
X3.0715Y6.1642
X3.0715Y6.0445
X3.0715Y5.9252
X3.0715Y5.8071
X3.0715Y5.6941
X3.0715Y3.0099
X3.0715Y2.8902
X3.0715Y2.7709
X3.0715Y2.6528
X3.0715Y2.5398
X3.2734Y6.1642
X3.2734Y6.0445
X3.2734Y5.9252
X3.2734Y5.8071
X3.2734Y5.6941
X3.2734Y3.0099
X3.2734Y2.8902
X3.2734Y2.7709
X3.2734Y2.6528
X3.2734Y2.5398
X7.1502Y6.1642
X7.1502Y6.0445
X7.1502Y5.9252
X7.1502Y5.8071
X7.1502Y5.6941
X7.1502Y3.0099
X7.1502Y2.8902
X7.1502Y2.7709
X7.1502Y2.6528
X7.1502Y2.5398
X7.3522Y6.1642
X7.3522Y6.0445
X7.3522Y5.9252
X7.3522Y5.8071
X7.3522Y5.6941
X7.3522Y3.0099
X7.3522Y2.8902
X7.3522Y2.7709
X7.3522Y2.6528
X7.3522Y2.5398
X11.2289Y6.1642
X11.2289Y6.0445
X11.2289Y5.9252
X11.2289Y5.8071
X11.2289Y5.6941
X11.2289Y3.0099
X11.2289Y2.8902
X11.2289Y2.7709
X11.2289Y2.6528
X11.2289Y2.5398
X11.4309Y6.1642
X11.4309Y6.0445
X11.4309Y5.9252
X11.4309Y5.8071
X11.4309Y5.6941
X11.4309Y3.0099
X11.4309Y2.8902
X11.4309Y2.7709
X11.4309Y2.6528
X11.4309Y2.5398
T3
X3.137Y6.1642
X3.137Y6.0445
X3.137Y5.9252
X3.137Y5.8071
X3.137Y5.6941
X3.137Y3.0099
X3.137Y2.8902
X3.137Y2.7709
X3.137Y2.6528
X3.137Y2.5398
X3.2079Y6.1642
X3.2079Y6.0445
X3.2079Y5.9252
X3.2079Y5.8071
X3.2079Y5.6941
X3.2079Y3.0099
X3.2079Y2.8902
X3.2079Y2.7709
X3.2079Y2.6528
X3.2079Y2.5398
X7.2157Y6.1642
X7.2157Y6.0445
X7.2157Y5.9252
X7.2157Y5.8071
X7.2157Y5.6941
X7.2157Y3.0099
X7.2157Y2.8902
X7.2157Y2.7709
X7.2157Y2.6528
X7.2157Y2.5398
X7.2866Y6.1642
X7.2866Y6.0445
X7.2866Y5.9252
X7.2866Y5.8071
X7.2866Y5.6941
X7.2866Y3.0099
X7.2866Y2.8902
X7.2866Y2.7709
X7.2866Y2.6528
X7.2866Y2.5398
X11.2945Y6.1642
X11.2945Y6.0445
X11.2945Y5.9252
X11.2945Y5.8071
X11.2945Y5.6941
X11.2945Y3.0099
X11.2945Y2.8902
X11.2945Y2.7709
X11.2945Y2.6528
X11.2945Y2.5398
X11.3653Y6.1642
X11.3653Y6.0445
X11.3653Y5.9252
X11.3653Y5.8071
X11.3653Y5.6941
X11.3653Y3.0099
X11.3653Y2.8902
X11.3653Y2.7709
X11.3653Y2.6528
X11.3653Y2.5398
T1
G00X2.0394Y5.5727
M15
G01X2.0394Y5.5491
M16
G05
G00X2.0394Y2.4184
M15
G01X2.0394Y2.3948
M16
G05
G00X2.0536Y5.807
M15
G01X2.0536Y5.7833
M16
G05
G00X2.0536Y2.6526
M15
G01X2.0536Y2.629
M16
G05
G00X2.0524Y4.6011
M15
G01X2.0642Y4.6011
M16
G05
G00X2.0524Y1.4467
M15
G01X2.0642Y1.4467
M16
G05
G00X2.1335Y4.7113
M15
G01X2.1611Y4.7113
M16
G05
G00X2.1335Y4.4908
M15
G01X2.1611Y4.4908
M16
G05
G00X2.1335Y1.557
M15
G01X2.1611Y1.557
M16
G05
G00X2.1335Y1.3365
M15
G01X2.1611Y1.3365
M16
G05
G00X2.2713Y4.7113
M15
G01X2.2989Y4.7113
M16
G05
G00X2.2713Y4.4908
M15
G01X2.2989Y4.4908
M16
G05
G00X2.2713Y1.557
M15
G01X2.2989Y1.557
M16
G05
G00X2.2713Y1.3365
M15
G01X2.2989Y1.3365
M16
G05
G00X2.3682Y4.6011
M15
G01X2.38Y4.6011
M16
G05
G00X2.3682Y1.4467
M15
G01X2.38Y1.4467
M16
G05
G00X2.3788Y5.807
M15
G01X2.3788Y5.7833
M16
G05
G00X2.3788Y2.6526
M15
G01X2.3788Y2.629
M16
G05
G00X2.393Y5.5727
M15
G01X2.393Y5.5491
M16
G05
G00X2.393Y2.4184
M15
G01X2.393Y2.3948
M16
G05
G00X6.1182Y5.5727
M15
G01X6.1182Y5.5491
M16
G05
G00X6.1182Y2.4184
M15
G01X6.1182Y2.3948
M16
G05
G00X6.1323Y5.807
M15
G01X6.1323Y5.7833
M16
G05
G00X6.1323Y2.6526
M15
G01X6.1323Y2.629
M16
G05
G00X6.1312Y4.6011
M15
G01X6.143Y4.6011
M16
G05
G00X6.1312Y1.4467
M15
G01X6.143Y1.4467
M16
G05
G00X6.2123Y4.7113
M15
G01X6.2398Y4.7113
M16
G05
G00X6.2123Y4.4908
M15
G01X6.2398Y4.4908
M16
G05
G00X6.2123Y1.557
M15
G01X6.2398Y1.557
M16
G05
G00X6.2123Y1.3365
M15
G01X6.2398Y1.3365
M16
G05
G00X6.3501Y4.7113
M15
G01X6.3776Y4.7113
M16
G05
G00X6.3501Y4.4908
M15
G01X6.3776Y4.4908
M16
G05
G00X6.3501Y1.557
M15
G01X6.3776Y1.557
M16
G05
G00X6.3501Y1.3365
M15
G01X6.3776Y1.3365
M16
G05
G00X6.4469Y4.6011
M15
G01X6.4587Y4.6011
M16
G05
G00X6.4469Y1.4467
M15
G01X6.4587Y1.4467
M16
G05
G00X6.4575Y5.807
M15
G01X6.4575Y5.7833
M16
G05
G00X6.4575Y2.6526
M15
G01X6.4575Y2.629
M16
G05
G00X6.4717Y5.5727
M15
G01X6.4717Y5.5491
M16
G05
G00X6.4717Y2.4184
M15
G01X6.4717Y2.3948
M16
G05
G00X10.1969Y5.5727
M15
G01X10.1969Y5.5491
M16
G05
G00X10.1969Y2.4184
M15
G01X10.1969Y2.3948
M16
G05
G00X10.2111Y5.807
M15
G01X10.2111Y5.7833
M16
G05
G00X10.2111Y2.6526
M15
G01X10.2111Y2.629
M16
G05
G00X10.2099Y4.6011
M15
G01X10.2217Y4.6011
M16
G05
G00X10.2099Y1.4467
M15
G01X10.2217Y1.4467
M16
G05
G00X10.291Y4.7113
M15
G01X10.3186Y4.7113
M16
G05
G00X10.291Y4.4908
M15
G01X10.3186Y4.4908
M16
G05
G00X10.291Y1.557
M15
G01X10.3186Y1.557
M16
G05
G00X10.291Y1.3365
M15
G01X10.3186Y1.3365
M16
G05
G00X10.4288Y4.7113
M15
G01X10.4564Y4.7113
M16
G05
G00X10.4288Y4.4908
M15
G01X10.4564Y4.4908
M16
G05
G00X10.4288Y1.557
M15
G01X10.4564Y1.557
M16
G05
G00X10.4288Y1.3365
M15
G01X10.4564Y1.3365
M16
G05
G00X10.5256Y4.6011
M15
G01X10.5375Y4.6011
M16
G05
G00X10.5256Y1.4467
M15
G01X10.5375Y1.4467
M16
G05
G00X10.5363Y5.807
M15
G01X10.5363Y5.7833
M16
G05
G00X10.5363Y2.6526
M15
G01X10.5363Y2.629
M16
G05
G00X10.5505Y5.5727
M15
G01X10.5505Y5.5491
M16
G05
G00X10.5505Y2.4184
M15
G01X10.5505Y2.3948
M16
G05
T0
M30
