M48
INCH
T1C0.0256
T2C0.0394
T3C0.1181
%
G90
G05
T1
X2.0745Y5.8444
X2.0745Y2.69
X2.3579Y5.8444
X2.3579Y2.69
X6.1532Y5.8444
X6.1532Y2.69
X6.4367Y5.8444
X6.4367Y2.69
X10.2319Y5.8444
X10.2319Y2.69
X10.5154Y5.8444
X10.5154Y2.69
T2
X0.685Y6.1654
X0.685Y6.0788
X0.685Y4.1618
X0.685Y4.0752
X0.685Y3.7445
X0.685Y3.6264
X0.685Y3.011
X0.685Y2.9244
X0.685Y1.0075
X0.685Y0.9209
X1.0736Y6.6862
X1.0736Y3.839
X1.0736Y3.5319
X1.0736Y0.6847
X1.1602Y6.6862
X1.1602Y3.839
X1.1602Y3.5319
X1.1602Y0.6847
X3.8917Y6.6862
X3.8917Y3.839
X3.8917Y3.5319
X3.8917Y0.6847
X3.9783Y6.6862
X3.9783Y3.839
X3.9783Y3.5319
X3.9783Y0.6847
X4.3386Y6.5189
X4.3386Y6.4323
X4.3386Y4.0851
X4.3386Y3.9984
X4.3386Y3.3646
X4.3386Y3.278
X4.3386Y0.9307
X4.3386Y0.8441
X4.5512Y6.6862
X4.5512Y3.7445
X4.5512Y3.7445
X4.5512Y3.6264
X4.5512Y3.6264
X4.5512Y0.6847
X4.6693Y6.6862
X4.6693Y3.7445
X4.6693Y3.7445
X4.6693Y3.6264
X4.6693Y3.6264
X4.6693Y0.6847
X4.7638Y6.1654
X4.7638Y6.0788
X4.7638Y4.1618
X4.7638Y4.0752
X4.7638Y3.011
X4.7638Y2.9244
X4.7638Y1.0075
X4.7638Y0.9209
X5.1524Y6.6862
X5.1524Y3.839
X5.1524Y3.5319
X5.1524Y0.6847
X5.239Y6.6862
X5.239Y3.839
X5.239Y3.5319
X5.239Y0.6847
X7.9705Y6.6862
X7.9705Y3.839
X7.9705Y3.5319
X7.9705Y0.6847
X8.0571Y6.6862
X8.0571Y3.839
X8.0571Y3.5319
X8.0571Y0.6847
X8.4173Y6.5189
X8.4173Y6.4323
X8.4173Y4.0851
X8.4173Y3.9984
X8.4173Y3.3646
X8.4173Y3.278
X8.4173Y0.9307
X8.4173Y0.8441
X8.6299Y6.6862
X8.6299Y3.7445
X8.6299Y3.7445
X8.6299Y3.6264
X8.6299Y3.6264
X8.6299Y0.6847
X8.748Y6.6862
X8.748Y3.7445
X8.748Y3.7445
X8.748Y3.6264
X8.748Y3.6264
X8.748Y0.6847
X8.8425Y6.1654
X8.8425Y6.0788
X8.8425Y4.1618
X8.8425Y4.0752
X8.8425Y3.011
X8.8425Y2.9244
X8.8425Y1.0075
X8.8425Y0.9209
X9.2311Y6.6862
X9.2311Y3.839
X9.2311Y3.5319
X9.2311Y0.6847
X9.3177Y6.6862
X9.3177Y3.839
X9.3177Y3.5319
X9.3177Y0.6847
X12.0492Y6.6862
X12.0492Y3.839
X12.0492Y3.5319
X12.0492Y0.6847
X12.1358Y6.6862
X12.1358Y3.839
X12.1358Y3.5319
X12.1358Y0.6847
X12.4961Y6.5189
X12.4961Y6.4323
X12.4961Y4.0851
X12.4961Y3.9984
X12.4961Y3.3646
X12.4961Y3.278
X12.4961Y0.9307
X12.4961Y0.8441
X12.6142Y3.7445
X12.6142Y3.6264
T3
X0.2362Y7.1351
X0.2362Y0.2358
X13.063Y7.1351
X13.063Y0.2358
T0
M30
