%TF.GenerationSoftware,KiCad,Pcbnew,7.0.5*%
%TF.CreationDate,2023-09-05T09:46:38+01:00*%
%TF.ProjectId,PANELTEST141,50414e45-4c54-4455-9354-3134312e6b69,00.00*%
%TF.SameCoordinates,PX27b9fb5PYc4a79ca*%
%TF.FileFunction,Legend,Bot*%
%TF.FilePolarity,Positive*%
%FSLAX46Y46*%
G04 Gerber Fmt 4.6, Leading zero omitted, Abs format (unit mm)*
G04 Created by KiCad (PCBNEW 7.0.5) date 2023-09-05 09:46:38*
%MOMM*%
%LPD*%
G01*
G04 APERTURE LIST*
%ADD10C,0.150000*%
%ADD11C,0.100000*%
%ADD12C,3.580000*%
%ADD13C,3.605000*%
%ADD14C,2.905000*%
%ADD15C,1.200000*%
%ADD16O,2.400000X4.100000*%
%ADD17C,1.000000*%
%ADD18C,0.650000*%
%ADD19O,0.800000X1.600000*%
%ADD20C,3.000000*%
%ADD21O,1.200000X0.900000*%
%ADD22O,1.600000X0.800000*%
%ADD23C,1.498600*%
%ADD24C,1.524000*%
%ADD25R,0.150000X0.200000*%
%ADD26R,0.762000X0.914400*%
G04 APERTURE END LIST*
D10*
%TO.C,IC2*%
X261206308Y87191439D02*
X261206308Y86715249D01*
X261206308Y86715249D02*
X261682498Y86667630D01*
X261682498Y86667630D02*
X261634879Y86715249D01*
X261634879Y86715249D02*
X261587260Y86810487D01*
X261587260Y86810487D02*
X261587260Y87048582D01*
X261587260Y87048582D02*
X261634879Y87143820D01*
X261634879Y87143820D02*
X261682498Y87191439D01*
X261682498Y87191439D02*
X261777736Y87239058D01*
X261777736Y87239058D02*
X262015831Y87239058D01*
X262015831Y87239058D02*
X262111069Y87191439D01*
X262111069Y87191439D02*
X262158689Y87143820D01*
X262158689Y87143820D02*
X262206308Y87048582D01*
X262206308Y87048582D02*
X262206308Y86810487D01*
X262206308Y86810487D02*
X262158689Y86715249D01*
X262158689Y86715249D02*
X262111069Y86667630D01*
X255854207Y80336038D02*
X256187540Y80336038D01*
X256330397Y79812228D02*
X255854207Y79812228D01*
X255854207Y79812228D02*
X255854207Y80812228D01*
X255854207Y80812228D02*
X256330397Y80812228D01*
X255830398Y84097935D02*
X256306588Y84097935D01*
X255735160Y83812220D02*
X256068493Y84812220D01*
X256068493Y84812220D02*
X256401826Y83812220D01*
X258206316Y87239058D02*
X258206316Y86667630D01*
X258206316Y86953344D02*
X257206316Y86953344D01*
X257206316Y86953344D02*
X257349173Y86858106D01*
X257349173Y86858106D02*
X257444411Y86762868D01*
X257444411Y86762868D02*
X257492030Y86667630D01*
X54006308Y87191439D02*
X54006308Y86715249D01*
X54006308Y86715249D02*
X54482498Y86667630D01*
X54482498Y86667630D02*
X54434879Y86715249D01*
X54434879Y86715249D02*
X54387260Y86810487D01*
X54387260Y86810487D02*
X54387260Y87048582D01*
X54387260Y87048582D02*
X54434879Y87143820D01*
X54434879Y87143820D02*
X54482498Y87191439D01*
X54482498Y87191439D02*
X54577736Y87239058D01*
X54577736Y87239058D02*
X54815831Y87239058D01*
X54815831Y87239058D02*
X54911069Y87191439D01*
X54911069Y87191439D02*
X54958689Y87143820D01*
X54958689Y87143820D02*
X55006308Y87048582D01*
X55006308Y87048582D02*
X55006308Y86810487D01*
X55006308Y86810487D02*
X54958689Y86715249D01*
X54958689Y86715249D02*
X54911069Y86667630D01*
X48654207Y80336038D02*
X48987540Y80336038D01*
X49130397Y79812228D02*
X48654207Y79812228D01*
X48654207Y79812228D02*
X48654207Y80812228D01*
X48654207Y80812228D02*
X49130397Y80812228D01*
X48630398Y84097935D02*
X49106588Y84097935D01*
X48535160Y83812220D02*
X48868493Y84812220D01*
X48868493Y84812220D02*
X49201826Y83812220D01*
X51006316Y87239058D02*
X51006316Y86667630D01*
X51006316Y86953344D02*
X50006316Y86953344D01*
X50006316Y86953344D02*
X50149173Y86858106D01*
X50149173Y86858106D02*
X50244411Y86762868D01*
X50244411Y86762868D02*
X50292030Y86667630D01*
X54006308Y167311439D02*
X54006308Y166835249D01*
X54006308Y166835249D02*
X54482498Y166787630D01*
X54482498Y166787630D02*
X54434879Y166835249D01*
X54434879Y166835249D02*
X54387260Y166930487D01*
X54387260Y166930487D02*
X54387260Y167168582D01*
X54387260Y167168582D02*
X54434879Y167263820D01*
X54434879Y167263820D02*
X54482498Y167311439D01*
X54482498Y167311439D02*
X54577736Y167359058D01*
X54577736Y167359058D02*
X54815831Y167359058D01*
X54815831Y167359058D02*
X54911069Y167311439D01*
X54911069Y167311439D02*
X54958689Y167263820D01*
X54958689Y167263820D02*
X55006308Y167168582D01*
X55006308Y167168582D02*
X55006308Y166930487D01*
X55006308Y166930487D02*
X54958689Y166835249D01*
X54958689Y166835249D02*
X54911069Y166787630D01*
X48654207Y160456038D02*
X48987540Y160456038D01*
X49130397Y159932228D02*
X48654207Y159932228D01*
X48654207Y159932228D02*
X48654207Y160932228D01*
X48654207Y160932228D02*
X49130397Y160932228D01*
X48630398Y164217935D02*
X49106588Y164217935D01*
X48535160Y163932220D02*
X48868493Y164932220D01*
X48868493Y164932220D02*
X49201826Y163932220D01*
X51006316Y167359058D02*
X51006316Y166787630D01*
X51006316Y167073344D02*
X50006316Y167073344D01*
X50006316Y167073344D02*
X50149173Y166978106D01*
X50149173Y166978106D02*
X50244411Y166882868D01*
X50244411Y166882868D02*
X50292030Y166787630D01*
X157606308Y87191439D02*
X157606308Y86715249D01*
X157606308Y86715249D02*
X158082498Y86667630D01*
X158082498Y86667630D02*
X158034879Y86715249D01*
X158034879Y86715249D02*
X157987260Y86810487D01*
X157987260Y86810487D02*
X157987260Y87048582D01*
X157987260Y87048582D02*
X158034879Y87143820D01*
X158034879Y87143820D02*
X158082498Y87191439D01*
X158082498Y87191439D02*
X158177736Y87239058D01*
X158177736Y87239058D02*
X158415831Y87239058D01*
X158415831Y87239058D02*
X158511069Y87191439D01*
X158511069Y87191439D02*
X158558689Y87143820D01*
X158558689Y87143820D02*
X158606308Y87048582D01*
X158606308Y87048582D02*
X158606308Y86810487D01*
X158606308Y86810487D02*
X158558689Y86715249D01*
X158558689Y86715249D02*
X158511069Y86667630D01*
X152254207Y80336038D02*
X152587540Y80336038D01*
X152730397Y79812228D02*
X152254207Y79812228D01*
X152254207Y79812228D02*
X152254207Y80812228D01*
X152254207Y80812228D02*
X152730397Y80812228D01*
X152230398Y84097935D02*
X152706588Y84097935D01*
X152135160Y83812220D02*
X152468493Y84812220D01*
X152468493Y84812220D02*
X152801826Y83812220D01*
X154606316Y87239058D02*
X154606316Y86667630D01*
X154606316Y86953344D02*
X153606316Y86953344D01*
X153606316Y86953344D02*
X153749173Y86858106D01*
X153749173Y86858106D02*
X153844411Y86762868D01*
X153844411Y86762868D02*
X153892030Y86667630D01*
X157606308Y167311439D02*
X157606308Y166835249D01*
X157606308Y166835249D02*
X158082498Y166787630D01*
X158082498Y166787630D02*
X158034879Y166835249D01*
X158034879Y166835249D02*
X157987260Y166930487D01*
X157987260Y166930487D02*
X157987260Y167168582D01*
X157987260Y167168582D02*
X158034879Y167263820D01*
X158034879Y167263820D02*
X158082498Y167311439D01*
X158082498Y167311439D02*
X158177736Y167359058D01*
X158177736Y167359058D02*
X158415831Y167359058D01*
X158415831Y167359058D02*
X158511069Y167311439D01*
X158511069Y167311439D02*
X158558689Y167263820D01*
X158558689Y167263820D02*
X158606308Y167168582D01*
X158606308Y167168582D02*
X158606308Y166930487D01*
X158606308Y166930487D02*
X158558689Y166835249D01*
X158558689Y166835249D02*
X158511069Y166787630D01*
X152254207Y160456038D02*
X152587540Y160456038D01*
X152730397Y159932228D02*
X152254207Y159932228D01*
X152254207Y159932228D02*
X152254207Y160932228D01*
X152254207Y160932228D02*
X152730397Y160932228D01*
X152230398Y164217935D02*
X152706588Y164217935D01*
X152135160Y163932220D02*
X152468493Y164932220D01*
X152468493Y164932220D02*
X152801826Y163932220D01*
X154606316Y167359058D02*
X154606316Y166787630D01*
X154606316Y167073344D02*
X153606316Y167073344D01*
X153606316Y167073344D02*
X153749173Y166978106D01*
X153749173Y166978106D02*
X153844411Y166882868D01*
X153844411Y166882868D02*
X153892030Y166787630D01*
X261206308Y167311439D02*
X261206308Y166835249D01*
X261206308Y166835249D02*
X261682498Y166787630D01*
X261682498Y166787630D02*
X261634879Y166835249D01*
X261634879Y166835249D02*
X261587260Y166930487D01*
X261587260Y166930487D02*
X261587260Y167168582D01*
X261587260Y167168582D02*
X261634879Y167263820D01*
X261634879Y167263820D02*
X261682498Y167311439D01*
X261682498Y167311439D02*
X261777736Y167359058D01*
X261777736Y167359058D02*
X262015831Y167359058D01*
X262015831Y167359058D02*
X262111069Y167311439D01*
X262111069Y167311439D02*
X262158689Y167263820D01*
X262158689Y167263820D02*
X262206308Y167168582D01*
X262206308Y167168582D02*
X262206308Y166930487D01*
X262206308Y166930487D02*
X262158689Y166835249D01*
X262158689Y166835249D02*
X262111069Y166787630D01*
X255854207Y160456038D02*
X256187540Y160456038D01*
X256330397Y159932228D02*
X255854207Y159932228D01*
X255854207Y159932228D02*
X255854207Y160932228D01*
X255854207Y160932228D02*
X256330397Y160932228D01*
X255830398Y164217935D02*
X256306588Y164217935D01*
X255735160Y163932220D02*
X256068493Y164932220D01*
X256068493Y164932220D02*
X256401826Y163932220D01*
X258206316Y167359058D02*
X258206316Y166787630D01*
X258206316Y167073344D02*
X257206316Y167073344D01*
X257206316Y167073344D02*
X257349173Y166978106D01*
X257349173Y166978106D02*
X257444411Y166882868D01*
X257444411Y166882868D02*
X257492030Y166787630D01*
%TD*%
%LPC*%
G36*
X212869871Y145460377D02*
G01*
X216809871Y145460377D01*
X216809871Y143800377D01*
X212869871Y143800377D01*
X212869871Y145460377D01*
G37*
G36*
X314319871Y31520377D02*
G01*
X320479871Y31520377D01*
X320479871Y28960377D01*
X314319871Y28960377D01*
X314319871Y31520377D01*
G37*
G36*
X109269871Y145460377D02*
G01*
X113209871Y145460377D01*
X113209871Y143800377D01*
X109269871Y143800377D01*
X109269871Y145460377D01*
G37*
G36*
X109269871Y77240377D02*
G01*
X113209871Y77240377D01*
X113209871Y75580377D01*
X109269871Y75580377D01*
X109269871Y77240377D01*
G37*
G36*
X107119871Y56420377D02*
G01*
X113279871Y56420377D01*
X113279871Y51260377D01*
X107119871Y51260377D01*
X107119871Y56420377D01*
G37*
G36*
X212879871Y154360377D02*
G01*
X216819871Y154360377D01*
X216819871Y152700377D01*
X212879871Y152700377D01*
X212879871Y154360377D01*
G37*
G36*
X107119871Y111640377D02*
G01*
X113279871Y111640377D01*
X113279871Y109080377D01*
X107119871Y109080377D01*
X107119871Y111640377D01*
G37*
G36*
X316469871Y145460377D02*
G01*
X320409871Y145460377D01*
X320409871Y143800377D01*
X316469871Y143800377D01*
X316469871Y145460377D01*
G37*
G36*
X107119871Y31520377D02*
G01*
X113279871Y31520377D01*
X113279871Y28960377D01*
X107119871Y28960377D01*
X107119871Y31520377D01*
G37*
G36*
X212879871Y71240377D02*
G01*
X216819871Y71240377D01*
X216819871Y69580377D01*
X212879871Y69580377D01*
X212879871Y71240377D01*
G37*
G36*
X212869871Y65340377D02*
G01*
X216809871Y65340377D01*
X216809871Y63680377D01*
X212869871Y63680377D01*
X212869871Y65340377D01*
G37*
G36*
X314319871Y136540377D02*
G01*
X320479871Y136540377D01*
X320479871Y131380377D01*
X314319871Y131380377D01*
X314319871Y136540377D01*
G37*
G36*
X314319871Y56420377D02*
G01*
X320479871Y56420377D01*
X320479871Y51260377D01*
X314319871Y51260377D01*
X314319871Y56420377D01*
G37*
G36*
X316479871Y71240377D02*
G01*
X320419871Y71240377D01*
X320419871Y69580377D01*
X316479871Y69580377D01*
X316479871Y71240377D01*
G37*
G36*
X210769871Y44940377D02*
G01*
X216929871Y44940377D01*
X216929871Y39780377D01*
X210769871Y39780377D01*
X210769871Y44940377D01*
G37*
G36*
X212869871Y77240377D02*
G01*
X216809871Y77240377D01*
X216809871Y75580377D01*
X212869871Y75580377D01*
X212869871Y77240377D01*
G37*
G36*
X212869871Y157360377D02*
G01*
X216809871Y157360377D01*
X216809871Y155700377D01*
X212869871Y155700377D01*
X212869871Y157360377D01*
G37*
G36*
X109279871Y74240377D02*
G01*
X113219871Y74240377D01*
X113219871Y72580377D01*
X109279871Y72580377D01*
X109279871Y74240377D01*
G37*
G36*
X210719871Y56420377D02*
G01*
X216879871Y56420377D01*
X216879871Y51260377D01*
X210719871Y51260377D01*
X210719871Y56420377D01*
G37*
G36*
X210719871Y136540377D02*
G01*
X216879871Y136540377D01*
X216879871Y131380377D01*
X210719871Y131380377D01*
X210719871Y136540377D01*
G37*
G36*
X107169871Y44940377D02*
G01*
X113329871Y44940377D01*
X113329871Y39780377D01*
X107169871Y39780377D01*
X107169871Y44940377D01*
G37*
G36*
X316469871Y77240377D02*
G01*
X320409871Y77240377D01*
X320409871Y75580377D01*
X316469871Y75580377D01*
X316469871Y77240377D01*
G37*
G36*
X314369871Y44940377D02*
G01*
X320529871Y44940377D01*
X320529871Y39780377D01*
X314369871Y39780377D01*
X314369871Y44940377D01*
G37*
G36*
X314319871Y111640377D02*
G01*
X320479871Y111640377D01*
X320479871Y109080377D01*
X314319871Y109080377D01*
X314319871Y111640377D01*
G37*
G36*
X212879871Y151360377D02*
G01*
X216819871Y151360377D01*
X216819871Y149700377D01*
X212879871Y149700377D01*
X212879871Y151360377D01*
G37*
G36*
X109279871Y71240377D02*
G01*
X113219871Y71240377D01*
X113219871Y69580377D01*
X109279871Y69580377D01*
X109279871Y71240377D01*
G37*
G36*
X316469871Y65340377D02*
G01*
X320409871Y65340377D01*
X320409871Y63680377D01*
X316469871Y63680377D01*
X316469871Y65340377D01*
G37*
G36*
X314369871Y125060377D02*
G01*
X320529871Y125060377D01*
X320529871Y119900377D01*
X314369871Y119900377D01*
X314369871Y125060377D01*
G37*
G36*
X109279871Y68240377D02*
G01*
X113219871Y68240377D01*
X113219871Y66580377D01*
X109279871Y66580377D01*
X109279871Y68240377D01*
G37*
G36*
X316479871Y74240377D02*
G01*
X320419871Y74240377D01*
X320419871Y72580377D01*
X316479871Y72580377D01*
X316479871Y74240377D01*
G37*
G36*
X107169871Y125060377D02*
G01*
X113329871Y125060377D01*
X113329871Y119900377D01*
X107169871Y119900377D01*
X107169871Y125060377D01*
G37*
G36*
X109269871Y157360377D02*
G01*
X113209871Y157360377D01*
X113209871Y155700377D01*
X109269871Y155700377D01*
X109269871Y157360377D01*
G37*
G36*
X109269871Y65340377D02*
G01*
X113209871Y65340377D01*
X113209871Y63680377D01*
X109269871Y63680377D01*
X109269871Y65340377D01*
G37*
G36*
X316469871Y157360377D02*
G01*
X320409871Y157360377D01*
X320409871Y155700377D01*
X316469871Y155700377D01*
X316469871Y157360377D01*
G37*
G36*
X109279871Y148360377D02*
G01*
X113219871Y148360377D01*
X113219871Y146700377D01*
X109279871Y146700377D01*
X109279871Y148360377D01*
G37*
G36*
X212879871Y68240377D02*
G01*
X216819871Y68240377D01*
X216819871Y66580377D01*
X212879871Y66580377D01*
X212879871Y68240377D01*
G37*
G36*
X212879871Y74240377D02*
G01*
X216819871Y74240377D01*
X216819871Y72580377D01*
X212879871Y72580377D01*
X212879871Y74240377D01*
G37*
G36*
X316479871Y151360377D02*
G01*
X320419871Y151360377D01*
X320419871Y149700377D01*
X316479871Y149700377D01*
X316479871Y151360377D01*
G37*
G36*
X316479871Y148360377D02*
G01*
X320419871Y148360377D01*
X320419871Y146700377D01*
X316479871Y146700377D01*
X316479871Y148360377D01*
G37*
G36*
X210719871Y31520377D02*
G01*
X216879871Y31520377D01*
X216879871Y28960377D01*
X210719871Y28960377D01*
X210719871Y31520377D01*
G37*
G36*
X109279871Y151360377D02*
G01*
X113219871Y151360377D01*
X113219871Y149700377D01*
X109279871Y149700377D01*
X109279871Y151360377D01*
G37*
G36*
X316479871Y68240377D02*
G01*
X320419871Y68240377D01*
X320419871Y66580377D01*
X316479871Y66580377D01*
X316479871Y68240377D01*
G37*
G36*
X316479871Y154360377D02*
G01*
X320419871Y154360377D01*
X320419871Y152700377D01*
X316479871Y152700377D01*
X316479871Y154360377D01*
G37*
G36*
X210769871Y125060377D02*
G01*
X216929871Y125060377D01*
X216929871Y119900377D01*
X210769871Y119900377D01*
X210769871Y125060377D01*
G37*
G36*
X109279871Y154360377D02*
G01*
X113219871Y154360377D01*
X113219871Y152700377D01*
X109279871Y152700377D01*
X109279871Y154360377D01*
G37*
G36*
X210719871Y111640377D02*
G01*
X216879871Y111640377D01*
X216879871Y109080377D01*
X210719871Y109080377D01*
X210719871Y111640377D01*
G37*
G36*
X107119871Y136540377D02*
G01*
X113279871Y136540377D01*
X113279871Y131380377D01*
X107119871Y131380377D01*
X107119871Y136540377D01*
G37*
G36*
X212879871Y148360377D02*
G01*
X216819871Y148360377D01*
X216819871Y146700377D01*
X212879871Y146700377D01*
X212879871Y148360377D01*
G37*
D11*
%TO.C,TAB1*%
X77109889Y65400377D02*
X84039889Y65400377D01*
X84039889Y65400377D02*
X84039889Y62890377D01*
X84039889Y62890377D02*
X77109889Y62890377D01*
X77109889Y62890377D02*
X77109889Y65400377D01*
G36*
X77109889Y65400377D02*
G01*
X84039889Y65400377D01*
X84039889Y62890377D01*
X77109889Y62890377D01*
X77109889Y65400377D01*
G37*
X77119889Y77890377D02*
X84039889Y77890377D01*
X84039889Y77890377D02*
X84039889Y75490377D01*
X84039889Y75490377D02*
X77119889Y75490377D01*
X77119889Y75490377D02*
X77119889Y77890377D01*
G36*
X77119889Y77890377D02*
G01*
X84039889Y77890377D01*
X84039889Y75490377D01*
X77119889Y75490377D01*
X77119889Y77890377D01*
G37*
X77119889Y74290377D02*
X84039889Y74290377D01*
X84039889Y74290377D02*
X84039889Y72490377D01*
X84039889Y72490377D02*
X77119889Y72490377D01*
X77119889Y72490377D02*
X77119889Y74290377D01*
G36*
X77119889Y74290377D02*
G01*
X84039889Y74290377D01*
X84039889Y72490377D01*
X77119889Y72490377D01*
X77119889Y74290377D01*
G37*
X77119889Y71290377D02*
X84039889Y71290377D01*
X84039889Y71290377D02*
X84039889Y69490377D01*
X84039889Y69490377D02*
X77119889Y69490377D01*
X77119889Y69490377D02*
X77119889Y71290377D01*
G36*
X77119889Y71290377D02*
G01*
X84039889Y71290377D01*
X84039889Y69490377D01*
X77119889Y69490377D01*
X77119889Y71290377D01*
G37*
X83979889Y68220377D02*
X77179889Y68220377D01*
X77179889Y68220377D02*
X77179889Y66560377D01*
X77179889Y66560377D02*
X83979889Y66560377D01*
X83979889Y66560377D02*
X83979889Y68220377D01*
G36*
X83979889Y68220377D02*
G01*
X77179889Y68220377D01*
X77179889Y66560377D01*
X83979889Y66560377D01*
X83979889Y68220377D01*
G37*
%TO.C,TAB2*%
X180649889Y134862877D02*
X187709889Y134862877D01*
X187709889Y134862877D02*
X187709889Y133082877D01*
X187709889Y133082877D02*
X180649889Y133082877D01*
X180649889Y133082877D02*
X180649889Y134862877D01*
G36*
X180649889Y134862877D02*
G01*
X187709889Y134862877D01*
X187709889Y133082877D01*
X180649889Y133082877D01*
X180649889Y134862877D01*
G37*
D12*
X185969889Y134862877D02*
G75*
G03*
X185969889Y134862877I-1790000J0D01*
G01*
D13*
X185982389Y133082877D02*
G75*
G03*
X185982389Y133082877I-1802500J0D01*
G01*
D10*
%TO.C,TAB4*%
X287249889Y33070377D02*
X288309889Y33070377D01*
X288309889Y33070377D02*
X288309889Y27410377D01*
X288309889Y27410377D02*
X287249889Y27410377D01*
X287249889Y27410377D02*
X287249889Y33070377D01*
G36*
X287249889Y33070377D02*
G01*
X288309889Y33070377D01*
X288309889Y27410377D01*
X287249889Y27410377D01*
X287249889Y33070377D01*
G37*
D14*
X288702389Y30240377D02*
G75*
G03*
X288702389Y30240377I-1452500J0D01*
G01*
X289762389Y30240377D02*
G75*
G03*
X289762389Y30240377I-1452500J0D01*
G01*
D11*
%TO.C,TAB3*%
X77049889Y123392877D02*
X84109889Y123392877D01*
X84109889Y123392877D02*
X84109889Y121612877D01*
X84109889Y121612877D02*
X77049889Y121612877D01*
X77049889Y121612877D02*
X77049889Y123392877D01*
G36*
X77049889Y123392877D02*
G01*
X84109889Y123392877D01*
X84109889Y121612877D01*
X77049889Y121612877D01*
X77049889Y123392877D01*
G37*
D12*
X82369889Y123392877D02*
G75*
G03*
X82369889Y123392877I-1790000J0D01*
G01*
D13*
X82382389Y121612877D02*
G75*
G03*
X82382389Y121612877I-1802500J0D01*
G01*
D10*
%TO.C,TAB4*%
X80049889Y113190377D02*
X81109889Y113190377D01*
X81109889Y113190377D02*
X81109889Y107530377D01*
X81109889Y107530377D02*
X80049889Y107530377D01*
X80049889Y107530377D02*
X80049889Y113190377D01*
G36*
X80049889Y113190377D02*
G01*
X81109889Y113190377D01*
X81109889Y107530377D01*
X80049889Y107530377D01*
X80049889Y113190377D01*
G37*
D14*
X81502389Y110360377D02*
G75*
G03*
X81502389Y110360377I-1452500J0D01*
G01*
X82562389Y110360377D02*
G75*
G03*
X82562389Y110360377I-1452500J0D01*
G01*
D11*
%TO.C,TAB3*%
X77049889Y43272877D02*
X84109889Y43272877D01*
X84109889Y43272877D02*
X84109889Y41492877D01*
X84109889Y41492877D02*
X77049889Y41492877D01*
X77049889Y41492877D02*
X77049889Y43272877D01*
G36*
X77049889Y43272877D02*
G01*
X84109889Y43272877D01*
X84109889Y41492877D01*
X77049889Y41492877D01*
X77049889Y43272877D01*
G37*
D12*
X82369889Y43272877D02*
G75*
G03*
X82369889Y43272877I-1790000J0D01*
G01*
D13*
X82382389Y41492877D02*
G75*
G03*
X82382389Y41492877I-1802500J0D01*
G01*
D10*
%TO.C,TAB4*%
X183649889Y33070377D02*
X184709889Y33070377D01*
X184709889Y33070377D02*
X184709889Y27410377D01*
X184709889Y27410377D02*
X183649889Y27410377D01*
X183649889Y27410377D02*
X183649889Y33070377D01*
G36*
X183649889Y33070377D02*
G01*
X184709889Y33070377D01*
X184709889Y27410377D01*
X183649889Y27410377D01*
X183649889Y33070377D01*
G37*
D14*
X185102389Y30240377D02*
G75*
G03*
X185102389Y30240377I-1452500J0D01*
G01*
X186162389Y30240377D02*
G75*
G03*
X186162389Y30240377I-1452500J0D01*
G01*
D11*
%TO.C,TAB3*%
X180649889Y43272877D02*
X187709889Y43272877D01*
X187709889Y43272877D02*
X187709889Y41492877D01*
X187709889Y41492877D02*
X180649889Y41492877D01*
X180649889Y41492877D02*
X180649889Y43272877D01*
G36*
X180649889Y43272877D02*
G01*
X187709889Y43272877D01*
X187709889Y41492877D01*
X180649889Y41492877D01*
X180649889Y43272877D01*
G37*
D12*
X185969889Y43272877D02*
G75*
G03*
X185969889Y43272877I-1790000J0D01*
G01*
D13*
X185982389Y41492877D02*
G75*
G03*
X185982389Y41492877I-1802500J0D01*
G01*
D11*
%TO.C,TAB2*%
X180649889Y54742877D02*
X187709889Y54742877D01*
X187709889Y54742877D02*
X187709889Y52962877D01*
X187709889Y52962877D02*
X180649889Y52962877D01*
X180649889Y52962877D02*
X180649889Y54742877D01*
G36*
X180649889Y54742877D02*
G01*
X187709889Y54742877D01*
X187709889Y52962877D01*
X180649889Y52962877D01*
X180649889Y54742877D01*
G37*
D12*
X185969889Y54742877D02*
G75*
G03*
X185969889Y54742877I-1790000J0D01*
G01*
D13*
X185982389Y52962877D02*
G75*
G03*
X185982389Y52962877I-1802500J0D01*
G01*
%TO.C,REF\u002A\u002A*%
D15*
X16599871Y181230377D02*
G75*
G03*
X16599871Y181230377I-600000J0D01*
G01*
X322399871Y181230377D02*
G75*
G03*
X322399871Y181230377I-600000J0D01*
G01*
D11*
%TO.C,TAB3*%
X180649889Y123392877D02*
X187709889Y123392877D01*
X187709889Y123392877D02*
X187709889Y121612877D01*
X187709889Y121612877D02*
X180649889Y121612877D01*
X180649889Y121612877D02*
X180649889Y123392877D01*
G36*
X180649889Y123392877D02*
G01*
X187709889Y123392877D01*
X187709889Y121612877D01*
X180649889Y121612877D01*
X180649889Y123392877D01*
G37*
D12*
X185969889Y123392877D02*
G75*
G03*
X185969889Y123392877I-1790000J0D01*
G01*
D13*
X185982389Y121612877D02*
G75*
G03*
X185982389Y121612877I-1802500J0D01*
G01*
D11*
%TO.C,TAB2*%
X284249889Y134862877D02*
X291309889Y134862877D01*
X291309889Y134862877D02*
X291309889Y133082877D01*
X291309889Y133082877D02*
X284249889Y133082877D01*
X284249889Y133082877D02*
X284249889Y134862877D01*
G36*
X284249889Y134862877D02*
G01*
X291309889Y134862877D01*
X291309889Y133082877D01*
X284249889Y133082877D01*
X284249889Y134862877D01*
G37*
D12*
X289569889Y134862877D02*
G75*
G03*
X289569889Y134862877I-1790000J0D01*
G01*
D13*
X289582389Y133082877D02*
G75*
G03*
X289582389Y133082877I-1802500J0D01*
G01*
D11*
X284249889Y54742877D02*
X291309889Y54742877D01*
X291309889Y54742877D02*
X291309889Y52962877D01*
X291309889Y52962877D02*
X284249889Y52962877D01*
X284249889Y52962877D02*
X284249889Y54742877D01*
G36*
X284249889Y54742877D02*
G01*
X291309889Y54742877D01*
X291309889Y52962877D01*
X284249889Y52962877D01*
X284249889Y54742877D01*
G37*
D12*
X289569889Y54742877D02*
G75*
G03*
X289569889Y54742877I-1790000J0D01*
G01*
D13*
X289582389Y52962877D02*
G75*
G03*
X289582389Y52962877I-1802500J0D01*
G01*
D10*
%TO.C,TAB4*%
X183649889Y113190377D02*
X184709889Y113190377D01*
X184709889Y113190377D02*
X184709889Y107530377D01*
X184709889Y107530377D02*
X183649889Y107530377D01*
X183649889Y107530377D02*
X183649889Y113190377D01*
G36*
X183649889Y113190377D02*
G01*
X184709889Y113190377D01*
X184709889Y107530377D01*
X183649889Y107530377D01*
X183649889Y113190377D01*
G37*
D14*
X185102389Y110360377D02*
G75*
G03*
X185102389Y110360377I-1452500J0D01*
G01*
X186162389Y110360377D02*
G75*
G03*
X186162389Y110360377I-1452500J0D01*
G01*
D11*
%TO.C,TAB2*%
X77049889Y54742877D02*
X84109889Y54742877D01*
X84109889Y54742877D02*
X84109889Y52962877D01*
X84109889Y52962877D02*
X77049889Y52962877D01*
X77049889Y52962877D02*
X77049889Y54742877D01*
G36*
X77049889Y54742877D02*
G01*
X84109889Y54742877D01*
X84109889Y52962877D01*
X77049889Y52962877D01*
X77049889Y54742877D01*
G37*
D12*
X82369889Y54742877D02*
G75*
G03*
X82369889Y54742877I-1790000J0D01*
G01*
D13*
X82382389Y52962877D02*
G75*
G03*
X82382389Y52962877I-1802500J0D01*
G01*
D11*
%TO.C,TAB1*%
X284309889Y65400377D02*
X291239889Y65400377D01*
X291239889Y65400377D02*
X291239889Y62890377D01*
X291239889Y62890377D02*
X284309889Y62890377D01*
X284309889Y62890377D02*
X284309889Y65400377D01*
G36*
X284309889Y65400377D02*
G01*
X291239889Y65400377D01*
X291239889Y62890377D01*
X284309889Y62890377D01*
X284309889Y65400377D01*
G37*
X284319889Y77890377D02*
X291239889Y77890377D01*
X291239889Y77890377D02*
X291239889Y75490377D01*
X291239889Y75490377D02*
X284319889Y75490377D01*
X284319889Y75490377D02*
X284319889Y77890377D01*
G36*
X284319889Y77890377D02*
G01*
X291239889Y77890377D01*
X291239889Y75490377D01*
X284319889Y75490377D01*
X284319889Y77890377D01*
G37*
X284319889Y74290377D02*
X291239889Y74290377D01*
X291239889Y74290377D02*
X291239889Y72490377D01*
X291239889Y72490377D02*
X284319889Y72490377D01*
X284319889Y72490377D02*
X284319889Y74290377D01*
G36*
X284319889Y74290377D02*
G01*
X291239889Y74290377D01*
X291239889Y72490377D01*
X284319889Y72490377D01*
X284319889Y74290377D01*
G37*
X284319889Y71290377D02*
X291239889Y71290377D01*
X291239889Y71290377D02*
X291239889Y69490377D01*
X291239889Y69490377D02*
X284319889Y69490377D01*
X284319889Y69490377D02*
X284319889Y71290377D01*
G36*
X284319889Y71290377D02*
G01*
X291239889Y71290377D01*
X291239889Y69490377D01*
X284319889Y69490377D01*
X284319889Y71290377D01*
G37*
X291179889Y68220377D02*
X284379889Y68220377D01*
X284379889Y68220377D02*
X284379889Y66560377D01*
X284379889Y66560377D02*
X291179889Y66560377D01*
X291179889Y66560377D02*
X291179889Y68220377D01*
G36*
X291179889Y68220377D02*
G01*
X284379889Y68220377D01*
X284379889Y66560377D01*
X291179889Y66560377D01*
X291179889Y68220377D01*
G37*
X180709889Y65400377D02*
X187639889Y65400377D01*
X187639889Y65400377D02*
X187639889Y62890377D01*
X187639889Y62890377D02*
X180709889Y62890377D01*
X180709889Y62890377D02*
X180709889Y65400377D01*
G36*
X180709889Y65400377D02*
G01*
X187639889Y65400377D01*
X187639889Y62890377D01*
X180709889Y62890377D01*
X180709889Y65400377D01*
G37*
X180719889Y77890377D02*
X187639889Y77890377D01*
X187639889Y77890377D02*
X187639889Y75490377D01*
X187639889Y75490377D02*
X180719889Y75490377D01*
X180719889Y75490377D02*
X180719889Y77890377D01*
G36*
X180719889Y77890377D02*
G01*
X187639889Y77890377D01*
X187639889Y75490377D01*
X180719889Y75490377D01*
X180719889Y77890377D01*
G37*
X180719889Y74290377D02*
X187639889Y74290377D01*
X187639889Y74290377D02*
X187639889Y72490377D01*
X187639889Y72490377D02*
X180719889Y72490377D01*
X180719889Y72490377D02*
X180719889Y74290377D01*
G36*
X180719889Y74290377D02*
G01*
X187639889Y74290377D01*
X187639889Y72490377D01*
X180719889Y72490377D01*
X180719889Y74290377D01*
G37*
X180719889Y71290377D02*
X187639889Y71290377D01*
X187639889Y71290377D02*
X187639889Y69490377D01*
X187639889Y69490377D02*
X180719889Y69490377D01*
X180719889Y69490377D02*
X180719889Y71290377D01*
G36*
X180719889Y71290377D02*
G01*
X187639889Y71290377D01*
X187639889Y69490377D01*
X180719889Y69490377D01*
X180719889Y71290377D01*
G37*
X187579889Y68220377D02*
X180779889Y68220377D01*
X180779889Y68220377D02*
X180779889Y66560377D01*
X180779889Y66560377D02*
X187579889Y66560377D01*
X187579889Y66560377D02*
X187579889Y68220377D01*
G36*
X187579889Y68220377D02*
G01*
X180779889Y68220377D01*
X180779889Y66560377D01*
X187579889Y66560377D01*
X187579889Y68220377D01*
G37*
%TO.C,TAB2*%
X77049889Y134862877D02*
X84109889Y134862877D01*
X84109889Y134862877D02*
X84109889Y133082877D01*
X84109889Y133082877D02*
X77049889Y133082877D01*
X77049889Y133082877D02*
X77049889Y134862877D01*
G36*
X77049889Y134862877D02*
G01*
X84109889Y134862877D01*
X84109889Y133082877D01*
X77049889Y133082877D01*
X77049889Y134862877D01*
G37*
D12*
X82369889Y134862877D02*
G75*
G03*
X82369889Y134862877I-1790000J0D01*
G01*
D13*
X82382389Y133082877D02*
G75*
G03*
X82382389Y133082877I-1802500J0D01*
G01*
%TO.C,REF\u002A\u002A*%
D15*
X322399871Y5990377D02*
G75*
G03*
X322399871Y5990377I-600000J0D01*
G01*
D10*
%TO.C,TAB4*%
X287249889Y113190377D02*
X288309889Y113190377D01*
X288309889Y113190377D02*
X288309889Y107530377D01*
X288309889Y107530377D02*
X287249889Y107530377D01*
X287249889Y107530377D02*
X287249889Y113190377D01*
G36*
X287249889Y113190377D02*
G01*
X288309889Y113190377D01*
X288309889Y107530377D01*
X287249889Y107530377D01*
X287249889Y113190377D01*
G37*
D14*
X288702389Y110360377D02*
G75*
G03*
X288702389Y110360377I-1452500J0D01*
G01*
X289762389Y110360377D02*
G75*
G03*
X289762389Y110360377I-1452500J0D01*
G01*
D11*
%TO.C,TAB3*%
X284249889Y123392877D02*
X291309889Y123392877D01*
X291309889Y123392877D02*
X291309889Y121612877D01*
X291309889Y121612877D02*
X284249889Y121612877D01*
X284249889Y121612877D02*
X284249889Y123392877D01*
G36*
X284249889Y123392877D02*
G01*
X291309889Y123392877D01*
X291309889Y121612877D01*
X284249889Y121612877D01*
X284249889Y123392877D01*
G37*
D12*
X289569889Y123392877D02*
G75*
G03*
X289569889Y123392877I-1790000J0D01*
G01*
D13*
X289582389Y121612877D02*
G75*
G03*
X289582389Y121612877I-1802500J0D01*
G01*
D11*
%TO.C,TAB1*%
X180709889Y145520377D02*
X187639889Y145520377D01*
X187639889Y145520377D02*
X187639889Y143010377D01*
X187639889Y143010377D02*
X180709889Y143010377D01*
X180709889Y143010377D02*
X180709889Y145520377D01*
G36*
X180709889Y145520377D02*
G01*
X187639889Y145520377D01*
X187639889Y143010377D01*
X180709889Y143010377D01*
X180709889Y145520377D01*
G37*
X180719889Y158010377D02*
X187639889Y158010377D01*
X187639889Y158010377D02*
X187639889Y155610377D01*
X187639889Y155610377D02*
X180719889Y155610377D01*
X180719889Y155610377D02*
X180719889Y158010377D01*
G36*
X180719889Y158010377D02*
G01*
X187639889Y158010377D01*
X187639889Y155610377D01*
X180719889Y155610377D01*
X180719889Y158010377D01*
G37*
X180719889Y154410377D02*
X187639889Y154410377D01*
X187639889Y154410377D02*
X187639889Y152610377D01*
X187639889Y152610377D02*
X180719889Y152610377D01*
X180719889Y152610377D02*
X180719889Y154410377D01*
G36*
X180719889Y154410377D02*
G01*
X187639889Y154410377D01*
X187639889Y152610377D01*
X180719889Y152610377D01*
X180719889Y154410377D01*
G37*
X180719889Y151410377D02*
X187639889Y151410377D01*
X187639889Y151410377D02*
X187639889Y149610377D01*
X187639889Y149610377D02*
X180719889Y149610377D01*
X180719889Y149610377D02*
X180719889Y151410377D01*
G36*
X180719889Y151410377D02*
G01*
X187639889Y151410377D01*
X187639889Y149610377D01*
X180719889Y149610377D01*
X180719889Y151410377D01*
G37*
X187579889Y148340377D02*
X180779889Y148340377D01*
X180779889Y148340377D02*
X180779889Y146680377D01*
X180779889Y146680377D02*
X187579889Y146680377D01*
X187579889Y146680377D02*
X187579889Y148340377D01*
G36*
X187579889Y148340377D02*
G01*
X180779889Y148340377D01*
X180779889Y146680377D01*
X187579889Y146680377D01*
X187579889Y148340377D01*
G37*
D10*
%TO.C,TAB4*%
X80049889Y33070377D02*
X81109889Y33070377D01*
X81109889Y33070377D02*
X81109889Y27410377D01*
X81109889Y27410377D02*
X80049889Y27410377D01*
X80049889Y27410377D02*
X80049889Y33070377D01*
G36*
X80049889Y33070377D02*
G01*
X81109889Y33070377D01*
X81109889Y27410377D01*
X80049889Y27410377D01*
X80049889Y33070377D01*
G37*
D14*
X81502389Y30240377D02*
G75*
G03*
X81502389Y30240377I-1452500J0D01*
G01*
X82562389Y30240377D02*
G75*
G03*
X82562389Y30240377I-1452500J0D01*
G01*
%TO.C,REF\u002A\u002A*%
D15*
X16599871Y5990377D02*
G75*
G03*
X16599871Y5990377I-600000J0D01*
G01*
D11*
%TO.C,TAB1*%
X77109889Y145520377D02*
X84039889Y145520377D01*
X84039889Y145520377D02*
X84039889Y143010377D01*
X84039889Y143010377D02*
X77109889Y143010377D01*
X77109889Y143010377D02*
X77109889Y145520377D01*
G36*
X77109889Y145520377D02*
G01*
X84039889Y145520377D01*
X84039889Y143010377D01*
X77109889Y143010377D01*
X77109889Y145520377D01*
G37*
X77119889Y158010377D02*
X84039889Y158010377D01*
X84039889Y158010377D02*
X84039889Y155610377D01*
X84039889Y155610377D02*
X77119889Y155610377D01*
X77119889Y155610377D02*
X77119889Y158010377D01*
G36*
X77119889Y158010377D02*
G01*
X84039889Y158010377D01*
X84039889Y155610377D01*
X77119889Y155610377D01*
X77119889Y158010377D01*
G37*
X77119889Y154410377D02*
X84039889Y154410377D01*
X84039889Y154410377D02*
X84039889Y152610377D01*
X84039889Y152610377D02*
X77119889Y152610377D01*
X77119889Y152610377D02*
X77119889Y154410377D01*
G36*
X77119889Y154410377D02*
G01*
X84039889Y154410377D01*
X84039889Y152610377D01*
X77119889Y152610377D01*
X77119889Y154410377D01*
G37*
X77119889Y151410377D02*
X84039889Y151410377D01*
X84039889Y151410377D02*
X84039889Y149610377D01*
X84039889Y149610377D02*
X77119889Y149610377D01*
X77119889Y149610377D02*
X77119889Y151410377D01*
G36*
X77119889Y151410377D02*
G01*
X84039889Y151410377D01*
X84039889Y149610377D01*
X77119889Y149610377D01*
X77119889Y151410377D01*
G37*
X83979889Y148340377D02*
X77179889Y148340377D01*
X77179889Y148340377D02*
X77179889Y146680377D01*
X77179889Y146680377D02*
X83979889Y146680377D01*
X83979889Y146680377D02*
X83979889Y148340377D01*
G36*
X83979889Y148340377D02*
G01*
X77179889Y148340377D01*
X77179889Y146680377D01*
X83979889Y146680377D01*
X83979889Y148340377D01*
G37*
%TO.C,TAB3*%
X284249889Y43272877D02*
X291309889Y43272877D01*
X291309889Y43272877D02*
X291309889Y41492877D01*
X291309889Y41492877D02*
X284249889Y41492877D01*
X284249889Y41492877D02*
X284249889Y43272877D01*
G36*
X284249889Y43272877D02*
G01*
X291309889Y43272877D01*
X291309889Y41492877D01*
X284249889Y41492877D01*
X284249889Y43272877D01*
G37*
D12*
X289569889Y43272877D02*
G75*
G03*
X289569889Y43272877I-1790000J0D01*
G01*
D13*
X289582389Y41492877D02*
G75*
G03*
X289582389Y41492877I-1802500J0D01*
G01*
D11*
%TO.C,TAB1*%
X284309889Y145520377D02*
X291239889Y145520377D01*
X291239889Y145520377D02*
X291239889Y143010377D01*
X291239889Y143010377D02*
X284309889Y143010377D01*
X284309889Y143010377D02*
X284309889Y145520377D01*
G36*
X284309889Y145520377D02*
G01*
X291239889Y145520377D01*
X291239889Y143010377D01*
X284309889Y143010377D01*
X284309889Y145520377D01*
G37*
X284319889Y158010377D02*
X291239889Y158010377D01*
X291239889Y158010377D02*
X291239889Y155610377D01*
X291239889Y155610377D02*
X284319889Y155610377D01*
X284319889Y155610377D02*
X284319889Y158010377D01*
G36*
X284319889Y158010377D02*
G01*
X291239889Y158010377D01*
X291239889Y155610377D01*
X284319889Y155610377D01*
X284319889Y158010377D01*
G37*
X284319889Y154410377D02*
X291239889Y154410377D01*
X291239889Y154410377D02*
X291239889Y152610377D01*
X291239889Y152610377D02*
X284319889Y152610377D01*
X284319889Y152610377D02*
X284319889Y154410377D01*
G36*
X284319889Y154410377D02*
G01*
X291239889Y154410377D01*
X291239889Y152610377D01*
X284319889Y152610377D01*
X284319889Y154410377D01*
G37*
X284319889Y151410377D02*
X291239889Y151410377D01*
X291239889Y151410377D02*
X291239889Y149610377D01*
X291239889Y149610377D02*
X284319889Y149610377D01*
X284319889Y149610377D02*
X284319889Y151410377D01*
G36*
X284319889Y151410377D02*
G01*
X291239889Y151410377D01*
X291239889Y149610377D01*
X284319889Y149610377D01*
X284319889Y151410377D01*
G37*
X291179889Y148340377D02*
X284379889Y148340377D01*
X284379889Y148340377D02*
X284379889Y146680377D01*
X284379889Y146680377D02*
X291179889Y146680377D01*
X291179889Y146680377D02*
X291179889Y148340377D01*
G36*
X291179889Y148340377D02*
G01*
X284379889Y148340377D01*
X284379889Y146680377D01*
X291179889Y146680377D01*
X291179889Y148340377D01*
G37*
%TD*%
D16*
%TO.C,L1*%
X252791489Y29597041D03*
X265291489Y29597041D03*
%TD*%
%TO.C,L1*%
X149191489Y29597041D03*
X161691489Y29597041D03*
%TD*%
%TO.C,L1*%
X45591489Y29597041D03*
X58091489Y29597041D03*
%TD*%
%TO.C,L1*%
X45591489Y109717041D03*
X58091489Y109717041D03*
%TD*%
%TO.C,L1*%
X149191489Y109717041D03*
X161691489Y109717041D03*
%TD*%
%TO.C,L1*%
X252791489Y109717041D03*
X265291489Y109717041D03*
%TD*%
D17*
%TO.C,REF\u002A\u002A*%
X110199871Y165580377D03*
%TD*%
%TO.C,REF\u002A\u002A*%
X202449871Y169830377D03*
%TD*%
%TO.C,REF\u002A\u002A*%
X120999871Y25590377D03*
%TD*%
%TO.C,REF\u002A\u002A*%
X120999871Y76480377D03*
%TD*%
%TO.C,REF\u002A\u002A*%
X219199871Y92110377D03*
%TD*%
D18*
%TO.C,J1*%
X166691489Y161059541D03*
X173891489Y161059541D03*
D19*
X166161489Y159809541D03*
X174421489Y159809541D03*
X174781489Y153859541D03*
X165801489Y153859541D03*
%TD*%
D20*
%TO.C,REF\u002A\u002A*%
X5999871Y181230377D03*
%TD*%
D17*
%TO.C,REF\u002A\u002A*%
X213799871Y103760377D03*
%TD*%
%TO.C,REF\u002A\u002A*%
X120999871Y156600377D03*
%TD*%
D21*
%TO.C,J2*%
X268941497Y126087041D03*
D22*
X271201489Y128887041D03*
X271201489Y123287041D03*
X274701489Y128887041D03*
X274701489Y123287041D03*
D21*
X276961481Y126087041D03*
%TD*%
D23*
%TO.C,TAB1*%
X78014889Y76450377D03*
X78014889Y73410377D03*
X78014889Y70380377D03*
X78014889Y67380377D03*
X78014889Y64510377D03*
D24*
X79679889Y76450377D03*
X79679889Y73410377D03*
X79679889Y70380377D03*
X79679889Y67380377D03*
X79679889Y64510377D03*
X81479889Y76450377D03*
X81479889Y73410377D03*
X81479889Y70380377D03*
X81479889Y67380377D03*
X81479889Y64510377D03*
D23*
X83144889Y76450377D03*
X83144889Y73410377D03*
X83144889Y70380377D03*
X83144889Y67380377D03*
X83144889Y64510377D03*
%TD*%
D17*
%TO.C,REF\u002A\u002A*%
X222199871Y169830377D03*
%TD*%
%TO.C,REF\u002A\u002A*%
X224599871Y156600377D03*
%TD*%
%TO.C,REF\u002A\u002A*%
X17399871Y103510377D03*
%TD*%
%TO.C,REF\u002A\u002A*%
X219199871Y95110377D03*
%TD*%
D18*
%TO.C,J1*%
X166691489Y80939541D03*
X173891489Y80939541D03*
D19*
X166161489Y79689541D03*
X174421489Y79689541D03*
X174781489Y73739541D03*
X165801489Y73739541D03*
%TD*%
D17*
%TO.C,REF\u002A\u002A*%
X101049871Y97510377D03*
%TD*%
%TO.C,REF\u002A\u002A*%
X213799871Y83260377D03*
%TD*%
%TO.C,REF\u002A\u002A*%
X115599871Y92110377D03*
%TD*%
%TO.C,REF\u002A\u002A*%
X234469871Y89710377D03*
%TD*%
%TO.C,REF\u002A\u002A*%
X317399871Y23640377D03*
%TD*%
%TO.C,REF\u002A\u002A*%
X133069871Y97510377D03*
%TD*%
%TO.C,REF\u002A\u002A*%
X213799871Y21440377D03*
%TD*%
%TO.C,REF\u002A\u002A*%
X236669871Y97510377D03*
%TD*%
%TO.C,REF\u002A\u002A*%
X317399871Y163380377D03*
%TD*%
%TO.C,REF\u002A\u002A*%
X224599871Y105710377D03*
%TD*%
%TO.C,REF\u002A\u002A*%
X213799871Y85460377D03*
%TD*%
%TO.C,REF\u002A\u002A*%
X222199871Y95110377D03*
%TD*%
%TO.C,REF\u002A\u002A*%
X224599871Y76480377D03*
%TD*%
D21*
%TO.C,J2*%
X61741497Y126087041D03*
D22*
X64001489Y128887041D03*
X64001489Y123287041D03*
X67501489Y128887041D03*
X67501489Y123287041D03*
D21*
X69761481Y126087041D03*
%TD*%
D17*
%TO.C,REF\u002A\u002A*%
X98849871Y169830377D03*
%TD*%
%TO.C,REF\u002A\u002A*%
X17399871Y23390377D03*
%TD*%
%TO.C,REF\u002A\u002A*%
X224599871Y103510377D03*
%TD*%
%TO.C,REF\u002A\u002A*%
X213799871Y23640377D03*
%TD*%
%TO.C,REF\u002A\u002A*%
X98849871Y97510377D03*
%TD*%
%TO.C,REF\u002A\u002A*%
X118599871Y95110377D03*
%TD*%
%TO.C,REF\u002A\u002A*%
X133069871Y17390377D03*
%TD*%
%TO.C,REF\u002A\u002A*%
X101049871Y89710377D03*
%TD*%
%TO.C,REF\u002A\u002A*%
X222199871Y17390377D03*
%TD*%
%TO.C,REF\u002A\u002A*%
X204649871Y169830377D03*
%TD*%
%TO.C,REF\u002A\u002A*%
X17399871Y74280377D03*
%TD*%
D18*
%TO.C,J1*%
X270291489Y161059541D03*
X277491489Y161059541D03*
D19*
X269761489Y159809541D03*
X278021489Y159809541D03*
X278381489Y153859541D03*
X269401489Y153859541D03*
%TD*%
D17*
%TO.C,REF\u002A\u002A*%
X224599871Y74280377D03*
%TD*%
%TO.C,REF\u002A\u002A*%
X17399871Y25590377D03*
%TD*%
%TO.C,REF\u002A\u002A*%
X213799871Y163380377D03*
%TD*%
%TO.C,REF\u002A\u002A*%
X308249871Y89710377D03*
%TD*%
%TO.C,REF\u002A\u002A*%
X118599871Y17390377D03*
%TD*%
%TO.C,REF\u002A\u002A*%
X27269871Y97510377D03*
%TD*%
%TO.C,REF\u002A\u002A*%
X27269871Y169830377D03*
%TD*%
%TO.C,REF\u002A\u002A*%
X115599871Y92110377D03*
%TD*%
%TO.C,REF\u002A\u002A*%
X236669871Y89710377D03*
%TD*%
%TO.C,REF\u002A\u002A*%
X219199871Y17390377D03*
%TD*%
%TO.C,REF\u002A\u002A*%
X320399871Y95110377D03*
%TD*%
D18*
%TO.C,J1*%
X63091489Y80939541D03*
X70291489Y80939541D03*
D19*
X62561489Y79689541D03*
X70821489Y79689541D03*
X71181489Y73739541D03*
X62201489Y73739541D03*
%TD*%
D17*
%TO.C,REF\u002A\u002A*%
X222199871Y95110377D03*
%TD*%
%TO.C,REF\u002A\u002A*%
X234469871Y17390377D03*
%TD*%
%TO.C,REF\u002A\u002A*%
X202449871Y89710377D03*
%TD*%
%TO.C,REF\u002A\u002A*%
X204649871Y89710377D03*
%TD*%
%TO.C,REF\u002A\u002A*%
X317399871Y83260377D03*
%TD*%
%TO.C,REF\u002A\u002A*%
X222199871Y92110377D03*
%TD*%
%TO.C,REF\u002A\u002A*%
X110199871Y23640377D03*
%TD*%
%TO.C,REF\u002A\u002A*%
X17399871Y92110377D03*
%TD*%
%TO.C,REF\u002A\u002A*%
X118599871Y95110377D03*
%TD*%
%TO.C,REF\u002A\u002A*%
X213799871Y165580377D03*
%TD*%
%TO.C,REF\u002A\u002A*%
X317399871Y85460377D03*
%TD*%
%TO.C,REF\u002A\u002A*%
X98849871Y89710377D03*
%TD*%
D21*
%TO.C,J2*%
X61741497Y45967041D03*
D22*
X64001489Y48767041D03*
X64001489Y43167041D03*
X67501489Y48767041D03*
X67501489Y43167041D03*
D21*
X69761481Y45967041D03*
%TD*%
D20*
%TO.C,REF\u002A\u002A*%
X5999871Y5990377D03*
%TD*%
D17*
%TO.C,REF\u002A\u002A*%
X17399871Y105710377D03*
%TD*%
%TO.C,REF\u002A\u002A*%
X224599871Y154400377D03*
%TD*%
%TO.C,REF\u002A\u002A*%
X120999871Y23390377D03*
%TD*%
%TO.C,REF\u002A\u002A*%
X17399871Y156600377D03*
%TD*%
%TO.C,REF\u002A\u002A*%
X224599871Y23390377D03*
%TD*%
%TO.C,REF\u002A\u002A*%
X110199871Y163380377D03*
%TD*%
D20*
%TO.C,REF\u002A\u002A*%
X331799871Y5990377D03*
%TD*%
D17*
%TO.C,REF\u002A\u002A*%
X29469871Y169830377D03*
%TD*%
%TO.C,REF\u002A\u002A*%
X120999871Y154400377D03*
%TD*%
%TO.C,REF\u002A\u002A*%
X219199871Y95110377D03*
%TD*%
D21*
%TO.C,J2*%
X268941497Y45967041D03*
D22*
X271201489Y48767041D03*
X271201489Y43167041D03*
X274701489Y48767041D03*
X274701489Y43167041D03*
D21*
X276961481Y45967041D03*
%TD*%
D17*
%TO.C,REF\u002A\u002A*%
X306049871Y17390377D03*
%TD*%
%TO.C,REF\u002A\u002A*%
X308249871Y169830377D03*
%TD*%
%TO.C,REF\u002A\u002A*%
X306049871Y169830377D03*
%TD*%
D20*
%TO.C,REF\u002A\u002A*%
X331799871Y181230377D03*
%TD*%
D17*
%TO.C,REF\u002A\u002A*%
X133069871Y169830377D03*
%TD*%
%TO.C,REF\u002A\u002A*%
X27269871Y89710377D03*
%TD*%
%TO.C,REF\u002A\u002A*%
X224599871Y25590377D03*
%TD*%
%TO.C,REF\u002A\u002A*%
X120999871Y74280377D03*
%TD*%
D23*
%TO.C,TAB1*%
X285214889Y76450377D03*
X285214889Y73410377D03*
X285214889Y70380377D03*
X285214889Y67380377D03*
X285214889Y64510377D03*
D24*
X286879889Y76450377D03*
X286879889Y73410377D03*
X286879889Y70380377D03*
X286879889Y67380377D03*
X286879889Y64510377D03*
X288679889Y76450377D03*
X288679889Y73410377D03*
X288679889Y70380377D03*
X288679889Y67380377D03*
X288679889Y64510377D03*
D23*
X290344889Y76450377D03*
X290344889Y73410377D03*
X290344889Y70380377D03*
X290344889Y67380377D03*
X290344889Y64510377D03*
%TD*%
D17*
%TO.C,REF\u002A\u002A*%
X115599871Y169830377D03*
%TD*%
D23*
%TO.C,TAB1*%
X181614889Y76450377D03*
X181614889Y73410377D03*
X181614889Y70380377D03*
X181614889Y67380377D03*
X181614889Y64510377D03*
D24*
X183279889Y76450377D03*
X183279889Y73410377D03*
X183279889Y70380377D03*
X183279889Y67380377D03*
X183279889Y64510377D03*
X185079889Y76450377D03*
X185079889Y73410377D03*
X185079889Y70380377D03*
X185079889Y67380377D03*
X185079889Y64510377D03*
D23*
X186744889Y76450377D03*
X186744889Y73410377D03*
X186744889Y70380377D03*
X186744889Y67380377D03*
X186744889Y64510377D03*
%TD*%
D17*
%TO.C,REF\u002A\u002A*%
X130869871Y17390377D03*
%TD*%
%TO.C,REF\u002A\u002A*%
X236669871Y17390377D03*
%TD*%
%TO.C,REF\u002A\u002A*%
X29469871Y97510377D03*
%TD*%
%TO.C,REF\u002A\u002A*%
X115599871Y17390377D03*
%TD*%
%TO.C,REF\u002A\u002A*%
X320399871Y92110377D03*
%TD*%
D18*
%TO.C,J1*%
X270291489Y80939541D03*
X277491489Y80939541D03*
D19*
X269761489Y79689541D03*
X278021489Y79689541D03*
X278381489Y73739541D03*
X269401489Y73739541D03*
%TD*%
D17*
%TO.C,REF\u002A\u002A*%
X29469871Y89710377D03*
%TD*%
%TO.C,REF\u002A\u002A*%
X236669871Y169830377D03*
%TD*%
%TO.C,REF\u002A\u002A*%
X110199871Y101560377D03*
%TD*%
%TO.C,REF\u002A\u002A*%
X308249871Y97510377D03*
%TD*%
%TO.C,REF\u002A\u002A*%
X202449871Y17390377D03*
%TD*%
D18*
%TO.C,J1*%
X63091489Y161059541D03*
X70291489Y161059541D03*
D19*
X62561489Y159809541D03*
X70821489Y159809541D03*
X71181489Y153859541D03*
X62201489Y153859541D03*
%TD*%
D17*
%TO.C,REF\u002A\u002A*%
X213799871Y101560377D03*
%TD*%
%TO.C,REF\u002A\u002A*%
X308249871Y17390377D03*
%TD*%
%TO.C,REF\u002A\u002A*%
X130869871Y169830377D03*
%TD*%
%TO.C,REF\u002A\u002A*%
X98849871Y17390377D03*
%TD*%
%TO.C,REF\u002A\u002A*%
X317399871Y101560377D03*
%TD*%
%TO.C,REF\u002A\u002A*%
X118599871Y169830377D03*
%TD*%
%TO.C,REF\u002A\u002A*%
X317399871Y103760377D03*
%TD*%
%TO.C,REF\u002A\u002A*%
X120999871Y103510377D03*
%TD*%
%TO.C,REF\u002A\u002A*%
X29469871Y17390377D03*
%TD*%
%TO.C,REF\u002A\u002A*%
X110199871Y83260377D03*
%TD*%
%TO.C,REF\u002A\u002A*%
X204649871Y17390377D03*
%TD*%
%TO.C,REF\u002A\u002A*%
X110199871Y85460377D03*
%TD*%
%TO.C,REF\u002A\u002A*%
X234469871Y97510377D03*
%TD*%
%TO.C,REF\u002A\u002A*%
X130869871Y97510377D03*
%TD*%
%TO.C,REF\u002A\u002A*%
X110199871Y103760377D03*
%TD*%
D21*
%TO.C,J2*%
X165341497Y45967041D03*
D22*
X167601489Y48767041D03*
X167601489Y43167041D03*
X171101489Y48767041D03*
X171101489Y43167041D03*
D21*
X173361481Y45967041D03*
%TD*%
D17*
%TO.C,REF\u002A\u002A*%
X115599871Y95110377D03*
%TD*%
D23*
%TO.C,TAB1*%
X181614889Y156570377D03*
X181614889Y153530377D03*
X181614889Y150500377D03*
X181614889Y147500377D03*
X181614889Y144630377D03*
D24*
X183279889Y156570377D03*
X183279889Y153530377D03*
X183279889Y150500377D03*
X183279889Y147500377D03*
X183279889Y144630377D03*
X185079889Y156570377D03*
X185079889Y153530377D03*
X185079889Y150500377D03*
X185079889Y147500377D03*
X185079889Y144630377D03*
D23*
X186744889Y156570377D03*
X186744889Y153530377D03*
X186744889Y150500377D03*
X186744889Y147500377D03*
X186744889Y144630377D03*
%TD*%
D17*
%TO.C,REF\u002A\u002A*%
X133069871Y89710377D03*
%TD*%
%TO.C,REF\u002A\u002A*%
X222199871Y92110377D03*
%TD*%
%TO.C,REF\u002A\u002A*%
X17399871Y154400377D03*
%TD*%
D23*
%TO.C,TAB1*%
X78014889Y156570377D03*
X78014889Y153530377D03*
X78014889Y150500377D03*
X78014889Y147500377D03*
X78014889Y144630377D03*
D24*
X79679889Y156570377D03*
X79679889Y153530377D03*
X79679889Y150500377D03*
X79679889Y147500377D03*
X79679889Y144630377D03*
X81479889Y156570377D03*
X81479889Y153530377D03*
X81479889Y150500377D03*
X81479889Y147500377D03*
X81479889Y144630377D03*
D23*
X83144889Y156570377D03*
X83144889Y153530377D03*
X83144889Y150500377D03*
X83144889Y147500377D03*
X83144889Y144630377D03*
%TD*%
D17*
%TO.C,REF\u002A\u002A*%
X219199871Y92110377D03*
%TD*%
%TO.C,REF\u002A\u002A*%
X17399871Y76480377D03*
%TD*%
%TO.C,REF\u002A\u002A*%
X234469871Y169830377D03*
%TD*%
%TO.C,REF\u002A\u002A*%
X118599871Y92110377D03*
%TD*%
%TO.C,REF\u002A\u002A*%
X101049871Y169830377D03*
%TD*%
%TO.C,REF\u002A\u002A*%
X118599871Y92110377D03*
%TD*%
%TO.C,REF\u002A\u002A*%
X120999871Y105710377D03*
%TD*%
%TO.C,REF\u002A\u002A*%
X27269871Y17390377D03*
%TD*%
%TO.C,REF\u002A\u002A*%
X17399871Y95110377D03*
%TD*%
%TO.C,REF\u002A\u002A*%
X110199871Y21440377D03*
%TD*%
%TO.C,REF\u002A\u002A*%
X317399871Y21440377D03*
%TD*%
D23*
%TO.C,TAB1*%
X285214889Y156570377D03*
X285214889Y153530377D03*
X285214889Y150500377D03*
X285214889Y147500377D03*
X285214889Y144630377D03*
D24*
X286879889Y156570377D03*
X286879889Y153530377D03*
X286879889Y150500377D03*
X286879889Y147500377D03*
X286879889Y144630377D03*
X288679889Y156570377D03*
X288679889Y153530377D03*
X288679889Y150500377D03*
X288679889Y147500377D03*
X288679889Y144630377D03*
D23*
X290344889Y156570377D03*
X290344889Y153530377D03*
X290344889Y150500377D03*
X290344889Y147500377D03*
X290344889Y144630377D03*
%TD*%
D17*
%TO.C,REF\u002A\u002A*%
X101049871Y17390377D03*
%TD*%
%TO.C,REF\u002A\u002A*%
X130869871Y89710377D03*
%TD*%
%TO.C,REF\u002A\u002A*%
X204649871Y97510377D03*
%TD*%
%TO.C,REF\u002A\u002A*%
X115599871Y95110377D03*
%TD*%
%TO.C,REF\u002A\u002A*%
X306049871Y97510377D03*
%TD*%
%TO.C,REF\u002A\u002A*%
X202449871Y97510377D03*
%TD*%
%TO.C,REF\u002A\u002A*%
X219199871Y169830377D03*
%TD*%
%TO.C,REF\u002A\u002A*%
X306049871Y89710377D03*
%TD*%
%TO.C,REF\u002A\u002A*%
X317399871Y165580377D03*
%TD*%
D21*
%TO.C,J2*%
X165341497Y126087041D03*
D22*
X167601489Y128887041D03*
X167601489Y123287041D03*
X171101489Y128887041D03*
X171101489Y123287041D03*
D21*
X173361481Y126087041D03*
%TD*%
D25*
%TO.C,R65*%
X247762871Y68541139D03*
X247412871Y68541139D03*
%TD*%
%TO.C,R83*%
X30814871Y74069441D03*
X30464871Y74069441D03*
%TD*%
D26*
%TO.C,R127*%
X140151871Y46597322D03*
X138627871Y46597322D03*
%TD*%
D25*
%TO.C,R97*%
X233140871Y63012837D03*
X232790871Y63012837D03*
%TD*%
%TO.C,R82*%
X30814871Y76833592D03*
X30464871Y76833592D03*
%TD*%
D26*
%TO.C,R140*%
X31395871Y101960377D03*
X29871871Y101960377D03*
%TD*%
D25*
%TO.C,R58*%
X149036871Y60248686D03*
X148686871Y60248686D03*
%TD*%
D26*
%TO.C,R137*%
X134995871Y31127047D03*
X133471871Y31127047D03*
%TD*%
D25*
%TO.C,R68*%
X144162871Y140368686D03*
X143812871Y140368686D03*
%TD*%
%TO.C,R75*%
X139288871Y68541139D03*
X138938871Y68541139D03*
%TD*%
%TO.C,R74*%
X35688871Y151425290D03*
X35338871Y151425290D03*
%TD*%
%TO.C,R73*%
X35688871Y154189441D03*
X35338871Y154189441D03*
%TD*%
D26*
%TO.C,R144*%
X25601871Y40453711D03*
X24077871Y40453711D03*
%TD*%
D25*
%TO.C,R57*%
X252636871Y143132837D03*
X252286871Y143132837D03*
%TD*%
D26*
%TO.C,R142*%
X129201871Y126778155D03*
X127677871Y126778155D03*
%TD*%
%TO.C,R142*%
X25601871Y126778155D03*
X24077871Y126778155D03*
%TD*%
D25*
%TO.C,R90*%
X134414871Y54720377D03*
X134064871Y54720377D03*
%TD*%
%TO.C,R81*%
X134414871Y79597743D03*
X134064871Y79597743D03*
%TD*%
%TO.C,R98*%
X129540871Y140368686D03*
X129190871Y140368686D03*
%TD*%
%TO.C,R69*%
X144162871Y137604535D03*
X143812871Y137604535D03*
%TD*%
D26*
%TO.C,R137*%
X238595871Y111247047D03*
X237071871Y111247047D03*
%TD*%
D25*
%TO.C,R96*%
X129540871Y145896988D03*
X129190871Y145896988D03*
%TD*%
%TO.C,R51*%
X252636871Y79597743D03*
X252286871Y79597743D03*
%TD*%
D26*
%TO.C,R142*%
X232801871Y46658155D03*
X231277871Y46658155D03*
%TD*%
D25*
%TO.C,R77*%
X242888871Y143132837D03*
X242538871Y143132837D03*
%TD*%
%TO.C,R59*%
X149036871Y57484535D03*
X148686871Y57484535D03*
%TD*%
%TO.C,R88*%
X30814871Y140368686D03*
X30464871Y140368686D03*
%TD*%
D26*
%TO.C,R146*%
X25601871Y34249267D03*
X24077871Y34249267D03*
%TD*%
D25*
%TO.C,R83*%
X30814871Y154189441D03*
X30464871Y154189441D03*
%TD*%
%TO.C,R54*%
X149036871Y71305290D03*
X148686871Y71305290D03*
%TD*%
D26*
%TO.C,R144*%
X232801871Y40453711D03*
X231277871Y40453711D03*
%TD*%
D25*
%TO.C,R58*%
X45436871Y140368686D03*
X45086871Y140368686D03*
%TD*%
%TO.C,R71*%
X242888871Y79597743D03*
X242538871Y79597743D03*
%TD*%
%TO.C,R74*%
X139288871Y71305290D03*
X138938871Y71305290D03*
%TD*%
%TO.C,R89*%
X134414871Y137604535D03*
X134064871Y137604535D03*
%TD*%
D26*
%TO.C,R150*%
X232801871Y21840377D03*
X231277871Y21840377D03*
%TD*%
D25*
%TO.C,R69*%
X247762871Y137604535D03*
X247412871Y137604535D03*
%TD*%
D26*
%TO.C,R132*%
X31395871Y126724822D03*
X29871871Y126724822D03*
%TD*%
D25*
%TO.C,R84*%
X134414871Y151425290D03*
X134064871Y151425290D03*
%TD*%
D26*
%TO.C,R135*%
X31395871Y37318157D03*
X29871871Y37318157D03*
%TD*%
D25*
%TO.C,R97*%
X129540871Y63012837D03*
X129190871Y63012837D03*
%TD*%
D26*
%TO.C,R133*%
X31395871Y123629267D03*
X29871871Y123629267D03*
%TD*%
D25*
%TO.C,R70*%
X144162871Y134840377D03*
X143812871Y134840377D03*
%TD*%
%TO.C,R75*%
X139288871Y148661139D03*
X138938871Y148661139D03*
%TD*%
%TO.C,R84*%
X238014871Y151425290D03*
X237664871Y151425290D03*
%TD*%
D26*
%TO.C,R149*%
X25601871Y24942601D03*
X24077871Y24942601D03*
%TD*%
%TO.C,R145*%
X129201871Y37351489D03*
X127677871Y37351489D03*
%TD*%
D25*
%TO.C,R89*%
X30814871Y57484535D03*
X30464871Y57484535D03*
%TD*%
%TO.C,R71*%
X139288871Y159717743D03*
X138938871Y159717743D03*
%TD*%
%TO.C,R89*%
X134414871Y57484535D03*
X134064871Y57484535D03*
%TD*%
%TO.C,R83*%
X238014871Y74069441D03*
X237664871Y74069441D03*
%TD*%
%TO.C,R73*%
X242888871Y154189441D03*
X242538871Y154189441D03*
%TD*%
%TO.C,R92*%
X129540871Y156953592D03*
X129190871Y156953592D03*
%TD*%
D26*
%TO.C,R138*%
X31395871Y108151492D03*
X29871871Y108151492D03*
%TD*%
D25*
%TO.C,R56*%
X45436871Y145896988D03*
X45086871Y145896988D03*
%TD*%
%TO.C,R60*%
X149036871Y134840377D03*
X148686871Y134840377D03*
%TD*%
%TO.C,R98*%
X233140871Y140368686D03*
X232790871Y140368686D03*
%TD*%
%TO.C,R56*%
X252636871Y145896988D03*
X252286871Y145896988D03*
%TD*%
%TO.C,R99*%
X233140871Y57484535D03*
X232790871Y57484535D03*
%TD*%
D26*
%TO.C,R147*%
X232801871Y111267045D03*
X231277871Y111267045D03*
%TD*%
%TO.C,R142*%
X232801871Y126778155D03*
X231277871Y126778155D03*
%TD*%
%TO.C,R138*%
X31395871Y28031492D03*
X29871871Y28031492D03*
%TD*%
D25*
%TO.C,R76*%
X242888871Y65776988D03*
X242538871Y65776988D03*
%TD*%
D26*
%TO.C,R138*%
X238595871Y28031492D03*
X237071871Y28031492D03*
%TD*%
%TO.C,R138*%
X134995871Y108151492D03*
X133471871Y108151492D03*
%TD*%
%TO.C,R140*%
X31395871Y21840377D03*
X29871871Y21840377D03*
%TD*%
D25*
%TO.C,R81*%
X238014871Y159717743D03*
X237664871Y159717743D03*
%TD*%
D26*
%TO.C,R140*%
X238595871Y21840377D03*
X237071871Y21840377D03*
%TD*%
D25*
%TO.C,R98*%
X233140871Y60248686D03*
X232790871Y60248686D03*
%TD*%
D26*
%TO.C,R141*%
X232801871Y129880377D03*
X231277871Y129880377D03*
%TD*%
D25*
%TO.C,R59*%
X149036871Y137604535D03*
X148686871Y137604535D03*
%TD*%
%TO.C,R86*%
X134414871Y65776988D03*
X134064871Y65776988D03*
%TD*%
D26*
%TO.C,R149*%
X129201871Y105062601D03*
X127677871Y105062601D03*
%TD*%
%TO.C,R132*%
X134995871Y46604822D03*
X133471871Y46604822D03*
%TD*%
D25*
%TO.C,R66*%
X40562871Y145896988D03*
X40212871Y145896988D03*
%TD*%
%TO.C,R57*%
X45436871Y143132837D03*
X45086871Y143132837D03*
%TD*%
%TO.C,R93*%
X129540871Y154189441D03*
X129190871Y154189441D03*
%TD*%
D26*
%TO.C,R132*%
X238595871Y126724822D03*
X237071871Y126724822D03*
%TD*%
D25*
%TO.C,R88*%
X134414871Y60248686D03*
X134064871Y60248686D03*
%TD*%
D26*
%TO.C,R130*%
X36551871Y117438157D03*
X35027871Y117438157D03*
%TD*%
%TO.C,R143*%
X232801871Y43555933D03*
X231277871Y43555933D03*
%TD*%
%TO.C,R144*%
X129201871Y120573711D03*
X127677871Y120573711D03*
%TD*%
D25*
%TO.C,R87*%
X134414871Y143132837D03*
X134064871Y143132837D03*
%TD*%
%TO.C,R95*%
X129540871Y68541139D03*
X129190871Y68541139D03*
%TD*%
%TO.C,R94*%
X233140871Y151425290D03*
X232790871Y151425290D03*
%TD*%
D26*
%TO.C,R127*%
X243751871Y46597322D03*
X242227871Y46597322D03*
%TD*%
D25*
%TO.C,R79*%
X242888871Y57484535D03*
X242538871Y57484535D03*
%TD*%
%TO.C,R58*%
X252636871Y140368686D03*
X252286871Y140368686D03*
%TD*%
%TO.C,R95*%
X233140871Y148661139D03*
X232790871Y148661139D03*
%TD*%
%TO.C,R80*%
X35688871Y54720377D03*
X35338871Y54720377D03*
%TD*%
%TO.C,R67*%
X247762871Y143132837D03*
X247412871Y143132837D03*
%TD*%
D26*
%TO.C,R138*%
X134995871Y28031492D03*
X133471871Y28031492D03*
%TD*%
%TO.C,R141*%
X25601871Y49760377D03*
X24077871Y49760377D03*
%TD*%
D25*
%TO.C,R68*%
X40562871Y60248686D03*
X40212871Y60248686D03*
%TD*%
%TO.C,R75*%
X242888871Y68541139D03*
X242538871Y68541139D03*
%TD*%
%TO.C,R72*%
X242888871Y156953592D03*
X242538871Y156953592D03*
%TD*%
D26*
%TO.C,R128*%
X243751871Y123624267D03*
X242227871Y123624267D03*
%TD*%
%TO.C,R128*%
X243751871Y43504267D03*
X242227871Y43504267D03*
%TD*%
D25*
%TO.C,R52*%
X45436871Y156953592D03*
X45086871Y156953592D03*
%TD*%
%TO.C,R52*%
X45436871Y76833592D03*
X45086871Y76833592D03*
%TD*%
D26*
%TO.C,R131*%
X134995871Y49700377D03*
X133471871Y49700377D03*
%TD*%
%TO.C,R132*%
X238595871Y46604822D03*
X237071871Y46604822D03*
%TD*%
D25*
%TO.C,R87*%
X30814871Y143132837D03*
X30464871Y143132837D03*
%TD*%
%TO.C,R100*%
X25940871Y134840377D03*
X25590871Y134840377D03*
%TD*%
%TO.C,R82*%
X134414871Y156953592D03*
X134064871Y156953592D03*
%TD*%
%TO.C,R91*%
X129540871Y79597743D03*
X129190871Y79597743D03*
%TD*%
D26*
%TO.C,R130*%
X140151871Y37318157D03*
X138627871Y37318157D03*
%TD*%
D25*
%TO.C,R86*%
X30814871Y65776988D03*
X30464871Y65776988D03*
%TD*%
%TO.C,R63*%
X144162871Y154189441D03*
X143812871Y154189441D03*
%TD*%
%TO.C,R99*%
X25940871Y57484535D03*
X25590871Y57484535D03*
%TD*%
D26*
%TO.C,R145*%
X232801871Y37351489D03*
X231277871Y37351489D03*
%TD*%
D25*
%TO.C,R80*%
X139288871Y54720377D03*
X138938871Y54720377D03*
%TD*%
%TO.C,R64*%
X247762871Y71305290D03*
X247412871Y71305290D03*
%TD*%
%TO.C,R83*%
X134414871Y74069441D03*
X134064871Y74069441D03*
%TD*%
%TO.C,R74*%
X242888871Y71305290D03*
X242538871Y71305290D03*
%TD*%
%TO.C,R93*%
X233140871Y154189441D03*
X232790871Y154189441D03*
%TD*%
%TO.C,R77*%
X139288871Y63012837D03*
X138938871Y63012837D03*
%TD*%
%TO.C,R63*%
X144162871Y74069441D03*
X143812871Y74069441D03*
%TD*%
D26*
%TO.C,R143*%
X25601871Y123675933D03*
X24077871Y123675933D03*
%TD*%
%TO.C,R135*%
X238595871Y37318157D03*
X237071871Y37318157D03*
%TD*%
D25*
%TO.C,R94*%
X129540871Y151425290D03*
X129190871Y151425290D03*
%TD*%
%TO.C,R97*%
X25940871Y63012837D03*
X25590871Y63012837D03*
%TD*%
%TO.C,R55*%
X45436871Y148661139D03*
X45086871Y148661139D03*
%TD*%
D26*
%TO.C,R129*%
X243751871Y40411212D03*
X242227871Y40411212D03*
%TD*%
%TO.C,R131*%
X134995871Y129820377D03*
X133471871Y129820377D03*
%TD*%
D25*
%TO.C,R77*%
X242888871Y63012837D03*
X242538871Y63012837D03*
%TD*%
%TO.C,R53*%
X149036871Y74069441D03*
X148686871Y74069441D03*
%TD*%
D26*
%TO.C,R139*%
X134995871Y24935937D03*
X133471871Y24935937D03*
%TD*%
D25*
%TO.C,R79*%
X139288871Y57484535D03*
X138938871Y57484535D03*
%TD*%
%TO.C,R66*%
X247762871Y145896988D03*
X247412871Y145896988D03*
%TD*%
%TO.C,R84*%
X30814871Y151425290D03*
X30464871Y151425290D03*
%TD*%
D26*
%TO.C,R127*%
X36551871Y126717322D03*
X35027871Y126717322D03*
%TD*%
D25*
%TO.C,R53*%
X149036871Y154189441D03*
X148686871Y154189441D03*
%TD*%
%TO.C,R98*%
X129540871Y60248686D03*
X129190871Y60248686D03*
%TD*%
%TO.C,R72*%
X139288871Y76833592D03*
X138938871Y76833592D03*
%TD*%
%TO.C,R84*%
X238014871Y71305290D03*
X237664871Y71305290D03*
%TD*%
D26*
%TO.C,R150*%
X25601871Y101960377D03*
X24077871Y101960377D03*
%TD*%
%TO.C,R136*%
X31395871Y114342602D03*
X29871871Y114342602D03*
%TD*%
D25*
%TO.C,R79*%
X35688871Y137604535D03*
X35338871Y137604535D03*
%TD*%
D26*
%TO.C,R142*%
X25601871Y46658155D03*
X24077871Y46658155D03*
%TD*%
D25*
%TO.C,R55*%
X252636871Y68541139D03*
X252286871Y68541139D03*
%TD*%
%TO.C,R87*%
X30814871Y63012837D03*
X30464871Y63012837D03*
%TD*%
D26*
%TO.C,R146*%
X232801871Y34249267D03*
X231277871Y34249267D03*
%TD*%
%TO.C,R148*%
X232801871Y28044823D03*
X231277871Y28044823D03*
%TD*%
D25*
%TO.C,R82*%
X238014871Y76833592D03*
X237664871Y76833592D03*
%TD*%
%TO.C,R55*%
X149036871Y68541139D03*
X148686871Y68541139D03*
%TD*%
D26*
%TO.C,R148*%
X25601871Y28044823D03*
X24077871Y28044823D03*
%TD*%
%TO.C,R129*%
X36551871Y120531212D03*
X35027871Y120531212D03*
%TD*%
D25*
%TO.C,R86*%
X30814871Y145896988D03*
X30464871Y145896988D03*
%TD*%
%TO.C,R61*%
X40562871Y159717743D03*
X40212871Y159717743D03*
%TD*%
D26*
%TO.C,R134*%
X31395871Y120533712D03*
X29871871Y120533712D03*
%TD*%
D25*
%TO.C,R60*%
X45436871Y134840377D03*
X45086871Y134840377D03*
%TD*%
%TO.C,R95*%
X25940871Y68541139D03*
X25590871Y68541139D03*
%TD*%
%TO.C,R81*%
X30814871Y159717743D03*
X30464871Y159717743D03*
%TD*%
%TO.C,R70*%
X40562871Y54720377D03*
X40212871Y54720377D03*
%TD*%
%TO.C,R70*%
X247762871Y54720377D03*
X247412871Y54720377D03*
%TD*%
%TO.C,R94*%
X233140871Y71305290D03*
X232790871Y71305290D03*
%TD*%
%TO.C,R55*%
X252636871Y148661139D03*
X252286871Y148661139D03*
%TD*%
%TO.C,R74*%
X35688871Y71305290D03*
X35338871Y71305290D03*
%TD*%
%TO.C,R52*%
X252636871Y76833592D03*
X252286871Y76833592D03*
%TD*%
%TO.C,R88*%
X238014871Y60248686D03*
X237664871Y60248686D03*
%TD*%
D26*
%TO.C,R149*%
X129201871Y24942601D03*
X127677871Y24942601D03*
%TD*%
D25*
%TO.C,R92*%
X129540871Y76833592D03*
X129190871Y76833592D03*
%TD*%
%TO.C,R72*%
X242888871Y76833592D03*
X242538871Y76833592D03*
%TD*%
D26*
%TO.C,R147*%
X129201871Y31147045D03*
X127677871Y31147045D03*
%TD*%
D25*
%TO.C,R95*%
X25940871Y148661139D03*
X25590871Y148661139D03*
%TD*%
%TO.C,R78*%
X139288871Y60248686D03*
X138938871Y60248686D03*
%TD*%
D26*
%TO.C,R134*%
X134995871Y40413712D03*
X133471871Y40413712D03*
%TD*%
%TO.C,R149*%
X232801871Y105062601D03*
X231277871Y105062601D03*
%TD*%
D25*
%TO.C,R96*%
X25940871Y145896988D03*
X25590871Y145896988D03*
%TD*%
D26*
%TO.C,R147*%
X25601871Y31147045D03*
X24077871Y31147045D03*
%TD*%
D25*
%TO.C,R66*%
X144162871Y145896988D03*
X143812871Y145896988D03*
%TD*%
%TO.C,R99*%
X233140871Y137604535D03*
X232790871Y137604535D03*
%TD*%
%TO.C,R96*%
X25940871Y65776988D03*
X25590871Y65776988D03*
%TD*%
%TO.C,R96*%
X129540871Y65776988D03*
X129190871Y65776988D03*
%TD*%
%TO.C,R83*%
X238014871Y154189441D03*
X237664871Y154189441D03*
%TD*%
%TO.C,R83*%
X134414871Y154189441D03*
X134064871Y154189441D03*
%TD*%
%TO.C,R87*%
X238014871Y63012837D03*
X237664871Y63012837D03*
%TD*%
%TO.C,R76*%
X139288871Y145896988D03*
X138938871Y145896988D03*
%TD*%
%TO.C,R100*%
X25940871Y54720377D03*
X25590871Y54720377D03*
%TD*%
D26*
%TO.C,R139*%
X238595871Y24935937D03*
X237071871Y24935937D03*
%TD*%
D25*
%TO.C,R65*%
X247762871Y148661139D03*
X247412871Y148661139D03*
%TD*%
%TO.C,R97*%
X129540871Y143132837D03*
X129190871Y143132837D03*
%TD*%
D26*
%TO.C,R134*%
X238595871Y40413712D03*
X237071871Y40413712D03*
%TD*%
%TO.C,R137*%
X31395871Y31127047D03*
X29871871Y31127047D03*
%TD*%
D25*
%TO.C,R55*%
X149036871Y148661139D03*
X148686871Y148661139D03*
%TD*%
%TO.C,R99*%
X25940871Y137604535D03*
X25590871Y137604535D03*
%TD*%
D26*
%TO.C,R144*%
X25601871Y120573711D03*
X24077871Y120573711D03*
%TD*%
D25*
%TO.C,R63*%
X40562871Y74069441D03*
X40212871Y74069441D03*
%TD*%
%TO.C,R69*%
X40562871Y57484535D03*
X40212871Y57484535D03*
%TD*%
%TO.C,R74*%
X139288871Y151425290D03*
X138938871Y151425290D03*
%TD*%
%TO.C,R51*%
X45436871Y159717743D03*
X45086871Y159717743D03*
%TD*%
%TO.C,R62*%
X144162871Y76833592D03*
X143812871Y76833592D03*
%TD*%
%TO.C,R54*%
X252636871Y151425290D03*
X252286871Y151425290D03*
%TD*%
D26*
%TO.C,R146*%
X129201871Y34249267D03*
X127677871Y34249267D03*
%TD*%
D25*
%TO.C,R95*%
X233140871Y68541139D03*
X232790871Y68541139D03*
%TD*%
%TO.C,R69*%
X144162871Y57484535D03*
X143812871Y57484535D03*
%TD*%
%TO.C,R88*%
X30814871Y60248686D03*
X30464871Y60248686D03*
%TD*%
D26*
%TO.C,R134*%
X134995871Y120533712D03*
X133471871Y120533712D03*
%TD*%
%TO.C,R136*%
X134995871Y114342602D03*
X133471871Y114342602D03*
%TD*%
D25*
%TO.C,R80*%
X139288871Y134840377D03*
X138938871Y134840377D03*
%TD*%
%TO.C,R78*%
X35688871Y140368686D03*
X35338871Y140368686D03*
%TD*%
D26*
%TO.C,R130*%
X140151871Y117438157D03*
X138627871Y117438157D03*
%TD*%
%TO.C,R141*%
X129201871Y129880377D03*
X127677871Y129880377D03*
%TD*%
D25*
%TO.C,R54*%
X45436871Y71305290D03*
X45086871Y71305290D03*
%TD*%
D26*
%TO.C,R128*%
X140151871Y123624267D03*
X138627871Y123624267D03*
%TD*%
%TO.C,R148*%
X129201871Y28044823D03*
X127677871Y28044823D03*
%TD*%
D25*
%TO.C,R73*%
X139288871Y154189441D03*
X138938871Y154189441D03*
%TD*%
%TO.C,R85*%
X238014871Y148661139D03*
X237664871Y148661139D03*
%TD*%
%TO.C,R69*%
X247762871Y57484535D03*
X247412871Y57484535D03*
%TD*%
D26*
%TO.C,R128*%
X36551871Y43504267D03*
X35027871Y43504267D03*
%TD*%
D25*
%TO.C,R67*%
X144162871Y143132837D03*
X143812871Y143132837D03*
%TD*%
D26*
%TO.C,R126*%
X243751871Y49690377D03*
X242227871Y49690377D03*
%TD*%
D25*
%TO.C,R89*%
X238014871Y57484535D03*
X237664871Y57484535D03*
%TD*%
%TO.C,R91*%
X25940871Y159717743D03*
X25590871Y159717743D03*
%TD*%
D26*
%TO.C,R148*%
X25601871Y108164823D03*
X24077871Y108164823D03*
%TD*%
D25*
%TO.C,R56*%
X149036871Y145896988D03*
X148686871Y145896988D03*
%TD*%
%TO.C,R62*%
X40562871Y156953592D03*
X40212871Y156953592D03*
%TD*%
%TO.C,R84*%
X134414871Y71305290D03*
X134064871Y71305290D03*
%TD*%
D26*
%TO.C,R135*%
X238595871Y117438157D03*
X237071871Y117438157D03*
%TD*%
%TO.C,R130*%
X243751871Y37318157D03*
X242227871Y37318157D03*
%TD*%
D25*
%TO.C,R56*%
X45436871Y65776988D03*
X45086871Y65776988D03*
%TD*%
%TO.C,R93*%
X25940871Y154189441D03*
X25590871Y154189441D03*
%TD*%
%TO.C,R78*%
X139288871Y140368686D03*
X138938871Y140368686D03*
%TD*%
%TO.C,R90*%
X30814871Y54720377D03*
X30464871Y54720377D03*
%TD*%
D26*
%TO.C,R149*%
X25601871Y105062601D03*
X24077871Y105062601D03*
%TD*%
D25*
%TO.C,R64*%
X40562871Y71305290D03*
X40212871Y71305290D03*
%TD*%
D26*
%TO.C,R143*%
X129201871Y123675933D03*
X127677871Y123675933D03*
%TD*%
D25*
%TO.C,R90*%
X134414871Y134840377D03*
X134064871Y134840377D03*
%TD*%
%TO.C,R56*%
X252636871Y65776988D03*
X252286871Y65776988D03*
%TD*%
D26*
%TO.C,R138*%
X238595871Y108151492D03*
X237071871Y108151492D03*
%TD*%
D25*
%TO.C,R53*%
X45436871Y74069441D03*
X45086871Y74069441D03*
%TD*%
%TO.C,R59*%
X45436871Y137604535D03*
X45086871Y137604535D03*
%TD*%
%TO.C,R61*%
X144162871Y159717743D03*
X143812871Y159717743D03*
%TD*%
%TO.C,R59*%
X252636871Y137604535D03*
X252286871Y137604535D03*
%TD*%
%TO.C,R80*%
X242888871Y54720377D03*
X242538871Y54720377D03*
%TD*%
%TO.C,R67*%
X247762871Y63012837D03*
X247412871Y63012837D03*
%TD*%
D26*
%TO.C,R135*%
X31395871Y117438157D03*
X29871871Y117438157D03*
%TD*%
D25*
%TO.C,R76*%
X35688871Y65776988D03*
X35338871Y65776988D03*
%TD*%
D26*
%TO.C,R143*%
X232801871Y123675933D03*
X231277871Y123675933D03*
%TD*%
D25*
%TO.C,R99*%
X129540871Y137604535D03*
X129190871Y137604535D03*
%TD*%
D26*
%TO.C,R135*%
X134995871Y37318157D03*
X133471871Y37318157D03*
%TD*%
D25*
%TO.C,R63*%
X40562871Y154189441D03*
X40212871Y154189441D03*
%TD*%
D26*
%TO.C,R139*%
X238595871Y105055937D03*
X237071871Y105055937D03*
%TD*%
D25*
%TO.C,R56*%
X149036871Y65776988D03*
X148686871Y65776988D03*
%TD*%
%TO.C,R59*%
X45436871Y57484535D03*
X45086871Y57484535D03*
%TD*%
%TO.C,R92*%
X233140871Y156953592D03*
X232790871Y156953592D03*
%TD*%
%TO.C,R61*%
X144162871Y79597743D03*
X143812871Y79597743D03*
%TD*%
%TO.C,R53*%
X252636871Y74069441D03*
X252286871Y74069441D03*
%TD*%
%TO.C,R78*%
X35688871Y60248686D03*
X35338871Y60248686D03*
%TD*%
%TO.C,R57*%
X45436871Y63012837D03*
X45086871Y63012837D03*
%TD*%
%TO.C,R75*%
X35688871Y68541139D03*
X35338871Y68541139D03*
%TD*%
%TO.C,R85*%
X134414871Y148661139D03*
X134064871Y148661139D03*
%TD*%
D26*
%TO.C,R126*%
X243751871Y129810377D03*
X242227871Y129810377D03*
%TD*%
D25*
%TO.C,R70*%
X247762871Y134840377D03*
X247412871Y134840377D03*
%TD*%
D26*
%TO.C,R133*%
X134995871Y43509267D03*
X133471871Y43509267D03*
%TD*%
D25*
%TO.C,R71*%
X242888871Y159717743D03*
X242538871Y159717743D03*
%TD*%
%TO.C,R90*%
X238014871Y134840377D03*
X237664871Y134840377D03*
%TD*%
D26*
%TO.C,R145*%
X25601871Y117471489D03*
X24077871Y117471489D03*
%TD*%
D25*
%TO.C,R94*%
X25940871Y71305290D03*
X25590871Y71305290D03*
%TD*%
%TO.C,R54*%
X45436871Y151425290D03*
X45086871Y151425290D03*
%TD*%
%TO.C,R100*%
X233140871Y54720377D03*
X232790871Y54720377D03*
%TD*%
D26*
%TO.C,R129*%
X36551871Y40411212D03*
X35027871Y40411212D03*
%TD*%
%TO.C,R131*%
X238595871Y129820377D03*
X237071871Y129820377D03*
%TD*%
D25*
%TO.C,R82*%
X30814871Y156953592D03*
X30464871Y156953592D03*
%TD*%
D26*
%TO.C,R139*%
X31395871Y24935937D03*
X29871871Y24935937D03*
%TD*%
%TO.C,R140*%
X134995871Y101960377D03*
X133471871Y101960377D03*
%TD*%
D25*
%TO.C,R71*%
X139288871Y79597743D03*
X138938871Y79597743D03*
%TD*%
%TO.C,R93*%
X233140871Y74069441D03*
X232790871Y74069441D03*
%TD*%
%TO.C,R51*%
X149036871Y79597743D03*
X148686871Y79597743D03*
%TD*%
%TO.C,R51*%
X149036871Y159717743D03*
X148686871Y159717743D03*
%TD*%
%TO.C,R73*%
X35688871Y74069441D03*
X35338871Y74069441D03*
%TD*%
%TO.C,R89*%
X238014871Y137604535D03*
X237664871Y137604535D03*
%TD*%
%TO.C,R57*%
X252636871Y63012837D03*
X252286871Y63012837D03*
%TD*%
%TO.C,R67*%
X40562871Y63012837D03*
X40212871Y63012837D03*
%TD*%
%TO.C,R53*%
X45436871Y154189441D03*
X45086871Y154189441D03*
%TD*%
%TO.C,R90*%
X30814871Y134840377D03*
X30464871Y134840377D03*
%TD*%
D26*
%TO.C,R130*%
X36551871Y37318157D03*
X35027871Y37318157D03*
%TD*%
D25*
%TO.C,R63*%
X247762871Y74069441D03*
X247412871Y74069441D03*
%TD*%
%TO.C,R60*%
X252636871Y54720377D03*
X252286871Y54720377D03*
%TD*%
%TO.C,R71*%
X35688871Y159717743D03*
X35338871Y159717743D03*
%TD*%
%TO.C,R82*%
X134414871Y76833592D03*
X134064871Y76833592D03*
%TD*%
%TO.C,R72*%
X35688871Y156953592D03*
X35338871Y156953592D03*
%TD*%
%TO.C,R54*%
X149036871Y151425290D03*
X148686871Y151425290D03*
%TD*%
D26*
%TO.C,R145*%
X232801871Y117471489D03*
X231277871Y117471489D03*
%TD*%
D25*
%TO.C,R86*%
X238014871Y65776988D03*
X237664871Y65776988D03*
%TD*%
D26*
%TO.C,R140*%
X238595871Y101960377D03*
X237071871Y101960377D03*
%TD*%
%TO.C,R136*%
X31395871Y34222602D03*
X29871871Y34222602D03*
%TD*%
D25*
%TO.C,R53*%
X252636871Y154189441D03*
X252286871Y154189441D03*
%TD*%
%TO.C,R61*%
X247762871Y79597743D03*
X247412871Y79597743D03*
%TD*%
%TO.C,R91*%
X233140871Y159717743D03*
X232790871Y159717743D03*
%TD*%
%TO.C,R94*%
X129540871Y71305290D03*
X129190871Y71305290D03*
%TD*%
%TO.C,R58*%
X45436871Y60248686D03*
X45086871Y60248686D03*
%TD*%
D26*
%TO.C,R150*%
X232801871Y101960377D03*
X231277871Y101960377D03*
%TD*%
D25*
%TO.C,R91*%
X233140871Y79597743D03*
X232790871Y79597743D03*
%TD*%
D26*
%TO.C,R141*%
X232801871Y49760377D03*
X231277871Y49760377D03*
%TD*%
D25*
%TO.C,R65*%
X40562871Y148661139D03*
X40212871Y148661139D03*
%TD*%
D26*
%TO.C,R136*%
X238595871Y34222602D03*
X237071871Y34222602D03*
%TD*%
%TO.C,R129*%
X140151871Y120531212D03*
X138627871Y120531212D03*
%TD*%
D25*
%TO.C,R99*%
X129540871Y57484535D03*
X129190871Y57484535D03*
%TD*%
D26*
%TO.C,R127*%
X36551871Y46597322D03*
X35027871Y46597322D03*
%TD*%
D25*
%TO.C,R94*%
X25940871Y151425290D03*
X25590871Y151425290D03*
%TD*%
D26*
%TO.C,R137*%
X134995871Y111247047D03*
X133471871Y111247047D03*
%TD*%
D25*
%TO.C,R67*%
X40562871Y143132837D03*
X40212871Y143132837D03*
%TD*%
%TO.C,R72*%
X139288871Y156953592D03*
X138938871Y156953592D03*
%TD*%
D26*
%TO.C,R150*%
X129201871Y21840377D03*
X127677871Y21840377D03*
%TD*%
%TO.C,R140*%
X134995871Y21840377D03*
X133471871Y21840377D03*
%TD*%
%TO.C,R134*%
X238595871Y120533712D03*
X237071871Y120533712D03*
%TD*%
D25*
%TO.C,R90*%
X238014871Y54720377D03*
X237664871Y54720377D03*
%TD*%
%TO.C,R91*%
X129540871Y159717743D03*
X129190871Y159717743D03*
%TD*%
D26*
%TO.C,R145*%
X129201871Y117471489D03*
X127677871Y117471489D03*
%TD*%
D25*
%TO.C,R52*%
X252636871Y156953592D03*
X252286871Y156953592D03*
%TD*%
%TO.C,R92*%
X25940871Y76833592D03*
X25590871Y76833592D03*
%TD*%
%TO.C,R86*%
X134414871Y145896988D03*
X134064871Y145896988D03*
%TD*%
D26*
%TO.C,R139*%
X31395871Y105055937D03*
X29871871Y105055937D03*
%TD*%
D25*
%TO.C,R60*%
X45436871Y54720377D03*
X45086871Y54720377D03*
%TD*%
%TO.C,R85*%
X30814871Y68541139D03*
X30464871Y68541139D03*
%TD*%
%TO.C,R61*%
X40562871Y79597743D03*
X40212871Y79597743D03*
%TD*%
D26*
%TO.C,R132*%
X31395871Y46604822D03*
X29871871Y46604822D03*
%TD*%
D25*
%TO.C,R52*%
X149036871Y156953592D03*
X148686871Y156953592D03*
%TD*%
%TO.C,R66*%
X144162871Y65776988D03*
X143812871Y65776988D03*
%TD*%
D26*
%TO.C,R146*%
X129201871Y114369267D03*
X127677871Y114369267D03*
%TD*%
D25*
%TO.C,R76*%
X35688871Y145896988D03*
X35338871Y145896988D03*
%TD*%
%TO.C,R85*%
X30814871Y148661139D03*
X30464871Y148661139D03*
%TD*%
%TO.C,R68*%
X247762871Y60248686D03*
X247412871Y60248686D03*
%TD*%
%TO.C,R80*%
X242888871Y134840377D03*
X242538871Y134840377D03*
%TD*%
D26*
%TO.C,R126*%
X36551871Y129810377D03*
X35027871Y129810377D03*
%TD*%
%TO.C,R126*%
X36551871Y49690377D03*
X35027871Y49690377D03*
%TD*%
%TO.C,R135*%
X134995871Y117438157D03*
X133471871Y117438157D03*
%TD*%
D25*
%TO.C,R75*%
X242888871Y148661139D03*
X242538871Y148661139D03*
%TD*%
%TO.C,R79*%
X242888871Y137604535D03*
X242538871Y137604535D03*
%TD*%
D26*
%TO.C,R144*%
X129201871Y40453711D03*
X127677871Y40453711D03*
%TD*%
D25*
%TO.C,R98*%
X25940871Y60248686D03*
X25590871Y60248686D03*
%TD*%
%TO.C,R89*%
X30814871Y137604535D03*
X30464871Y137604535D03*
%TD*%
%TO.C,R79*%
X139288871Y137604535D03*
X138938871Y137604535D03*
%TD*%
%TO.C,R80*%
X35688871Y134840377D03*
X35338871Y134840377D03*
%TD*%
%TO.C,R85*%
X238014871Y68541139D03*
X237664871Y68541139D03*
%TD*%
D26*
%TO.C,R133*%
X238595871Y43509267D03*
X237071871Y43509267D03*
%TD*%
%TO.C,R141*%
X129201871Y49760377D03*
X127677871Y49760377D03*
%TD*%
%TO.C,R127*%
X140151871Y126717322D03*
X138627871Y126717322D03*
%TD*%
%TO.C,R144*%
X232801871Y120573711D03*
X231277871Y120573711D03*
%TD*%
%TO.C,R149*%
X232801871Y24942601D03*
X231277871Y24942601D03*
%TD*%
D25*
%TO.C,R64*%
X40562871Y151425290D03*
X40212871Y151425290D03*
%TD*%
%TO.C,R57*%
X149036871Y143132837D03*
X148686871Y143132837D03*
%TD*%
%TO.C,R98*%
X25955000Y140368686D03*
X25605000Y140368686D03*
%TD*%
D26*
%TO.C,R133*%
X238595871Y123629267D03*
X237071871Y123629267D03*
%TD*%
%TO.C,R142*%
X129201871Y46658155D03*
X127677871Y46658155D03*
%TD*%
%TO.C,R133*%
X134995871Y123629267D03*
X133471871Y123629267D03*
%TD*%
D25*
%TO.C,R62*%
X40562871Y76833592D03*
X40212871Y76833592D03*
%TD*%
D26*
%TO.C,R132*%
X134995871Y126724822D03*
X133471871Y126724822D03*
%TD*%
%TO.C,R131*%
X31395871Y49700377D03*
X29871871Y49700377D03*
%TD*%
%TO.C,R150*%
X129201871Y101960377D03*
X127677871Y101960377D03*
%TD*%
%TO.C,R136*%
X238595871Y114342602D03*
X237071871Y114342602D03*
%TD*%
D25*
%TO.C,R68*%
X144162871Y60248686D03*
X143812871Y60248686D03*
%TD*%
D26*
%TO.C,R136*%
X134995871Y34222602D03*
X133471871Y34222602D03*
%TD*%
D25*
%TO.C,R65*%
X144162871Y68541139D03*
X143812871Y68541139D03*
%TD*%
%TO.C,R78*%
X242888871Y60248686D03*
X242538871Y60248686D03*
%TD*%
%TO.C,R76*%
X242888871Y145896988D03*
X242538871Y145896988D03*
%TD*%
%TO.C,R70*%
X144162871Y54720377D03*
X143812871Y54720377D03*
%TD*%
D26*
%TO.C,R148*%
X232801871Y108164823D03*
X231277871Y108164823D03*
%TD*%
%TO.C,R129*%
X140151871Y40411212D03*
X138627871Y40411212D03*
%TD*%
%TO.C,R145*%
X25601871Y37351489D03*
X24077871Y37351489D03*
%TD*%
D25*
%TO.C,R97*%
X233140871Y143132837D03*
X232790871Y143132837D03*
%TD*%
%TO.C,R77*%
X35688871Y143132837D03*
X35338871Y143132837D03*
%TD*%
D26*
%TO.C,R127*%
X243751871Y126717322D03*
X242227871Y126717322D03*
%TD*%
D25*
%TO.C,R68*%
X247762871Y140368686D03*
X247412871Y140368686D03*
%TD*%
D26*
%TO.C,R131*%
X31395871Y129820377D03*
X29871871Y129820377D03*
%TD*%
D25*
%TO.C,R82*%
X238014871Y156953592D03*
X237664871Y156953592D03*
%TD*%
%TO.C,R64*%
X247762871Y151425290D03*
X247412871Y151425290D03*
%TD*%
%TO.C,R72*%
X35688871Y76833592D03*
X35338871Y76833592D03*
%TD*%
%TO.C,R79*%
X35688871Y57484535D03*
X35338871Y57484535D03*
%TD*%
%TO.C,R87*%
X238014871Y143132837D03*
X237664871Y143132837D03*
%TD*%
%TO.C,R57*%
X149036871Y63012837D03*
X148686871Y63012837D03*
%TD*%
%TO.C,R91*%
X25940871Y79597743D03*
X25590871Y79597743D03*
%TD*%
%TO.C,R96*%
X233140871Y65776988D03*
X232790871Y65776988D03*
%TD*%
%TO.C,R59*%
X252636871Y57484535D03*
X252286871Y57484535D03*
%TD*%
D26*
%TO.C,R139*%
X134995871Y105055937D03*
X133471871Y105055937D03*
%TD*%
D25*
%TO.C,R62*%
X247762871Y76833592D03*
X247412871Y76833592D03*
%TD*%
%TO.C,R58*%
X252636871Y60248686D03*
X252286871Y60248686D03*
%TD*%
%TO.C,R66*%
X40562871Y65776988D03*
X40212871Y65776988D03*
%TD*%
D26*
%TO.C,R126*%
X140151871Y49690377D03*
X138627871Y49690377D03*
%TD*%
%TO.C,R148*%
X129201871Y108164823D03*
X127677871Y108164823D03*
%TD*%
D25*
%TO.C,R74*%
X242888871Y151425290D03*
X242538871Y151425290D03*
%TD*%
D26*
%TO.C,R143*%
X25601871Y43555933D03*
X24077871Y43555933D03*
%TD*%
%TO.C,R134*%
X31395871Y40413712D03*
X29871871Y40413712D03*
%TD*%
D25*
%TO.C,R55*%
X45436871Y68541139D03*
X45086871Y68541139D03*
%TD*%
%TO.C,R66*%
X247762871Y65776988D03*
X247412871Y65776988D03*
%TD*%
%TO.C,R52*%
X149036871Y76833592D03*
X148686871Y76833592D03*
%TD*%
D26*
%TO.C,R146*%
X25601871Y114369267D03*
X24077871Y114369267D03*
%TD*%
D25*
%TO.C,R77*%
X139288871Y143132837D03*
X138938871Y143132837D03*
%TD*%
D26*
%TO.C,R147*%
X129201871Y111267045D03*
X127677871Y111267045D03*
%TD*%
D25*
%TO.C,R61*%
X247762871Y159717743D03*
X247412871Y159717743D03*
%TD*%
%TO.C,R62*%
X144162871Y156953592D03*
X143812871Y156953592D03*
%TD*%
D26*
%TO.C,R128*%
X36551871Y123624267D03*
X35027871Y123624267D03*
%TD*%
%TO.C,R130*%
X243751871Y117438157D03*
X242227871Y117438157D03*
%TD*%
D25*
%TO.C,R92*%
X233140871Y76833592D03*
X232790871Y76833592D03*
%TD*%
%TO.C,R68*%
X40562871Y140368686D03*
X40212871Y140368686D03*
%TD*%
%TO.C,R81*%
X134414871Y159717743D03*
X134064871Y159717743D03*
%TD*%
%TO.C,R51*%
X45436871Y79597743D03*
X45086871Y79597743D03*
%TD*%
D26*
%TO.C,R137*%
X31395871Y111247047D03*
X29871871Y111247047D03*
%TD*%
%TO.C,R128*%
X140151871Y43504267D03*
X138627871Y43504267D03*
%TD*%
%TO.C,R146*%
X232801871Y114369267D03*
X231277871Y114369267D03*
%TD*%
D25*
%TO.C,R51*%
X252636871Y159717743D03*
X252286871Y159717743D03*
%TD*%
%TO.C,R75*%
X35688871Y148661139D03*
X35338871Y148661139D03*
%TD*%
%TO.C,R97*%
X25940871Y143132837D03*
X25590871Y143132837D03*
%TD*%
%TO.C,R73*%
X139288871Y74069441D03*
X138938871Y74069441D03*
%TD*%
D26*
%TO.C,R143*%
X129201871Y43555933D03*
X127677871Y43555933D03*
%TD*%
%TO.C,R141*%
X25601871Y129880377D03*
X24077871Y129880377D03*
%TD*%
D25*
%TO.C,R69*%
X40562871Y137604535D03*
X40212871Y137604535D03*
%TD*%
%TO.C,R88*%
X134414871Y140368686D03*
X134064871Y140368686D03*
%TD*%
%TO.C,R88*%
X238014871Y140368686D03*
X237664871Y140368686D03*
%TD*%
%TO.C,R78*%
X242888871Y140368686D03*
X242538871Y140368686D03*
%TD*%
D26*
%TO.C,R150*%
X25601871Y21840377D03*
X24077871Y21840377D03*
%TD*%
D25*
%TO.C,R87*%
X134414871Y63012837D03*
X134064871Y63012837D03*
%TD*%
%TO.C,R96*%
X233140871Y145896988D03*
X232790871Y145896988D03*
%TD*%
%TO.C,R76*%
X139288871Y65776988D03*
X138938871Y65776988D03*
%TD*%
%TO.C,R84*%
X30814871Y71305290D03*
X30464871Y71305290D03*
%TD*%
%TO.C,R92*%
X25940871Y156953592D03*
X25590871Y156953592D03*
%TD*%
%TO.C,R93*%
X129540871Y74069441D03*
X129190871Y74069441D03*
%TD*%
D26*
%TO.C,R129*%
X243751871Y120531212D03*
X242227871Y120531212D03*
%TD*%
D25*
%TO.C,R60*%
X149036871Y54720377D03*
X148686871Y54720377D03*
%TD*%
%TO.C,R64*%
X144162871Y71305290D03*
X143812871Y71305290D03*
%TD*%
%TO.C,R63*%
X247762871Y154189441D03*
X247412871Y154189441D03*
%TD*%
D26*
%TO.C,R147*%
X232801871Y31147045D03*
X231277871Y31147045D03*
%TD*%
D25*
%TO.C,R58*%
X149036871Y140368686D03*
X148686871Y140368686D03*
%TD*%
%TO.C,R60*%
X252636871Y134840377D03*
X252286871Y134840377D03*
%TD*%
%TO.C,R81*%
X238014871Y79597743D03*
X237664871Y79597743D03*
%TD*%
%TO.C,R54*%
X252636871Y71305290D03*
X252286871Y71305290D03*
%TD*%
D26*
%TO.C,R147*%
X25601871Y111267045D03*
X24077871Y111267045D03*
%TD*%
%TO.C,R131*%
X238595871Y49700377D03*
X237071871Y49700377D03*
%TD*%
D25*
%TO.C,R95*%
X129540871Y148661139D03*
X129190871Y148661139D03*
%TD*%
%TO.C,R73*%
X242888871Y74069441D03*
X242538871Y74069441D03*
%TD*%
%TO.C,R100*%
X233140871Y134840377D03*
X232790871Y134840377D03*
%TD*%
%TO.C,R100*%
X129540871Y54720377D03*
X129190871Y54720377D03*
%TD*%
%TO.C,R65*%
X144162871Y148661139D03*
X143812871Y148661139D03*
%TD*%
%TO.C,R100*%
X129540871Y134840377D03*
X129190871Y134840377D03*
%TD*%
%TO.C,R62*%
X247762871Y156953592D03*
X247412871Y156953592D03*
%TD*%
%TO.C,R65*%
X40562871Y68541139D03*
X40212871Y68541139D03*
%TD*%
%TO.C,R64*%
X144162871Y151425290D03*
X143812871Y151425290D03*
%TD*%
%TO.C,R81*%
X30814871Y79597743D03*
X30464871Y79597743D03*
%TD*%
%TO.C,R93*%
X25940871Y74069441D03*
X25590871Y74069441D03*
%TD*%
%TO.C,R86*%
X238014871Y145896988D03*
X237664871Y145896988D03*
%TD*%
D26*
%TO.C,R126*%
X140151871Y129810377D03*
X138627871Y129810377D03*
%TD*%
D25*
%TO.C,R71*%
X35688871Y79597743D03*
X35338871Y79597743D03*
%TD*%
%TO.C,R85*%
X134414871Y68541139D03*
X134064871Y68541139D03*
%TD*%
%TO.C,R77*%
X35688871Y63012837D03*
X35338871Y63012837D03*
%TD*%
%TO.C,R67*%
X144162871Y63012837D03*
X143812871Y63012837D03*
%TD*%
%TO.C,R70*%
X40562871Y134840377D03*
X40212871Y134840377D03*
%TD*%
D26*
%TO.C,R137*%
X238595871Y31127047D03*
X237071871Y31127047D03*
%TD*%
%TO.C,R133*%
X31395871Y43509267D03*
X29871871Y43509267D03*
%TD*%
%LPD*%
M02*
