M48
INCH
T1C0.0197
T2C0.0315
T3C0.0433
T4C0.0551
%
G90
G05
T2
X3.0715Y6.1642
X3.0715Y6.0445
X3.0715Y5.9252
X3.0715Y5.8071
X3.0715Y5.6941
X3.0715Y3.0099
X3.0715Y2.8902
X3.0715Y2.7709
X3.0715Y2.6528
X3.0715Y2.5398
X3.2734Y6.1642
X3.2734Y6.0445
X3.2734Y5.9252
X3.2734Y5.8071
X3.2734Y5.6941
X3.2734Y3.0099
X3.2734Y2.8902
X3.2734Y2.7709
X3.2734Y2.6528
X3.2734Y2.5398
X7.1502Y6.1642
X7.1502Y6.0445
X7.1502Y5.9252
X7.1502Y5.8071
X7.1502Y5.6941
X7.1502Y3.0099
X7.1502Y2.8902
X7.1502Y2.7709
X7.1502Y2.6528
X7.1502Y2.5398
X7.3522Y6.1642
X7.3522Y6.0445
X7.3522Y5.9252
X7.3522Y5.8071
X7.3522Y5.6941
X7.3522Y3.0099
X7.3522Y2.8902
X7.3522Y2.7709
X7.3522Y2.6528
X7.3522Y2.5398
X11.2289Y6.1642
X11.2289Y6.0445
X11.2289Y5.9252
X11.2289Y5.8071
X11.2289Y5.6941
X11.2289Y3.0099
X11.2289Y2.8902
X11.2289Y2.7709
X11.2289Y2.6528
X11.2289Y2.5398
X11.4309Y6.1642
X11.4309Y6.0445
X11.4309Y5.9252
X11.4309Y5.8071
X11.4309Y5.6941
X11.4309Y3.0099
X11.4309Y2.8902
X11.4309Y2.7709
X11.4309Y2.6528
X11.4309Y2.5398
T3
X3.137Y6.1642
X3.137Y6.0445
X3.137Y5.9252
X3.137Y5.8071
X3.137Y5.6941
X3.137Y3.0099
X3.137Y2.8902
X3.137Y2.7709
X3.137Y2.6528
X3.137Y2.5398
X3.2079Y6.1642
X3.2079Y6.0445
X3.2079Y5.9252
X3.2079Y5.8071
X3.2079Y5.6941
X3.2079Y3.0099
X3.2079Y2.8902
X3.2079Y2.7709
X3.2079Y2.6528
X3.2079Y2.5398
X7.2157Y6.1642
X7.2157Y6.0445
X7.2157Y5.9252
X7.2157Y5.8071
X7.2157Y5.6941
X7.2157Y3.0099
X7.2157Y2.8902
X7.2157Y2.7709
X7.2157Y2.6528
X7.2157Y2.5398
X7.2866Y6.1642
X7.2866Y6.0445
X7.2866Y5.9252
X7.2866Y5.8071
X7.2866Y5.6941
X7.2866Y3.0099
X7.2866Y2.8902
X7.2866Y2.7709
X7.2866Y2.6528
X7.2866Y2.5398
X11.2945Y6.1642
X11.2945Y6.0445
X11.2945Y5.9252
X11.2945Y5.8071
X11.2945Y5.6941
X11.2945Y3.0099
X11.2945Y2.8902
X11.2945Y2.7709
X11.2945Y2.6528
X11.2945Y2.5398
X11.3653Y6.1642
X11.3653Y6.0445
X11.3653Y5.9252
X11.3653Y5.8071
X11.3653Y5.6941
X11.3653Y3.0099
X11.3653Y2.8902
X11.3653Y2.7709
X11.3653Y2.6528
X11.3653Y2.5398
T1
G00X2.4249Y4.9641
M15
G01X2.4367Y4.9641
M16
G05
G00X2.4249Y1.8097
M15
G01X2.4367Y1.8097
M16
G05
G00X2.4489Y6.0693
M15
G01X2.4489Y6.0457
M16
G05
G00X2.4489Y2.9149
M15
G01X2.4489Y2.8913
M16
G05
G00X2.4631Y6.3035
M15
G01X2.4631Y6.2799
M16
G05
G00X2.4631Y3.1492
M15
G01X2.4631Y3.1256
M16
G05
G00X2.506Y5.0743
M15
G01X2.5335Y5.0743
M16
G05
G00X2.506Y4.8538
M15
G01X2.5335Y4.8538
M16
G05
G00X2.506Y1.92
M15
G01X2.5335Y1.92
M16
G05
G00X2.506Y1.6995
M15
G01X2.5335Y1.6995
M16
G05
G00X2.6438Y5.0743
M15
G01X2.6713Y5.0743
M16
G05
G00X2.6438Y4.8538
M15
G01X2.6713Y4.8538
M16
G05
G00X2.6438Y1.92
M15
G01X2.6713Y1.92
M16
G05
G00X2.6438Y1.6995
M15
G01X2.6713Y1.6995
M16
G05
G00X2.7406Y4.9641
M15
G01X2.7524Y4.9641
M16
G05
G00X2.7406Y1.8097
M15
G01X2.7524Y1.8097
M16
G05
G00X2.7882Y6.3035
M15
G01X2.7882Y6.2799
M16
G05
G00X2.7882Y3.1492
M15
G01X2.7882Y3.1256
M16
G05
G00X2.8024Y6.0693
M15
G01X2.8024Y6.0457
M16
G05
G00X2.8024Y2.9149
M15
G01X2.8024Y2.8913
M16
G05
G00X6.5036Y4.9641
M15
G01X6.5154Y4.9641
M16
G05
G00X6.5036Y1.8097
M15
G01X6.5154Y1.8097
M16
G05
G00X6.5276Y6.0693
M15
G01X6.5276Y6.0457
M16
G05
G00X6.5276Y2.9149
M15
G01X6.5276Y2.8913
M16
G05
G00X6.5418Y6.3035
M15
G01X6.5418Y6.2799
M16
G05
G00X6.5418Y3.1492
M15
G01X6.5418Y3.1256
M16
G05
G00X6.5847Y5.0743
M15
G01X6.6123Y5.0743
M16
G05
G00X6.5847Y4.8538
M15
G01X6.6123Y4.8538
M16
G05
G00X6.5847Y1.92
M15
G01X6.6123Y1.92
M16
G05
G00X6.5847Y1.6995
M15
G01X6.6123Y1.6995
M16
G05
G00X6.7225Y5.0743
M15
G01X6.7501Y5.0743
M16
G05
G00X6.7225Y4.8538
M15
G01X6.7501Y4.8538
M16
G05
G00X6.7225Y1.92
M15
G01X6.7501Y1.92
M16
G05
G00X6.7225Y1.6995
M15
G01X6.7501Y1.6995
M16
G05
G00X6.8193Y4.9641
M15
G01X6.8312Y4.9641
M16
G05
G00X6.8193Y1.8097
M15
G01X6.8312Y1.8097
M16
G05
G00X6.867Y6.3035
M15
G01X6.867Y6.2799
M16
G05
G00X6.867Y3.1492
M15
G01X6.867Y3.1256
M16
G05
G00X6.8812Y6.0693
M15
G01X6.8812Y6.0457
M16
G05
G00X6.8812Y2.9149
M15
G01X6.8812Y2.8913
M16
G05
G00X10.5823Y4.9641
M15
G01X10.5942Y4.9641
M16
G05
G00X10.5823Y1.8097
M15
G01X10.5942Y1.8097
M16
G05
G00X10.6064Y6.0693
M15
G01X10.6064Y6.0457
M16
G05
G00X10.6064Y2.9149
M15
G01X10.6064Y2.8913
M16
G05
G00X10.6205Y6.3035
M15
G01X10.6205Y6.2799
M16
G05
G00X10.6205Y3.1492
M15
G01X10.6205Y3.1256
M16
G05
G00X10.6634Y5.0743
M15
G01X10.691Y5.0743
M16
G05
G00X10.6634Y4.8538
M15
G01X10.691Y4.8538
M16
G05
G00X10.6634Y1.92
M15
G01X10.691Y1.92
M16
G05
G00X10.6634Y1.6995
M15
G01X10.691Y1.6995
M16
G05
G00X10.8012Y5.0743
M15
G01X10.8288Y5.0743
M16
G05
G00X10.8012Y4.8538
M15
G01X10.8288Y4.8538
M16
G05
G00X10.8012Y1.92
M15
G01X10.8288Y1.92
M16
G05
G00X10.8012Y1.6995
M15
G01X10.8288Y1.6995
M16
G05
G00X10.8981Y4.9641
M15
G01X10.9099Y4.9641
M16
G05
G00X10.8981Y1.8097
M15
G01X10.9099Y1.8097
M16
G05
G00X10.9457Y6.3035
M15
G01X10.9457Y6.2799
M16
G05
G00X10.9457Y3.1492
M15
G01X10.9457Y3.1256
M16
G05
G00X10.9599Y6.0693
M15
G01X10.9599Y6.0457
M16
G05
G00X10.9599Y2.9149
M15
G01X10.9599Y2.8913
M16
G05
T4
G00X1.7949Y4.2861
M15
G01X1.7949Y4.353
M16
G05
G00X1.7949Y1.1318
M15
G01X1.7949Y1.1987
M16
G05
G00X2.2871Y4.2861
M15
G01X2.2871Y4.353
M16
G05
G00X2.2871Y1.1318
M15
G01X2.2871Y1.1987
M16
G05
G00X5.8737Y4.2861
M15
G01X5.8737Y4.353
M16
G05
G00X5.8737Y1.1318
M15
G01X5.8737Y1.1987
M16
G05
G00X6.3658Y4.2861
M15
G01X6.3658Y4.353
M16
G05
G00X6.3658Y1.1318
M15
G01X6.3658Y1.1987
M16
G05
G00X9.9524Y4.2861
M15
G01X9.9524Y4.353
M16
G05
G00X9.9524Y1.1318
M15
G01X9.9524Y1.1987
M16
G05
G00X10.4445Y4.2861
M15
G01X10.4445Y4.353
M16
G05
G00X10.4445Y1.1318
M15
G01X10.4445Y1.1987
M16
G05
T0
M30
