%TF.GenerationSoftware,KiCad,Pcbnew,7.0.5*%
%TF.CreationDate,2023-09-05T09:46:38+01:00*%
%TF.ProjectId,PANELTEST141,50414e45-4c54-4455-9354-3134312e6b69,00.00*%
%TF.SameCoordinates,PX27b9fb5PYc4a79ca*%
%TF.FileFunction,Paste,Top*%
%TF.FilePolarity,Positive*%
%FSLAX46Y46*%
G04 Gerber Fmt 4.6, Leading zero omitted, Abs format (unit mm)*
G04 Created by KiCad (PCBNEW 7.0.5) date 2023-09-05 09:46:38*
%MOMM*%
%LPD*%
G01*
G04 APERTURE LIST*
%ADD10R,2.750000X1.400000*%
%ADD11R,0.460000X0.420000*%
%ADD12R,0.508000X0.508000*%
%ADD13R,0.300000X0.700000*%
%ADD14R,0.280000X1.060000*%
%ADD15R,1.475000X0.600000*%
%ADD16R,0.600000X1.475000*%
%ADD17C,0.355600*%
G04 APERTURE END LIST*
D10*
%TO.C,SW1*%
X252066495Y47585069D03*
X258816482Y47585069D03*
X252066495Y43585077D03*
X258816482Y43585077D03*
%TD*%
%TO.C,SW1*%
X148466495Y47585069D03*
X155216482Y47585069D03*
X148466495Y43585077D03*
X155216482Y43585077D03*
%TD*%
%TO.C,SW1*%
X44866495Y47585069D03*
X51616482Y47585069D03*
X44866495Y43585077D03*
X51616482Y43585077D03*
%TD*%
%TO.C,SW1*%
X44866495Y127705069D03*
X51616482Y127705069D03*
X44866495Y123705077D03*
X51616482Y123705077D03*
%TD*%
%TO.C,SW1*%
X148466495Y127705069D03*
X155216482Y127705069D03*
X148466495Y123705077D03*
X155216482Y123705077D03*
%TD*%
%TO.C,SW1*%
X252066495Y127705069D03*
X258816482Y127705069D03*
X252066495Y123705077D03*
X258816482Y123705077D03*
%TD*%
D11*
%TO.C,R12*%
X236044299Y158174079D03*
X236704299Y158174079D03*
%TD*%
%TO.C,R43*%
X147681871Y75079263D03*
X148341871Y75079263D03*
%TD*%
%TO.C,R10*%
X23765109Y54590377D03*
X24425109Y54590377D03*
%TD*%
D12*
%TO.C,R112*%
X132759871Y127050377D03*
X133674871Y127050377D03*
%TD*%
D11*
%TO.C,R27*%
X241123489Y143509269D03*
X241783489Y143509269D03*
%TD*%
D12*
%TO.C,R104*%
X127319871Y121210377D03*
X128234871Y121210377D03*
%TD*%
D11*
%TO.C,R2*%
X230965109Y78054079D03*
X231625109Y78054079D03*
%TD*%
%TO.C,R18*%
X28844299Y60456307D03*
X29504299Y60456307D03*
%TD*%
%TO.C,R26*%
X137523489Y146442231D03*
X138183489Y146442231D03*
%TD*%
%TO.C,R36*%
X142602679Y66322231D03*
X143262679Y66322231D03*
%TD*%
%TO.C,R32*%
X39002679Y158174079D03*
X39662679Y158174079D03*
%TD*%
%TO.C,R39*%
X39002679Y137643345D03*
X39662679Y137643345D03*
%TD*%
%TO.C,R3*%
X230965109Y75121117D03*
X231625109Y75121117D03*
%TD*%
D12*
%TO.C,R114*%
X29159871Y41090377D03*
X30074871Y41090377D03*
%TD*%
D11*
%TO.C,R11*%
X132444299Y80987041D03*
X133104299Y80987041D03*
%TD*%
%TO.C,R7*%
X127365109Y63389269D03*
X128025109Y63389269D03*
%TD*%
D12*
%TO.C,R116*%
X29159871Y115370377D03*
X30074871Y115370377D03*
%TD*%
D11*
%TO.C,R40*%
X142602679Y134710377D03*
X143262679Y134710377D03*
%TD*%
%TO.C,R44*%
X44081871Y72146301D03*
X44741871Y72146301D03*
%TD*%
%TO.C,R25*%
X137523489Y69255193D03*
X138183489Y69255193D03*
%TD*%
%TO.C,R45*%
X251281871Y149333339D03*
X251941871Y149333339D03*
%TD*%
%TO.C,R23*%
X137523489Y75121117D03*
X138183489Y75121117D03*
%TD*%
%TO.C,R12*%
X28844299Y78054079D03*
X29504299Y78054079D03*
%TD*%
%TO.C,R14*%
X132444299Y152308155D03*
X133104299Y152308155D03*
%TD*%
D12*
%TO.C,R123*%
X34206633Y124130377D03*
X35121633Y124130377D03*
%TD*%
%TO.C,R103*%
X23719871Y124130377D03*
X24634871Y124130377D03*
%TD*%
%TO.C,R104*%
X23719871Y121210377D03*
X24634871Y121210377D03*
%TD*%
%TO.C,R114*%
X132759871Y121210377D03*
X133674871Y121210377D03*
%TD*%
%TO.C,R125*%
X34206633Y38170377D03*
X35121633Y38170377D03*
%TD*%
D13*
%TO.C,J1*%
X167541489Y161719541D03*
X168041489Y161719541D03*
X168541489Y161719541D03*
X169041489Y161719541D03*
X169541489Y161719541D03*
X170041489Y161719541D03*
X170541489Y161719541D03*
X171041489Y161719541D03*
X171541489Y161719541D03*
X172041489Y161719541D03*
X172541489Y161719541D03*
X173041489Y161719541D03*
X172791489Y160019541D03*
X172291489Y160019541D03*
X171791489Y160019541D03*
X171291489Y160019541D03*
X170791489Y160019541D03*
X170291489Y160019541D03*
X169791489Y160019541D03*
X169291489Y160019541D03*
X168791489Y160019541D03*
X168291489Y160019541D03*
X167791489Y160019541D03*
X167291489Y160019541D03*
%TD*%
D12*
%TO.C,R121*%
X34209871Y129970377D03*
X35124871Y129970377D03*
%TD*%
%TO.C,R125*%
X34206633Y118290377D03*
X35121633Y118290377D03*
%TD*%
D11*
%TO.C,R9*%
X127365109Y137643345D03*
X128025109Y137643345D03*
%TD*%
D12*
%TO.C,R114*%
X236359871Y121210377D03*
X237274871Y121210377D03*
%TD*%
%TO.C,R103*%
X230919871Y124130377D03*
X231834871Y124130377D03*
%TD*%
D11*
%TO.C,R16*%
X28844299Y146442231D03*
X29504299Y146442231D03*
%TD*%
D12*
%TO.C,R119*%
X29159871Y106610377D03*
X30074871Y106610377D03*
%TD*%
D11*
%TO.C,R12*%
X28844299Y158174079D03*
X29504299Y158174079D03*
%TD*%
%TO.C,R19*%
X132444299Y137643345D03*
X133104299Y137643345D03*
%TD*%
%TO.C,R10*%
X230965109Y54590377D03*
X231625109Y54590377D03*
%TD*%
%TO.C,R41*%
X44081871Y161065187D03*
X44741871Y161065187D03*
%TD*%
%TO.C,R4*%
X230965109Y72188155D03*
X231625109Y72188155D03*
%TD*%
D14*
%TO.C,J2*%
X275701484Y127017039D03*
X275201485Y127017039D03*
X274701486Y127017039D03*
X274201487Y127017039D03*
X273701488Y127017039D03*
X273201489Y127017039D03*
X272701489Y127017039D03*
X272201490Y127017039D03*
X271701491Y127017039D03*
X271201492Y127017039D03*
X270701493Y127017039D03*
X270201494Y127017039D03*
X270201494Y125157043D03*
X270701493Y125157043D03*
X271201492Y125157043D03*
X271701491Y125157043D03*
X272201490Y125157043D03*
X272701489Y125157043D03*
X273201489Y125157043D03*
X273701488Y125157043D03*
X274201487Y125157043D03*
X274701486Y125157043D03*
X275201485Y125157043D03*
X275701484Y125157043D03*
%TD*%
D11*
%TO.C,R43*%
X251281871Y75079263D03*
X251941871Y75079263D03*
%TD*%
D12*
%TO.C,R122*%
X241406633Y46930377D03*
X242321633Y46930377D03*
%TD*%
D11*
%TO.C,R26*%
X241123489Y146442231D03*
X241783489Y146442231D03*
%TD*%
D12*
%TO.C,R117*%
X29159871Y112450377D03*
X30074871Y112450377D03*
%TD*%
D11*
%TO.C,R32*%
X39002679Y78054079D03*
X39662679Y78054079D03*
%TD*%
D12*
%TO.C,R123*%
X241406633Y124130377D03*
X242321633Y124130377D03*
%TD*%
D11*
%TO.C,R34*%
X142602679Y152308155D03*
X143262679Y152308155D03*
%TD*%
D12*
%TO.C,R125*%
X241406633Y38170377D03*
X242321633Y38170377D03*
%TD*%
D11*
%TO.C,R26*%
X137523489Y66322231D03*
X138183489Y66322231D03*
%TD*%
%TO.C,R10*%
X127365109Y134710377D03*
X128025109Y134710377D03*
%TD*%
%TO.C,R50*%
X147681871Y54548523D03*
X148341871Y54548523D03*
%TD*%
D12*
%TO.C,R116*%
X236359871Y35250377D03*
X237274871Y35250377D03*
%TD*%
D11*
%TO.C,R3*%
X127365109Y75121117D03*
X128025109Y75121117D03*
%TD*%
D10*
%TO.C,SW1*%
X252066495Y47585069D03*
X258816482Y47585069D03*
X252066495Y43585077D03*
X258816482Y43585077D03*
%TD*%
D12*
%TO.C,R108*%
X23719871Y109530377D03*
X24634871Y109530377D03*
%TD*%
%TO.C,R114*%
X132759871Y41090377D03*
X133674871Y41090377D03*
%TD*%
%TO.C,R107*%
X230919871Y112450377D03*
X231834871Y112450377D03*
%TD*%
D11*
%TO.C,R22*%
X33923489Y158174079D03*
X34583489Y158174079D03*
%TD*%
%TO.C,R34*%
X142602679Y72188155D03*
X143262679Y72188155D03*
%TD*%
D12*
%TO.C,R113*%
X132759871Y124130377D03*
X133674871Y124130377D03*
%TD*%
D15*
%TO.C,IC1*%
X54383489Y144027041D03*
X54383489Y143227041D03*
X54383489Y142427041D03*
X54383489Y141627041D03*
X54383489Y140827041D03*
X54383489Y140027041D03*
X54383489Y139227041D03*
X54383489Y138427041D03*
D16*
X55821489Y136989041D03*
X56621489Y136989041D03*
X57421489Y136989041D03*
X58221489Y136989041D03*
X59021489Y136989041D03*
X59821489Y136989041D03*
X60621489Y136989041D03*
X61421489Y136989041D03*
D15*
X62859489Y138427041D03*
X62859489Y139227041D03*
X62859489Y140027041D03*
X62859489Y140827041D03*
X62859489Y141627041D03*
X62859489Y142427041D03*
X62859489Y143227041D03*
X62859489Y144027041D03*
D16*
X61421489Y145465041D03*
X60621489Y145465041D03*
X59821489Y145465041D03*
X59021489Y145465041D03*
X58221489Y145465041D03*
X57421489Y145465041D03*
X56621489Y145465041D03*
X55821489Y145465041D03*
%TD*%
D12*
%TO.C,R119*%
X132759871Y26490377D03*
X133674871Y26490377D03*
%TD*%
%TO.C,R106*%
X230919871Y35250377D03*
X231834871Y35250377D03*
%TD*%
D17*
%TO.C,IC2*%
X258751495Y84267039D03*
X259751493Y84267039D03*
X260751491Y84267039D03*
X261751489Y84267039D03*
X257751497Y83267041D03*
X258751495Y83267041D03*
X259751493Y83267041D03*
X260751491Y83267041D03*
X261751489Y83267041D03*
X257751497Y82267043D03*
X258751495Y82267043D03*
X259751493Y82267043D03*
X260751491Y82267043D03*
X261751489Y82267043D03*
X257751497Y81267045D03*
X258751495Y81267045D03*
X259751493Y81267045D03*
X260751491Y81267045D03*
X261751489Y81267045D03*
X257751497Y80267047D03*
X258751495Y80267047D03*
X259751493Y80267047D03*
X260751491Y80267047D03*
X261751489Y80267047D03*
%TD*%
D11*
%TO.C,R4*%
X23765109Y152308155D03*
X24425109Y152308155D03*
%TD*%
D12*
%TO.C,R104*%
X127319871Y41090377D03*
X128234871Y41090377D03*
%TD*%
%TO.C,R118*%
X236359871Y109530377D03*
X237274871Y109530377D03*
%TD*%
%TO.C,R109*%
X127319871Y106610377D03*
X128234871Y106610377D03*
%TD*%
D11*
%TO.C,R32*%
X246202679Y78054079D03*
X246862679Y78054079D03*
%TD*%
D12*
%TO.C,R104*%
X230919871Y121210377D03*
X231834871Y121210377D03*
%TD*%
D11*
%TO.C,R42*%
X147681871Y78012225D03*
X148341871Y78012225D03*
%TD*%
D17*
%TO.C,IC2*%
X51551495Y84267039D03*
X52551493Y84267039D03*
X53551491Y84267039D03*
X54551489Y84267039D03*
X50551497Y83267041D03*
X51551495Y83267041D03*
X52551493Y83267041D03*
X53551491Y83267041D03*
X54551489Y83267041D03*
X50551497Y82267043D03*
X51551495Y82267043D03*
X52551493Y82267043D03*
X53551491Y82267043D03*
X54551489Y82267043D03*
X50551497Y81267045D03*
X51551495Y81267045D03*
X52551493Y81267045D03*
X53551491Y81267045D03*
X54551489Y81267045D03*
X50551497Y80267047D03*
X51551495Y80267047D03*
X52551493Y80267047D03*
X53551491Y80267047D03*
X54551489Y80267047D03*
%TD*%
D11*
%TO.C,R32*%
X142602679Y78054079D03*
X143262679Y78054079D03*
%TD*%
D13*
%TO.C,J1*%
X167541489Y81599541D03*
X168041489Y81599541D03*
X168541489Y81599541D03*
X169041489Y81599541D03*
X169541489Y81599541D03*
X170041489Y81599541D03*
X170541489Y81599541D03*
X171041489Y81599541D03*
X171541489Y81599541D03*
X172041489Y81599541D03*
X172541489Y81599541D03*
X173041489Y81599541D03*
X172791489Y79899541D03*
X172291489Y79899541D03*
X171791489Y79899541D03*
X171291489Y79899541D03*
X170791489Y79899541D03*
X170291489Y79899541D03*
X169791489Y79899541D03*
X169291489Y79899541D03*
X168791489Y79899541D03*
X168291489Y79899541D03*
X167791489Y79899541D03*
X167291489Y79899541D03*
%TD*%
D11*
%TO.C,R30*%
X137523489Y54590377D03*
X138183489Y54590377D03*
%TD*%
D12*
%TO.C,R124*%
X34206633Y41090377D03*
X35121633Y41090377D03*
%TD*%
%TO.C,R112*%
X29159871Y46930377D03*
X30074871Y46930377D03*
%TD*%
%TO.C,R124*%
X241406633Y121210377D03*
X242321633Y121210377D03*
%TD*%
%TO.C,R120*%
X236359871Y23570377D03*
X237274871Y23570377D03*
%TD*%
D11*
%TO.C,R29*%
X137523489Y137643345D03*
X138183489Y137643345D03*
%TD*%
%TO.C,R31*%
X39002679Y161107041D03*
X39662679Y161107041D03*
%TD*%
D12*
%TO.C,R115*%
X132759871Y118290377D03*
X133674871Y118290377D03*
%TD*%
D11*
%TO.C,R23*%
X137523489Y155241117D03*
X138183489Y155241117D03*
%TD*%
D12*
%TO.C,R107*%
X23719871Y112450377D03*
X24634871Y112450377D03*
%TD*%
D11*
%TO.C,R15*%
X28844299Y149375193D03*
X29504299Y149375193D03*
%TD*%
D12*
%TO.C,R121*%
X34209871Y49850377D03*
X35124871Y49850377D03*
%TD*%
%TO.C,R109*%
X230919871Y106610377D03*
X231834871Y106610377D03*
%TD*%
D11*
%TO.C,R20*%
X132444299Y134710377D03*
X133104299Y134710377D03*
%TD*%
%TO.C,R23*%
X33923489Y75121117D03*
X34583489Y75121117D03*
%TD*%
%TO.C,R3*%
X230965109Y155241117D03*
X231625109Y155241117D03*
%TD*%
%TO.C,R46*%
X147681871Y146400377D03*
X148341871Y146400377D03*
%TD*%
D12*
%TO.C,R103*%
X127319871Y124130377D03*
X128234871Y124130377D03*
%TD*%
D11*
%TO.C,R36*%
X246202679Y146442231D03*
X246862679Y146442231D03*
%TD*%
%TO.C,R6*%
X230965109Y66322231D03*
X231625109Y66322231D03*
%TD*%
%TO.C,R46*%
X44081871Y66280377D03*
X44741871Y66280377D03*
%TD*%
%TO.C,R18*%
X28844299Y140576307D03*
X29504299Y140576307D03*
%TD*%
D12*
%TO.C,R117*%
X236359871Y112450377D03*
X237274871Y112450377D03*
%TD*%
%TO.C,R122*%
X34206633Y46930377D03*
X35121633Y46930377D03*
%TD*%
D11*
%TO.C,R43*%
X251281871Y155199263D03*
X251941871Y155199263D03*
%TD*%
%TO.C,R24*%
X137523489Y72188155D03*
X138183489Y72188155D03*
%TD*%
%TO.C,R13*%
X236044299Y155241117D03*
X236704299Y155241117D03*
%TD*%
%TO.C,R4*%
X230965109Y152308155D03*
X231625109Y152308155D03*
%TD*%
%TO.C,R35*%
X39002679Y149375193D03*
X39662679Y149375193D03*
%TD*%
D12*
%TO.C,R111*%
X29159871Y49850377D03*
X30074871Y49850377D03*
%TD*%
D15*
%TO.C,IC1*%
X261583489Y63907041D03*
X261583489Y63107041D03*
X261583489Y62307041D03*
X261583489Y61507041D03*
X261583489Y60707041D03*
X261583489Y59907041D03*
X261583489Y59107041D03*
X261583489Y58307041D03*
D16*
X263021489Y56869041D03*
X263821489Y56869041D03*
X264621489Y56869041D03*
X265421489Y56869041D03*
X266221489Y56869041D03*
X267021489Y56869041D03*
X267821489Y56869041D03*
X268621489Y56869041D03*
D15*
X270059489Y58307041D03*
X270059489Y59107041D03*
X270059489Y59907041D03*
X270059489Y60707041D03*
X270059489Y61507041D03*
X270059489Y62307041D03*
X270059489Y63107041D03*
X270059489Y63907041D03*
D16*
X268621489Y65345041D03*
X267821489Y65345041D03*
X267021489Y65345041D03*
X266221489Y65345041D03*
X265421489Y65345041D03*
X264621489Y65345041D03*
X263821489Y65345041D03*
X263021489Y65345041D03*
%TD*%
D11*
%TO.C,R9*%
X230965109Y57523345D03*
X231625109Y57523345D03*
%TD*%
D14*
%TO.C,J2*%
X68501484Y127017039D03*
X68001485Y127017039D03*
X67501486Y127017039D03*
X67001487Y127017039D03*
X66501488Y127017039D03*
X66001489Y127017039D03*
X65501489Y127017039D03*
X65001490Y127017039D03*
X64501491Y127017039D03*
X64001492Y127017039D03*
X63501493Y127017039D03*
X63001494Y127017039D03*
X63001494Y125157043D03*
X63501493Y125157043D03*
X64001492Y125157043D03*
X64501491Y125157043D03*
X65001490Y125157043D03*
X65501489Y125157043D03*
X66001489Y125157043D03*
X66501488Y125157043D03*
X67001487Y125157043D03*
X67501486Y125157043D03*
X68001485Y125157043D03*
X68501484Y125157043D03*
%TD*%
D11*
%TO.C,R38*%
X39002679Y140576307D03*
X39662679Y140576307D03*
%TD*%
%TO.C,R3*%
X23765109Y155241117D03*
X24425109Y155241117D03*
%TD*%
%TO.C,R20*%
X132444299Y54590377D03*
X133104299Y54590377D03*
%TD*%
D12*
%TO.C,R122*%
X137806633Y46930377D03*
X138721633Y46930377D03*
%TD*%
%TO.C,R110*%
X230919871Y103690377D03*
X231834871Y103690377D03*
%TD*%
D11*
%TO.C,R33*%
X39002679Y155241117D03*
X39662679Y155241117D03*
%TD*%
%TO.C,R15*%
X236044299Y69255193D03*
X236704299Y69255193D03*
%TD*%
D12*
%TO.C,R109*%
X23719871Y106610377D03*
X24634871Y106610377D03*
%TD*%
D11*
%TO.C,R13*%
X28844299Y155241117D03*
X29504299Y155241117D03*
%TD*%
D12*
%TO.C,R119*%
X132759871Y106610377D03*
X133674871Y106610377D03*
%TD*%
D11*
%TO.C,R15*%
X132444299Y69255193D03*
X133104299Y69255193D03*
%TD*%
%TO.C,R48*%
X147681871Y60414453D03*
X148341871Y60414453D03*
%TD*%
%TO.C,R26*%
X241123489Y66322231D03*
X241783489Y66322231D03*
%TD*%
D12*
%TO.C,R110*%
X23719871Y103690377D03*
X24634871Y103690377D03*
%TD*%
D11*
%TO.C,R21*%
X137523489Y80987041D03*
X138183489Y80987041D03*
%TD*%
%TO.C,R9*%
X127365109Y57523345D03*
X128025109Y57523345D03*
%TD*%
D12*
%TO.C,R103*%
X127319871Y44010377D03*
X128234871Y44010377D03*
%TD*%
D11*
%TO.C,R21*%
X241123489Y80987041D03*
X241783489Y80987041D03*
%TD*%
D12*
%TO.C,R116*%
X132759871Y115370377D03*
X133674871Y115370377D03*
%TD*%
D11*
%TO.C,R40*%
X246202679Y54590377D03*
X246862679Y54590377D03*
%TD*%
%TO.C,R29*%
X33923489Y137643345D03*
X34583489Y137643345D03*
%TD*%
%TO.C,R8*%
X230965109Y140576307D03*
X231625109Y140576307D03*
%TD*%
%TO.C,R2*%
X127365109Y158174079D03*
X128025109Y158174079D03*
%TD*%
%TO.C,R17*%
X28844299Y143509269D03*
X29504299Y143509269D03*
%TD*%
D12*
%TO.C,R115*%
X236359871Y118290377D03*
X237274871Y118290377D03*
%TD*%
%TO.C,R101*%
X230919871Y49850377D03*
X231834871Y49850377D03*
%TD*%
D11*
%TO.C,R45*%
X44081871Y69213339D03*
X44741871Y69213339D03*
%TD*%
%TO.C,R31*%
X142602679Y161107041D03*
X143262679Y161107041D03*
%TD*%
D12*
%TO.C,R124*%
X137806633Y121210377D03*
X138721633Y121210377D03*
%TD*%
D11*
%TO.C,R20*%
X236044299Y134710377D03*
X236704299Y134710377D03*
%TD*%
D17*
%TO.C,IC2*%
X51551495Y164387039D03*
X52551493Y164387039D03*
X53551491Y164387039D03*
X54551489Y164387039D03*
X50551497Y163387041D03*
X51551495Y163387041D03*
X52551493Y163387041D03*
X53551491Y163387041D03*
X54551489Y163387041D03*
X50551497Y162387043D03*
X51551495Y162387043D03*
X52551493Y162387043D03*
X53551491Y162387043D03*
X54551489Y162387043D03*
X50551497Y161387045D03*
X51551495Y161387045D03*
X52551493Y161387045D03*
X53551491Y161387045D03*
X54551489Y161387045D03*
X50551497Y160387047D03*
X51551495Y160387047D03*
X52551493Y160387047D03*
X53551491Y160387047D03*
X54551489Y160387047D03*
%TD*%
D12*
%TO.C,R118*%
X236359871Y29410377D03*
X237274871Y29410377D03*
%TD*%
D11*
%TO.C,R9*%
X230965109Y137643345D03*
X231625109Y137643345D03*
%TD*%
%TO.C,R37*%
X246202679Y143509269D03*
X246862679Y143509269D03*
%TD*%
D12*
%TO.C,R101*%
X23719871Y49850377D03*
X24634871Y49850377D03*
%TD*%
D11*
%TO.C,R1*%
X230965109Y80987041D03*
X231625109Y80987041D03*
%TD*%
%TO.C,R7*%
X127365109Y143509269D03*
X128025109Y143509269D03*
%TD*%
%TO.C,R1*%
X127365109Y161107041D03*
X128025109Y161107041D03*
%TD*%
%TO.C,R16*%
X132444299Y146442231D03*
X133104299Y146442231D03*
%TD*%
%TO.C,R2*%
X127365109Y78054079D03*
X128025109Y78054079D03*
%TD*%
%TO.C,R14*%
X28844299Y72188155D03*
X29504299Y72188155D03*
%TD*%
D10*
%TO.C,SW1*%
X148466495Y47585069D03*
X155216482Y47585069D03*
X148466495Y43585077D03*
X155216482Y43585077D03*
%TD*%
D12*
%TO.C,R105*%
X230919871Y38170377D03*
X231834871Y38170377D03*
%TD*%
D11*
%TO.C,R20*%
X28844299Y134710377D03*
X29504299Y134710377D03*
%TD*%
D12*
%TO.C,R102*%
X127319871Y127050377D03*
X128234871Y127050377D03*
%TD*%
D11*
%TO.C,R7*%
X23765109Y143509269D03*
X24425109Y143509269D03*
%TD*%
D12*
%TO.C,R118*%
X132759871Y29410377D03*
X133674871Y29410377D03*
%TD*%
D11*
%TO.C,R33*%
X142602679Y155241117D03*
X143262679Y155241117D03*
%TD*%
%TO.C,R12*%
X236044299Y78054079D03*
X236704299Y78054079D03*
%TD*%
D13*
%TO.C,J1*%
X271141489Y161719541D03*
X271641489Y161719541D03*
X272141489Y161719541D03*
X272641489Y161719541D03*
X273141489Y161719541D03*
X273641489Y161719541D03*
X274141489Y161719541D03*
X274641489Y161719541D03*
X275141489Y161719541D03*
X275641489Y161719541D03*
X276141489Y161719541D03*
X276641489Y161719541D03*
X276391489Y160019541D03*
X275891489Y160019541D03*
X275391489Y160019541D03*
X274891489Y160019541D03*
X274391489Y160019541D03*
X273891489Y160019541D03*
X273391489Y160019541D03*
X272891489Y160019541D03*
X272391489Y160019541D03*
X271891489Y160019541D03*
X271391489Y160019541D03*
X270891489Y160019541D03*
%TD*%
D11*
%TO.C,R3*%
X127365109Y155241117D03*
X128025109Y155241117D03*
%TD*%
D12*
%TO.C,R101*%
X23719871Y129970377D03*
X24634871Y129970377D03*
%TD*%
D15*
%TO.C,IC1*%
X54383489Y63907041D03*
X54383489Y63107041D03*
X54383489Y62307041D03*
X54383489Y61507041D03*
X54383489Y60707041D03*
X54383489Y59907041D03*
X54383489Y59107041D03*
X54383489Y58307041D03*
D16*
X55821489Y56869041D03*
X56621489Y56869041D03*
X57421489Y56869041D03*
X58221489Y56869041D03*
X59021489Y56869041D03*
X59821489Y56869041D03*
X60621489Y56869041D03*
X61421489Y56869041D03*
D15*
X62859489Y58307041D03*
X62859489Y59107041D03*
X62859489Y59907041D03*
X62859489Y60707041D03*
X62859489Y61507041D03*
X62859489Y62307041D03*
X62859489Y63107041D03*
X62859489Y63907041D03*
D16*
X61421489Y65345041D03*
X60621489Y65345041D03*
X59821489Y65345041D03*
X59021489Y65345041D03*
X58221489Y65345041D03*
X57421489Y65345041D03*
X56621489Y65345041D03*
X55821489Y65345041D03*
%TD*%
D11*
%TO.C,R16*%
X236044299Y146442231D03*
X236704299Y146442231D03*
%TD*%
D12*
%TO.C,R125*%
X137806633Y118290377D03*
X138721633Y118290377D03*
%TD*%
D11*
%TO.C,R38*%
X142602679Y140576307D03*
X143262679Y140576307D03*
%TD*%
D12*
%TO.C,R111*%
X132759871Y49850377D03*
X133674871Y49850377D03*
%TD*%
D11*
%TO.C,R24*%
X241123489Y72188155D03*
X241783489Y72188155D03*
%TD*%
%TO.C,R41*%
X251281871Y161065187D03*
X251941871Y161065187D03*
%TD*%
%TO.C,R30*%
X241123489Y54590377D03*
X241783489Y54590377D03*
%TD*%
%TO.C,R21*%
X241123489Y161107041D03*
X241783489Y161107041D03*
%TD*%
%TO.C,R24*%
X137523489Y152308155D03*
X138183489Y152308155D03*
%TD*%
%TO.C,R28*%
X241123489Y140576307D03*
X241783489Y140576307D03*
%TD*%
D10*
%TO.C,SW1*%
X252066495Y127705069D03*
X258816482Y127705069D03*
X252066495Y123705077D03*
X258816482Y123705077D03*
%TD*%
D12*
%TO.C,R111*%
X132759871Y129970377D03*
X133674871Y129970377D03*
%TD*%
%TO.C,R118*%
X132759871Y109530377D03*
X133674871Y109530377D03*
%TD*%
D11*
%TO.C,R33*%
X246202679Y155241117D03*
X246862679Y155241117D03*
%TD*%
%TO.C,R7*%
X23765109Y63389269D03*
X24425109Y63389269D03*
%TD*%
D12*
%TO.C,R104*%
X230919871Y41090377D03*
X231834871Y41090377D03*
%TD*%
D11*
%TO.C,R1*%
X127365109Y161107041D03*
X128025109Y161107041D03*
%TD*%
%TO.C,R13*%
X28844299Y75121117D03*
X29504299Y75121117D03*
%TD*%
D12*
%TO.C,R124*%
X137806633Y41090377D03*
X138721633Y41090377D03*
%TD*%
D11*
%TO.C,R45*%
X44081871Y149333339D03*
X44741871Y149333339D03*
%TD*%
%TO.C,R22*%
X137523489Y78054079D03*
X138183489Y78054079D03*
%TD*%
%TO.C,R18*%
X132444299Y60456307D03*
X133104299Y60456307D03*
%TD*%
%TO.C,R38*%
X246202679Y140576307D03*
X246862679Y140576307D03*
%TD*%
%TO.C,R50*%
X147681871Y134668523D03*
X148341871Y134668523D03*
%TD*%
%TO.C,R45*%
X147681871Y69213339D03*
X148341871Y69213339D03*
%TD*%
%TO.C,R22*%
X241123489Y158174079D03*
X241783489Y158174079D03*
%TD*%
%TO.C,R18*%
X236044299Y60456307D03*
X236704299Y60456307D03*
%TD*%
D12*
%TO.C,R110*%
X23719871Y23570377D03*
X24634871Y23570377D03*
%TD*%
D11*
%TO.C,R25*%
X137523489Y149375193D03*
X138183489Y149375193D03*
%TD*%
D12*
%TO.C,R115*%
X29159871Y118290377D03*
X30074871Y118290377D03*
%TD*%
D11*
%TO.C,R49*%
X44081871Y57481491D03*
X44741871Y57481491D03*
%TD*%
%TO.C,R44*%
X147681871Y152266301D03*
X148341871Y152266301D03*
%TD*%
%TO.C,R11*%
X236044299Y80987041D03*
X236704299Y80987041D03*
%TD*%
D12*
%TO.C,R103*%
X23719871Y44010377D03*
X24634871Y44010377D03*
%TD*%
D11*
%TO.C,R49*%
X251281871Y137601491D03*
X251941871Y137601491D03*
%TD*%
%TO.C,R36*%
X142602679Y146442231D03*
X143262679Y146442231D03*
%TD*%
D12*
%TO.C,R104*%
X23719871Y41090377D03*
X24634871Y41090377D03*
%TD*%
D11*
%TO.C,R9*%
X23765109Y137643345D03*
X24425109Y137643345D03*
%TD*%
D12*
%TO.C,R105*%
X127319871Y38170377D03*
X128234871Y38170377D03*
%TD*%
D11*
%TO.C,R37*%
X39002679Y63389269D03*
X39662679Y63389269D03*
%TD*%
D12*
%TO.C,R119*%
X29159871Y26490377D03*
X30074871Y26490377D03*
%TD*%
D11*
%TO.C,R2*%
X230965109Y158174079D03*
X231625109Y158174079D03*
%TD*%
%TO.C,R8*%
X127365109Y60456307D03*
X128025109Y60456307D03*
%TD*%
D13*
%TO.C,J1*%
X63941489Y81599541D03*
X64441489Y81599541D03*
X64941489Y81599541D03*
X65441489Y81599541D03*
X65941489Y81599541D03*
X66441489Y81599541D03*
X66941489Y81599541D03*
X67441489Y81599541D03*
X67941489Y81599541D03*
X68441489Y81599541D03*
X68941489Y81599541D03*
X69441489Y81599541D03*
X69191489Y79899541D03*
X68691489Y79899541D03*
X68191489Y79899541D03*
X67691489Y79899541D03*
X67191489Y79899541D03*
X66691489Y79899541D03*
X66191489Y79899541D03*
X65691489Y79899541D03*
X65191489Y79899541D03*
X64691489Y79899541D03*
X64191489Y79899541D03*
X63691489Y79899541D03*
%TD*%
D11*
%TO.C,R48*%
X147681871Y140534453D03*
X148341871Y140534453D03*
%TD*%
%TO.C,R17*%
X132444299Y143509269D03*
X133104299Y143509269D03*
%TD*%
%TO.C,R27*%
X241123489Y63389269D03*
X241783489Y63389269D03*
%TD*%
%TO.C,R21*%
X33923489Y80987041D03*
X34583489Y80987041D03*
%TD*%
%TO.C,R28*%
X33923489Y140576307D03*
X34583489Y140576307D03*
%TD*%
%TO.C,R8*%
X23765109Y60456307D03*
X24425109Y60456307D03*
%TD*%
%TO.C,R6*%
X23765109Y66322231D03*
X24425109Y66322231D03*
%TD*%
%TO.C,R31*%
X39002679Y80987041D03*
X39662679Y80987041D03*
%TD*%
D12*
%TO.C,R108*%
X127319871Y29410377D03*
X128234871Y29410377D03*
%TD*%
%TO.C,R109*%
X127319871Y26490377D03*
X128234871Y26490377D03*
%TD*%
%TO.C,R117*%
X132759871Y112450377D03*
X133674871Y112450377D03*
%TD*%
D11*
%TO.C,R13*%
X236044299Y75121117D03*
X236704299Y75121117D03*
%TD*%
%TO.C,R20*%
X28844299Y54590377D03*
X29504299Y54590377D03*
%TD*%
%TO.C,R41*%
X44081871Y80945187D03*
X44741871Y80945187D03*
%TD*%
D12*
%TO.C,R112*%
X236359871Y127050377D03*
X237274871Y127050377D03*
%TD*%
D11*
%TO.C,R29*%
X137523489Y57523345D03*
X138183489Y57523345D03*
%TD*%
%TO.C,R12*%
X132444299Y158174079D03*
X133104299Y158174079D03*
%TD*%
D12*
%TO.C,R102*%
X23719871Y46930377D03*
X24634871Y46930377D03*
%TD*%
D11*
%TO.C,R17*%
X236044299Y143509269D03*
X236704299Y143509269D03*
%TD*%
%TO.C,R49*%
X44081871Y137601491D03*
X44741871Y137601491D03*
%TD*%
D12*
%TO.C,R112*%
X29159871Y127050377D03*
X30074871Y127050377D03*
%TD*%
%TO.C,R113*%
X29159871Y124130377D03*
X30074871Y124130377D03*
%TD*%
D11*
%TO.C,R30*%
X33923489Y54590377D03*
X34583489Y54590377D03*
%TD*%
%TO.C,R34*%
X39002679Y152308155D03*
X39662679Y152308155D03*
%TD*%
D14*
%TO.C,J2*%
X68501484Y46897039D03*
X68001485Y46897039D03*
X67501486Y46897039D03*
X67001487Y46897039D03*
X66501488Y46897039D03*
X66001489Y46897039D03*
X65501489Y46897039D03*
X65001490Y46897039D03*
X64501491Y46897039D03*
X64001492Y46897039D03*
X63501493Y46897039D03*
X63001494Y46897039D03*
X63001494Y45037043D03*
X63501493Y45037043D03*
X64001492Y45037043D03*
X64501491Y45037043D03*
X65001490Y45037043D03*
X65501489Y45037043D03*
X66001489Y45037043D03*
X66501488Y45037043D03*
X67001487Y45037043D03*
X67501486Y45037043D03*
X68001485Y45037043D03*
X68501484Y45037043D03*
%TD*%
D11*
%TO.C,R38*%
X39002679Y60456307D03*
X39662679Y60456307D03*
%TD*%
D12*
%TO.C,R113*%
X236359871Y124130377D03*
X237274871Y124130377D03*
%TD*%
D11*
%TO.C,R23*%
X33923489Y155241117D03*
X34583489Y155241117D03*
%TD*%
%TO.C,R23*%
X241123489Y155241117D03*
X241783489Y155241117D03*
%TD*%
%TO.C,R35*%
X142602679Y69255193D03*
X143262679Y69255193D03*
%TD*%
%TO.C,R42*%
X147681871Y158132225D03*
X148341871Y158132225D03*
%TD*%
D15*
%TO.C,IC1*%
X157983489Y63907041D03*
X157983489Y63107041D03*
X157983489Y62307041D03*
X157983489Y61507041D03*
X157983489Y60707041D03*
X157983489Y59907041D03*
X157983489Y59107041D03*
X157983489Y58307041D03*
D16*
X159421489Y56869041D03*
X160221489Y56869041D03*
X161021489Y56869041D03*
X161821489Y56869041D03*
X162621489Y56869041D03*
X163421489Y56869041D03*
X164221489Y56869041D03*
X165021489Y56869041D03*
D15*
X166459489Y58307041D03*
X166459489Y59107041D03*
X166459489Y59907041D03*
X166459489Y60707041D03*
X166459489Y61507041D03*
X166459489Y62307041D03*
X166459489Y63107041D03*
X166459489Y63907041D03*
D16*
X165021489Y65345041D03*
X164221489Y65345041D03*
X163421489Y65345041D03*
X162621489Y65345041D03*
X161821489Y65345041D03*
X161021489Y65345041D03*
X160221489Y65345041D03*
X159421489Y65345041D03*
%TD*%
D11*
%TO.C,R8*%
X230965109Y60456307D03*
X231625109Y60456307D03*
%TD*%
D12*
%TO.C,R101*%
X230919871Y129970377D03*
X231834871Y129970377D03*
%TD*%
D11*
%TO.C,R20*%
X236044299Y54590377D03*
X236704299Y54590377D03*
%TD*%
D12*
%TO.C,R113*%
X29159871Y44010377D03*
X30074871Y44010377D03*
%TD*%
%TO.C,R117*%
X132759871Y32330377D03*
X133674871Y32330377D03*
%TD*%
%TO.C,R109*%
X230919871Y26490377D03*
X231834871Y26490377D03*
%TD*%
D11*
%TO.C,R16*%
X28844299Y66322231D03*
X29504299Y66322231D03*
%TD*%
%TO.C,R13*%
X132444299Y75121117D03*
X133104299Y75121117D03*
%TD*%
%TO.C,R39*%
X39002679Y57523345D03*
X39662679Y57523345D03*
%TD*%
%TO.C,R6*%
X127365109Y66322231D03*
X128025109Y66322231D03*
%TD*%
D12*
%TO.C,R121*%
X137809871Y129970377D03*
X138724871Y129970377D03*
%TD*%
%TO.C,R118*%
X29159871Y109530377D03*
X30074871Y109530377D03*
%TD*%
%TO.C,R111*%
X29159871Y129970377D03*
X30074871Y129970377D03*
%TD*%
%TO.C,R110*%
X127319871Y23570377D03*
X128234871Y23570377D03*
%TD*%
D11*
%TO.C,R44*%
X147681871Y72146301D03*
X148341871Y72146301D03*
%TD*%
D14*
%TO.C,J2*%
X275701484Y46897039D03*
X275201485Y46897039D03*
X274701486Y46897039D03*
X274201487Y46897039D03*
X273701488Y46897039D03*
X273201489Y46897039D03*
X272701489Y46897039D03*
X272201490Y46897039D03*
X271701491Y46897039D03*
X271201492Y46897039D03*
X270701493Y46897039D03*
X270201494Y46897039D03*
X270201494Y45037043D03*
X270701493Y45037043D03*
X271201492Y45037043D03*
X271701491Y45037043D03*
X272201490Y45037043D03*
X272701489Y45037043D03*
X273201489Y45037043D03*
X273701488Y45037043D03*
X274201487Y45037043D03*
X274701486Y45037043D03*
X275201485Y45037043D03*
X275701484Y45037043D03*
%TD*%
D12*
%TO.C,R105*%
X23719871Y38170377D03*
X24634871Y38170377D03*
%TD*%
%TO.C,R107*%
X230919871Y32330377D03*
X231834871Y32330377D03*
%TD*%
%TO.C,R102*%
X230919871Y46930377D03*
X231834871Y46930377D03*
%TD*%
D11*
%TO.C,R38*%
X142602679Y60456307D03*
X143262679Y60456307D03*
%TD*%
%TO.C,R40*%
X142602679Y54590377D03*
X143262679Y54590377D03*
%TD*%
%TO.C,R28*%
X137523489Y140576307D03*
X138183489Y140576307D03*
%TD*%
D12*
%TO.C,R120*%
X29159871Y103690377D03*
X30074871Y103690377D03*
%TD*%
D11*
%TO.C,R12*%
X132444299Y78054079D03*
X133104299Y78054079D03*
%TD*%
%TO.C,R39*%
X246202679Y137643345D03*
X246862679Y137643345D03*
%TD*%
%TO.C,R6*%
X23765109Y146442231D03*
X24425109Y146442231D03*
%TD*%
%TO.C,R41*%
X147681871Y80945187D03*
X148341871Y80945187D03*
%TD*%
%TO.C,R25*%
X241123489Y69255193D03*
X241783489Y69255193D03*
%TD*%
%TO.C,R34*%
X39002679Y72188155D03*
X39662679Y72188155D03*
%TD*%
%TO.C,R6*%
X127365109Y146442231D03*
X128025109Y146442231D03*
%TD*%
%TO.C,R5*%
X127365109Y69255193D03*
X128025109Y69255193D03*
%TD*%
%TO.C,R6*%
X230965109Y146442231D03*
X231625109Y146442231D03*
%TD*%
%TO.C,R18*%
X132444299Y140576307D03*
X133104299Y140576307D03*
%TD*%
D12*
%TO.C,R115*%
X29159871Y38170377D03*
X30074871Y38170377D03*
%TD*%
D11*
%TO.C,R45*%
X147681871Y149333339D03*
X148341871Y149333339D03*
%TD*%
%TO.C,R18*%
X236044299Y140576307D03*
X236704299Y140576307D03*
%TD*%
%TO.C,R42*%
X251281871Y78012225D03*
X251941871Y78012225D03*
%TD*%
%TO.C,R9*%
X23765109Y57523345D03*
X24425109Y57523345D03*
%TD*%
%TO.C,R10*%
X127365109Y54590377D03*
X128025109Y54590377D03*
%TD*%
D12*
%TO.C,R101*%
X127319871Y129970377D03*
X128234871Y129970377D03*
%TD*%
D11*
%TO.C,R50*%
X44081871Y54548523D03*
X44741871Y54548523D03*
%TD*%
D10*
%TO.C,SW1*%
X148466495Y127705069D03*
X155216482Y127705069D03*
X148466495Y123705077D03*
X155216482Y123705077D03*
%TD*%
D11*
%TO.C,R10*%
X230965109Y134710377D03*
X231625109Y134710377D03*
%TD*%
%TO.C,R21*%
X137523489Y161107041D03*
X138183489Y161107041D03*
%TD*%
D12*
%TO.C,R122*%
X137806633Y127050377D03*
X138721633Y127050377D03*
%TD*%
%TO.C,R125*%
X137806633Y38170377D03*
X138721633Y38170377D03*
%TD*%
D10*
%TO.C,SW1*%
X44866495Y127705069D03*
X51616482Y127705069D03*
X44866495Y123705077D03*
X51616482Y123705077D03*
%TD*%
D11*
%TO.C,R1*%
X230965109Y161107041D03*
X231625109Y161107041D03*
%TD*%
D12*
%TO.C,R119*%
X236359871Y26490377D03*
X237274871Y26490377D03*
%TD*%
D11*
%TO.C,R1*%
X230965109Y80987041D03*
X231625109Y80987041D03*
%TD*%
%TO.C,R22*%
X33923489Y78054079D03*
X34583489Y78054079D03*
%TD*%
D12*
%TO.C,R117*%
X236359871Y32330377D03*
X237274871Y32330377D03*
%TD*%
D11*
%TO.C,R32*%
X142602679Y158174079D03*
X143262679Y158174079D03*
%TD*%
D12*
%TO.C,R115*%
X236359871Y38170377D03*
X237274871Y38170377D03*
%TD*%
D11*
%TO.C,R23*%
X241123489Y75121117D03*
X241783489Y75121117D03*
%TD*%
D12*
%TO.C,R113*%
X132759871Y44010377D03*
X133674871Y44010377D03*
%TD*%
D11*
%TO.C,R43*%
X147681871Y155199263D03*
X148341871Y155199263D03*
%TD*%
%TO.C,R49*%
X251281871Y57481491D03*
X251941871Y57481491D03*
%TD*%
%TO.C,R1*%
X23765109Y80987041D03*
X24425109Y80987041D03*
%TD*%
D12*
%TO.C,R105*%
X23719871Y118290377D03*
X24634871Y118290377D03*
%TD*%
D11*
%TO.C,R35*%
X246202679Y69255193D03*
X246862679Y69255193D03*
%TD*%
%TO.C,R5*%
X127365109Y149375193D03*
X128025109Y149375193D03*
%TD*%
D12*
%TO.C,R108*%
X230919871Y29410377D03*
X231834871Y29410377D03*
%TD*%
D11*
%TO.C,R40*%
X246202679Y134710377D03*
X246862679Y134710377D03*
%TD*%
%TO.C,R1*%
X127365109Y80987041D03*
X128025109Y80987041D03*
%TD*%
%TO.C,R28*%
X241123489Y60456307D03*
X241783489Y60456307D03*
%TD*%
%TO.C,R19*%
X28844299Y137643345D03*
X29504299Y137643345D03*
%TD*%
%TO.C,R38*%
X246202679Y60456307D03*
X246862679Y60456307D03*
%TD*%
%TO.C,R29*%
X241123489Y57523345D03*
X241783489Y57523345D03*
%TD*%
D12*
%TO.C,R124*%
X241406633Y41090377D03*
X242321633Y41090377D03*
%TD*%
D15*
%TO.C,IC1*%
X261583489Y144027041D03*
X261583489Y143227041D03*
X261583489Y142427041D03*
X261583489Y141627041D03*
X261583489Y140827041D03*
X261583489Y140027041D03*
X261583489Y139227041D03*
X261583489Y138427041D03*
D16*
X263021489Y136989041D03*
X263821489Y136989041D03*
X264621489Y136989041D03*
X265421489Y136989041D03*
X266221489Y136989041D03*
X267021489Y136989041D03*
X267821489Y136989041D03*
X268621489Y136989041D03*
D15*
X270059489Y138427041D03*
X270059489Y139227041D03*
X270059489Y140027041D03*
X270059489Y140827041D03*
X270059489Y141627041D03*
X270059489Y142427041D03*
X270059489Y143227041D03*
X270059489Y144027041D03*
D16*
X268621489Y145465041D03*
X267821489Y145465041D03*
X267021489Y145465041D03*
X266221489Y145465041D03*
X265421489Y145465041D03*
X264621489Y145465041D03*
X263821489Y145465041D03*
X263021489Y145465041D03*
%TD*%
D11*
%TO.C,R4*%
X23765109Y72188155D03*
X24425109Y72188155D03*
%TD*%
D12*
%TO.C,R120*%
X132759871Y23570377D03*
X133674871Y23570377D03*
%TD*%
D11*
%TO.C,R46*%
X251281871Y66280377D03*
X251941871Y66280377D03*
%TD*%
D12*
%TO.C,R123*%
X137806633Y124130377D03*
X138721633Y124130377D03*
%TD*%
%TO.C,R106*%
X23719871Y35250377D03*
X24634871Y35250377D03*
%TD*%
D11*
%TO.C,R33*%
X142602679Y75121117D03*
X143262679Y75121117D03*
%TD*%
%TO.C,R11*%
X28844299Y161107041D03*
X29504299Y161107041D03*
%TD*%
D12*
%TO.C,R111*%
X236359871Y129970377D03*
X237274871Y129970377D03*
%TD*%
%TO.C,R109*%
X23719871Y26490377D03*
X24634871Y26490377D03*
%TD*%
D11*
%TO.C,R17*%
X236044299Y63389269D03*
X236704299Y63389269D03*
%TD*%
%TO.C,R5*%
X23765109Y149375193D03*
X24425109Y149375193D03*
%TD*%
%TO.C,R27*%
X137523489Y143509269D03*
X138183489Y143509269D03*
%TD*%
%TO.C,R48*%
X44081871Y140534453D03*
X44741871Y140534453D03*
%TD*%
D12*
%TO.C,R123*%
X137806633Y44010377D03*
X138721633Y44010377D03*
%TD*%
D11*
%TO.C,R42*%
X44081871Y158132225D03*
X44741871Y158132225D03*
%TD*%
%TO.C,R41*%
X147681871Y161065187D03*
X148341871Y161065187D03*
%TD*%
D13*
%TO.C,J1*%
X271141489Y81599541D03*
X271641489Y81599541D03*
X272141489Y81599541D03*
X272641489Y81599541D03*
X273141489Y81599541D03*
X273641489Y81599541D03*
X274141489Y81599541D03*
X274641489Y81599541D03*
X275141489Y81599541D03*
X275641489Y81599541D03*
X276141489Y81599541D03*
X276641489Y81599541D03*
X276391489Y79899541D03*
X275891489Y79899541D03*
X275391489Y79899541D03*
X274891489Y79899541D03*
X274391489Y79899541D03*
X273891489Y79899541D03*
X273391489Y79899541D03*
X272891489Y79899541D03*
X272391489Y79899541D03*
X271891489Y79899541D03*
X271391489Y79899541D03*
X270891489Y79899541D03*
%TD*%
D11*
%TO.C,R16*%
X236044299Y66322231D03*
X236704299Y66322231D03*
%TD*%
%TO.C,R15*%
X236044299Y149375193D03*
X236704299Y149375193D03*
%TD*%
D12*
%TO.C,R121*%
X241409871Y129970377D03*
X242324871Y129970377D03*
%TD*%
%TO.C,R105*%
X127319871Y118290377D03*
X128234871Y118290377D03*
%TD*%
D11*
%TO.C,R28*%
X137523489Y60456307D03*
X138183489Y60456307D03*
%TD*%
D12*
%TO.C,R102*%
X127319871Y46930377D03*
X128234871Y46930377D03*
%TD*%
D17*
%TO.C,IC2*%
X155151495Y84267039D03*
X156151493Y84267039D03*
X157151491Y84267039D03*
X158151489Y84267039D03*
X154151497Y83267041D03*
X155151495Y83267041D03*
X156151493Y83267041D03*
X157151491Y83267041D03*
X158151489Y83267041D03*
X154151497Y82267043D03*
X155151495Y82267043D03*
X156151493Y82267043D03*
X157151491Y82267043D03*
X158151489Y82267043D03*
X154151497Y81267045D03*
X155151495Y81267045D03*
X156151493Y81267045D03*
X157151491Y81267045D03*
X158151489Y81267045D03*
X154151497Y80267047D03*
X155151495Y80267047D03*
X156151493Y80267047D03*
X157151491Y80267047D03*
X158151489Y80267047D03*
%TD*%
D11*
%TO.C,R47*%
X147681871Y63347415D03*
X148341871Y63347415D03*
%TD*%
%TO.C,R35*%
X142602679Y149375193D03*
X143262679Y149375193D03*
%TD*%
%TO.C,R8*%
X23765109Y140576307D03*
X24425109Y140576307D03*
%TD*%
%TO.C,R3*%
X23765109Y75121117D03*
X24425109Y75121117D03*
%TD*%
D12*
%TO.C,R121*%
X137809871Y49850377D03*
X138724871Y49850377D03*
%TD*%
%TO.C,R113*%
X236359871Y44010377D03*
X237274871Y44010377D03*
%TD*%
D11*
%TO.C,R24*%
X33923489Y72188155D03*
X34583489Y72188155D03*
%TD*%
%TO.C,R37*%
X246202679Y63389269D03*
X246862679Y63389269D03*
%TD*%
D12*
%TO.C,R103*%
X230919871Y44010377D03*
X231834871Y44010377D03*
%TD*%
D11*
%TO.C,R35*%
X246202679Y149375193D03*
X246862679Y149375193D03*
%TD*%
%TO.C,R11*%
X236044299Y161107041D03*
X236704299Y161107041D03*
%TD*%
%TO.C,R1*%
X23765109Y161107041D03*
X24425109Y161107041D03*
%TD*%
%TO.C,R27*%
X137523489Y63389269D03*
X138183489Y63389269D03*
%TD*%
D12*
%TO.C,R114*%
X236359871Y41090377D03*
X237274871Y41090377D03*
%TD*%
D11*
%TO.C,R41*%
X251281871Y80945187D03*
X251941871Y80945187D03*
%TD*%
%TO.C,R26*%
X33923489Y146442231D03*
X34583489Y146442231D03*
%TD*%
%TO.C,R49*%
X147681871Y57481491D03*
X148341871Y57481491D03*
%TD*%
D13*
%TO.C,J1*%
X63941489Y161719541D03*
X64441489Y161719541D03*
X64941489Y161719541D03*
X65441489Y161719541D03*
X65941489Y161719541D03*
X66441489Y161719541D03*
X66941489Y161719541D03*
X67441489Y161719541D03*
X67941489Y161719541D03*
X68441489Y161719541D03*
X68941489Y161719541D03*
X69441489Y161719541D03*
X69191489Y160019541D03*
X68691489Y160019541D03*
X68191489Y160019541D03*
X67691489Y160019541D03*
X67191489Y160019541D03*
X66691489Y160019541D03*
X66191489Y160019541D03*
X65691489Y160019541D03*
X65191489Y160019541D03*
X64691489Y160019541D03*
X64191489Y160019541D03*
X63691489Y160019541D03*
%TD*%
D12*
%TO.C,R122*%
X241406633Y127050377D03*
X242321633Y127050377D03*
%TD*%
D11*
%TO.C,R27*%
X33923489Y63389269D03*
X34583489Y63389269D03*
%TD*%
%TO.C,R19*%
X236044299Y57523345D03*
X236704299Y57523345D03*
%TD*%
%TO.C,R33*%
X39002679Y75121117D03*
X39662679Y75121117D03*
%TD*%
%TO.C,R46*%
X44081871Y146400377D03*
X44741871Y146400377D03*
%TD*%
%TO.C,R8*%
X127365109Y140576307D03*
X128025109Y140576307D03*
%TD*%
%TO.C,R48*%
X44081871Y60414453D03*
X44741871Y60414453D03*
%TD*%
%TO.C,R31*%
X246202679Y80987041D03*
X246862679Y80987041D03*
%TD*%
D12*
%TO.C,R110*%
X127319871Y103690377D03*
X128234871Y103690377D03*
%TD*%
%TO.C,R125*%
X241406633Y118290377D03*
X242321633Y118290377D03*
%TD*%
%TO.C,R108*%
X230919871Y109530377D03*
X231834871Y109530377D03*
%TD*%
D11*
%TO.C,R39*%
X246202679Y57523345D03*
X246862679Y57523345D03*
%TD*%
%TO.C,R4*%
X127365109Y152308155D03*
X128025109Y152308155D03*
%TD*%
%TO.C,R17*%
X28844299Y63389269D03*
X29504299Y63389269D03*
%TD*%
D12*
%TO.C,R107*%
X23719871Y32330377D03*
X24634871Y32330377D03*
%TD*%
%TO.C,R123*%
X34206633Y44010377D03*
X35121633Y44010377D03*
%TD*%
D11*
%TO.C,R13*%
X132444299Y155241117D03*
X133104299Y155241117D03*
%TD*%
%TO.C,R24*%
X241123489Y152308155D03*
X241783489Y152308155D03*
%TD*%
%TO.C,R36*%
X39002679Y146442231D03*
X39662679Y146442231D03*
%TD*%
%TO.C,R19*%
X236044299Y137643345D03*
X236704299Y137643345D03*
%TD*%
%TO.C,R14*%
X236044299Y152308155D03*
X236704299Y152308155D03*
%TD*%
D12*
%TO.C,R116*%
X236359871Y115370377D03*
X237274871Y115370377D03*
%TD*%
D11*
%TO.C,R16*%
X132444299Y66322231D03*
X133104299Y66322231D03*
%TD*%
D12*
%TO.C,R106*%
X127319871Y35250377D03*
X128234871Y35250377D03*
%TD*%
D10*
%TO.C,SW1*%
X44866495Y47585069D03*
X51616482Y47585069D03*
X44866495Y43585077D03*
X51616482Y43585077D03*
%TD*%
D11*
%TO.C,R43*%
X44081871Y155199263D03*
X44741871Y155199263D03*
%TD*%
%TO.C,R1*%
X23765109Y161107041D03*
X24425109Y161107041D03*
%TD*%
%TO.C,R50*%
X251281871Y134668523D03*
X251941871Y134668523D03*
%TD*%
D12*
%TO.C,R116*%
X29159871Y35250377D03*
X30074871Y35250377D03*
%TD*%
D11*
%TO.C,R37*%
X39002679Y143509269D03*
X39662679Y143509269D03*
%TD*%
%TO.C,R42*%
X251281871Y158132225D03*
X251941871Y158132225D03*
%TD*%
%TO.C,R50*%
X251281871Y54548523D03*
X251941871Y54548523D03*
%TD*%
%TO.C,R47*%
X251281871Y63347415D03*
X251941871Y63347415D03*
%TD*%
%TO.C,R28*%
X33923489Y60456307D03*
X34583489Y60456307D03*
%TD*%
%TO.C,R34*%
X246202679Y152308155D03*
X246862679Y152308155D03*
%TD*%
D12*
%TO.C,R120*%
X29159871Y23570377D03*
X30074871Y23570377D03*
%TD*%
%TO.C,R120*%
X236359871Y103690377D03*
X237274871Y103690377D03*
%TD*%
D11*
%TO.C,R7*%
X230965109Y63389269D03*
X231625109Y63389269D03*
%TD*%
%TO.C,R29*%
X33923489Y57523345D03*
X34583489Y57523345D03*
%TD*%
%TO.C,R36*%
X39002679Y66322231D03*
X39662679Y66322231D03*
%TD*%
D12*
%TO.C,R117*%
X29159871Y32330377D03*
X30074871Y32330377D03*
%TD*%
D11*
%TO.C,R14*%
X28844299Y152308155D03*
X29504299Y152308155D03*
%TD*%
%TO.C,R22*%
X137523489Y158174079D03*
X138183489Y158174079D03*
%TD*%
D17*
%TO.C,IC2*%
X155151495Y164387039D03*
X156151493Y164387039D03*
X157151491Y164387039D03*
X158151489Y164387039D03*
X154151497Y163387041D03*
X155151495Y163387041D03*
X156151493Y163387041D03*
X157151491Y163387041D03*
X158151489Y163387041D03*
X154151497Y162387043D03*
X155151495Y162387043D03*
X156151493Y162387043D03*
X157151491Y162387043D03*
X158151489Y162387043D03*
X154151497Y161387045D03*
X155151495Y161387045D03*
X156151493Y161387045D03*
X157151491Y161387045D03*
X158151489Y161387045D03*
X154151497Y160387047D03*
X155151495Y160387047D03*
X156151493Y160387047D03*
X157151491Y160387047D03*
X158151489Y160387047D03*
%TD*%
D11*
%TO.C,R49*%
X147681871Y137601491D03*
X148341871Y137601491D03*
%TD*%
%TO.C,R21*%
X33923489Y161107041D03*
X34583489Y161107041D03*
%TD*%
%TO.C,R32*%
X246202679Y158174079D03*
X246862679Y158174079D03*
%TD*%
D12*
%TO.C,R116*%
X132759871Y35250377D03*
X133674871Y35250377D03*
%TD*%
D11*
%TO.C,R1*%
X230965109Y161107041D03*
X231625109Y161107041D03*
%TD*%
%TO.C,R47*%
X44081871Y143467415D03*
X44741871Y143467415D03*
%TD*%
%TO.C,R47*%
X251281871Y143467415D03*
X251941871Y143467415D03*
%TD*%
D12*
%TO.C,R119*%
X236359871Y106610377D03*
X237274871Y106610377D03*
%TD*%
D11*
%TO.C,R14*%
X236044299Y72188155D03*
X236704299Y72188155D03*
%TD*%
%TO.C,R2*%
X23765109Y78054079D03*
X24425109Y78054079D03*
%TD*%
%TO.C,R46*%
X147681871Y66280377D03*
X148341871Y66280377D03*
%TD*%
%TO.C,R46*%
X251281871Y146400377D03*
X251941871Y146400377D03*
%TD*%
%TO.C,R10*%
X23765109Y134710377D03*
X24425109Y134710377D03*
%TD*%
%TO.C,R1*%
X127365109Y80987041D03*
X128025109Y80987041D03*
%TD*%
D12*
%TO.C,R102*%
X230919871Y127050377D03*
X231834871Y127050377D03*
%TD*%
%TO.C,R106*%
X230919871Y115370377D03*
X231834871Y115370377D03*
%TD*%
D11*
%TO.C,R40*%
X39002679Y134710377D03*
X39662679Y134710377D03*
%TD*%
%TO.C,R14*%
X132444299Y72188155D03*
X133104299Y72188155D03*
%TD*%
%TO.C,R5*%
X23765109Y69255193D03*
X24425109Y69255193D03*
%TD*%
%TO.C,R47*%
X147681871Y143467415D03*
X148341871Y143467415D03*
%TD*%
%TO.C,R39*%
X142602679Y137643345D03*
X143262679Y137643345D03*
%TD*%
D14*
%TO.C,J2*%
X172101484Y46897039D03*
X171601485Y46897039D03*
X171101486Y46897039D03*
X170601487Y46897039D03*
X170101488Y46897039D03*
X169601489Y46897039D03*
X169101489Y46897039D03*
X168601490Y46897039D03*
X168101491Y46897039D03*
X167601492Y46897039D03*
X167101493Y46897039D03*
X166601494Y46897039D03*
X166601494Y45037043D03*
X167101493Y45037043D03*
X167601492Y45037043D03*
X168101491Y45037043D03*
X168601490Y45037043D03*
X169101489Y45037043D03*
X169601489Y45037043D03*
X170101488Y45037043D03*
X170601487Y45037043D03*
X171101486Y45037043D03*
X171601485Y45037043D03*
X172101484Y45037043D03*
%TD*%
D11*
%TO.C,R39*%
X142602679Y57523345D03*
X143262679Y57523345D03*
%TD*%
D12*
%TO.C,R102*%
X23719871Y127050377D03*
X24634871Y127050377D03*
%TD*%
%TO.C,R105*%
X230919871Y118290377D03*
X231834871Y118290377D03*
%TD*%
D11*
%TO.C,R45*%
X251281871Y69213339D03*
X251941871Y69213339D03*
%TD*%
D12*
%TO.C,R107*%
X127319871Y32330377D03*
X128234871Y32330377D03*
%TD*%
D11*
%TO.C,R22*%
X241123489Y78054079D03*
X241783489Y78054079D03*
%TD*%
%TO.C,R5*%
X230965109Y149375193D03*
X231625109Y149375193D03*
%TD*%
D12*
%TO.C,R115*%
X132759871Y38170377D03*
X133674871Y38170377D03*
%TD*%
D11*
%TO.C,R31*%
X142602679Y80987041D03*
X143262679Y80987041D03*
%TD*%
%TO.C,R15*%
X28844299Y69255193D03*
X29504299Y69255193D03*
%TD*%
%TO.C,R1*%
X23765109Y80987041D03*
X24425109Y80987041D03*
%TD*%
D12*
%TO.C,R123*%
X241406633Y44010377D03*
X242321633Y44010377D03*
%TD*%
D11*
%TO.C,R25*%
X241123489Y149375193D03*
X241783489Y149375193D03*
%TD*%
%TO.C,R37*%
X142602679Y63389269D03*
X143262679Y63389269D03*
%TD*%
%TO.C,R48*%
X251281871Y140534453D03*
X251941871Y140534453D03*
%TD*%
%TO.C,R7*%
X230965109Y143509269D03*
X231625109Y143509269D03*
%TD*%
%TO.C,R36*%
X246202679Y66322231D03*
X246862679Y66322231D03*
%TD*%
%TO.C,R40*%
X39002679Y54590377D03*
X39662679Y54590377D03*
%TD*%
%TO.C,R44*%
X44081871Y152266301D03*
X44741871Y152266301D03*
%TD*%
%TO.C,R37*%
X142602679Y143509269D03*
X143262679Y143509269D03*
%TD*%
D12*
%TO.C,R124*%
X34206633Y121210377D03*
X35121633Y121210377D03*
%TD*%
D11*
%TO.C,R17*%
X132444299Y63389269D03*
X133104299Y63389269D03*
%TD*%
D12*
%TO.C,R122*%
X34206633Y127050377D03*
X35121633Y127050377D03*
%TD*%
%TO.C,R101*%
X127319871Y49850377D03*
X128234871Y49850377D03*
%TD*%
D11*
%TO.C,R47*%
X44081871Y63347415D03*
X44741871Y63347415D03*
%TD*%
%TO.C,R24*%
X33923489Y152308155D03*
X34583489Y152308155D03*
%TD*%
D12*
%TO.C,R110*%
X230919871Y23570377D03*
X231834871Y23570377D03*
%TD*%
D11*
%TO.C,R25*%
X33923489Y69255193D03*
X34583489Y69255193D03*
%TD*%
%TO.C,R42*%
X44081871Y78012225D03*
X44741871Y78012225D03*
%TD*%
%TO.C,R29*%
X241123489Y137643345D03*
X241783489Y137643345D03*
%TD*%
D17*
%TO.C,IC2*%
X258751495Y164387039D03*
X259751493Y164387039D03*
X260751491Y164387039D03*
X261751489Y164387039D03*
X257751497Y163387041D03*
X258751495Y163387041D03*
X259751493Y163387041D03*
X260751491Y163387041D03*
X261751489Y163387041D03*
X257751497Y162387043D03*
X258751495Y162387043D03*
X259751493Y162387043D03*
X260751491Y162387043D03*
X261751489Y162387043D03*
X257751497Y161387045D03*
X258751495Y161387045D03*
X259751493Y161387045D03*
X260751491Y161387045D03*
X261751489Y161387045D03*
X257751497Y160387047D03*
X258751495Y160387047D03*
X259751493Y160387047D03*
X260751491Y160387047D03*
X261751489Y160387047D03*
%TD*%
D11*
%TO.C,R19*%
X28844299Y57523345D03*
X29504299Y57523345D03*
%TD*%
D12*
%TO.C,R112*%
X132759871Y46930377D03*
X133674871Y46930377D03*
%TD*%
%TO.C,R108*%
X127319871Y109530377D03*
X128234871Y109530377D03*
%TD*%
D11*
%TO.C,R50*%
X44081871Y134668523D03*
X44741871Y134668523D03*
%TD*%
%TO.C,R2*%
X23765109Y158174079D03*
X24425109Y158174079D03*
%TD*%
D12*
%TO.C,R107*%
X127319871Y112450377D03*
X128234871Y112450377D03*
%TD*%
D11*
%TO.C,R44*%
X251281871Y152266301D03*
X251941871Y152266301D03*
%TD*%
D12*
%TO.C,R121*%
X241409871Y49850377D03*
X242324871Y49850377D03*
%TD*%
D11*
%TO.C,R35*%
X39002679Y69255193D03*
X39662679Y69255193D03*
%TD*%
%TO.C,R30*%
X137523489Y134710377D03*
X138183489Y134710377D03*
%TD*%
D12*
%TO.C,R120*%
X132759871Y103690377D03*
X133674871Y103690377D03*
%TD*%
%TO.C,R118*%
X29159871Y29410377D03*
X30074871Y29410377D03*
%TD*%
D11*
%TO.C,R15*%
X132444299Y149375193D03*
X133104299Y149375193D03*
%TD*%
%TO.C,R43*%
X44081871Y75079263D03*
X44741871Y75079263D03*
%TD*%
D12*
%TO.C,R106*%
X127319871Y115370377D03*
X128234871Y115370377D03*
%TD*%
%TO.C,R106*%
X23719871Y115370377D03*
X24634871Y115370377D03*
%TD*%
D11*
%TO.C,R33*%
X246202679Y75121117D03*
X246862679Y75121117D03*
%TD*%
%TO.C,R11*%
X28844299Y80987041D03*
X29504299Y80987041D03*
%TD*%
%TO.C,R30*%
X241123489Y134710377D03*
X241783489Y134710377D03*
%TD*%
%TO.C,R44*%
X251281871Y72146301D03*
X251941871Y72146301D03*
%TD*%
D12*
%TO.C,R111*%
X236359871Y49850377D03*
X237274871Y49850377D03*
%TD*%
D11*
%TO.C,R4*%
X127365109Y72188155D03*
X128025109Y72188155D03*
%TD*%
%TO.C,R27*%
X33923489Y143509269D03*
X34583489Y143509269D03*
%TD*%
%TO.C,R26*%
X33923489Y66322231D03*
X34583489Y66322231D03*
%TD*%
D15*
%TO.C,IC1*%
X157983489Y144027041D03*
X157983489Y143227041D03*
X157983489Y142427041D03*
X157983489Y141627041D03*
X157983489Y140827041D03*
X157983489Y140027041D03*
X157983489Y139227041D03*
X157983489Y138427041D03*
D16*
X159421489Y136989041D03*
X160221489Y136989041D03*
X161021489Y136989041D03*
X161821489Y136989041D03*
X162621489Y136989041D03*
X163421489Y136989041D03*
X164221489Y136989041D03*
X165021489Y136989041D03*
D15*
X166459489Y138427041D03*
X166459489Y139227041D03*
X166459489Y140027041D03*
X166459489Y140827041D03*
X166459489Y141627041D03*
X166459489Y142427041D03*
X166459489Y143227041D03*
X166459489Y144027041D03*
D16*
X165021489Y145465041D03*
X164221489Y145465041D03*
X163421489Y145465041D03*
X162621489Y145465041D03*
X161821489Y145465041D03*
X161021489Y145465041D03*
X160221489Y145465041D03*
X159421489Y145465041D03*
%TD*%
D11*
%TO.C,R48*%
X251281871Y60414453D03*
X251941871Y60414453D03*
%TD*%
%TO.C,R19*%
X132444299Y57523345D03*
X133104299Y57523345D03*
%TD*%
D12*
%TO.C,R108*%
X23719871Y29410377D03*
X24634871Y29410377D03*
%TD*%
D11*
%TO.C,R34*%
X246202679Y72188155D03*
X246862679Y72188155D03*
%TD*%
%TO.C,R31*%
X246202679Y161107041D03*
X246862679Y161107041D03*
%TD*%
%TO.C,R11*%
X132444299Y161107041D03*
X133104299Y161107041D03*
%TD*%
D12*
%TO.C,R112*%
X236359871Y46930377D03*
X237274871Y46930377D03*
%TD*%
D11*
%TO.C,R30*%
X33923489Y134710377D03*
X34583489Y134710377D03*
%TD*%
%TO.C,R25*%
X33923489Y149375193D03*
X34583489Y149375193D03*
%TD*%
%TO.C,R5*%
X230965109Y69255193D03*
X231625109Y69255193D03*
%TD*%
D12*
%TO.C,R114*%
X29159871Y121210377D03*
X30074871Y121210377D03*
%TD*%
D14*
%TO.C,J2*%
X172101484Y127017039D03*
X171601485Y127017039D03*
X171101486Y127017039D03*
X170601487Y127017039D03*
X170101488Y127017039D03*
X169601489Y127017039D03*
X169101489Y127017039D03*
X168601490Y127017039D03*
X168101491Y127017039D03*
X167601492Y127017039D03*
X167101493Y127017039D03*
X166601494Y127017039D03*
X166601494Y125157043D03*
X167101493Y125157043D03*
X167601492Y125157043D03*
X168101491Y125157043D03*
X168601490Y125157043D03*
X169101489Y125157043D03*
X169601489Y125157043D03*
X170101488Y125157043D03*
X170601487Y125157043D03*
X171101486Y125157043D03*
X171601485Y125157043D03*
X172101484Y125157043D03*
%TD*%
M02*
