%TF.GenerationSoftware,KiCad,Pcbnew,7.0.5*%
%TF.CreationDate,2023-09-05T09:46:38+01:00*%
%TF.ProjectId,PANELTEST141,50414e45-4c54-4455-9354-3134312e6b69,00.00*%
%TF.SameCoordinates,PX27b9fb5PYc4a79ca*%
%TF.FileFunction,Soldermask,Top*%
%TF.FilePolarity,Negative*%
%FSLAX46Y46*%
G04 Gerber Fmt 4.6, Leading zero omitted, Abs format (unit mm)*
G04 Created by KiCad (PCBNEW 7.0.5) date 2023-09-05 09:46:38*
%MOMM*%
%LPD*%
G01*
G04 APERTURE LIST*
%ADD10C,0.100000*%
%ADD11C,3.580000*%
%ADD12C,3.605000*%
%ADD13C,0.150000*%
%ADD14C,2.905000*%
%ADD15C,1.200000*%
%ADD16O,2.400000X4.100000*%
%ADD17R,2.750000X1.400000*%
%ADD18R,0.460000X0.420000*%
%ADD19C,1.000000*%
%ADD20R,0.508000X0.508000*%
%ADD21C,0.650000*%
%ADD22R,0.300000X0.700000*%
%ADD23O,0.800000X1.600000*%
%ADD24C,3.000000*%
%ADD25O,1.200000X0.900000*%
%ADD26O,1.600000X0.800000*%
%ADD27R,0.280000X1.060000*%
%ADD28C,1.498600*%
%ADD29C,1.524000*%
%ADD30R,1.475000X0.600000*%
%ADD31R,0.600000X1.475000*%
%ADD32C,0.355600*%
G04 APERTURE END LIST*
G36*
X316479871Y151360377D02*
G01*
X320419871Y151360377D01*
X320419871Y149700377D01*
X316479871Y149700377D01*
X316479871Y151360377D01*
G37*
G36*
X314319871Y31520377D02*
G01*
X320479871Y31520377D01*
X320479871Y28960377D01*
X314319871Y28960377D01*
X314319871Y31520377D01*
G37*
G36*
X212879871Y148360377D02*
G01*
X216819871Y148360377D01*
X216819871Y146700377D01*
X212879871Y146700377D01*
X212879871Y148360377D01*
G37*
G36*
X109279871Y151360377D02*
G01*
X113219871Y151360377D01*
X113219871Y149700377D01*
X109279871Y149700377D01*
X109279871Y151360377D01*
G37*
G36*
X212879871Y74240377D02*
G01*
X216819871Y74240377D01*
X216819871Y72580377D01*
X212879871Y72580377D01*
X212879871Y74240377D01*
G37*
G36*
X107119871Y111640377D02*
G01*
X113279871Y111640377D01*
X113279871Y109080377D01*
X107119871Y109080377D01*
X107119871Y111640377D01*
G37*
G36*
X314319871Y56420377D02*
G01*
X320479871Y56420377D01*
X320479871Y51260377D01*
X314319871Y51260377D01*
X314319871Y56420377D01*
G37*
G36*
X210769871Y44940377D02*
G01*
X216929871Y44940377D01*
X216929871Y39780377D01*
X210769871Y39780377D01*
X210769871Y44940377D01*
G37*
G36*
X210769871Y125060377D02*
G01*
X216929871Y125060377D01*
X216929871Y119900377D01*
X210769871Y119900377D01*
X210769871Y125060377D01*
G37*
G36*
X109279871Y74240377D02*
G01*
X113219871Y74240377D01*
X113219871Y72580377D01*
X109279871Y72580377D01*
X109279871Y74240377D01*
G37*
G36*
X109269871Y157360377D02*
G01*
X113209871Y157360377D01*
X113209871Y155700377D01*
X109269871Y155700377D01*
X109269871Y157360377D01*
G37*
G36*
X212869871Y145460377D02*
G01*
X216809871Y145460377D01*
X216809871Y143800377D01*
X212869871Y143800377D01*
X212869871Y145460377D01*
G37*
G36*
X316469871Y157360377D02*
G01*
X320409871Y157360377D01*
X320409871Y155700377D01*
X316469871Y155700377D01*
X316469871Y157360377D01*
G37*
G36*
X210719871Y31520377D02*
G01*
X216879871Y31520377D01*
X216879871Y28960377D01*
X210719871Y28960377D01*
X210719871Y31520377D01*
G37*
G36*
X316479871Y74240377D02*
G01*
X320419871Y74240377D01*
X320419871Y72580377D01*
X316479871Y72580377D01*
X316479871Y74240377D01*
G37*
G36*
X316469871Y65340377D02*
G01*
X320409871Y65340377D01*
X320409871Y63680377D01*
X316469871Y63680377D01*
X316469871Y65340377D01*
G37*
G36*
X316479871Y68240377D02*
G01*
X320419871Y68240377D01*
X320419871Y66580377D01*
X316479871Y66580377D01*
X316479871Y68240377D01*
G37*
G36*
X316479871Y71240377D02*
G01*
X320419871Y71240377D01*
X320419871Y69580377D01*
X316479871Y69580377D01*
X316479871Y71240377D01*
G37*
G36*
X212879871Y151360377D02*
G01*
X216819871Y151360377D01*
X216819871Y149700377D01*
X212879871Y149700377D01*
X212879871Y151360377D01*
G37*
G36*
X212869871Y157360377D02*
G01*
X216809871Y157360377D01*
X216809871Y155700377D01*
X212869871Y155700377D01*
X212869871Y157360377D01*
G37*
G36*
X314319871Y136540377D02*
G01*
X320479871Y136540377D01*
X320479871Y131380377D01*
X314319871Y131380377D01*
X314319871Y136540377D01*
G37*
G36*
X109279871Y68240377D02*
G01*
X113219871Y68240377D01*
X113219871Y66580377D01*
X109279871Y66580377D01*
X109279871Y68240377D01*
G37*
G36*
X316469871Y77240377D02*
G01*
X320409871Y77240377D01*
X320409871Y75580377D01*
X316469871Y75580377D01*
X316469871Y77240377D01*
G37*
G36*
X107119871Y56420377D02*
G01*
X113279871Y56420377D01*
X113279871Y51260377D01*
X107119871Y51260377D01*
X107119871Y56420377D01*
G37*
G36*
X212879871Y154360377D02*
G01*
X216819871Y154360377D01*
X216819871Y152700377D01*
X212879871Y152700377D01*
X212879871Y154360377D01*
G37*
G36*
X109279871Y148360377D02*
G01*
X113219871Y148360377D01*
X113219871Y146700377D01*
X109279871Y146700377D01*
X109279871Y148360377D01*
G37*
G36*
X316479871Y154360377D02*
G01*
X320419871Y154360377D01*
X320419871Y152700377D01*
X316479871Y152700377D01*
X316479871Y154360377D01*
G37*
G36*
X212869871Y65340377D02*
G01*
X216809871Y65340377D01*
X216809871Y63680377D01*
X212869871Y63680377D01*
X212869871Y65340377D01*
G37*
G36*
X109269871Y145460377D02*
G01*
X113209871Y145460377D01*
X113209871Y143800377D01*
X109269871Y143800377D01*
X109269871Y145460377D01*
G37*
G36*
X210719871Y111640377D02*
G01*
X216879871Y111640377D01*
X216879871Y109080377D01*
X210719871Y109080377D01*
X210719871Y111640377D01*
G37*
G36*
X210719871Y56420377D02*
G01*
X216879871Y56420377D01*
X216879871Y51260377D01*
X210719871Y51260377D01*
X210719871Y56420377D01*
G37*
G36*
X109269871Y65340377D02*
G01*
X113209871Y65340377D01*
X113209871Y63680377D01*
X109269871Y63680377D01*
X109269871Y65340377D01*
G37*
G36*
X109279871Y154360377D02*
G01*
X113219871Y154360377D01*
X113219871Y152700377D01*
X109279871Y152700377D01*
X109279871Y154360377D01*
G37*
G36*
X109279871Y71240377D02*
G01*
X113219871Y71240377D01*
X113219871Y69580377D01*
X109279871Y69580377D01*
X109279871Y71240377D01*
G37*
G36*
X212869871Y77240377D02*
G01*
X216809871Y77240377D01*
X216809871Y75580377D01*
X212869871Y75580377D01*
X212869871Y77240377D01*
G37*
G36*
X316479871Y148360377D02*
G01*
X320419871Y148360377D01*
X320419871Y146700377D01*
X316479871Y146700377D01*
X316479871Y148360377D01*
G37*
G36*
X212879871Y71240377D02*
G01*
X216819871Y71240377D01*
X216819871Y69580377D01*
X212879871Y69580377D01*
X212879871Y71240377D01*
G37*
G36*
X107169871Y125060377D02*
G01*
X113329871Y125060377D01*
X113329871Y119900377D01*
X107169871Y119900377D01*
X107169871Y125060377D01*
G37*
G36*
X314369871Y125060377D02*
G01*
X320529871Y125060377D01*
X320529871Y119900377D01*
X314369871Y119900377D01*
X314369871Y125060377D01*
G37*
G36*
X107119871Y136540377D02*
G01*
X113279871Y136540377D01*
X113279871Y131380377D01*
X107119871Y131380377D01*
X107119871Y136540377D01*
G37*
G36*
X109269871Y77240377D02*
G01*
X113209871Y77240377D01*
X113209871Y75580377D01*
X109269871Y75580377D01*
X109269871Y77240377D01*
G37*
G36*
X314319871Y111640377D02*
G01*
X320479871Y111640377D01*
X320479871Y109080377D01*
X314319871Y109080377D01*
X314319871Y111640377D01*
G37*
G36*
X107169871Y44940377D02*
G01*
X113329871Y44940377D01*
X113329871Y39780377D01*
X107169871Y39780377D01*
X107169871Y44940377D01*
G37*
G36*
X316469871Y145460377D02*
G01*
X320409871Y145460377D01*
X320409871Y143800377D01*
X316469871Y143800377D01*
X316469871Y145460377D01*
G37*
G36*
X314369871Y44940377D02*
G01*
X320529871Y44940377D01*
X320529871Y39780377D01*
X314369871Y39780377D01*
X314369871Y44940377D01*
G37*
G36*
X210719871Y136540377D02*
G01*
X216879871Y136540377D01*
X216879871Y131380377D01*
X210719871Y131380377D01*
X210719871Y136540377D01*
G37*
G36*
X212879871Y68240377D02*
G01*
X216819871Y68240377D01*
X216819871Y66580377D01*
X212879871Y66580377D01*
X212879871Y68240377D01*
G37*
G36*
X107119871Y31520377D02*
G01*
X113279871Y31520377D01*
X113279871Y28960377D01*
X107119871Y28960377D01*
X107119871Y31520377D01*
G37*
D10*
%TO.C,TAB1*%
X77179889Y68220377D02*
X83979889Y68220377D01*
X83979889Y68220377D02*
X83979889Y66560377D01*
X83979889Y66560377D02*
X77179889Y66560377D01*
X77179889Y66560377D02*
X77179889Y68220377D01*
G36*
X77179889Y68220377D02*
G01*
X83979889Y68220377D01*
X83979889Y66560377D01*
X77179889Y66560377D01*
X77179889Y68220377D01*
G37*
X84039889Y77890377D02*
X77119889Y77890377D01*
X77119889Y77890377D02*
X77119889Y75490377D01*
X77119889Y75490377D02*
X84039889Y75490377D01*
X84039889Y75490377D02*
X84039889Y77890377D01*
G36*
X84039889Y77890377D02*
G01*
X77119889Y77890377D01*
X77119889Y75490377D01*
X84039889Y75490377D01*
X84039889Y77890377D01*
G37*
X84039889Y74290377D02*
X77119889Y74290377D01*
X77119889Y74290377D02*
X77119889Y72490377D01*
X77119889Y72490377D02*
X84039889Y72490377D01*
X84039889Y72490377D02*
X84039889Y74290377D01*
G36*
X84039889Y74290377D02*
G01*
X77119889Y74290377D01*
X77119889Y72490377D01*
X84039889Y72490377D01*
X84039889Y74290377D01*
G37*
X84039889Y71290377D02*
X77119889Y71290377D01*
X77119889Y71290377D02*
X77119889Y69490377D01*
X77119889Y69490377D02*
X84039889Y69490377D01*
X84039889Y69490377D02*
X84039889Y71290377D01*
G36*
X84039889Y71290377D02*
G01*
X77119889Y71290377D01*
X77119889Y69490377D01*
X84039889Y69490377D01*
X84039889Y71290377D01*
G37*
X84049889Y65400377D02*
X77119889Y65400377D01*
X77119889Y65400377D02*
X77119889Y62890377D01*
X77119889Y62890377D02*
X84049889Y62890377D01*
X84049889Y62890377D02*
X84049889Y65400377D01*
G36*
X84049889Y65400377D02*
G01*
X77119889Y65400377D01*
X77119889Y62890377D01*
X84049889Y62890377D01*
X84049889Y65400377D01*
G37*
%TO.C,TAB2*%
X180649889Y134862877D02*
X187709889Y134862877D01*
X187709889Y134862877D02*
X187709889Y133082877D01*
X187709889Y133082877D02*
X180649889Y133082877D01*
X180649889Y133082877D02*
X180649889Y134862877D01*
G36*
X180649889Y134862877D02*
G01*
X187709889Y134862877D01*
X187709889Y133082877D01*
X180649889Y133082877D01*
X180649889Y134862877D01*
G37*
D11*
X185969889Y134862877D02*
G75*
G03*
X185969889Y134862877I-1790000J0D01*
G01*
D12*
X185982389Y133082877D02*
G75*
G03*
X185982389Y133082877I-1802500J0D01*
G01*
D13*
%TO.C,TAB4*%
X287249889Y33070377D02*
X288309889Y33070377D01*
X288309889Y33070377D02*
X288309889Y27410377D01*
X288309889Y27410377D02*
X287249889Y27410377D01*
X287249889Y27410377D02*
X287249889Y33070377D01*
G36*
X287249889Y33070377D02*
G01*
X288309889Y33070377D01*
X288309889Y27410377D01*
X287249889Y27410377D01*
X287249889Y33070377D01*
G37*
D14*
X288702389Y30240377D02*
G75*
G03*
X288702389Y30240377I-1452500J0D01*
G01*
X289762389Y30240377D02*
G75*
G03*
X289762389Y30240377I-1452500J0D01*
G01*
D10*
%TO.C,TAB3*%
X77049889Y123392877D02*
X84109889Y123392877D01*
X84109889Y123392877D02*
X84109889Y121612877D01*
X84109889Y121612877D02*
X77049889Y121612877D01*
X77049889Y121612877D02*
X77049889Y123392877D01*
G36*
X77049889Y123392877D02*
G01*
X84109889Y123392877D01*
X84109889Y121612877D01*
X77049889Y121612877D01*
X77049889Y123392877D01*
G37*
D11*
X82369889Y123392877D02*
G75*
G03*
X82369889Y123392877I-1790000J0D01*
G01*
D12*
X82382389Y121612877D02*
G75*
G03*
X82382389Y121612877I-1802500J0D01*
G01*
D13*
%TO.C,TAB4*%
X80049889Y113190377D02*
X81109889Y113190377D01*
X81109889Y113190377D02*
X81109889Y107530377D01*
X81109889Y107530377D02*
X80049889Y107530377D01*
X80049889Y107530377D02*
X80049889Y113190377D01*
G36*
X80049889Y113190377D02*
G01*
X81109889Y113190377D01*
X81109889Y107530377D01*
X80049889Y107530377D01*
X80049889Y113190377D01*
G37*
D14*
X81502389Y110360377D02*
G75*
G03*
X81502389Y110360377I-1452500J0D01*
G01*
X82562389Y110360377D02*
G75*
G03*
X82562389Y110360377I-1452500J0D01*
G01*
D10*
%TO.C,TAB3*%
X77049889Y43272877D02*
X84109889Y43272877D01*
X84109889Y43272877D02*
X84109889Y41492877D01*
X84109889Y41492877D02*
X77049889Y41492877D01*
X77049889Y41492877D02*
X77049889Y43272877D01*
G36*
X77049889Y43272877D02*
G01*
X84109889Y43272877D01*
X84109889Y41492877D01*
X77049889Y41492877D01*
X77049889Y43272877D01*
G37*
D11*
X82369889Y43272877D02*
G75*
G03*
X82369889Y43272877I-1790000J0D01*
G01*
D12*
X82382389Y41492877D02*
G75*
G03*
X82382389Y41492877I-1802500J0D01*
G01*
D13*
%TO.C,TAB4*%
X183649889Y33070377D02*
X184709889Y33070377D01*
X184709889Y33070377D02*
X184709889Y27410377D01*
X184709889Y27410377D02*
X183649889Y27410377D01*
X183649889Y27410377D02*
X183649889Y33070377D01*
G36*
X183649889Y33070377D02*
G01*
X184709889Y33070377D01*
X184709889Y27410377D01*
X183649889Y27410377D01*
X183649889Y33070377D01*
G37*
D14*
X185102389Y30240377D02*
G75*
G03*
X185102389Y30240377I-1452500J0D01*
G01*
X186162389Y30240377D02*
G75*
G03*
X186162389Y30240377I-1452500J0D01*
G01*
D10*
%TO.C,TAB3*%
X180649889Y43272877D02*
X187709889Y43272877D01*
X187709889Y43272877D02*
X187709889Y41492877D01*
X187709889Y41492877D02*
X180649889Y41492877D01*
X180649889Y41492877D02*
X180649889Y43272877D01*
G36*
X180649889Y43272877D02*
G01*
X187709889Y43272877D01*
X187709889Y41492877D01*
X180649889Y41492877D01*
X180649889Y43272877D01*
G37*
D11*
X185969889Y43272877D02*
G75*
G03*
X185969889Y43272877I-1790000J0D01*
G01*
D12*
X185982389Y41492877D02*
G75*
G03*
X185982389Y41492877I-1802500J0D01*
G01*
D10*
%TO.C,TAB2*%
X180649889Y54742877D02*
X187709889Y54742877D01*
X187709889Y54742877D02*
X187709889Y52962877D01*
X187709889Y52962877D02*
X180649889Y52962877D01*
X180649889Y52962877D02*
X180649889Y54742877D01*
G36*
X180649889Y54742877D02*
G01*
X187709889Y54742877D01*
X187709889Y52962877D01*
X180649889Y52962877D01*
X180649889Y54742877D01*
G37*
D11*
X185969889Y54742877D02*
G75*
G03*
X185969889Y54742877I-1790000J0D01*
G01*
D12*
X185982389Y52962877D02*
G75*
G03*
X185982389Y52962877I-1802500J0D01*
G01*
%TO.C,REF\u002A\u002A*%
D15*
X16599871Y181230377D02*
G75*
G03*
X16599871Y181230377I-600000J0D01*
G01*
X322399871Y181230377D02*
G75*
G03*
X322399871Y181230377I-600000J0D01*
G01*
D10*
%TO.C,TAB3*%
X180649889Y123392877D02*
X187709889Y123392877D01*
X187709889Y123392877D02*
X187709889Y121612877D01*
X187709889Y121612877D02*
X180649889Y121612877D01*
X180649889Y121612877D02*
X180649889Y123392877D01*
G36*
X180649889Y123392877D02*
G01*
X187709889Y123392877D01*
X187709889Y121612877D01*
X180649889Y121612877D01*
X180649889Y123392877D01*
G37*
D11*
X185969889Y123392877D02*
G75*
G03*
X185969889Y123392877I-1790000J0D01*
G01*
D12*
X185982389Y121612877D02*
G75*
G03*
X185982389Y121612877I-1802500J0D01*
G01*
D10*
%TO.C,TAB2*%
X284249889Y134862877D02*
X291309889Y134862877D01*
X291309889Y134862877D02*
X291309889Y133082877D01*
X291309889Y133082877D02*
X284249889Y133082877D01*
X284249889Y133082877D02*
X284249889Y134862877D01*
G36*
X284249889Y134862877D02*
G01*
X291309889Y134862877D01*
X291309889Y133082877D01*
X284249889Y133082877D01*
X284249889Y134862877D01*
G37*
D11*
X289569889Y134862877D02*
G75*
G03*
X289569889Y134862877I-1790000J0D01*
G01*
D12*
X289582389Y133082877D02*
G75*
G03*
X289582389Y133082877I-1802500J0D01*
G01*
D10*
X284249889Y54742877D02*
X291309889Y54742877D01*
X291309889Y54742877D02*
X291309889Y52962877D01*
X291309889Y52962877D02*
X284249889Y52962877D01*
X284249889Y52962877D02*
X284249889Y54742877D01*
G36*
X284249889Y54742877D02*
G01*
X291309889Y54742877D01*
X291309889Y52962877D01*
X284249889Y52962877D01*
X284249889Y54742877D01*
G37*
D11*
X289569889Y54742877D02*
G75*
G03*
X289569889Y54742877I-1790000J0D01*
G01*
D12*
X289582389Y52962877D02*
G75*
G03*
X289582389Y52962877I-1802500J0D01*
G01*
D13*
%TO.C,TAB4*%
X183649889Y113190377D02*
X184709889Y113190377D01*
X184709889Y113190377D02*
X184709889Y107530377D01*
X184709889Y107530377D02*
X183649889Y107530377D01*
X183649889Y107530377D02*
X183649889Y113190377D01*
G36*
X183649889Y113190377D02*
G01*
X184709889Y113190377D01*
X184709889Y107530377D01*
X183649889Y107530377D01*
X183649889Y113190377D01*
G37*
D14*
X185102389Y110360377D02*
G75*
G03*
X185102389Y110360377I-1452500J0D01*
G01*
X186162389Y110360377D02*
G75*
G03*
X186162389Y110360377I-1452500J0D01*
G01*
D10*
%TO.C,TAB2*%
X77049889Y54742877D02*
X84109889Y54742877D01*
X84109889Y54742877D02*
X84109889Y52962877D01*
X84109889Y52962877D02*
X77049889Y52962877D01*
X77049889Y52962877D02*
X77049889Y54742877D01*
G36*
X77049889Y54742877D02*
G01*
X84109889Y54742877D01*
X84109889Y52962877D01*
X77049889Y52962877D01*
X77049889Y54742877D01*
G37*
D11*
X82369889Y54742877D02*
G75*
G03*
X82369889Y54742877I-1790000J0D01*
G01*
D12*
X82382389Y52962877D02*
G75*
G03*
X82382389Y52962877I-1802500J0D01*
G01*
D10*
%TO.C,TAB1*%
X284379889Y68220377D02*
X291179889Y68220377D01*
X291179889Y68220377D02*
X291179889Y66560377D01*
X291179889Y66560377D02*
X284379889Y66560377D01*
X284379889Y66560377D02*
X284379889Y68220377D01*
G36*
X284379889Y68220377D02*
G01*
X291179889Y68220377D01*
X291179889Y66560377D01*
X284379889Y66560377D01*
X284379889Y68220377D01*
G37*
X291239889Y77890377D02*
X284319889Y77890377D01*
X284319889Y77890377D02*
X284319889Y75490377D01*
X284319889Y75490377D02*
X291239889Y75490377D01*
X291239889Y75490377D02*
X291239889Y77890377D01*
G36*
X291239889Y77890377D02*
G01*
X284319889Y77890377D01*
X284319889Y75490377D01*
X291239889Y75490377D01*
X291239889Y77890377D01*
G37*
X291239889Y74290377D02*
X284319889Y74290377D01*
X284319889Y74290377D02*
X284319889Y72490377D01*
X284319889Y72490377D02*
X291239889Y72490377D01*
X291239889Y72490377D02*
X291239889Y74290377D01*
G36*
X291239889Y74290377D02*
G01*
X284319889Y74290377D01*
X284319889Y72490377D01*
X291239889Y72490377D01*
X291239889Y74290377D01*
G37*
X291239889Y71290377D02*
X284319889Y71290377D01*
X284319889Y71290377D02*
X284319889Y69490377D01*
X284319889Y69490377D02*
X291239889Y69490377D01*
X291239889Y69490377D02*
X291239889Y71290377D01*
G36*
X291239889Y71290377D02*
G01*
X284319889Y71290377D01*
X284319889Y69490377D01*
X291239889Y69490377D01*
X291239889Y71290377D01*
G37*
X291249889Y65400377D02*
X284319889Y65400377D01*
X284319889Y65400377D02*
X284319889Y62890377D01*
X284319889Y62890377D02*
X291249889Y62890377D01*
X291249889Y62890377D02*
X291249889Y65400377D01*
G36*
X291249889Y65400377D02*
G01*
X284319889Y65400377D01*
X284319889Y62890377D01*
X291249889Y62890377D01*
X291249889Y65400377D01*
G37*
X180779889Y68220377D02*
X187579889Y68220377D01*
X187579889Y68220377D02*
X187579889Y66560377D01*
X187579889Y66560377D02*
X180779889Y66560377D01*
X180779889Y66560377D02*
X180779889Y68220377D01*
G36*
X180779889Y68220377D02*
G01*
X187579889Y68220377D01*
X187579889Y66560377D01*
X180779889Y66560377D01*
X180779889Y68220377D01*
G37*
X187639889Y77890377D02*
X180719889Y77890377D01*
X180719889Y77890377D02*
X180719889Y75490377D01*
X180719889Y75490377D02*
X187639889Y75490377D01*
X187639889Y75490377D02*
X187639889Y77890377D01*
G36*
X187639889Y77890377D02*
G01*
X180719889Y77890377D01*
X180719889Y75490377D01*
X187639889Y75490377D01*
X187639889Y77890377D01*
G37*
X187639889Y74290377D02*
X180719889Y74290377D01*
X180719889Y74290377D02*
X180719889Y72490377D01*
X180719889Y72490377D02*
X187639889Y72490377D01*
X187639889Y72490377D02*
X187639889Y74290377D01*
G36*
X187639889Y74290377D02*
G01*
X180719889Y74290377D01*
X180719889Y72490377D01*
X187639889Y72490377D01*
X187639889Y74290377D01*
G37*
X187639889Y71290377D02*
X180719889Y71290377D01*
X180719889Y71290377D02*
X180719889Y69490377D01*
X180719889Y69490377D02*
X187639889Y69490377D01*
X187639889Y69490377D02*
X187639889Y71290377D01*
G36*
X187639889Y71290377D02*
G01*
X180719889Y71290377D01*
X180719889Y69490377D01*
X187639889Y69490377D01*
X187639889Y71290377D01*
G37*
X187649889Y65400377D02*
X180719889Y65400377D01*
X180719889Y65400377D02*
X180719889Y62890377D01*
X180719889Y62890377D02*
X187649889Y62890377D01*
X187649889Y62890377D02*
X187649889Y65400377D01*
G36*
X187649889Y65400377D02*
G01*
X180719889Y65400377D01*
X180719889Y62890377D01*
X187649889Y62890377D01*
X187649889Y65400377D01*
G37*
%TO.C,TAB2*%
X77049889Y134862877D02*
X84109889Y134862877D01*
X84109889Y134862877D02*
X84109889Y133082877D01*
X84109889Y133082877D02*
X77049889Y133082877D01*
X77049889Y133082877D02*
X77049889Y134862877D01*
G36*
X77049889Y134862877D02*
G01*
X84109889Y134862877D01*
X84109889Y133082877D01*
X77049889Y133082877D01*
X77049889Y134862877D01*
G37*
D11*
X82369889Y134862877D02*
G75*
G03*
X82369889Y134862877I-1790000J0D01*
G01*
D12*
X82382389Y133082877D02*
G75*
G03*
X82382389Y133082877I-1802500J0D01*
G01*
%TO.C,REF\u002A\u002A*%
D15*
X322399871Y5990377D02*
G75*
G03*
X322399871Y5990377I-600000J0D01*
G01*
D13*
%TO.C,TAB4*%
X287249889Y113190377D02*
X288309889Y113190377D01*
X288309889Y113190377D02*
X288309889Y107530377D01*
X288309889Y107530377D02*
X287249889Y107530377D01*
X287249889Y107530377D02*
X287249889Y113190377D01*
G36*
X287249889Y113190377D02*
G01*
X288309889Y113190377D01*
X288309889Y107530377D01*
X287249889Y107530377D01*
X287249889Y113190377D01*
G37*
D14*
X288702389Y110360377D02*
G75*
G03*
X288702389Y110360377I-1452500J0D01*
G01*
X289762389Y110360377D02*
G75*
G03*
X289762389Y110360377I-1452500J0D01*
G01*
D10*
%TO.C,TAB3*%
X284249889Y123392877D02*
X291309889Y123392877D01*
X291309889Y123392877D02*
X291309889Y121612877D01*
X291309889Y121612877D02*
X284249889Y121612877D01*
X284249889Y121612877D02*
X284249889Y123392877D01*
G36*
X284249889Y123392877D02*
G01*
X291309889Y123392877D01*
X291309889Y121612877D01*
X284249889Y121612877D01*
X284249889Y123392877D01*
G37*
D11*
X289569889Y123392877D02*
G75*
G03*
X289569889Y123392877I-1790000J0D01*
G01*
D12*
X289582389Y121612877D02*
G75*
G03*
X289582389Y121612877I-1802500J0D01*
G01*
D10*
%TO.C,TAB1*%
X180779889Y148340377D02*
X187579889Y148340377D01*
X187579889Y148340377D02*
X187579889Y146680377D01*
X187579889Y146680377D02*
X180779889Y146680377D01*
X180779889Y146680377D02*
X180779889Y148340377D01*
G36*
X180779889Y148340377D02*
G01*
X187579889Y148340377D01*
X187579889Y146680377D01*
X180779889Y146680377D01*
X180779889Y148340377D01*
G37*
X187639889Y158010377D02*
X180719889Y158010377D01*
X180719889Y158010377D02*
X180719889Y155610377D01*
X180719889Y155610377D02*
X187639889Y155610377D01*
X187639889Y155610377D02*
X187639889Y158010377D01*
G36*
X187639889Y158010377D02*
G01*
X180719889Y158010377D01*
X180719889Y155610377D01*
X187639889Y155610377D01*
X187639889Y158010377D01*
G37*
X187639889Y154410377D02*
X180719889Y154410377D01*
X180719889Y154410377D02*
X180719889Y152610377D01*
X180719889Y152610377D02*
X187639889Y152610377D01*
X187639889Y152610377D02*
X187639889Y154410377D01*
G36*
X187639889Y154410377D02*
G01*
X180719889Y154410377D01*
X180719889Y152610377D01*
X187639889Y152610377D01*
X187639889Y154410377D01*
G37*
X187639889Y151410377D02*
X180719889Y151410377D01*
X180719889Y151410377D02*
X180719889Y149610377D01*
X180719889Y149610377D02*
X187639889Y149610377D01*
X187639889Y149610377D02*
X187639889Y151410377D01*
G36*
X187639889Y151410377D02*
G01*
X180719889Y151410377D01*
X180719889Y149610377D01*
X187639889Y149610377D01*
X187639889Y151410377D01*
G37*
X187649889Y145520377D02*
X180719889Y145520377D01*
X180719889Y145520377D02*
X180719889Y143010377D01*
X180719889Y143010377D02*
X187649889Y143010377D01*
X187649889Y143010377D02*
X187649889Y145520377D01*
G36*
X187649889Y145520377D02*
G01*
X180719889Y145520377D01*
X180719889Y143010377D01*
X187649889Y143010377D01*
X187649889Y145520377D01*
G37*
D13*
%TO.C,TAB4*%
X80049889Y33070377D02*
X81109889Y33070377D01*
X81109889Y33070377D02*
X81109889Y27410377D01*
X81109889Y27410377D02*
X80049889Y27410377D01*
X80049889Y27410377D02*
X80049889Y33070377D01*
G36*
X80049889Y33070377D02*
G01*
X81109889Y33070377D01*
X81109889Y27410377D01*
X80049889Y27410377D01*
X80049889Y33070377D01*
G37*
D14*
X81502389Y30240377D02*
G75*
G03*
X81502389Y30240377I-1452500J0D01*
G01*
X82562389Y30240377D02*
G75*
G03*
X82562389Y30240377I-1452500J0D01*
G01*
%TO.C,REF\u002A\u002A*%
D15*
X16599871Y5990377D02*
G75*
G03*
X16599871Y5990377I-600000J0D01*
G01*
D10*
%TO.C,TAB1*%
X77179889Y148340377D02*
X83979889Y148340377D01*
X83979889Y148340377D02*
X83979889Y146680377D01*
X83979889Y146680377D02*
X77179889Y146680377D01*
X77179889Y146680377D02*
X77179889Y148340377D01*
G36*
X77179889Y148340377D02*
G01*
X83979889Y148340377D01*
X83979889Y146680377D01*
X77179889Y146680377D01*
X77179889Y148340377D01*
G37*
X84039889Y158010377D02*
X77119889Y158010377D01*
X77119889Y158010377D02*
X77119889Y155610377D01*
X77119889Y155610377D02*
X84039889Y155610377D01*
X84039889Y155610377D02*
X84039889Y158010377D01*
G36*
X84039889Y158010377D02*
G01*
X77119889Y158010377D01*
X77119889Y155610377D01*
X84039889Y155610377D01*
X84039889Y158010377D01*
G37*
X84039889Y154410377D02*
X77119889Y154410377D01*
X77119889Y154410377D02*
X77119889Y152610377D01*
X77119889Y152610377D02*
X84039889Y152610377D01*
X84039889Y152610377D02*
X84039889Y154410377D01*
G36*
X84039889Y154410377D02*
G01*
X77119889Y154410377D01*
X77119889Y152610377D01*
X84039889Y152610377D01*
X84039889Y154410377D01*
G37*
X84039889Y151410377D02*
X77119889Y151410377D01*
X77119889Y151410377D02*
X77119889Y149610377D01*
X77119889Y149610377D02*
X84039889Y149610377D01*
X84039889Y149610377D02*
X84039889Y151410377D01*
G36*
X84039889Y151410377D02*
G01*
X77119889Y151410377D01*
X77119889Y149610377D01*
X84039889Y149610377D01*
X84039889Y151410377D01*
G37*
X84049889Y145520377D02*
X77119889Y145520377D01*
X77119889Y145520377D02*
X77119889Y143010377D01*
X77119889Y143010377D02*
X84049889Y143010377D01*
X84049889Y143010377D02*
X84049889Y145520377D01*
G36*
X84049889Y145520377D02*
G01*
X77119889Y145520377D01*
X77119889Y143010377D01*
X84049889Y143010377D01*
X84049889Y145520377D01*
G37*
%TO.C,TAB3*%
X284249889Y43272877D02*
X291309889Y43272877D01*
X291309889Y43272877D02*
X291309889Y41492877D01*
X291309889Y41492877D02*
X284249889Y41492877D01*
X284249889Y41492877D02*
X284249889Y43272877D01*
G36*
X284249889Y43272877D02*
G01*
X291309889Y43272877D01*
X291309889Y41492877D01*
X284249889Y41492877D01*
X284249889Y43272877D01*
G37*
D11*
X289569889Y43272877D02*
G75*
G03*
X289569889Y43272877I-1790000J0D01*
G01*
D12*
X289582389Y41492877D02*
G75*
G03*
X289582389Y41492877I-1802500J0D01*
G01*
D10*
%TO.C,TAB1*%
X284379889Y148340377D02*
X291179889Y148340377D01*
X291179889Y148340377D02*
X291179889Y146680377D01*
X291179889Y146680377D02*
X284379889Y146680377D01*
X284379889Y146680377D02*
X284379889Y148340377D01*
G36*
X284379889Y148340377D02*
G01*
X291179889Y148340377D01*
X291179889Y146680377D01*
X284379889Y146680377D01*
X284379889Y148340377D01*
G37*
X291239889Y158010377D02*
X284319889Y158010377D01*
X284319889Y158010377D02*
X284319889Y155610377D01*
X284319889Y155610377D02*
X291239889Y155610377D01*
X291239889Y155610377D02*
X291239889Y158010377D01*
G36*
X291239889Y158010377D02*
G01*
X284319889Y158010377D01*
X284319889Y155610377D01*
X291239889Y155610377D01*
X291239889Y158010377D01*
G37*
X291239889Y154410377D02*
X284319889Y154410377D01*
X284319889Y154410377D02*
X284319889Y152610377D01*
X284319889Y152610377D02*
X291239889Y152610377D01*
X291239889Y152610377D02*
X291239889Y154410377D01*
G36*
X291239889Y154410377D02*
G01*
X284319889Y154410377D01*
X284319889Y152610377D01*
X291239889Y152610377D01*
X291239889Y154410377D01*
G37*
X291239889Y151410377D02*
X284319889Y151410377D01*
X284319889Y151410377D02*
X284319889Y149610377D01*
X284319889Y149610377D02*
X291239889Y149610377D01*
X291239889Y149610377D02*
X291239889Y151410377D01*
G36*
X291239889Y151410377D02*
G01*
X284319889Y151410377D01*
X284319889Y149610377D01*
X291239889Y149610377D01*
X291239889Y151410377D01*
G37*
X291249889Y145520377D02*
X284319889Y145520377D01*
X284319889Y145520377D02*
X284319889Y143010377D01*
X284319889Y143010377D02*
X291249889Y143010377D01*
X291249889Y143010377D02*
X291249889Y145520377D01*
G36*
X291249889Y145520377D02*
G01*
X284319889Y145520377D01*
X284319889Y143010377D01*
X291249889Y143010377D01*
X291249889Y145520377D01*
G37*
%TD*%
D16*
%TO.C,L1*%
X252791489Y29597041D03*
X265291489Y29597041D03*
%TD*%
D17*
%TO.C,SW1*%
X252066495Y47585069D03*
X258816482Y47585069D03*
X252066495Y43585077D03*
X258816482Y43585077D03*
%TD*%
D16*
%TO.C,L1*%
X149191489Y29597041D03*
X161691489Y29597041D03*
%TD*%
D17*
%TO.C,SW1*%
X148466495Y47585069D03*
X155216482Y47585069D03*
X148466495Y43585077D03*
X155216482Y43585077D03*
%TD*%
D16*
%TO.C,L1*%
X45591489Y29597041D03*
X58091489Y29597041D03*
%TD*%
D17*
%TO.C,SW1*%
X44866495Y47585069D03*
X51616482Y47585069D03*
X44866495Y43585077D03*
X51616482Y43585077D03*
%TD*%
D16*
%TO.C,L1*%
X45591489Y109717041D03*
X58091489Y109717041D03*
%TD*%
D17*
%TO.C,SW1*%
X44866495Y127705069D03*
X51616482Y127705069D03*
X44866495Y123705077D03*
X51616482Y123705077D03*
%TD*%
D16*
%TO.C,L1*%
X149191489Y109717041D03*
X161691489Y109717041D03*
%TD*%
D17*
%TO.C,SW1*%
X148466495Y127705069D03*
X155216482Y127705069D03*
X148466495Y123705077D03*
X155216482Y123705077D03*
%TD*%
D16*
%TO.C,L1*%
X252791489Y109717041D03*
X265291489Y109717041D03*
%TD*%
D17*
%TO.C,SW1*%
X252066495Y127705069D03*
X258816482Y127705069D03*
X252066495Y123705077D03*
X258816482Y123705077D03*
%TD*%
D18*
%TO.C,R12*%
X236044299Y158174079D03*
X236704299Y158174079D03*
%TD*%
%TO.C,R43*%
X147681871Y75079263D03*
X148341871Y75079263D03*
%TD*%
%TO.C,R10*%
X23765109Y54590377D03*
X24425109Y54590377D03*
%TD*%
D19*
%TO.C,REF\u002A\u002A*%
X110199871Y165580377D03*
%TD*%
D20*
%TO.C,R112*%
X132759871Y127050377D03*
X133674871Y127050377D03*
%TD*%
D18*
%TO.C,R27*%
X241123489Y143509269D03*
X241783489Y143509269D03*
%TD*%
D20*
%TO.C,R104*%
X127319871Y121210377D03*
X128234871Y121210377D03*
%TD*%
D19*
%TO.C,REF\u002A\u002A*%
X202449871Y169830377D03*
%TD*%
D18*
%TO.C,R2*%
X230965109Y78054079D03*
X231625109Y78054079D03*
%TD*%
%TO.C,R18*%
X28844299Y60456307D03*
X29504299Y60456307D03*
%TD*%
%TO.C,R26*%
X137523489Y146442231D03*
X138183489Y146442231D03*
%TD*%
%TO.C,R36*%
X142602679Y66322231D03*
X143262679Y66322231D03*
%TD*%
%TO.C,R32*%
X39002679Y158174079D03*
X39662679Y158174079D03*
%TD*%
%TO.C,R39*%
X39002679Y137643345D03*
X39662679Y137643345D03*
%TD*%
%TO.C,R3*%
X230965109Y75121117D03*
X231625109Y75121117D03*
%TD*%
D20*
%TO.C,R114*%
X29159871Y41090377D03*
X30074871Y41090377D03*
%TD*%
D18*
%TO.C,R11*%
X132444299Y80987041D03*
X133104299Y80987041D03*
%TD*%
%TO.C,R7*%
X127365109Y63389269D03*
X128025109Y63389269D03*
%TD*%
D19*
%TO.C,REF\u002A\u002A*%
X120999871Y25590377D03*
%TD*%
D20*
%TO.C,R116*%
X29159871Y115370377D03*
X30074871Y115370377D03*
%TD*%
D18*
%TO.C,R40*%
X142602679Y134710377D03*
X143262679Y134710377D03*
%TD*%
D19*
%TO.C,REF\u002A\u002A*%
X120999871Y76480377D03*
%TD*%
D18*
%TO.C,R44*%
X44081871Y72146301D03*
X44741871Y72146301D03*
%TD*%
%TO.C,R25*%
X137523489Y69255193D03*
X138183489Y69255193D03*
%TD*%
D19*
%TO.C,REF\u002A\u002A*%
X219199871Y92110377D03*
%TD*%
D18*
%TO.C,R45*%
X251281871Y149333339D03*
X251941871Y149333339D03*
%TD*%
%TO.C,R23*%
X137523489Y75121117D03*
X138183489Y75121117D03*
%TD*%
%TO.C,R12*%
X28844299Y78054079D03*
X29504299Y78054079D03*
%TD*%
%TO.C,R14*%
X132444299Y152308155D03*
X133104299Y152308155D03*
%TD*%
D20*
%TO.C,R123*%
X34206633Y124130377D03*
X35121633Y124130377D03*
%TD*%
%TO.C,R103*%
X23719871Y124130377D03*
X24634871Y124130377D03*
%TD*%
%TO.C,R104*%
X23719871Y121210377D03*
X24634871Y121210377D03*
%TD*%
%TO.C,R114*%
X132759871Y121210377D03*
X133674871Y121210377D03*
%TD*%
%TO.C,R125*%
X34206633Y38170377D03*
X35121633Y38170377D03*
%TD*%
D21*
%TO.C,J1*%
X166691489Y161059541D03*
X173891489Y161059541D03*
D22*
X167541489Y161719541D03*
X168041489Y161719541D03*
X168541489Y161719541D03*
X169041489Y161719541D03*
X169541489Y161719541D03*
X170041489Y161719541D03*
X170541489Y161719541D03*
X171041489Y161719541D03*
X171541489Y161719541D03*
X172041489Y161719541D03*
X172541489Y161719541D03*
X173041489Y161719541D03*
X172791489Y160019541D03*
X172291489Y160019541D03*
X171791489Y160019541D03*
X171291489Y160019541D03*
X170791489Y160019541D03*
X170291489Y160019541D03*
X169791489Y160019541D03*
X169291489Y160019541D03*
X168791489Y160019541D03*
X168291489Y160019541D03*
X167791489Y160019541D03*
X167291489Y160019541D03*
D23*
X166161489Y159809541D03*
X174421489Y159809541D03*
X174781489Y153859541D03*
X165801489Y153859541D03*
%TD*%
D20*
%TO.C,R121*%
X34209871Y129970377D03*
X35124871Y129970377D03*
%TD*%
%TO.C,R125*%
X34206633Y118290377D03*
X35121633Y118290377D03*
%TD*%
D24*
%TO.C,REF\u002A\u002A*%
X5999871Y181230377D03*
%TD*%
D18*
%TO.C,R9*%
X127365109Y137643345D03*
X128025109Y137643345D03*
%TD*%
D20*
%TO.C,R114*%
X236359871Y121210377D03*
X237274871Y121210377D03*
%TD*%
%TO.C,R103*%
X230919871Y124130377D03*
X231834871Y124130377D03*
%TD*%
D19*
%TO.C,REF\u002A\u002A*%
X213799871Y103760377D03*
%TD*%
D18*
%TO.C,R16*%
X28844299Y146442231D03*
X29504299Y146442231D03*
%TD*%
D20*
%TO.C,R119*%
X29159871Y106610377D03*
X30074871Y106610377D03*
%TD*%
D18*
%TO.C,R12*%
X28844299Y158174079D03*
X29504299Y158174079D03*
%TD*%
%TO.C,R19*%
X132444299Y137643345D03*
X133104299Y137643345D03*
%TD*%
%TO.C,R10*%
X230965109Y54590377D03*
X231625109Y54590377D03*
%TD*%
D19*
%TO.C,REF\u002A\u002A*%
X120999871Y156600377D03*
%TD*%
D18*
%TO.C,R41*%
X44081871Y161065187D03*
X44741871Y161065187D03*
%TD*%
%TO.C,R4*%
X230965109Y72188155D03*
X231625109Y72188155D03*
%TD*%
D25*
%TO.C,J2*%
X268941497Y126087041D03*
D26*
X271201489Y128887041D03*
X271201489Y123287041D03*
X274701489Y128887041D03*
X274701489Y123287041D03*
D25*
X276961481Y126087041D03*
D27*
X275701484Y127017039D03*
X275201485Y127017039D03*
X274701486Y127017039D03*
X274201487Y127017039D03*
X273701488Y127017039D03*
X273201489Y127017039D03*
X272701489Y127017039D03*
X272201490Y127017039D03*
X271701491Y127017039D03*
X271201492Y127017039D03*
X270701493Y127017039D03*
X270201494Y127017039D03*
X270201494Y125157043D03*
X270701493Y125157043D03*
X271201492Y125157043D03*
X271701491Y125157043D03*
X272201490Y125157043D03*
X272701489Y125157043D03*
X273201489Y125157043D03*
X273701488Y125157043D03*
X274201487Y125157043D03*
X274701486Y125157043D03*
X275201485Y125157043D03*
X275701484Y125157043D03*
%TD*%
D28*
%TO.C,TAB1*%
X78014889Y76450377D03*
X78014889Y73410377D03*
X78014889Y70380377D03*
X78014889Y67380377D03*
X78014889Y64510377D03*
D29*
X79679889Y76450377D03*
X79679889Y73410377D03*
X79679889Y70380377D03*
X79679889Y67380377D03*
X79679889Y64510377D03*
X81479889Y76450377D03*
X81479889Y73410377D03*
X81479889Y70380377D03*
X81479889Y67380377D03*
X81479889Y64510377D03*
D28*
X83144889Y76450377D03*
X83144889Y73410377D03*
X83144889Y70380377D03*
X83144889Y67380377D03*
X83144889Y64510377D03*
%TD*%
D18*
%TO.C,R43*%
X251281871Y75079263D03*
X251941871Y75079263D03*
%TD*%
D20*
%TO.C,R122*%
X241406633Y46930377D03*
X242321633Y46930377D03*
%TD*%
D19*
%TO.C,REF\u002A\u002A*%
X222199871Y169830377D03*
%TD*%
D18*
%TO.C,R26*%
X241123489Y146442231D03*
X241783489Y146442231D03*
%TD*%
D20*
%TO.C,R117*%
X29159871Y112450377D03*
X30074871Y112450377D03*
%TD*%
D19*
%TO.C,REF\u002A\u002A*%
X224599871Y156600377D03*
%TD*%
D18*
%TO.C,R32*%
X39002679Y78054079D03*
X39662679Y78054079D03*
%TD*%
D20*
%TO.C,R123*%
X241406633Y124130377D03*
X242321633Y124130377D03*
%TD*%
D18*
%TO.C,R34*%
X142602679Y152308155D03*
X143262679Y152308155D03*
%TD*%
D20*
%TO.C,R125*%
X241406633Y38170377D03*
X242321633Y38170377D03*
%TD*%
D18*
%TO.C,R26*%
X137523489Y66322231D03*
X138183489Y66322231D03*
%TD*%
%TO.C,R10*%
X127365109Y134710377D03*
X128025109Y134710377D03*
%TD*%
%TO.C,R50*%
X147681871Y54548523D03*
X148341871Y54548523D03*
%TD*%
D20*
%TO.C,R116*%
X236359871Y35250377D03*
X237274871Y35250377D03*
%TD*%
D18*
%TO.C,R3*%
X127365109Y75121117D03*
X128025109Y75121117D03*
%TD*%
D17*
%TO.C,SW1*%
X252066495Y47585069D03*
X258816482Y47585069D03*
X252066495Y43585077D03*
X258816482Y43585077D03*
%TD*%
D20*
%TO.C,R108*%
X23719871Y109530377D03*
X24634871Y109530377D03*
%TD*%
%TO.C,R114*%
X132759871Y41090377D03*
X133674871Y41090377D03*
%TD*%
%TO.C,R107*%
X230919871Y112450377D03*
X231834871Y112450377D03*
%TD*%
D18*
%TO.C,R22*%
X33923489Y158174079D03*
X34583489Y158174079D03*
%TD*%
%TO.C,R34*%
X142602679Y72188155D03*
X143262679Y72188155D03*
%TD*%
D20*
%TO.C,R113*%
X132759871Y124130377D03*
X133674871Y124130377D03*
%TD*%
D19*
%TO.C,REF\u002A\u002A*%
X17399871Y103510377D03*
%TD*%
D30*
%TO.C,IC1*%
X54383489Y144027041D03*
X54383489Y143227041D03*
X54383489Y142427041D03*
X54383489Y141627041D03*
X54383489Y140827041D03*
X54383489Y140027041D03*
X54383489Y139227041D03*
X54383489Y138427041D03*
D31*
X55821489Y136989041D03*
X56621489Y136989041D03*
X57421489Y136989041D03*
X58221489Y136989041D03*
X59021489Y136989041D03*
X59821489Y136989041D03*
X60621489Y136989041D03*
X61421489Y136989041D03*
D30*
X62859489Y138427041D03*
X62859489Y139227041D03*
X62859489Y140027041D03*
X62859489Y140827041D03*
X62859489Y141627041D03*
X62859489Y142427041D03*
X62859489Y143227041D03*
X62859489Y144027041D03*
D31*
X61421489Y145465041D03*
X60621489Y145465041D03*
X59821489Y145465041D03*
X59021489Y145465041D03*
X58221489Y145465041D03*
X57421489Y145465041D03*
X56621489Y145465041D03*
X55821489Y145465041D03*
%TD*%
D20*
%TO.C,R119*%
X132759871Y26490377D03*
X133674871Y26490377D03*
%TD*%
%TO.C,R106*%
X230919871Y35250377D03*
X231834871Y35250377D03*
%TD*%
D32*
%TO.C,IC2*%
X258751495Y84267039D03*
X259751493Y84267039D03*
X260751491Y84267039D03*
X261751489Y84267039D03*
X257751497Y83267041D03*
X258751495Y83267041D03*
X259751493Y83267041D03*
X260751491Y83267041D03*
X261751489Y83267041D03*
X257751497Y82267043D03*
X258751495Y82267043D03*
X259751493Y82267043D03*
X260751491Y82267043D03*
X261751489Y82267043D03*
X257751497Y81267045D03*
X258751495Y81267045D03*
X259751493Y81267045D03*
X260751491Y81267045D03*
X261751489Y81267045D03*
X257751497Y80267047D03*
X258751495Y80267047D03*
X259751493Y80267047D03*
X260751491Y80267047D03*
X261751489Y80267047D03*
%TD*%
D18*
%TO.C,R4*%
X23765109Y152308155D03*
X24425109Y152308155D03*
%TD*%
D20*
%TO.C,R104*%
X127319871Y41090377D03*
X128234871Y41090377D03*
%TD*%
%TO.C,R118*%
X236359871Y109530377D03*
X237274871Y109530377D03*
%TD*%
%TO.C,R109*%
X127319871Y106610377D03*
X128234871Y106610377D03*
%TD*%
D18*
%TO.C,R32*%
X246202679Y78054079D03*
X246862679Y78054079D03*
%TD*%
D20*
%TO.C,R104*%
X230919871Y121210377D03*
X231834871Y121210377D03*
%TD*%
D19*
%TO.C,REF\u002A\u002A*%
X219199871Y95110377D03*
%TD*%
D18*
%TO.C,R42*%
X147681871Y78012225D03*
X148341871Y78012225D03*
%TD*%
D32*
%TO.C,IC2*%
X51551495Y84267039D03*
X52551493Y84267039D03*
X53551491Y84267039D03*
X54551489Y84267039D03*
X50551497Y83267041D03*
X51551495Y83267041D03*
X52551493Y83267041D03*
X53551491Y83267041D03*
X54551489Y83267041D03*
X50551497Y82267043D03*
X51551495Y82267043D03*
X52551493Y82267043D03*
X53551491Y82267043D03*
X54551489Y82267043D03*
X50551497Y81267045D03*
X51551495Y81267045D03*
X52551493Y81267045D03*
X53551491Y81267045D03*
X54551489Y81267045D03*
X50551497Y80267047D03*
X51551495Y80267047D03*
X52551493Y80267047D03*
X53551491Y80267047D03*
X54551489Y80267047D03*
%TD*%
D18*
%TO.C,R32*%
X142602679Y78054079D03*
X143262679Y78054079D03*
%TD*%
D21*
%TO.C,J1*%
X166691489Y80939541D03*
X173891489Y80939541D03*
D22*
X167541489Y81599541D03*
X168041489Y81599541D03*
X168541489Y81599541D03*
X169041489Y81599541D03*
X169541489Y81599541D03*
X170041489Y81599541D03*
X170541489Y81599541D03*
X171041489Y81599541D03*
X171541489Y81599541D03*
X172041489Y81599541D03*
X172541489Y81599541D03*
X173041489Y81599541D03*
X172791489Y79899541D03*
X172291489Y79899541D03*
X171791489Y79899541D03*
X171291489Y79899541D03*
X170791489Y79899541D03*
X170291489Y79899541D03*
X169791489Y79899541D03*
X169291489Y79899541D03*
X168791489Y79899541D03*
X168291489Y79899541D03*
X167791489Y79899541D03*
X167291489Y79899541D03*
D23*
X166161489Y79689541D03*
X174421489Y79689541D03*
X174781489Y73739541D03*
X165801489Y73739541D03*
%TD*%
D18*
%TO.C,R30*%
X137523489Y54590377D03*
X138183489Y54590377D03*
%TD*%
D20*
%TO.C,R124*%
X34206633Y41090377D03*
X35121633Y41090377D03*
%TD*%
%TO.C,R112*%
X29159871Y46930377D03*
X30074871Y46930377D03*
%TD*%
D19*
%TO.C,REF\u002A\u002A*%
X101049871Y97510377D03*
%TD*%
D20*
%TO.C,R124*%
X241406633Y121210377D03*
X242321633Y121210377D03*
%TD*%
%TO.C,R120*%
X236359871Y23570377D03*
X237274871Y23570377D03*
%TD*%
D18*
%TO.C,R29*%
X137523489Y137643345D03*
X138183489Y137643345D03*
%TD*%
D19*
%TO.C,REF\u002A\u002A*%
X213799871Y83260377D03*
%TD*%
D18*
%TO.C,R31*%
X39002679Y161107041D03*
X39662679Y161107041D03*
%TD*%
D20*
%TO.C,R115*%
X132759871Y118290377D03*
X133674871Y118290377D03*
%TD*%
D18*
%TO.C,R23*%
X137523489Y155241117D03*
X138183489Y155241117D03*
%TD*%
D20*
%TO.C,R107*%
X23719871Y112450377D03*
X24634871Y112450377D03*
%TD*%
D18*
%TO.C,R15*%
X28844299Y149375193D03*
X29504299Y149375193D03*
%TD*%
D20*
%TO.C,R121*%
X34209871Y49850377D03*
X35124871Y49850377D03*
%TD*%
%TO.C,R109*%
X230919871Y106610377D03*
X231834871Y106610377D03*
%TD*%
D19*
%TO.C,REF\u002A\u002A*%
X115599871Y92110377D03*
%TD*%
D18*
%TO.C,R20*%
X132444299Y134710377D03*
X133104299Y134710377D03*
%TD*%
D19*
%TO.C,REF\u002A\u002A*%
X234469871Y89710377D03*
%TD*%
D18*
%TO.C,R23*%
X33923489Y75121117D03*
X34583489Y75121117D03*
%TD*%
D19*
%TO.C,REF\u002A\u002A*%
X317399871Y23640377D03*
%TD*%
%TO.C,REF\u002A\u002A*%
X133069871Y97510377D03*
%TD*%
D18*
%TO.C,R3*%
X230965109Y155241117D03*
X231625109Y155241117D03*
%TD*%
%TO.C,R46*%
X147681871Y146400377D03*
X148341871Y146400377D03*
%TD*%
D19*
%TO.C,REF\u002A\u002A*%
X213799871Y21440377D03*
%TD*%
D20*
%TO.C,R103*%
X127319871Y124130377D03*
X128234871Y124130377D03*
%TD*%
D19*
%TO.C,REF\u002A\u002A*%
X236669871Y97510377D03*
%TD*%
D18*
%TO.C,R36*%
X246202679Y146442231D03*
X246862679Y146442231D03*
%TD*%
%TO.C,R6*%
X230965109Y66322231D03*
X231625109Y66322231D03*
%TD*%
%TO.C,R46*%
X44081871Y66280377D03*
X44741871Y66280377D03*
%TD*%
%TO.C,R18*%
X28844299Y140576307D03*
X29504299Y140576307D03*
%TD*%
D19*
%TO.C,REF\u002A\u002A*%
X317399871Y163380377D03*
%TD*%
D20*
%TO.C,R117*%
X236359871Y112450377D03*
X237274871Y112450377D03*
%TD*%
%TO.C,R122*%
X34206633Y46930377D03*
X35121633Y46930377D03*
%TD*%
D19*
%TO.C,REF\u002A\u002A*%
X224599871Y105710377D03*
%TD*%
%TO.C,REF\u002A\u002A*%
X213799871Y85460377D03*
%TD*%
D18*
%TO.C,R43*%
X251281871Y155199263D03*
X251941871Y155199263D03*
%TD*%
%TO.C,R24*%
X137523489Y72188155D03*
X138183489Y72188155D03*
%TD*%
%TO.C,R13*%
X236044299Y155241117D03*
X236704299Y155241117D03*
%TD*%
D19*
%TO.C,REF\u002A\u002A*%
X222199871Y95110377D03*
%TD*%
D18*
%TO.C,R4*%
X230965109Y152308155D03*
X231625109Y152308155D03*
%TD*%
%TO.C,R35*%
X39002679Y149375193D03*
X39662679Y149375193D03*
%TD*%
D20*
%TO.C,R111*%
X29159871Y49850377D03*
X30074871Y49850377D03*
%TD*%
D30*
%TO.C,IC1*%
X261583489Y63907041D03*
X261583489Y63107041D03*
X261583489Y62307041D03*
X261583489Y61507041D03*
X261583489Y60707041D03*
X261583489Y59907041D03*
X261583489Y59107041D03*
X261583489Y58307041D03*
D31*
X263021489Y56869041D03*
X263821489Y56869041D03*
X264621489Y56869041D03*
X265421489Y56869041D03*
X266221489Y56869041D03*
X267021489Y56869041D03*
X267821489Y56869041D03*
X268621489Y56869041D03*
D30*
X270059489Y58307041D03*
X270059489Y59107041D03*
X270059489Y59907041D03*
X270059489Y60707041D03*
X270059489Y61507041D03*
X270059489Y62307041D03*
X270059489Y63107041D03*
X270059489Y63907041D03*
D31*
X268621489Y65345041D03*
X267821489Y65345041D03*
X267021489Y65345041D03*
X266221489Y65345041D03*
X265421489Y65345041D03*
X264621489Y65345041D03*
X263821489Y65345041D03*
X263021489Y65345041D03*
%TD*%
D19*
%TO.C,REF\u002A\u002A*%
X224599871Y76480377D03*
%TD*%
D18*
%TO.C,R9*%
X230965109Y57523345D03*
X231625109Y57523345D03*
%TD*%
D25*
%TO.C,J2*%
X61741497Y126087041D03*
D26*
X64001489Y128887041D03*
X64001489Y123287041D03*
X67501489Y128887041D03*
X67501489Y123287041D03*
D25*
X69761481Y126087041D03*
D27*
X68501484Y127017039D03*
X68001485Y127017039D03*
X67501486Y127017039D03*
X67001487Y127017039D03*
X66501488Y127017039D03*
X66001489Y127017039D03*
X65501489Y127017039D03*
X65001490Y127017039D03*
X64501491Y127017039D03*
X64001492Y127017039D03*
X63501493Y127017039D03*
X63001494Y127017039D03*
X63001494Y125157043D03*
X63501493Y125157043D03*
X64001492Y125157043D03*
X64501491Y125157043D03*
X65001490Y125157043D03*
X65501489Y125157043D03*
X66001489Y125157043D03*
X66501488Y125157043D03*
X67001487Y125157043D03*
X67501486Y125157043D03*
X68001485Y125157043D03*
X68501484Y125157043D03*
%TD*%
D18*
%TO.C,R38*%
X39002679Y140576307D03*
X39662679Y140576307D03*
%TD*%
%TO.C,R3*%
X23765109Y155241117D03*
X24425109Y155241117D03*
%TD*%
%TO.C,R20*%
X132444299Y54590377D03*
X133104299Y54590377D03*
%TD*%
D20*
%TO.C,R122*%
X137806633Y46930377D03*
X138721633Y46930377D03*
%TD*%
%TO.C,R110*%
X230919871Y103690377D03*
X231834871Y103690377D03*
%TD*%
D18*
%TO.C,R33*%
X39002679Y155241117D03*
X39662679Y155241117D03*
%TD*%
%TO.C,R15*%
X236044299Y69255193D03*
X236704299Y69255193D03*
%TD*%
D20*
%TO.C,R109*%
X23719871Y106610377D03*
X24634871Y106610377D03*
%TD*%
D18*
%TO.C,R13*%
X28844299Y155241117D03*
X29504299Y155241117D03*
%TD*%
D20*
%TO.C,R119*%
X132759871Y106610377D03*
X133674871Y106610377D03*
%TD*%
D18*
%TO.C,R15*%
X132444299Y69255193D03*
X133104299Y69255193D03*
%TD*%
%TO.C,R48*%
X147681871Y60414453D03*
X148341871Y60414453D03*
%TD*%
%TO.C,R26*%
X241123489Y66322231D03*
X241783489Y66322231D03*
%TD*%
D19*
%TO.C,REF\u002A\u002A*%
X98849871Y169830377D03*
%TD*%
D20*
%TO.C,R110*%
X23719871Y103690377D03*
X24634871Y103690377D03*
%TD*%
D18*
%TO.C,R21*%
X137523489Y80987041D03*
X138183489Y80987041D03*
%TD*%
D19*
%TO.C,REF\u002A\u002A*%
X17399871Y23390377D03*
%TD*%
%TO.C,REF\u002A\u002A*%
X224599871Y103510377D03*
%TD*%
D18*
%TO.C,R9*%
X127365109Y57523345D03*
X128025109Y57523345D03*
%TD*%
D19*
%TO.C,REF\u002A\u002A*%
X213799871Y23640377D03*
%TD*%
%TO.C,REF\u002A\u002A*%
X98849871Y97510377D03*
%TD*%
D20*
%TO.C,R103*%
X127319871Y44010377D03*
X128234871Y44010377D03*
%TD*%
D19*
%TO.C,REF\u002A\u002A*%
X118599871Y95110377D03*
%TD*%
D18*
%TO.C,R21*%
X241123489Y80987041D03*
X241783489Y80987041D03*
%TD*%
D20*
%TO.C,R116*%
X132759871Y115370377D03*
X133674871Y115370377D03*
%TD*%
D18*
%TO.C,R40*%
X246202679Y54590377D03*
X246862679Y54590377D03*
%TD*%
%TO.C,R29*%
X33923489Y137643345D03*
X34583489Y137643345D03*
%TD*%
%TO.C,R8*%
X230965109Y140576307D03*
X231625109Y140576307D03*
%TD*%
%TO.C,R2*%
X127365109Y158174079D03*
X128025109Y158174079D03*
%TD*%
%TO.C,R17*%
X28844299Y143509269D03*
X29504299Y143509269D03*
%TD*%
D20*
%TO.C,R115*%
X236359871Y118290377D03*
X237274871Y118290377D03*
%TD*%
%TO.C,R101*%
X230919871Y49850377D03*
X231834871Y49850377D03*
%TD*%
D18*
%TO.C,R45*%
X44081871Y69213339D03*
X44741871Y69213339D03*
%TD*%
%TO.C,R31*%
X142602679Y161107041D03*
X143262679Y161107041D03*
%TD*%
D20*
%TO.C,R124*%
X137806633Y121210377D03*
X138721633Y121210377D03*
%TD*%
D19*
%TO.C,REF\u002A\u002A*%
X133069871Y17390377D03*
%TD*%
D18*
%TO.C,R20*%
X236044299Y134710377D03*
X236704299Y134710377D03*
%TD*%
D19*
%TO.C,REF\u002A\u002A*%
X101049871Y89710377D03*
%TD*%
%TO.C,REF\u002A\u002A*%
X222199871Y17390377D03*
%TD*%
D32*
%TO.C,IC2*%
X51551495Y164387039D03*
X52551493Y164387039D03*
X53551491Y164387039D03*
X54551489Y164387039D03*
X50551497Y163387041D03*
X51551495Y163387041D03*
X52551493Y163387041D03*
X53551491Y163387041D03*
X54551489Y163387041D03*
X50551497Y162387043D03*
X51551495Y162387043D03*
X52551493Y162387043D03*
X53551491Y162387043D03*
X54551489Y162387043D03*
X50551497Y161387045D03*
X51551495Y161387045D03*
X52551493Y161387045D03*
X53551491Y161387045D03*
X54551489Y161387045D03*
X50551497Y160387047D03*
X51551495Y160387047D03*
X52551493Y160387047D03*
X53551491Y160387047D03*
X54551489Y160387047D03*
%TD*%
D20*
%TO.C,R118*%
X236359871Y29410377D03*
X237274871Y29410377D03*
%TD*%
D18*
%TO.C,R9*%
X230965109Y137643345D03*
X231625109Y137643345D03*
%TD*%
%TO.C,R37*%
X246202679Y143509269D03*
X246862679Y143509269D03*
%TD*%
D20*
%TO.C,R101*%
X23719871Y49850377D03*
X24634871Y49850377D03*
%TD*%
D18*
%TO.C,R1*%
X230965109Y80987041D03*
X231625109Y80987041D03*
%TD*%
%TO.C,R7*%
X127365109Y143509269D03*
X128025109Y143509269D03*
%TD*%
%TO.C,R1*%
X127365109Y161107041D03*
X128025109Y161107041D03*
%TD*%
%TO.C,R16*%
X132444299Y146442231D03*
X133104299Y146442231D03*
%TD*%
%TO.C,R2*%
X127365109Y78054079D03*
X128025109Y78054079D03*
%TD*%
%TO.C,R14*%
X28844299Y72188155D03*
X29504299Y72188155D03*
%TD*%
D17*
%TO.C,SW1*%
X148466495Y47585069D03*
X155216482Y47585069D03*
X148466495Y43585077D03*
X155216482Y43585077D03*
%TD*%
D20*
%TO.C,R105*%
X230919871Y38170377D03*
X231834871Y38170377D03*
%TD*%
D18*
%TO.C,R20*%
X28844299Y134710377D03*
X29504299Y134710377D03*
%TD*%
D19*
%TO.C,REF\u002A\u002A*%
X204649871Y169830377D03*
%TD*%
D20*
%TO.C,R102*%
X127319871Y127050377D03*
X128234871Y127050377D03*
%TD*%
D18*
%TO.C,R7*%
X23765109Y143509269D03*
X24425109Y143509269D03*
%TD*%
D19*
%TO.C,REF\u002A\u002A*%
X17399871Y74280377D03*
%TD*%
D20*
%TO.C,R118*%
X132759871Y29410377D03*
X133674871Y29410377D03*
%TD*%
D18*
%TO.C,R33*%
X142602679Y155241117D03*
X143262679Y155241117D03*
%TD*%
%TO.C,R12*%
X236044299Y78054079D03*
X236704299Y78054079D03*
%TD*%
D21*
%TO.C,J1*%
X270291489Y161059541D03*
X277491489Y161059541D03*
D22*
X271141489Y161719541D03*
X271641489Y161719541D03*
X272141489Y161719541D03*
X272641489Y161719541D03*
X273141489Y161719541D03*
X273641489Y161719541D03*
X274141489Y161719541D03*
X274641489Y161719541D03*
X275141489Y161719541D03*
X275641489Y161719541D03*
X276141489Y161719541D03*
X276641489Y161719541D03*
X276391489Y160019541D03*
X275891489Y160019541D03*
X275391489Y160019541D03*
X274891489Y160019541D03*
X274391489Y160019541D03*
X273891489Y160019541D03*
X273391489Y160019541D03*
X272891489Y160019541D03*
X272391489Y160019541D03*
X271891489Y160019541D03*
X271391489Y160019541D03*
X270891489Y160019541D03*
D23*
X269761489Y159809541D03*
X278021489Y159809541D03*
X278381489Y153859541D03*
X269401489Y153859541D03*
%TD*%
D18*
%TO.C,R3*%
X127365109Y155241117D03*
X128025109Y155241117D03*
%TD*%
D20*
%TO.C,R101*%
X23719871Y129970377D03*
X24634871Y129970377D03*
%TD*%
D19*
%TO.C,REF\u002A\u002A*%
X224599871Y74280377D03*
%TD*%
D30*
%TO.C,IC1*%
X54383489Y63907041D03*
X54383489Y63107041D03*
X54383489Y62307041D03*
X54383489Y61507041D03*
X54383489Y60707041D03*
X54383489Y59907041D03*
X54383489Y59107041D03*
X54383489Y58307041D03*
D31*
X55821489Y56869041D03*
X56621489Y56869041D03*
X57421489Y56869041D03*
X58221489Y56869041D03*
X59021489Y56869041D03*
X59821489Y56869041D03*
X60621489Y56869041D03*
X61421489Y56869041D03*
D30*
X62859489Y58307041D03*
X62859489Y59107041D03*
X62859489Y59907041D03*
X62859489Y60707041D03*
X62859489Y61507041D03*
X62859489Y62307041D03*
X62859489Y63107041D03*
X62859489Y63907041D03*
D31*
X61421489Y65345041D03*
X60621489Y65345041D03*
X59821489Y65345041D03*
X59021489Y65345041D03*
X58221489Y65345041D03*
X57421489Y65345041D03*
X56621489Y65345041D03*
X55821489Y65345041D03*
%TD*%
D18*
%TO.C,R16*%
X236044299Y146442231D03*
X236704299Y146442231D03*
%TD*%
D20*
%TO.C,R125*%
X137806633Y118290377D03*
X138721633Y118290377D03*
%TD*%
D18*
%TO.C,R38*%
X142602679Y140576307D03*
X143262679Y140576307D03*
%TD*%
D19*
%TO.C,REF\u002A\u002A*%
X17399871Y25590377D03*
%TD*%
D20*
%TO.C,R111*%
X132759871Y49850377D03*
X133674871Y49850377D03*
%TD*%
D18*
%TO.C,R24*%
X241123489Y72188155D03*
X241783489Y72188155D03*
%TD*%
D19*
%TO.C,REF\u002A\u002A*%
X213799871Y163380377D03*
%TD*%
D18*
%TO.C,R41*%
X251281871Y161065187D03*
X251941871Y161065187D03*
%TD*%
%TO.C,R30*%
X241123489Y54590377D03*
X241783489Y54590377D03*
%TD*%
%TO.C,R21*%
X241123489Y161107041D03*
X241783489Y161107041D03*
%TD*%
%TO.C,R24*%
X137523489Y152308155D03*
X138183489Y152308155D03*
%TD*%
%TO.C,R28*%
X241123489Y140576307D03*
X241783489Y140576307D03*
%TD*%
D17*
%TO.C,SW1*%
X252066495Y127705069D03*
X258816482Y127705069D03*
X252066495Y123705077D03*
X258816482Y123705077D03*
%TD*%
D20*
%TO.C,R111*%
X132759871Y129970377D03*
X133674871Y129970377D03*
%TD*%
%TO.C,R118*%
X132759871Y109530377D03*
X133674871Y109530377D03*
%TD*%
D18*
%TO.C,R33*%
X246202679Y155241117D03*
X246862679Y155241117D03*
%TD*%
%TO.C,R7*%
X23765109Y63389269D03*
X24425109Y63389269D03*
%TD*%
D20*
%TO.C,R104*%
X230919871Y41090377D03*
X231834871Y41090377D03*
%TD*%
D18*
%TO.C,R1*%
X127365109Y161107041D03*
X128025109Y161107041D03*
%TD*%
%TO.C,R13*%
X28844299Y75121117D03*
X29504299Y75121117D03*
%TD*%
D20*
%TO.C,R124*%
X137806633Y41090377D03*
X138721633Y41090377D03*
%TD*%
D18*
%TO.C,R45*%
X44081871Y149333339D03*
X44741871Y149333339D03*
%TD*%
D19*
%TO.C,REF\u002A\u002A*%
X308249871Y89710377D03*
%TD*%
D18*
%TO.C,R22*%
X137523489Y78054079D03*
X138183489Y78054079D03*
%TD*%
%TO.C,R18*%
X132444299Y60456307D03*
X133104299Y60456307D03*
%TD*%
%TO.C,R38*%
X246202679Y140576307D03*
X246862679Y140576307D03*
%TD*%
D19*
%TO.C,REF\u002A\u002A*%
X118599871Y17390377D03*
%TD*%
%TO.C,REF\u002A\u002A*%
X27269871Y97510377D03*
%TD*%
D18*
%TO.C,R50*%
X147681871Y134668523D03*
X148341871Y134668523D03*
%TD*%
%TO.C,R45*%
X147681871Y69213339D03*
X148341871Y69213339D03*
%TD*%
%TO.C,R22*%
X241123489Y158174079D03*
X241783489Y158174079D03*
%TD*%
%TO.C,R18*%
X236044299Y60456307D03*
X236704299Y60456307D03*
%TD*%
D19*
%TO.C,REF\u002A\u002A*%
X27269871Y169830377D03*
%TD*%
D20*
%TO.C,R110*%
X23719871Y23570377D03*
X24634871Y23570377D03*
%TD*%
D18*
%TO.C,R25*%
X137523489Y149375193D03*
X138183489Y149375193D03*
%TD*%
D20*
%TO.C,R115*%
X29159871Y118290377D03*
X30074871Y118290377D03*
%TD*%
D18*
%TO.C,R49*%
X44081871Y57481491D03*
X44741871Y57481491D03*
%TD*%
%TO.C,R44*%
X147681871Y152266301D03*
X148341871Y152266301D03*
%TD*%
D19*
%TO.C,REF\u002A\u002A*%
X115599871Y92110377D03*
%TD*%
D18*
%TO.C,R11*%
X236044299Y80987041D03*
X236704299Y80987041D03*
%TD*%
D20*
%TO.C,R103*%
X23719871Y44010377D03*
X24634871Y44010377D03*
%TD*%
D18*
%TO.C,R49*%
X251281871Y137601491D03*
X251941871Y137601491D03*
%TD*%
D19*
%TO.C,REF\u002A\u002A*%
X236669871Y89710377D03*
%TD*%
D18*
%TO.C,R36*%
X142602679Y146442231D03*
X143262679Y146442231D03*
%TD*%
D20*
%TO.C,R104*%
X23719871Y41090377D03*
X24634871Y41090377D03*
%TD*%
D18*
%TO.C,R9*%
X23765109Y137643345D03*
X24425109Y137643345D03*
%TD*%
D20*
%TO.C,R105*%
X127319871Y38170377D03*
X128234871Y38170377D03*
%TD*%
D19*
%TO.C,REF\u002A\u002A*%
X219199871Y17390377D03*
%TD*%
D18*
%TO.C,R37*%
X39002679Y63389269D03*
X39662679Y63389269D03*
%TD*%
D20*
%TO.C,R119*%
X29159871Y26490377D03*
X30074871Y26490377D03*
%TD*%
D18*
%TO.C,R2*%
X230965109Y158174079D03*
X231625109Y158174079D03*
%TD*%
%TO.C,R8*%
X127365109Y60456307D03*
X128025109Y60456307D03*
%TD*%
D19*
%TO.C,REF\u002A\u002A*%
X320399871Y95110377D03*
%TD*%
D21*
%TO.C,J1*%
X63091489Y80939541D03*
X70291489Y80939541D03*
D22*
X63941489Y81599541D03*
X64441489Y81599541D03*
X64941489Y81599541D03*
X65441489Y81599541D03*
X65941489Y81599541D03*
X66441489Y81599541D03*
X66941489Y81599541D03*
X67441489Y81599541D03*
X67941489Y81599541D03*
X68441489Y81599541D03*
X68941489Y81599541D03*
X69441489Y81599541D03*
X69191489Y79899541D03*
X68691489Y79899541D03*
X68191489Y79899541D03*
X67691489Y79899541D03*
X67191489Y79899541D03*
X66691489Y79899541D03*
X66191489Y79899541D03*
X65691489Y79899541D03*
X65191489Y79899541D03*
X64691489Y79899541D03*
X64191489Y79899541D03*
X63691489Y79899541D03*
D23*
X62561489Y79689541D03*
X70821489Y79689541D03*
X71181489Y73739541D03*
X62201489Y73739541D03*
%TD*%
D19*
%TO.C,REF\u002A\u002A*%
X222199871Y95110377D03*
%TD*%
D18*
%TO.C,R48*%
X147681871Y140534453D03*
X148341871Y140534453D03*
%TD*%
%TO.C,R17*%
X132444299Y143509269D03*
X133104299Y143509269D03*
%TD*%
%TO.C,R27*%
X241123489Y63389269D03*
X241783489Y63389269D03*
%TD*%
%TO.C,R21*%
X33923489Y80987041D03*
X34583489Y80987041D03*
%TD*%
%TO.C,R28*%
X33923489Y140576307D03*
X34583489Y140576307D03*
%TD*%
D19*
%TO.C,REF\u002A\u002A*%
X234469871Y17390377D03*
%TD*%
D18*
%TO.C,R8*%
X23765109Y60456307D03*
X24425109Y60456307D03*
%TD*%
D19*
%TO.C,REF\u002A\u002A*%
X202449871Y89710377D03*
%TD*%
%TO.C,REF\u002A\u002A*%
X204649871Y89710377D03*
%TD*%
D18*
%TO.C,R6*%
X23765109Y66322231D03*
X24425109Y66322231D03*
%TD*%
%TO.C,R31*%
X39002679Y80987041D03*
X39662679Y80987041D03*
%TD*%
D20*
%TO.C,R108*%
X127319871Y29410377D03*
X128234871Y29410377D03*
%TD*%
%TO.C,R109*%
X127319871Y26490377D03*
X128234871Y26490377D03*
%TD*%
%TO.C,R117*%
X132759871Y112450377D03*
X133674871Y112450377D03*
%TD*%
D18*
%TO.C,R13*%
X236044299Y75121117D03*
X236704299Y75121117D03*
%TD*%
%TO.C,R20*%
X28844299Y54590377D03*
X29504299Y54590377D03*
%TD*%
D19*
%TO.C,REF\u002A\u002A*%
X317399871Y83260377D03*
%TD*%
%TO.C,REF\u002A\u002A*%
X222199871Y92110377D03*
%TD*%
D18*
%TO.C,R41*%
X44081871Y80945187D03*
X44741871Y80945187D03*
%TD*%
D20*
%TO.C,R112*%
X236359871Y127050377D03*
X237274871Y127050377D03*
%TD*%
D18*
%TO.C,R29*%
X137523489Y57523345D03*
X138183489Y57523345D03*
%TD*%
%TO.C,R12*%
X132444299Y158174079D03*
X133104299Y158174079D03*
%TD*%
D20*
%TO.C,R102*%
X23719871Y46930377D03*
X24634871Y46930377D03*
%TD*%
D18*
%TO.C,R17*%
X236044299Y143509269D03*
X236704299Y143509269D03*
%TD*%
%TO.C,R49*%
X44081871Y137601491D03*
X44741871Y137601491D03*
%TD*%
D19*
%TO.C,REF\u002A\u002A*%
X110199871Y23640377D03*
%TD*%
D20*
%TO.C,R112*%
X29159871Y127050377D03*
X30074871Y127050377D03*
%TD*%
D19*
%TO.C,REF\u002A\u002A*%
X17399871Y92110377D03*
%TD*%
D20*
%TO.C,R113*%
X29159871Y124130377D03*
X30074871Y124130377D03*
%TD*%
D19*
%TO.C,REF\u002A\u002A*%
X118599871Y95110377D03*
%TD*%
%TO.C,REF\u002A\u002A*%
X213799871Y165580377D03*
%TD*%
D18*
%TO.C,R30*%
X33923489Y54590377D03*
X34583489Y54590377D03*
%TD*%
D19*
%TO.C,REF\u002A\u002A*%
X317399871Y85460377D03*
%TD*%
%TO.C,REF\u002A\u002A*%
X98849871Y89710377D03*
%TD*%
D18*
%TO.C,R34*%
X39002679Y152308155D03*
X39662679Y152308155D03*
%TD*%
D25*
%TO.C,J2*%
X61741497Y45967041D03*
D26*
X64001489Y48767041D03*
X64001489Y43167041D03*
X67501489Y48767041D03*
X67501489Y43167041D03*
D25*
X69761481Y45967041D03*
D27*
X68501484Y46897039D03*
X68001485Y46897039D03*
X67501486Y46897039D03*
X67001487Y46897039D03*
X66501488Y46897039D03*
X66001489Y46897039D03*
X65501489Y46897039D03*
X65001490Y46897039D03*
X64501491Y46897039D03*
X64001492Y46897039D03*
X63501493Y46897039D03*
X63001494Y46897039D03*
X63001494Y45037043D03*
X63501493Y45037043D03*
X64001492Y45037043D03*
X64501491Y45037043D03*
X65001490Y45037043D03*
X65501489Y45037043D03*
X66001489Y45037043D03*
X66501488Y45037043D03*
X67001487Y45037043D03*
X67501486Y45037043D03*
X68001485Y45037043D03*
X68501484Y45037043D03*
%TD*%
D24*
%TO.C,REF\u002A\u002A*%
X5999871Y5990377D03*
%TD*%
D18*
%TO.C,R38*%
X39002679Y60456307D03*
X39662679Y60456307D03*
%TD*%
D20*
%TO.C,R113*%
X236359871Y124130377D03*
X237274871Y124130377D03*
%TD*%
D18*
%TO.C,R23*%
X33923489Y155241117D03*
X34583489Y155241117D03*
%TD*%
%TO.C,R23*%
X241123489Y155241117D03*
X241783489Y155241117D03*
%TD*%
%TO.C,R35*%
X142602679Y69255193D03*
X143262679Y69255193D03*
%TD*%
%TO.C,R42*%
X147681871Y158132225D03*
X148341871Y158132225D03*
%TD*%
D30*
%TO.C,IC1*%
X157983489Y63907041D03*
X157983489Y63107041D03*
X157983489Y62307041D03*
X157983489Y61507041D03*
X157983489Y60707041D03*
X157983489Y59907041D03*
X157983489Y59107041D03*
X157983489Y58307041D03*
D31*
X159421489Y56869041D03*
X160221489Y56869041D03*
X161021489Y56869041D03*
X161821489Y56869041D03*
X162621489Y56869041D03*
X163421489Y56869041D03*
X164221489Y56869041D03*
X165021489Y56869041D03*
D30*
X166459489Y58307041D03*
X166459489Y59107041D03*
X166459489Y59907041D03*
X166459489Y60707041D03*
X166459489Y61507041D03*
X166459489Y62307041D03*
X166459489Y63107041D03*
X166459489Y63907041D03*
D31*
X165021489Y65345041D03*
X164221489Y65345041D03*
X163421489Y65345041D03*
X162621489Y65345041D03*
X161821489Y65345041D03*
X161021489Y65345041D03*
X160221489Y65345041D03*
X159421489Y65345041D03*
%TD*%
D18*
%TO.C,R8*%
X230965109Y60456307D03*
X231625109Y60456307D03*
%TD*%
D20*
%TO.C,R101*%
X230919871Y129970377D03*
X231834871Y129970377D03*
%TD*%
D19*
%TO.C,REF\u002A\u002A*%
X17399871Y105710377D03*
%TD*%
D18*
%TO.C,R20*%
X236044299Y54590377D03*
X236704299Y54590377D03*
%TD*%
D20*
%TO.C,R113*%
X29159871Y44010377D03*
X30074871Y44010377D03*
%TD*%
%TO.C,R117*%
X132759871Y32330377D03*
X133674871Y32330377D03*
%TD*%
D19*
%TO.C,REF\u002A\u002A*%
X224599871Y154400377D03*
%TD*%
D20*
%TO.C,R109*%
X230919871Y26490377D03*
X231834871Y26490377D03*
%TD*%
D19*
%TO.C,REF\u002A\u002A*%
X120999871Y23390377D03*
%TD*%
D18*
%TO.C,R16*%
X28844299Y66322231D03*
X29504299Y66322231D03*
%TD*%
D19*
%TO.C,REF\u002A\u002A*%
X17399871Y156600377D03*
%TD*%
D18*
%TO.C,R13*%
X132444299Y75121117D03*
X133104299Y75121117D03*
%TD*%
%TO.C,R39*%
X39002679Y57523345D03*
X39662679Y57523345D03*
%TD*%
%TO.C,R6*%
X127365109Y66322231D03*
X128025109Y66322231D03*
%TD*%
D20*
%TO.C,R121*%
X137809871Y129970377D03*
X138724871Y129970377D03*
%TD*%
D19*
%TO.C,REF\u002A\u002A*%
X224599871Y23390377D03*
%TD*%
%TO.C,REF\u002A\u002A*%
X110199871Y163380377D03*
%TD*%
D20*
%TO.C,R118*%
X29159871Y109530377D03*
X30074871Y109530377D03*
%TD*%
D24*
%TO.C,REF\u002A\u002A*%
X331799871Y5990377D03*
%TD*%
D20*
%TO.C,R111*%
X29159871Y129970377D03*
X30074871Y129970377D03*
%TD*%
D19*
%TO.C,REF\u002A\u002A*%
X29469871Y169830377D03*
%TD*%
D20*
%TO.C,R110*%
X127319871Y23570377D03*
X128234871Y23570377D03*
%TD*%
D18*
%TO.C,R44*%
X147681871Y72146301D03*
X148341871Y72146301D03*
%TD*%
D19*
%TO.C,REF\u002A\u002A*%
X120999871Y154400377D03*
%TD*%
%TO.C,REF\u002A\u002A*%
X219199871Y95110377D03*
%TD*%
D25*
%TO.C,J2*%
X268941497Y45967041D03*
D26*
X271201489Y48767041D03*
X271201489Y43167041D03*
X274701489Y48767041D03*
X274701489Y43167041D03*
D25*
X276961481Y45967041D03*
D27*
X275701484Y46897039D03*
X275201485Y46897039D03*
X274701486Y46897039D03*
X274201487Y46897039D03*
X273701488Y46897039D03*
X273201489Y46897039D03*
X272701489Y46897039D03*
X272201490Y46897039D03*
X271701491Y46897039D03*
X271201492Y46897039D03*
X270701493Y46897039D03*
X270201494Y46897039D03*
X270201494Y45037043D03*
X270701493Y45037043D03*
X271201492Y45037043D03*
X271701491Y45037043D03*
X272201490Y45037043D03*
X272701489Y45037043D03*
X273201489Y45037043D03*
X273701488Y45037043D03*
X274201487Y45037043D03*
X274701486Y45037043D03*
X275201485Y45037043D03*
X275701484Y45037043D03*
%TD*%
D20*
%TO.C,R105*%
X23719871Y38170377D03*
X24634871Y38170377D03*
%TD*%
%TO.C,R107*%
X230919871Y32330377D03*
X231834871Y32330377D03*
%TD*%
D19*
%TO.C,REF\u002A\u002A*%
X306049871Y17390377D03*
%TD*%
D20*
%TO.C,R102*%
X230919871Y46930377D03*
X231834871Y46930377D03*
%TD*%
D18*
%TO.C,R38*%
X142602679Y60456307D03*
X143262679Y60456307D03*
%TD*%
%TO.C,R40*%
X142602679Y54590377D03*
X143262679Y54590377D03*
%TD*%
D19*
%TO.C,REF\u002A\u002A*%
X308249871Y169830377D03*
%TD*%
D18*
%TO.C,R28*%
X137523489Y140576307D03*
X138183489Y140576307D03*
%TD*%
D20*
%TO.C,R120*%
X29159871Y103690377D03*
X30074871Y103690377D03*
%TD*%
D18*
%TO.C,R12*%
X132444299Y78054079D03*
X133104299Y78054079D03*
%TD*%
%TO.C,R39*%
X246202679Y137643345D03*
X246862679Y137643345D03*
%TD*%
%TO.C,R6*%
X23765109Y146442231D03*
X24425109Y146442231D03*
%TD*%
%TO.C,R41*%
X147681871Y80945187D03*
X148341871Y80945187D03*
%TD*%
%TO.C,R25*%
X241123489Y69255193D03*
X241783489Y69255193D03*
%TD*%
%TO.C,R34*%
X39002679Y72188155D03*
X39662679Y72188155D03*
%TD*%
%TO.C,R6*%
X127365109Y146442231D03*
X128025109Y146442231D03*
%TD*%
%TO.C,R5*%
X127365109Y69255193D03*
X128025109Y69255193D03*
%TD*%
D19*
%TO.C,REF\u002A\u002A*%
X306049871Y169830377D03*
%TD*%
D18*
%TO.C,R6*%
X230965109Y146442231D03*
X231625109Y146442231D03*
%TD*%
%TO.C,R18*%
X132444299Y140576307D03*
X133104299Y140576307D03*
%TD*%
D24*
%TO.C,REF\u002A\u002A*%
X331799871Y181230377D03*
%TD*%
D20*
%TO.C,R115*%
X29159871Y38170377D03*
X30074871Y38170377D03*
%TD*%
D18*
%TO.C,R45*%
X147681871Y149333339D03*
X148341871Y149333339D03*
%TD*%
%TO.C,R18*%
X236044299Y140576307D03*
X236704299Y140576307D03*
%TD*%
%TO.C,R42*%
X251281871Y78012225D03*
X251941871Y78012225D03*
%TD*%
%TO.C,R9*%
X23765109Y57523345D03*
X24425109Y57523345D03*
%TD*%
%TO.C,R10*%
X127365109Y54590377D03*
X128025109Y54590377D03*
%TD*%
D20*
%TO.C,R101*%
X127319871Y129970377D03*
X128234871Y129970377D03*
%TD*%
D19*
%TO.C,REF\u002A\u002A*%
X133069871Y169830377D03*
%TD*%
D18*
%TO.C,R50*%
X44081871Y54548523D03*
X44741871Y54548523D03*
%TD*%
D17*
%TO.C,SW1*%
X148466495Y127705069D03*
X155216482Y127705069D03*
X148466495Y123705077D03*
X155216482Y123705077D03*
%TD*%
D18*
%TO.C,R10*%
X230965109Y134710377D03*
X231625109Y134710377D03*
%TD*%
%TO.C,R21*%
X137523489Y161107041D03*
X138183489Y161107041D03*
%TD*%
D19*
%TO.C,REF\u002A\u002A*%
X27269871Y89710377D03*
%TD*%
D20*
%TO.C,R122*%
X137806633Y127050377D03*
X138721633Y127050377D03*
%TD*%
%TO.C,R125*%
X137806633Y38170377D03*
X138721633Y38170377D03*
%TD*%
D17*
%TO.C,SW1*%
X44866495Y127705069D03*
X51616482Y127705069D03*
X44866495Y123705077D03*
X51616482Y123705077D03*
%TD*%
D18*
%TO.C,R1*%
X230965109Y161107041D03*
X231625109Y161107041D03*
%TD*%
D20*
%TO.C,R119*%
X236359871Y26490377D03*
X237274871Y26490377D03*
%TD*%
D18*
%TO.C,R1*%
X230965109Y80987041D03*
X231625109Y80987041D03*
%TD*%
D19*
%TO.C,REF\u002A\u002A*%
X224599871Y25590377D03*
%TD*%
D18*
%TO.C,R22*%
X33923489Y78054079D03*
X34583489Y78054079D03*
%TD*%
D20*
%TO.C,R117*%
X236359871Y32330377D03*
X237274871Y32330377D03*
%TD*%
D18*
%TO.C,R32*%
X142602679Y158174079D03*
X143262679Y158174079D03*
%TD*%
D20*
%TO.C,R115*%
X236359871Y38170377D03*
X237274871Y38170377D03*
%TD*%
D19*
%TO.C,REF\u002A\u002A*%
X120999871Y74280377D03*
%TD*%
D18*
%TO.C,R23*%
X241123489Y75121117D03*
X241783489Y75121117D03*
%TD*%
D20*
%TO.C,R113*%
X132759871Y44010377D03*
X133674871Y44010377D03*
%TD*%
D18*
%TO.C,R43*%
X147681871Y155199263D03*
X148341871Y155199263D03*
%TD*%
%TO.C,R49*%
X251281871Y57481491D03*
X251941871Y57481491D03*
%TD*%
%TO.C,R1*%
X23765109Y80987041D03*
X24425109Y80987041D03*
%TD*%
D20*
%TO.C,R105*%
X23719871Y118290377D03*
X24634871Y118290377D03*
%TD*%
D18*
%TO.C,R35*%
X246202679Y69255193D03*
X246862679Y69255193D03*
%TD*%
D28*
%TO.C,TAB1*%
X285214889Y76450377D03*
X285214889Y73410377D03*
X285214889Y70380377D03*
X285214889Y67380377D03*
X285214889Y64510377D03*
D29*
X286879889Y76450377D03*
X286879889Y73410377D03*
X286879889Y70380377D03*
X286879889Y67380377D03*
X286879889Y64510377D03*
X288679889Y76450377D03*
X288679889Y73410377D03*
X288679889Y70380377D03*
X288679889Y67380377D03*
X288679889Y64510377D03*
D28*
X290344889Y76450377D03*
X290344889Y73410377D03*
X290344889Y70380377D03*
X290344889Y67380377D03*
X290344889Y64510377D03*
%TD*%
D19*
%TO.C,REF\u002A\u002A*%
X115599871Y169830377D03*
%TD*%
D28*
%TO.C,TAB1*%
X181614889Y76450377D03*
X181614889Y73410377D03*
X181614889Y70380377D03*
X181614889Y67380377D03*
X181614889Y64510377D03*
D29*
X183279889Y76450377D03*
X183279889Y73410377D03*
X183279889Y70380377D03*
X183279889Y67380377D03*
X183279889Y64510377D03*
X185079889Y76450377D03*
X185079889Y73410377D03*
X185079889Y70380377D03*
X185079889Y67380377D03*
X185079889Y64510377D03*
D28*
X186744889Y76450377D03*
X186744889Y73410377D03*
X186744889Y70380377D03*
X186744889Y67380377D03*
X186744889Y64510377D03*
%TD*%
D18*
%TO.C,R5*%
X127365109Y149375193D03*
X128025109Y149375193D03*
%TD*%
D20*
%TO.C,R108*%
X230919871Y29410377D03*
X231834871Y29410377D03*
%TD*%
D18*
%TO.C,R40*%
X246202679Y134710377D03*
X246862679Y134710377D03*
%TD*%
%TO.C,R1*%
X127365109Y80987041D03*
X128025109Y80987041D03*
%TD*%
%TO.C,R28*%
X241123489Y60456307D03*
X241783489Y60456307D03*
%TD*%
%TO.C,R19*%
X28844299Y137643345D03*
X29504299Y137643345D03*
%TD*%
D19*
%TO.C,REF\u002A\u002A*%
X130869871Y17390377D03*
%TD*%
D18*
%TO.C,R38*%
X246202679Y60456307D03*
X246862679Y60456307D03*
%TD*%
%TO.C,R29*%
X241123489Y57523345D03*
X241783489Y57523345D03*
%TD*%
D20*
%TO.C,R124*%
X241406633Y41090377D03*
X242321633Y41090377D03*
%TD*%
D30*
%TO.C,IC1*%
X261583489Y144027041D03*
X261583489Y143227041D03*
X261583489Y142427041D03*
X261583489Y141627041D03*
X261583489Y140827041D03*
X261583489Y140027041D03*
X261583489Y139227041D03*
X261583489Y138427041D03*
D31*
X263021489Y136989041D03*
X263821489Y136989041D03*
X264621489Y136989041D03*
X265421489Y136989041D03*
X266221489Y136989041D03*
X267021489Y136989041D03*
X267821489Y136989041D03*
X268621489Y136989041D03*
D30*
X270059489Y138427041D03*
X270059489Y139227041D03*
X270059489Y140027041D03*
X270059489Y140827041D03*
X270059489Y141627041D03*
X270059489Y142427041D03*
X270059489Y143227041D03*
X270059489Y144027041D03*
D31*
X268621489Y145465041D03*
X267821489Y145465041D03*
X267021489Y145465041D03*
X266221489Y145465041D03*
X265421489Y145465041D03*
X264621489Y145465041D03*
X263821489Y145465041D03*
X263021489Y145465041D03*
%TD*%
D18*
%TO.C,R4*%
X23765109Y72188155D03*
X24425109Y72188155D03*
%TD*%
D20*
%TO.C,R120*%
X132759871Y23570377D03*
X133674871Y23570377D03*
%TD*%
D18*
%TO.C,R46*%
X251281871Y66280377D03*
X251941871Y66280377D03*
%TD*%
D20*
%TO.C,R123*%
X137806633Y124130377D03*
X138721633Y124130377D03*
%TD*%
D19*
%TO.C,REF\u002A\u002A*%
X236669871Y17390377D03*
%TD*%
%TO.C,REF\u002A\u002A*%
X29469871Y97510377D03*
%TD*%
D20*
%TO.C,R106*%
X23719871Y35250377D03*
X24634871Y35250377D03*
%TD*%
D18*
%TO.C,R33*%
X142602679Y75121117D03*
X143262679Y75121117D03*
%TD*%
D19*
%TO.C,REF\u002A\u002A*%
X115599871Y17390377D03*
%TD*%
%TO.C,REF\u002A\u002A*%
X320399871Y92110377D03*
%TD*%
D18*
%TO.C,R11*%
X28844299Y161107041D03*
X29504299Y161107041D03*
%TD*%
D20*
%TO.C,R111*%
X236359871Y129970377D03*
X237274871Y129970377D03*
%TD*%
%TO.C,R109*%
X23719871Y26490377D03*
X24634871Y26490377D03*
%TD*%
D18*
%TO.C,R17*%
X236044299Y63389269D03*
X236704299Y63389269D03*
%TD*%
%TO.C,R5*%
X23765109Y149375193D03*
X24425109Y149375193D03*
%TD*%
%TO.C,R27*%
X137523489Y143509269D03*
X138183489Y143509269D03*
%TD*%
%TO.C,R48*%
X44081871Y140534453D03*
X44741871Y140534453D03*
%TD*%
D20*
%TO.C,R123*%
X137806633Y44010377D03*
X138721633Y44010377D03*
%TD*%
D18*
%TO.C,R42*%
X44081871Y158132225D03*
X44741871Y158132225D03*
%TD*%
%TO.C,R41*%
X147681871Y161065187D03*
X148341871Y161065187D03*
%TD*%
D21*
%TO.C,J1*%
X270291489Y80939541D03*
X277491489Y80939541D03*
D22*
X271141489Y81599541D03*
X271641489Y81599541D03*
X272141489Y81599541D03*
X272641489Y81599541D03*
X273141489Y81599541D03*
X273641489Y81599541D03*
X274141489Y81599541D03*
X274641489Y81599541D03*
X275141489Y81599541D03*
X275641489Y81599541D03*
X276141489Y81599541D03*
X276641489Y81599541D03*
X276391489Y79899541D03*
X275891489Y79899541D03*
X275391489Y79899541D03*
X274891489Y79899541D03*
X274391489Y79899541D03*
X273891489Y79899541D03*
X273391489Y79899541D03*
X272891489Y79899541D03*
X272391489Y79899541D03*
X271891489Y79899541D03*
X271391489Y79899541D03*
X270891489Y79899541D03*
D23*
X269761489Y79689541D03*
X278021489Y79689541D03*
X278381489Y73739541D03*
X269401489Y73739541D03*
%TD*%
D18*
%TO.C,R16*%
X236044299Y66322231D03*
X236704299Y66322231D03*
%TD*%
%TO.C,R15*%
X236044299Y149375193D03*
X236704299Y149375193D03*
%TD*%
D20*
%TO.C,R121*%
X241409871Y129970377D03*
X242324871Y129970377D03*
%TD*%
%TO.C,R105*%
X127319871Y118290377D03*
X128234871Y118290377D03*
%TD*%
D18*
%TO.C,R28*%
X137523489Y60456307D03*
X138183489Y60456307D03*
%TD*%
D20*
%TO.C,R102*%
X127319871Y46930377D03*
X128234871Y46930377D03*
%TD*%
D32*
%TO.C,IC2*%
X155151495Y84267039D03*
X156151493Y84267039D03*
X157151491Y84267039D03*
X158151489Y84267039D03*
X154151497Y83267041D03*
X155151495Y83267041D03*
X156151493Y83267041D03*
X157151491Y83267041D03*
X158151489Y83267041D03*
X154151497Y82267043D03*
X155151495Y82267043D03*
X156151493Y82267043D03*
X157151491Y82267043D03*
X158151489Y82267043D03*
X154151497Y81267045D03*
X155151495Y81267045D03*
X156151493Y81267045D03*
X157151491Y81267045D03*
X158151489Y81267045D03*
X154151497Y80267047D03*
X155151495Y80267047D03*
X156151493Y80267047D03*
X157151491Y80267047D03*
X158151489Y80267047D03*
%TD*%
D18*
%TO.C,R47*%
X147681871Y63347415D03*
X148341871Y63347415D03*
%TD*%
D19*
%TO.C,REF\u002A\u002A*%
X29469871Y89710377D03*
%TD*%
D18*
%TO.C,R35*%
X142602679Y149375193D03*
X143262679Y149375193D03*
%TD*%
%TO.C,R8*%
X23765109Y140576307D03*
X24425109Y140576307D03*
%TD*%
D19*
%TO.C,REF\u002A\u002A*%
X236669871Y169830377D03*
%TD*%
D18*
%TO.C,R3*%
X23765109Y75121117D03*
X24425109Y75121117D03*
%TD*%
D19*
%TO.C,REF\u002A\u002A*%
X110199871Y101560377D03*
%TD*%
D20*
%TO.C,R121*%
X137809871Y49850377D03*
X138724871Y49850377D03*
%TD*%
%TO.C,R113*%
X236359871Y44010377D03*
X237274871Y44010377D03*
%TD*%
D18*
%TO.C,R24*%
X33923489Y72188155D03*
X34583489Y72188155D03*
%TD*%
%TO.C,R37*%
X246202679Y63389269D03*
X246862679Y63389269D03*
%TD*%
D20*
%TO.C,R103*%
X230919871Y44010377D03*
X231834871Y44010377D03*
%TD*%
D18*
%TO.C,R35*%
X246202679Y149375193D03*
X246862679Y149375193D03*
%TD*%
%TO.C,R11*%
X236044299Y161107041D03*
X236704299Y161107041D03*
%TD*%
%TO.C,R1*%
X23765109Y161107041D03*
X24425109Y161107041D03*
%TD*%
D19*
%TO.C,REF\u002A\u002A*%
X308249871Y97510377D03*
%TD*%
D18*
%TO.C,R27*%
X137523489Y63389269D03*
X138183489Y63389269D03*
%TD*%
D20*
%TO.C,R114*%
X236359871Y41090377D03*
X237274871Y41090377D03*
%TD*%
D18*
%TO.C,R41*%
X251281871Y80945187D03*
X251941871Y80945187D03*
%TD*%
D19*
%TO.C,REF\u002A\u002A*%
X202449871Y17390377D03*
%TD*%
D18*
%TO.C,R26*%
X33923489Y146442231D03*
X34583489Y146442231D03*
%TD*%
%TO.C,R49*%
X147681871Y57481491D03*
X148341871Y57481491D03*
%TD*%
D21*
%TO.C,J1*%
X63091489Y161059541D03*
X70291489Y161059541D03*
D22*
X63941489Y161719541D03*
X64441489Y161719541D03*
X64941489Y161719541D03*
X65441489Y161719541D03*
X65941489Y161719541D03*
X66441489Y161719541D03*
X66941489Y161719541D03*
X67441489Y161719541D03*
X67941489Y161719541D03*
X68441489Y161719541D03*
X68941489Y161719541D03*
X69441489Y161719541D03*
X69191489Y160019541D03*
X68691489Y160019541D03*
X68191489Y160019541D03*
X67691489Y160019541D03*
X67191489Y160019541D03*
X66691489Y160019541D03*
X66191489Y160019541D03*
X65691489Y160019541D03*
X65191489Y160019541D03*
X64691489Y160019541D03*
X64191489Y160019541D03*
X63691489Y160019541D03*
D23*
X62561489Y159809541D03*
X70821489Y159809541D03*
X71181489Y153859541D03*
X62201489Y153859541D03*
%TD*%
D19*
%TO.C,REF\u002A\u002A*%
X213799871Y101560377D03*
%TD*%
%TO.C,REF\u002A\u002A*%
X308249871Y17390377D03*
%TD*%
D20*
%TO.C,R122*%
X241406633Y127050377D03*
X242321633Y127050377D03*
%TD*%
D18*
%TO.C,R27*%
X33923489Y63389269D03*
X34583489Y63389269D03*
%TD*%
%TO.C,R19*%
X236044299Y57523345D03*
X236704299Y57523345D03*
%TD*%
%TO.C,R33*%
X39002679Y75121117D03*
X39662679Y75121117D03*
%TD*%
%TO.C,R46*%
X44081871Y146400377D03*
X44741871Y146400377D03*
%TD*%
%TO.C,R8*%
X127365109Y140576307D03*
X128025109Y140576307D03*
%TD*%
%TO.C,R48*%
X44081871Y60414453D03*
X44741871Y60414453D03*
%TD*%
D19*
%TO.C,REF\u002A\u002A*%
X130869871Y169830377D03*
%TD*%
D18*
%TO.C,R31*%
X246202679Y80987041D03*
X246862679Y80987041D03*
%TD*%
D20*
%TO.C,R110*%
X127319871Y103690377D03*
X128234871Y103690377D03*
%TD*%
%TO.C,R125*%
X241406633Y118290377D03*
X242321633Y118290377D03*
%TD*%
%TO.C,R108*%
X230919871Y109530377D03*
X231834871Y109530377D03*
%TD*%
D18*
%TO.C,R39*%
X246202679Y57523345D03*
X246862679Y57523345D03*
%TD*%
%TO.C,R4*%
X127365109Y152308155D03*
X128025109Y152308155D03*
%TD*%
%TO.C,R17*%
X28844299Y63389269D03*
X29504299Y63389269D03*
%TD*%
D20*
%TO.C,R107*%
X23719871Y32330377D03*
X24634871Y32330377D03*
%TD*%
%TO.C,R123*%
X34206633Y44010377D03*
X35121633Y44010377D03*
%TD*%
D18*
%TO.C,R13*%
X132444299Y155241117D03*
X133104299Y155241117D03*
%TD*%
%TO.C,R24*%
X241123489Y152308155D03*
X241783489Y152308155D03*
%TD*%
%TO.C,R36*%
X39002679Y146442231D03*
X39662679Y146442231D03*
%TD*%
%TO.C,R19*%
X236044299Y137643345D03*
X236704299Y137643345D03*
%TD*%
%TO.C,R14*%
X236044299Y152308155D03*
X236704299Y152308155D03*
%TD*%
D20*
%TO.C,R116*%
X236359871Y115370377D03*
X237274871Y115370377D03*
%TD*%
D18*
%TO.C,R16*%
X132444299Y66322231D03*
X133104299Y66322231D03*
%TD*%
D20*
%TO.C,R106*%
X127319871Y35250377D03*
X128234871Y35250377D03*
%TD*%
D17*
%TO.C,SW1*%
X44866495Y47585069D03*
X51616482Y47585069D03*
X44866495Y43585077D03*
X51616482Y43585077D03*
%TD*%
D19*
%TO.C,REF\u002A\u002A*%
X98849871Y17390377D03*
%TD*%
D18*
%TO.C,R43*%
X44081871Y155199263D03*
X44741871Y155199263D03*
%TD*%
%TO.C,R1*%
X23765109Y161107041D03*
X24425109Y161107041D03*
%TD*%
%TO.C,R50*%
X251281871Y134668523D03*
X251941871Y134668523D03*
%TD*%
D19*
%TO.C,REF\u002A\u002A*%
X317399871Y101560377D03*
%TD*%
D20*
%TO.C,R116*%
X29159871Y35250377D03*
X30074871Y35250377D03*
%TD*%
D18*
%TO.C,R37*%
X39002679Y143509269D03*
X39662679Y143509269D03*
%TD*%
%TO.C,R42*%
X251281871Y158132225D03*
X251941871Y158132225D03*
%TD*%
%TO.C,R50*%
X251281871Y54548523D03*
X251941871Y54548523D03*
%TD*%
%TO.C,R47*%
X251281871Y63347415D03*
X251941871Y63347415D03*
%TD*%
%TO.C,R28*%
X33923489Y60456307D03*
X34583489Y60456307D03*
%TD*%
%TO.C,R34*%
X246202679Y152308155D03*
X246862679Y152308155D03*
%TD*%
D19*
%TO.C,REF\u002A\u002A*%
X118599871Y169830377D03*
%TD*%
D20*
%TO.C,R120*%
X29159871Y23570377D03*
X30074871Y23570377D03*
%TD*%
%TO.C,R120*%
X236359871Y103690377D03*
X237274871Y103690377D03*
%TD*%
D18*
%TO.C,R7*%
X230965109Y63389269D03*
X231625109Y63389269D03*
%TD*%
D19*
%TO.C,REF\u002A\u002A*%
X317399871Y103760377D03*
%TD*%
D18*
%TO.C,R29*%
X33923489Y57523345D03*
X34583489Y57523345D03*
%TD*%
%TO.C,R36*%
X39002679Y66322231D03*
X39662679Y66322231D03*
%TD*%
D19*
%TO.C,REF\u002A\u002A*%
X120999871Y103510377D03*
%TD*%
D20*
%TO.C,R117*%
X29159871Y32330377D03*
X30074871Y32330377D03*
%TD*%
D18*
%TO.C,R14*%
X28844299Y152308155D03*
X29504299Y152308155D03*
%TD*%
D19*
%TO.C,REF\u002A\u002A*%
X29469871Y17390377D03*
%TD*%
D18*
%TO.C,R22*%
X137523489Y158174079D03*
X138183489Y158174079D03*
%TD*%
D32*
%TO.C,IC2*%
X155151495Y164387039D03*
X156151493Y164387039D03*
X157151491Y164387039D03*
X158151489Y164387039D03*
X154151497Y163387041D03*
X155151495Y163387041D03*
X156151493Y163387041D03*
X157151491Y163387041D03*
X158151489Y163387041D03*
X154151497Y162387043D03*
X155151495Y162387043D03*
X156151493Y162387043D03*
X157151491Y162387043D03*
X158151489Y162387043D03*
X154151497Y161387045D03*
X155151495Y161387045D03*
X156151493Y161387045D03*
X157151491Y161387045D03*
X158151489Y161387045D03*
X154151497Y160387047D03*
X155151495Y160387047D03*
X156151493Y160387047D03*
X157151491Y160387047D03*
X158151489Y160387047D03*
%TD*%
D18*
%TO.C,R49*%
X147681871Y137601491D03*
X148341871Y137601491D03*
%TD*%
D19*
%TO.C,REF\u002A\u002A*%
X110199871Y83260377D03*
%TD*%
%TO.C,REF\u002A\u002A*%
X204649871Y17390377D03*
%TD*%
D18*
%TO.C,R21*%
X33923489Y161107041D03*
X34583489Y161107041D03*
%TD*%
%TO.C,R32*%
X246202679Y158174079D03*
X246862679Y158174079D03*
%TD*%
D20*
%TO.C,R116*%
X132759871Y35250377D03*
X133674871Y35250377D03*
%TD*%
D19*
%TO.C,REF\u002A\u002A*%
X110199871Y85460377D03*
%TD*%
D18*
%TO.C,R1*%
X230965109Y161107041D03*
X231625109Y161107041D03*
%TD*%
%TO.C,R47*%
X44081871Y143467415D03*
X44741871Y143467415D03*
%TD*%
%TO.C,R47*%
X251281871Y143467415D03*
X251941871Y143467415D03*
%TD*%
D20*
%TO.C,R119*%
X236359871Y106610377D03*
X237274871Y106610377D03*
%TD*%
D19*
%TO.C,REF\u002A\u002A*%
X234469871Y97510377D03*
%TD*%
D18*
%TO.C,R14*%
X236044299Y72188155D03*
X236704299Y72188155D03*
%TD*%
D19*
%TO.C,REF\u002A\u002A*%
X130869871Y97510377D03*
%TD*%
D18*
%TO.C,R2*%
X23765109Y78054079D03*
X24425109Y78054079D03*
%TD*%
%TO.C,R46*%
X147681871Y66280377D03*
X148341871Y66280377D03*
%TD*%
%TO.C,R46*%
X251281871Y146400377D03*
X251941871Y146400377D03*
%TD*%
%TO.C,R10*%
X23765109Y134710377D03*
X24425109Y134710377D03*
%TD*%
%TO.C,R1*%
X127365109Y80987041D03*
X128025109Y80987041D03*
%TD*%
D20*
%TO.C,R102*%
X230919871Y127050377D03*
X231834871Y127050377D03*
%TD*%
%TO.C,R106*%
X230919871Y115370377D03*
X231834871Y115370377D03*
%TD*%
D18*
%TO.C,R40*%
X39002679Y134710377D03*
X39662679Y134710377D03*
%TD*%
D19*
%TO.C,REF\u002A\u002A*%
X110199871Y103760377D03*
%TD*%
D18*
%TO.C,R14*%
X132444299Y72188155D03*
X133104299Y72188155D03*
%TD*%
%TO.C,R5*%
X23765109Y69255193D03*
X24425109Y69255193D03*
%TD*%
%TO.C,R47*%
X147681871Y143467415D03*
X148341871Y143467415D03*
%TD*%
%TO.C,R39*%
X142602679Y137643345D03*
X143262679Y137643345D03*
%TD*%
D25*
%TO.C,J2*%
X165341497Y45967041D03*
D26*
X167601489Y48767041D03*
X167601489Y43167041D03*
X171101489Y48767041D03*
X171101489Y43167041D03*
D25*
X173361481Y45967041D03*
D27*
X172101484Y46897039D03*
X171601485Y46897039D03*
X171101486Y46897039D03*
X170601487Y46897039D03*
X170101488Y46897039D03*
X169601489Y46897039D03*
X169101489Y46897039D03*
X168601490Y46897039D03*
X168101491Y46897039D03*
X167601492Y46897039D03*
X167101493Y46897039D03*
X166601494Y46897039D03*
X166601494Y45037043D03*
X167101493Y45037043D03*
X167601492Y45037043D03*
X168101491Y45037043D03*
X168601490Y45037043D03*
X169101489Y45037043D03*
X169601489Y45037043D03*
X170101488Y45037043D03*
X170601487Y45037043D03*
X171101486Y45037043D03*
X171601485Y45037043D03*
X172101484Y45037043D03*
%TD*%
D19*
%TO.C,REF\u002A\u002A*%
X115599871Y95110377D03*
%TD*%
D28*
%TO.C,TAB1*%
X181614889Y156570377D03*
X181614889Y153530377D03*
X181614889Y150500377D03*
X181614889Y147500377D03*
X181614889Y144630377D03*
D29*
X183279889Y156570377D03*
X183279889Y153530377D03*
X183279889Y150500377D03*
X183279889Y147500377D03*
X183279889Y144630377D03*
X185079889Y156570377D03*
X185079889Y153530377D03*
X185079889Y150500377D03*
X185079889Y147500377D03*
X185079889Y144630377D03*
D28*
X186744889Y156570377D03*
X186744889Y153530377D03*
X186744889Y150500377D03*
X186744889Y147500377D03*
X186744889Y144630377D03*
%TD*%
D18*
%TO.C,R39*%
X142602679Y57523345D03*
X143262679Y57523345D03*
%TD*%
D20*
%TO.C,R102*%
X23719871Y127050377D03*
X24634871Y127050377D03*
%TD*%
%TO.C,R105*%
X230919871Y118290377D03*
X231834871Y118290377D03*
%TD*%
D18*
%TO.C,R45*%
X251281871Y69213339D03*
X251941871Y69213339D03*
%TD*%
D19*
%TO.C,REF\u002A\u002A*%
X133069871Y89710377D03*
%TD*%
%TO.C,REF\u002A\u002A*%
X222199871Y92110377D03*
%TD*%
D20*
%TO.C,R107*%
X127319871Y32330377D03*
X128234871Y32330377D03*
%TD*%
D18*
%TO.C,R22*%
X241123489Y78054079D03*
X241783489Y78054079D03*
%TD*%
%TO.C,R5*%
X230965109Y149375193D03*
X231625109Y149375193D03*
%TD*%
D20*
%TO.C,R115*%
X132759871Y38170377D03*
X133674871Y38170377D03*
%TD*%
D18*
%TO.C,R31*%
X142602679Y80987041D03*
X143262679Y80987041D03*
%TD*%
D19*
%TO.C,REF\u002A\u002A*%
X17399871Y154400377D03*
%TD*%
D18*
%TO.C,R15*%
X28844299Y69255193D03*
X29504299Y69255193D03*
%TD*%
%TO.C,R1*%
X23765109Y80987041D03*
X24425109Y80987041D03*
%TD*%
D20*
%TO.C,R123*%
X241406633Y44010377D03*
X242321633Y44010377D03*
%TD*%
D28*
%TO.C,TAB1*%
X78014889Y156570377D03*
X78014889Y153530377D03*
X78014889Y150500377D03*
X78014889Y147500377D03*
X78014889Y144630377D03*
D29*
X79679889Y156570377D03*
X79679889Y153530377D03*
X79679889Y150500377D03*
X79679889Y147500377D03*
X79679889Y144630377D03*
X81479889Y156570377D03*
X81479889Y153530377D03*
X81479889Y150500377D03*
X81479889Y147500377D03*
X81479889Y144630377D03*
D28*
X83144889Y156570377D03*
X83144889Y153530377D03*
X83144889Y150500377D03*
X83144889Y147500377D03*
X83144889Y144630377D03*
%TD*%
D18*
%TO.C,R25*%
X241123489Y149375193D03*
X241783489Y149375193D03*
%TD*%
%TO.C,R37*%
X142602679Y63389269D03*
X143262679Y63389269D03*
%TD*%
%TO.C,R48*%
X251281871Y140534453D03*
X251941871Y140534453D03*
%TD*%
%TO.C,R7*%
X230965109Y143509269D03*
X231625109Y143509269D03*
%TD*%
D19*
%TO.C,REF\u002A\u002A*%
X219199871Y92110377D03*
%TD*%
D18*
%TO.C,R36*%
X246202679Y66322231D03*
X246862679Y66322231D03*
%TD*%
%TO.C,R40*%
X39002679Y54590377D03*
X39662679Y54590377D03*
%TD*%
%TO.C,R44*%
X44081871Y152266301D03*
X44741871Y152266301D03*
%TD*%
D19*
%TO.C,REF\u002A\u002A*%
X17399871Y76480377D03*
%TD*%
D18*
%TO.C,R37*%
X142602679Y143509269D03*
X143262679Y143509269D03*
%TD*%
D19*
%TO.C,REF\u002A\u002A*%
X234469871Y169830377D03*
%TD*%
%TO.C,REF\u002A\u002A*%
X118599871Y92110377D03*
%TD*%
D20*
%TO.C,R124*%
X34206633Y121210377D03*
X35121633Y121210377D03*
%TD*%
D18*
%TO.C,R17*%
X132444299Y63389269D03*
X133104299Y63389269D03*
%TD*%
D20*
%TO.C,R122*%
X34206633Y127050377D03*
X35121633Y127050377D03*
%TD*%
%TO.C,R101*%
X127319871Y49850377D03*
X128234871Y49850377D03*
%TD*%
D19*
%TO.C,REF\u002A\u002A*%
X101049871Y169830377D03*
%TD*%
D18*
%TO.C,R47*%
X44081871Y63347415D03*
X44741871Y63347415D03*
%TD*%
%TO.C,R24*%
X33923489Y152308155D03*
X34583489Y152308155D03*
%TD*%
D20*
%TO.C,R110*%
X230919871Y23570377D03*
X231834871Y23570377D03*
%TD*%
D18*
%TO.C,R25*%
X33923489Y69255193D03*
X34583489Y69255193D03*
%TD*%
%TO.C,R42*%
X44081871Y78012225D03*
X44741871Y78012225D03*
%TD*%
%TO.C,R29*%
X241123489Y137643345D03*
X241783489Y137643345D03*
%TD*%
D32*
%TO.C,IC2*%
X258751495Y164387039D03*
X259751493Y164387039D03*
X260751491Y164387039D03*
X261751489Y164387039D03*
X257751497Y163387041D03*
X258751495Y163387041D03*
X259751493Y163387041D03*
X260751491Y163387041D03*
X261751489Y163387041D03*
X257751497Y162387043D03*
X258751495Y162387043D03*
X259751493Y162387043D03*
X260751491Y162387043D03*
X261751489Y162387043D03*
X257751497Y161387045D03*
X258751495Y161387045D03*
X259751493Y161387045D03*
X260751491Y161387045D03*
X261751489Y161387045D03*
X257751497Y160387047D03*
X258751495Y160387047D03*
X259751493Y160387047D03*
X260751491Y160387047D03*
X261751489Y160387047D03*
%TD*%
D18*
%TO.C,R19*%
X28844299Y57523345D03*
X29504299Y57523345D03*
%TD*%
D20*
%TO.C,R112*%
X132759871Y46930377D03*
X133674871Y46930377D03*
%TD*%
%TO.C,R108*%
X127319871Y109530377D03*
X128234871Y109530377D03*
%TD*%
D19*
%TO.C,REF\u002A\u002A*%
X118599871Y92110377D03*
%TD*%
D18*
%TO.C,R50*%
X44081871Y134668523D03*
X44741871Y134668523D03*
%TD*%
%TO.C,R2*%
X23765109Y158174079D03*
X24425109Y158174079D03*
%TD*%
D20*
%TO.C,R107*%
X127319871Y112450377D03*
X128234871Y112450377D03*
%TD*%
D18*
%TO.C,R44*%
X251281871Y152266301D03*
X251941871Y152266301D03*
%TD*%
D20*
%TO.C,R121*%
X241409871Y49850377D03*
X242324871Y49850377D03*
%TD*%
D18*
%TO.C,R35*%
X39002679Y69255193D03*
X39662679Y69255193D03*
%TD*%
%TO.C,R30*%
X137523489Y134710377D03*
X138183489Y134710377D03*
%TD*%
D20*
%TO.C,R120*%
X132759871Y103690377D03*
X133674871Y103690377D03*
%TD*%
%TO.C,R118*%
X29159871Y29410377D03*
X30074871Y29410377D03*
%TD*%
D18*
%TO.C,R15*%
X132444299Y149375193D03*
X133104299Y149375193D03*
%TD*%
%TO.C,R43*%
X44081871Y75079263D03*
X44741871Y75079263D03*
%TD*%
D19*
%TO.C,REF\u002A\u002A*%
X120999871Y105710377D03*
%TD*%
%TO.C,REF\u002A\u002A*%
X27269871Y17390377D03*
%TD*%
D20*
%TO.C,R106*%
X127319871Y115370377D03*
X128234871Y115370377D03*
%TD*%
D19*
%TO.C,REF\u002A\u002A*%
X17399871Y95110377D03*
%TD*%
D20*
%TO.C,R106*%
X23719871Y115370377D03*
X24634871Y115370377D03*
%TD*%
D18*
%TO.C,R33*%
X246202679Y75121117D03*
X246862679Y75121117D03*
%TD*%
%TO.C,R11*%
X28844299Y80987041D03*
X29504299Y80987041D03*
%TD*%
%TO.C,R30*%
X241123489Y134710377D03*
X241783489Y134710377D03*
%TD*%
%TO.C,R44*%
X251281871Y72146301D03*
X251941871Y72146301D03*
%TD*%
D20*
%TO.C,R111*%
X236359871Y49850377D03*
X237274871Y49850377D03*
%TD*%
D19*
%TO.C,REF\u002A\u002A*%
X110199871Y21440377D03*
%TD*%
D18*
%TO.C,R4*%
X127365109Y72188155D03*
X128025109Y72188155D03*
%TD*%
D19*
%TO.C,REF\u002A\u002A*%
X317399871Y21440377D03*
%TD*%
D28*
%TO.C,TAB1*%
X285214889Y156570377D03*
X285214889Y153530377D03*
X285214889Y150500377D03*
X285214889Y147500377D03*
X285214889Y144630377D03*
D29*
X286879889Y156570377D03*
X286879889Y153530377D03*
X286879889Y150500377D03*
X286879889Y147500377D03*
X286879889Y144630377D03*
X288679889Y156570377D03*
X288679889Y153530377D03*
X288679889Y150500377D03*
X288679889Y147500377D03*
X288679889Y144630377D03*
D28*
X290344889Y156570377D03*
X290344889Y153530377D03*
X290344889Y150500377D03*
X290344889Y147500377D03*
X290344889Y144630377D03*
%TD*%
D18*
%TO.C,R27*%
X33923489Y143509269D03*
X34583489Y143509269D03*
%TD*%
%TO.C,R26*%
X33923489Y66322231D03*
X34583489Y66322231D03*
%TD*%
D30*
%TO.C,IC1*%
X157983489Y144027041D03*
X157983489Y143227041D03*
X157983489Y142427041D03*
X157983489Y141627041D03*
X157983489Y140827041D03*
X157983489Y140027041D03*
X157983489Y139227041D03*
X157983489Y138427041D03*
D31*
X159421489Y136989041D03*
X160221489Y136989041D03*
X161021489Y136989041D03*
X161821489Y136989041D03*
X162621489Y136989041D03*
X163421489Y136989041D03*
X164221489Y136989041D03*
X165021489Y136989041D03*
D30*
X166459489Y138427041D03*
X166459489Y139227041D03*
X166459489Y140027041D03*
X166459489Y140827041D03*
X166459489Y141627041D03*
X166459489Y142427041D03*
X166459489Y143227041D03*
X166459489Y144027041D03*
D31*
X165021489Y145465041D03*
X164221489Y145465041D03*
X163421489Y145465041D03*
X162621489Y145465041D03*
X161821489Y145465041D03*
X161021489Y145465041D03*
X160221489Y145465041D03*
X159421489Y145465041D03*
%TD*%
D19*
%TO.C,REF\u002A\u002A*%
X101049871Y17390377D03*
%TD*%
D18*
%TO.C,R48*%
X251281871Y60414453D03*
X251941871Y60414453D03*
%TD*%
D19*
%TO.C,REF\u002A\u002A*%
X130869871Y89710377D03*
%TD*%
D18*
%TO.C,R19*%
X132444299Y57523345D03*
X133104299Y57523345D03*
%TD*%
D20*
%TO.C,R108*%
X23719871Y29410377D03*
X24634871Y29410377D03*
%TD*%
D19*
%TO.C,REF\u002A\u002A*%
X204649871Y97510377D03*
%TD*%
D18*
%TO.C,R34*%
X246202679Y72188155D03*
X246862679Y72188155D03*
%TD*%
%TO.C,R31*%
X246202679Y161107041D03*
X246862679Y161107041D03*
%TD*%
%TO.C,R11*%
X132444299Y161107041D03*
X133104299Y161107041D03*
%TD*%
D20*
%TO.C,R112*%
X236359871Y46930377D03*
X237274871Y46930377D03*
%TD*%
D19*
%TO.C,REF\u002A\u002A*%
X115599871Y95110377D03*
%TD*%
D18*
%TO.C,R30*%
X33923489Y134710377D03*
X34583489Y134710377D03*
%TD*%
D19*
%TO.C,REF\u002A\u002A*%
X306049871Y97510377D03*
%TD*%
%TO.C,REF\u002A\u002A*%
X202449871Y97510377D03*
%TD*%
%TO.C,REF\u002A\u002A*%
X219199871Y169830377D03*
%TD*%
D18*
%TO.C,R25*%
X33923489Y149375193D03*
X34583489Y149375193D03*
%TD*%
D19*
%TO.C,REF\u002A\u002A*%
X306049871Y89710377D03*
%TD*%
%TO.C,REF\u002A\u002A*%
X317399871Y165580377D03*
%TD*%
D18*
%TO.C,R5*%
X230965109Y69255193D03*
X231625109Y69255193D03*
%TD*%
D20*
%TO.C,R114*%
X29159871Y121210377D03*
X30074871Y121210377D03*
%TD*%
D25*
%TO.C,J2*%
X165341497Y126087041D03*
D26*
X167601489Y128887041D03*
X167601489Y123287041D03*
X171101489Y128887041D03*
X171101489Y123287041D03*
D25*
X173361481Y126087041D03*
D27*
X172101484Y127017039D03*
X171601485Y127017039D03*
X171101486Y127017039D03*
X170601487Y127017039D03*
X170101488Y127017039D03*
X169601489Y127017039D03*
X169101489Y127017039D03*
X168601490Y127017039D03*
X168101491Y127017039D03*
X167601492Y127017039D03*
X167101493Y127017039D03*
X166601494Y127017039D03*
X166601494Y125157043D03*
X167101493Y125157043D03*
X167601492Y125157043D03*
X168101491Y125157043D03*
X168601490Y125157043D03*
X169101489Y125157043D03*
X169601489Y125157043D03*
X170101488Y125157043D03*
X170601487Y125157043D03*
X171101486Y125157043D03*
X171601485Y125157043D03*
X172101484Y125157043D03*
%TD*%
M02*
